%TF.GenerationSoftware,KiCad,Pcbnew,10.0.0*%
%TF.CreationDate,2026-05-10T18:04:43+02:00*%
%TF.ProjectId,ns-clock-neo,6e732d63-6c6f-4636-9b2d-6e656f2e6b69,rev?*%
%TF.SameCoordinates,Original*%
%TF.FileFunction,Legend,Bot*%
%TF.FilePolarity,Positive*%
%FSLAX46Y46*%
G04 Gerber Fmt 4.6, Leading zero omitted, Abs format (unit mm)*
G04 Created by KiCad (PCBNEW 10.0.0) date 2026-05-10 18:04:43*
%MOMM*%
%LPD*%
G01*
G04 APERTURE LIST*
%ADD10C,0.200000*%
%ADD11C,0.175000*%
%ADD12C,0.250000*%
%ADD13C,0.300000*%
G04 APERTURE END LIST*
D10*
X97790000Y-40640000D02*
X100330000Y-40640000D01*
X100330000Y-76200000D01*
X97790000Y-76200000D01*
X97790000Y-40640000D01*
X106930000Y-39890000D02*
G75*
G02*
X104390000Y-39890000I-1270000J0D01*
G01*
X113030000Y-40640000D02*
X115570000Y-40640000D01*
X115570000Y-76200000D01*
X113030000Y-76200000D01*
X113030000Y-40640000D01*
X117830000Y-50720000D02*
X120370000Y-50720000D01*
X120370000Y-86280000D01*
X117830000Y-86280000D01*
X117830000Y-50720000D01*
X129289070Y-39807450D02*
G75*
G02*
X126749070Y-39807450I-1270000J0D01*
G01*
X133070000Y-50750000D02*
X135610000Y-50750000D01*
X135610000Y-86310000D01*
X133070000Y-86310000D01*
X133070000Y-50750000D01*
D11*
X109094536Y-83103994D02*
X109061203Y-83070660D01*
X109061203Y-83070660D02*
X108994536Y-83037327D01*
X108994536Y-83037327D02*
X108827870Y-83037327D01*
X108827870Y-83037327D02*
X108761203Y-83070660D01*
X108761203Y-83070660D02*
X108727870Y-83103994D01*
X108727870Y-83103994D02*
X108694536Y-83170660D01*
X108694536Y-83170660D02*
X108694536Y-83237327D01*
X108694536Y-83237327D02*
X108727870Y-83337327D01*
X108727870Y-83337327D02*
X109127870Y-83737327D01*
X109127870Y-83737327D02*
X108694536Y-83737327D01*
X108094536Y-83270660D02*
X108094536Y-83737327D01*
X108261203Y-83003994D02*
X108427869Y-83503994D01*
X108427869Y-83503994D02*
X107994536Y-83503994D01*
X107227869Y-83003994D02*
X107827869Y-83903994D01*
X106861203Y-83037327D02*
X106794536Y-83037327D01*
X106794536Y-83037327D02*
X106727869Y-83070660D01*
X106727869Y-83070660D02*
X106694536Y-83103994D01*
X106694536Y-83103994D02*
X106661203Y-83170660D01*
X106661203Y-83170660D02*
X106627869Y-83303994D01*
X106627869Y-83303994D02*
X106627869Y-83470660D01*
X106627869Y-83470660D02*
X106661203Y-83603994D01*
X106661203Y-83603994D02*
X106694536Y-83670660D01*
X106694536Y-83670660D02*
X106727869Y-83703994D01*
X106727869Y-83703994D02*
X106794536Y-83737327D01*
X106794536Y-83737327D02*
X106861203Y-83737327D01*
X106861203Y-83737327D02*
X106927869Y-83703994D01*
X106927869Y-83703994D02*
X106961203Y-83670660D01*
X106961203Y-83670660D02*
X106994536Y-83603994D01*
X106994536Y-83603994D02*
X107027869Y-83470660D01*
X107027869Y-83470660D02*
X107027869Y-83303994D01*
X107027869Y-83303994D02*
X106994536Y-83170660D01*
X106994536Y-83170660D02*
X106961203Y-83103994D01*
X106961203Y-83103994D02*
X106927869Y-83070660D01*
X106927869Y-83070660D02*
X106861203Y-83037327D01*
X106027869Y-83270660D02*
X106027869Y-83737327D01*
X106194536Y-83003994D02*
X106361202Y-83503994D01*
X106361202Y-83503994D02*
X105927869Y-83503994D01*
X105161202Y-83003994D02*
X105761202Y-83903994D01*
X104961202Y-83103994D02*
X104927869Y-83070660D01*
X104927869Y-83070660D02*
X104861202Y-83037327D01*
X104861202Y-83037327D02*
X104694536Y-83037327D01*
X104694536Y-83037327D02*
X104627869Y-83070660D01*
X104627869Y-83070660D02*
X104594536Y-83103994D01*
X104594536Y-83103994D02*
X104561202Y-83170660D01*
X104561202Y-83170660D02*
X104561202Y-83237327D01*
X104561202Y-83237327D02*
X104594536Y-83337327D01*
X104594536Y-83337327D02*
X104994536Y-83737327D01*
X104994536Y-83737327D02*
X104561202Y-83737327D01*
X104127869Y-83037327D02*
X104061202Y-83037327D01*
X104061202Y-83037327D02*
X103994535Y-83070660D01*
X103994535Y-83070660D02*
X103961202Y-83103994D01*
X103961202Y-83103994D02*
X103927869Y-83170660D01*
X103927869Y-83170660D02*
X103894535Y-83303994D01*
X103894535Y-83303994D02*
X103894535Y-83470660D01*
X103894535Y-83470660D02*
X103927869Y-83603994D01*
X103927869Y-83603994D02*
X103961202Y-83670660D01*
X103961202Y-83670660D02*
X103994535Y-83703994D01*
X103994535Y-83703994D02*
X104061202Y-83737327D01*
X104061202Y-83737327D02*
X104127869Y-83737327D01*
X104127869Y-83737327D02*
X104194535Y-83703994D01*
X104194535Y-83703994D02*
X104227869Y-83670660D01*
X104227869Y-83670660D02*
X104261202Y-83603994D01*
X104261202Y-83603994D02*
X104294535Y-83470660D01*
X104294535Y-83470660D02*
X104294535Y-83303994D01*
X104294535Y-83303994D02*
X104261202Y-83170660D01*
X104261202Y-83170660D02*
X104227869Y-83103994D01*
X104227869Y-83103994D02*
X104194535Y-83070660D01*
X104194535Y-83070660D02*
X104127869Y-83037327D01*
X103627868Y-83103994D02*
X103594535Y-83070660D01*
X103594535Y-83070660D02*
X103527868Y-83037327D01*
X103527868Y-83037327D02*
X103361202Y-83037327D01*
X103361202Y-83037327D02*
X103294535Y-83070660D01*
X103294535Y-83070660D02*
X103261202Y-83103994D01*
X103261202Y-83103994D02*
X103227868Y-83170660D01*
X103227868Y-83170660D02*
X103227868Y-83237327D01*
X103227868Y-83237327D02*
X103261202Y-83337327D01*
X103261202Y-83337327D02*
X103661202Y-83737327D01*
X103661202Y-83737327D02*
X103227868Y-83737327D01*
X102627868Y-83037327D02*
X102761201Y-83037327D01*
X102761201Y-83037327D02*
X102827868Y-83070660D01*
X102827868Y-83070660D02*
X102861201Y-83103994D01*
X102861201Y-83103994D02*
X102927868Y-83203994D01*
X102927868Y-83203994D02*
X102961201Y-83337327D01*
X102961201Y-83337327D02*
X102961201Y-83603994D01*
X102961201Y-83603994D02*
X102927868Y-83670660D01*
X102927868Y-83670660D02*
X102894535Y-83703994D01*
X102894535Y-83703994D02*
X102827868Y-83737327D01*
X102827868Y-83737327D02*
X102694535Y-83737327D01*
X102694535Y-83737327D02*
X102627868Y-83703994D01*
X102627868Y-83703994D02*
X102594535Y-83670660D01*
X102594535Y-83670660D02*
X102561201Y-83603994D01*
X102561201Y-83603994D02*
X102561201Y-83437327D01*
X102561201Y-83437327D02*
X102594535Y-83370660D01*
X102594535Y-83370660D02*
X102627868Y-83337327D01*
X102627868Y-83337327D02*
X102694535Y-83303994D01*
X102694535Y-83303994D02*
X102827868Y-83303994D01*
X102827868Y-83303994D02*
X102894535Y-83337327D01*
X102894535Y-83337327D02*
X102927868Y-83370660D01*
X102927868Y-83370660D02*
X102961201Y-83437327D01*
X124588464Y-44228100D02*
X124621797Y-44261433D01*
X124621797Y-44261433D02*
X124688464Y-44294766D01*
X124688464Y-44294766D02*
X124855131Y-44294766D01*
X124855131Y-44294766D02*
X124921797Y-44261433D01*
X124921797Y-44261433D02*
X124955131Y-44228100D01*
X124955131Y-44228100D02*
X124988464Y-44161433D01*
X124988464Y-44161433D02*
X124988464Y-44094766D01*
X124988464Y-44094766D02*
X124955131Y-43994766D01*
X124955131Y-43994766D02*
X124555131Y-43594766D01*
X124555131Y-43594766D02*
X124988464Y-43594766D01*
X125588464Y-44061433D02*
X125588464Y-43594766D01*
X125421798Y-44328100D02*
X125255131Y-43828100D01*
X125255131Y-43828100D02*
X125688464Y-43828100D01*
X126455131Y-44328100D02*
X125855131Y-43428100D01*
X126821798Y-44294766D02*
X126888464Y-44294766D01*
X126888464Y-44294766D02*
X126955131Y-44261433D01*
X126955131Y-44261433D02*
X126988464Y-44228100D01*
X126988464Y-44228100D02*
X127021798Y-44161433D01*
X127021798Y-44161433D02*
X127055131Y-44028100D01*
X127055131Y-44028100D02*
X127055131Y-43861433D01*
X127055131Y-43861433D02*
X127021798Y-43728100D01*
X127021798Y-43728100D02*
X126988464Y-43661433D01*
X126988464Y-43661433D02*
X126955131Y-43628100D01*
X126955131Y-43628100D02*
X126888464Y-43594766D01*
X126888464Y-43594766D02*
X126821798Y-43594766D01*
X126821798Y-43594766D02*
X126755131Y-43628100D01*
X126755131Y-43628100D02*
X126721798Y-43661433D01*
X126721798Y-43661433D02*
X126688464Y-43728100D01*
X126688464Y-43728100D02*
X126655131Y-43861433D01*
X126655131Y-43861433D02*
X126655131Y-44028100D01*
X126655131Y-44028100D02*
X126688464Y-44161433D01*
X126688464Y-44161433D02*
X126721798Y-44228100D01*
X126721798Y-44228100D02*
X126755131Y-44261433D01*
X126755131Y-44261433D02*
X126821798Y-44294766D01*
X127655131Y-44061433D02*
X127655131Y-43594766D01*
X127488465Y-44328100D02*
X127321798Y-43828100D01*
X127321798Y-43828100D02*
X127755131Y-43828100D01*
X128521798Y-44328100D02*
X127921798Y-43428100D01*
X128721798Y-44228100D02*
X128755131Y-44261433D01*
X128755131Y-44261433D02*
X128821798Y-44294766D01*
X128821798Y-44294766D02*
X128988465Y-44294766D01*
X128988465Y-44294766D02*
X129055131Y-44261433D01*
X129055131Y-44261433D02*
X129088465Y-44228100D01*
X129088465Y-44228100D02*
X129121798Y-44161433D01*
X129121798Y-44161433D02*
X129121798Y-44094766D01*
X129121798Y-44094766D02*
X129088465Y-43994766D01*
X129088465Y-43994766D02*
X128688465Y-43594766D01*
X128688465Y-43594766D02*
X129121798Y-43594766D01*
X129555132Y-44294766D02*
X129621798Y-44294766D01*
X129621798Y-44294766D02*
X129688465Y-44261433D01*
X129688465Y-44261433D02*
X129721798Y-44228100D01*
X129721798Y-44228100D02*
X129755132Y-44161433D01*
X129755132Y-44161433D02*
X129788465Y-44028100D01*
X129788465Y-44028100D02*
X129788465Y-43861433D01*
X129788465Y-43861433D02*
X129755132Y-43728100D01*
X129755132Y-43728100D02*
X129721798Y-43661433D01*
X129721798Y-43661433D02*
X129688465Y-43628100D01*
X129688465Y-43628100D02*
X129621798Y-43594766D01*
X129621798Y-43594766D02*
X129555132Y-43594766D01*
X129555132Y-43594766D02*
X129488465Y-43628100D01*
X129488465Y-43628100D02*
X129455132Y-43661433D01*
X129455132Y-43661433D02*
X129421798Y-43728100D01*
X129421798Y-43728100D02*
X129388465Y-43861433D01*
X129388465Y-43861433D02*
X129388465Y-44028100D01*
X129388465Y-44028100D02*
X129421798Y-44161433D01*
X129421798Y-44161433D02*
X129455132Y-44228100D01*
X129455132Y-44228100D02*
X129488465Y-44261433D01*
X129488465Y-44261433D02*
X129555132Y-44294766D01*
X130055132Y-44228100D02*
X130088465Y-44261433D01*
X130088465Y-44261433D02*
X130155132Y-44294766D01*
X130155132Y-44294766D02*
X130321799Y-44294766D01*
X130321799Y-44294766D02*
X130388465Y-44261433D01*
X130388465Y-44261433D02*
X130421799Y-44228100D01*
X130421799Y-44228100D02*
X130455132Y-44161433D01*
X130455132Y-44161433D02*
X130455132Y-44094766D01*
X130455132Y-44094766D02*
X130421799Y-43994766D01*
X130421799Y-43994766D02*
X130021799Y-43594766D01*
X130021799Y-43594766D02*
X130455132Y-43594766D01*
X131055132Y-44294766D02*
X130921799Y-44294766D01*
X130921799Y-44294766D02*
X130855132Y-44261433D01*
X130855132Y-44261433D02*
X130821799Y-44228100D01*
X130821799Y-44228100D02*
X130755132Y-44128100D01*
X130755132Y-44128100D02*
X130721799Y-43994766D01*
X130721799Y-43994766D02*
X130721799Y-43728100D01*
X130721799Y-43728100D02*
X130755132Y-43661433D01*
X130755132Y-43661433D02*
X130788466Y-43628100D01*
X130788466Y-43628100D02*
X130855132Y-43594766D01*
X130855132Y-43594766D02*
X130988466Y-43594766D01*
X130988466Y-43594766D02*
X131055132Y-43628100D01*
X131055132Y-43628100D02*
X131088466Y-43661433D01*
X131088466Y-43661433D02*
X131121799Y-43728100D01*
X131121799Y-43728100D02*
X131121799Y-43894766D01*
X131121799Y-43894766D02*
X131088466Y-43961433D01*
X131088466Y-43961433D02*
X131055132Y-43994766D01*
X131055132Y-43994766D02*
X130988466Y-44028100D01*
X130988466Y-44028100D02*
X130855132Y-44028100D01*
X130855132Y-44028100D02*
X130788466Y-43994766D01*
X130788466Y-43994766D02*
X130755132Y-43961433D01*
X130755132Y-43961433D02*
X130721799Y-43894766D01*
D12*
X102154619Y-51932568D02*
X101154619Y-51932568D01*
X102154619Y-52361139D02*
X101630809Y-52361139D01*
X101630809Y-52361139D02*
X101535571Y-52313520D01*
X101535571Y-52313520D02*
X101487952Y-52218282D01*
X101487952Y-52218282D02*
X101487952Y-52075425D01*
X101487952Y-52075425D02*
X101535571Y-51980187D01*
X101535571Y-51980187D02*
X101583190Y-51932568D01*
X101487952Y-52694473D02*
X101487952Y-53075425D01*
X101154619Y-52837330D02*
X102011761Y-52837330D01*
X102011761Y-52837330D02*
X102107000Y-52884949D01*
X102107000Y-52884949D02*
X102154619Y-52980187D01*
X102154619Y-52980187D02*
X102154619Y-53075425D01*
X101487952Y-53265902D02*
X101487952Y-53646854D01*
X101154619Y-53408759D02*
X102011761Y-53408759D01*
X102011761Y-53408759D02*
X102107000Y-53456378D01*
X102107000Y-53456378D02*
X102154619Y-53551616D01*
X102154619Y-53551616D02*
X102154619Y-53646854D01*
X101487952Y-53980188D02*
X102487952Y-53980188D01*
X101535571Y-53980188D02*
X101487952Y-54075426D01*
X101487952Y-54075426D02*
X101487952Y-54265902D01*
X101487952Y-54265902D02*
X101535571Y-54361140D01*
X101535571Y-54361140D02*
X101583190Y-54408759D01*
X101583190Y-54408759D02*
X101678428Y-54456378D01*
X101678428Y-54456378D02*
X101964142Y-54456378D01*
X101964142Y-54456378D02*
X102059380Y-54408759D01*
X102059380Y-54408759D02*
X102107000Y-54361140D01*
X102107000Y-54361140D02*
X102154619Y-54265902D01*
X102154619Y-54265902D02*
X102154619Y-54075426D01*
X102154619Y-54075426D02*
X102107000Y-53980188D01*
X102107000Y-54837331D02*
X102154619Y-54932569D01*
X102154619Y-54932569D02*
X102154619Y-55123045D01*
X102154619Y-55123045D02*
X102107000Y-55218283D01*
X102107000Y-55218283D02*
X102011761Y-55265902D01*
X102011761Y-55265902D02*
X101964142Y-55265902D01*
X101964142Y-55265902D02*
X101868904Y-55218283D01*
X101868904Y-55218283D02*
X101821285Y-55123045D01*
X101821285Y-55123045D02*
X101821285Y-54980188D01*
X101821285Y-54980188D02*
X101773666Y-54884950D01*
X101773666Y-54884950D02*
X101678428Y-54837331D01*
X101678428Y-54837331D02*
X101630809Y-54837331D01*
X101630809Y-54837331D02*
X101535571Y-54884950D01*
X101535571Y-54884950D02*
X101487952Y-54980188D01*
X101487952Y-54980188D02*
X101487952Y-55123045D01*
X101487952Y-55123045D02*
X101535571Y-55218283D01*
X102059380Y-55694474D02*
X102107000Y-55742093D01*
X102107000Y-55742093D02*
X102154619Y-55694474D01*
X102154619Y-55694474D02*
X102107000Y-55646855D01*
X102107000Y-55646855D02*
X102059380Y-55694474D01*
X102059380Y-55694474D02*
X102154619Y-55694474D01*
X101535571Y-55694474D02*
X101583190Y-55742093D01*
X101583190Y-55742093D02*
X101630809Y-55694474D01*
X101630809Y-55694474D02*
X101583190Y-55646855D01*
X101583190Y-55646855D02*
X101535571Y-55694474D01*
X101535571Y-55694474D02*
X101630809Y-55694474D01*
X101107000Y-56884949D02*
X102392714Y-56027807D01*
X101107000Y-57932568D02*
X102392714Y-57075426D01*
X101487952Y-58694473D02*
X102297476Y-58694473D01*
X102297476Y-58694473D02*
X102392714Y-58646854D01*
X102392714Y-58646854D02*
X102440333Y-58599235D01*
X102440333Y-58599235D02*
X102487952Y-58503997D01*
X102487952Y-58503997D02*
X102487952Y-58361140D01*
X102487952Y-58361140D02*
X102440333Y-58265902D01*
X102107000Y-58694473D02*
X102154619Y-58599235D01*
X102154619Y-58599235D02*
X102154619Y-58408759D01*
X102154619Y-58408759D02*
X102107000Y-58313521D01*
X102107000Y-58313521D02*
X102059380Y-58265902D01*
X102059380Y-58265902D02*
X101964142Y-58218283D01*
X101964142Y-58218283D02*
X101678428Y-58218283D01*
X101678428Y-58218283D02*
X101583190Y-58265902D01*
X101583190Y-58265902D02*
X101535571Y-58313521D01*
X101535571Y-58313521D02*
X101487952Y-58408759D01*
X101487952Y-58408759D02*
X101487952Y-58599235D01*
X101487952Y-58599235D02*
X101535571Y-58694473D01*
X102154619Y-59170664D02*
X101487952Y-59170664D01*
X101154619Y-59170664D02*
X101202238Y-59123045D01*
X101202238Y-59123045D02*
X101249857Y-59170664D01*
X101249857Y-59170664D02*
X101202238Y-59218283D01*
X101202238Y-59218283D02*
X101154619Y-59170664D01*
X101154619Y-59170664D02*
X101249857Y-59170664D01*
X101487952Y-59503997D02*
X101487952Y-59884949D01*
X101154619Y-59646854D02*
X102011761Y-59646854D01*
X102011761Y-59646854D02*
X102107000Y-59694473D01*
X102107000Y-59694473D02*
X102154619Y-59789711D01*
X102154619Y-59789711D02*
X102154619Y-59884949D01*
X102154619Y-60218283D02*
X101154619Y-60218283D01*
X102154619Y-60646854D02*
X101630809Y-60646854D01*
X101630809Y-60646854D02*
X101535571Y-60599235D01*
X101535571Y-60599235D02*
X101487952Y-60503997D01*
X101487952Y-60503997D02*
X101487952Y-60361140D01*
X101487952Y-60361140D02*
X101535571Y-60265902D01*
X101535571Y-60265902D02*
X101583190Y-60218283D01*
X101487952Y-61551616D02*
X102154619Y-61551616D01*
X101487952Y-61123045D02*
X102011761Y-61123045D01*
X102011761Y-61123045D02*
X102107000Y-61170664D01*
X102107000Y-61170664D02*
X102154619Y-61265902D01*
X102154619Y-61265902D02*
X102154619Y-61408759D01*
X102154619Y-61408759D02*
X102107000Y-61503997D01*
X102107000Y-61503997D02*
X102059380Y-61551616D01*
X102154619Y-62027807D02*
X101154619Y-62027807D01*
X101535571Y-62027807D02*
X101487952Y-62123045D01*
X101487952Y-62123045D02*
X101487952Y-62313521D01*
X101487952Y-62313521D02*
X101535571Y-62408759D01*
X101535571Y-62408759D02*
X101583190Y-62456378D01*
X101583190Y-62456378D02*
X101678428Y-62503997D01*
X101678428Y-62503997D02*
X101964142Y-62503997D01*
X101964142Y-62503997D02*
X102059380Y-62456378D01*
X102059380Y-62456378D02*
X102107000Y-62408759D01*
X102107000Y-62408759D02*
X102154619Y-62313521D01*
X102154619Y-62313521D02*
X102154619Y-62123045D01*
X102154619Y-62123045D02*
X102107000Y-62027807D01*
X102059380Y-62932569D02*
X102107000Y-62980188D01*
X102107000Y-62980188D02*
X102154619Y-62932569D01*
X102154619Y-62932569D02*
X102107000Y-62884950D01*
X102107000Y-62884950D02*
X102059380Y-62932569D01*
X102059380Y-62932569D02*
X102154619Y-62932569D01*
X102107000Y-63837330D02*
X102154619Y-63742092D01*
X102154619Y-63742092D02*
X102154619Y-63551616D01*
X102154619Y-63551616D02*
X102107000Y-63456378D01*
X102107000Y-63456378D02*
X102059380Y-63408759D01*
X102059380Y-63408759D02*
X101964142Y-63361140D01*
X101964142Y-63361140D02*
X101678428Y-63361140D01*
X101678428Y-63361140D02*
X101583190Y-63408759D01*
X101583190Y-63408759D02*
X101535571Y-63456378D01*
X101535571Y-63456378D02*
X101487952Y-63551616D01*
X101487952Y-63551616D02*
X101487952Y-63742092D01*
X101487952Y-63742092D02*
X101535571Y-63837330D01*
X102154619Y-64408759D02*
X102107000Y-64313521D01*
X102107000Y-64313521D02*
X102059380Y-64265902D01*
X102059380Y-64265902D02*
X101964142Y-64218283D01*
X101964142Y-64218283D02*
X101678428Y-64218283D01*
X101678428Y-64218283D02*
X101583190Y-64265902D01*
X101583190Y-64265902D02*
X101535571Y-64313521D01*
X101535571Y-64313521D02*
X101487952Y-64408759D01*
X101487952Y-64408759D02*
X101487952Y-64551616D01*
X101487952Y-64551616D02*
X101535571Y-64646854D01*
X101535571Y-64646854D02*
X101583190Y-64694473D01*
X101583190Y-64694473D02*
X101678428Y-64742092D01*
X101678428Y-64742092D02*
X101964142Y-64742092D01*
X101964142Y-64742092D02*
X102059380Y-64694473D01*
X102059380Y-64694473D02*
X102107000Y-64646854D01*
X102107000Y-64646854D02*
X102154619Y-64551616D01*
X102154619Y-64551616D02*
X102154619Y-64408759D01*
X102154619Y-65170664D02*
X101487952Y-65170664D01*
X101583190Y-65170664D02*
X101535571Y-65218283D01*
X101535571Y-65218283D02*
X101487952Y-65313521D01*
X101487952Y-65313521D02*
X101487952Y-65456378D01*
X101487952Y-65456378D02*
X101535571Y-65551616D01*
X101535571Y-65551616D02*
X101630809Y-65599235D01*
X101630809Y-65599235D02*
X102154619Y-65599235D01*
X101630809Y-65599235D02*
X101535571Y-65646854D01*
X101535571Y-65646854D02*
X101487952Y-65742092D01*
X101487952Y-65742092D02*
X101487952Y-65884949D01*
X101487952Y-65884949D02*
X101535571Y-65980188D01*
X101535571Y-65980188D02*
X101630809Y-66027807D01*
X101630809Y-66027807D02*
X102154619Y-66027807D01*
X101107000Y-67218282D02*
X102392714Y-66361140D01*
X101487952Y-67551616D02*
X102487952Y-67551616D01*
X101535571Y-67551616D02*
X101487952Y-67646854D01*
X101487952Y-67646854D02*
X101487952Y-67837330D01*
X101487952Y-67837330D02*
X101535571Y-67932568D01*
X101535571Y-67932568D02*
X101583190Y-67980187D01*
X101583190Y-67980187D02*
X101678428Y-68027806D01*
X101678428Y-68027806D02*
X101964142Y-68027806D01*
X101964142Y-68027806D02*
X102059380Y-67980187D01*
X102059380Y-67980187D02*
X102107000Y-67932568D01*
X102107000Y-67932568D02*
X102154619Y-67837330D01*
X102154619Y-67837330D02*
X102154619Y-67646854D01*
X102154619Y-67646854D02*
X102107000Y-67551616D01*
X102154619Y-68884949D02*
X101630809Y-68884949D01*
X101630809Y-68884949D02*
X101535571Y-68837330D01*
X101535571Y-68837330D02*
X101487952Y-68742092D01*
X101487952Y-68742092D02*
X101487952Y-68551616D01*
X101487952Y-68551616D02*
X101535571Y-68456378D01*
X102107000Y-68884949D02*
X102154619Y-68789711D01*
X102154619Y-68789711D02*
X102154619Y-68551616D01*
X102154619Y-68551616D02*
X102107000Y-68456378D01*
X102107000Y-68456378D02*
X102011761Y-68408759D01*
X102011761Y-68408759D02*
X101916523Y-68408759D01*
X101916523Y-68408759D02*
X101821285Y-68456378D01*
X101821285Y-68456378D02*
X101773666Y-68551616D01*
X101773666Y-68551616D02*
X101773666Y-68789711D01*
X101773666Y-68789711D02*
X101726047Y-68884949D01*
X101487952Y-69218283D02*
X101487952Y-69599235D01*
X101154619Y-69361140D02*
X102011761Y-69361140D01*
X102011761Y-69361140D02*
X102107000Y-69408759D01*
X102107000Y-69408759D02*
X102154619Y-69503997D01*
X102154619Y-69503997D02*
X102154619Y-69599235D01*
X102154619Y-70361140D02*
X101154619Y-70361140D01*
X102107000Y-70361140D02*
X102154619Y-70265902D01*
X102154619Y-70265902D02*
X102154619Y-70075426D01*
X102154619Y-70075426D02*
X102107000Y-69980188D01*
X102107000Y-69980188D02*
X102059380Y-69932569D01*
X102059380Y-69932569D02*
X101964142Y-69884950D01*
X101964142Y-69884950D02*
X101678428Y-69884950D01*
X101678428Y-69884950D02*
X101583190Y-69932569D01*
X101583190Y-69932569D02*
X101535571Y-69980188D01*
X101535571Y-69980188D02*
X101487952Y-70075426D01*
X101487952Y-70075426D02*
X101487952Y-70265902D01*
X101487952Y-70265902D02*
X101535571Y-70361140D01*
X102154619Y-70837331D02*
X101487952Y-70837331D01*
X101154619Y-70837331D02*
X101202238Y-70789712D01*
X101202238Y-70789712D02*
X101249857Y-70837331D01*
X101249857Y-70837331D02*
X101202238Y-70884950D01*
X101202238Y-70884950D02*
X101154619Y-70837331D01*
X101154619Y-70837331D02*
X101249857Y-70837331D01*
X102107000Y-71694473D02*
X102154619Y-71599235D01*
X102154619Y-71599235D02*
X102154619Y-71408759D01*
X102154619Y-71408759D02*
X102107000Y-71313521D01*
X102107000Y-71313521D02*
X102011761Y-71265902D01*
X102011761Y-71265902D02*
X101630809Y-71265902D01*
X101630809Y-71265902D02*
X101535571Y-71313521D01*
X101535571Y-71313521D02*
X101487952Y-71408759D01*
X101487952Y-71408759D02*
X101487952Y-71599235D01*
X101487952Y-71599235D02*
X101535571Y-71694473D01*
X101535571Y-71694473D02*
X101630809Y-71742092D01*
X101630809Y-71742092D02*
X101726047Y-71742092D01*
X101726047Y-71742092D02*
X101821285Y-71265902D01*
X101487952Y-72599235D02*
X102154619Y-72599235D01*
X101107000Y-72361140D02*
X101821285Y-72123045D01*
X101821285Y-72123045D02*
X101821285Y-72742092D01*
X101249857Y-73075426D02*
X101202238Y-73123045D01*
X101202238Y-73123045D02*
X101154619Y-73218283D01*
X101154619Y-73218283D02*
X101154619Y-73456378D01*
X101154619Y-73456378D02*
X101202238Y-73551616D01*
X101202238Y-73551616D02*
X101249857Y-73599235D01*
X101249857Y-73599235D02*
X101345095Y-73646854D01*
X101345095Y-73646854D02*
X101440333Y-73646854D01*
X101440333Y-73646854D02*
X101583190Y-73599235D01*
X101583190Y-73599235D02*
X102154619Y-73027807D01*
X102154619Y-73027807D02*
X102154619Y-73646854D01*
X102154619Y-74599235D02*
X102154619Y-74027807D01*
X102154619Y-74313521D02*
X101154619Y-74313521D01*
X101154619Y-74313521D02*
X101297476Y-74218283D01*
X101297476Y-74218283D02*
X101392714Y-74123045D01*
X101392714Y-74123045D02*
X101440333Y-74027807D01*
X124330619Y-54196568D02*
X123330619Y-54196568D01*
X124330619Y-54625139D02*
X123806809Y-54625139D01*
X123806809Y-54625139D02*
X123711571Y-54577520D01*
X123711571Y-54577520D02*
X123663952Y-54482282D01*
X123663952Y-54482282D02*
X123663952Y-54339425D01*
X123663952Y-54339425D02*
X123711571Y-54244187D01*
X123711571Y-54244187D02*
X123759190Y-54196568D01*
X123663952Y-54958473D02*
X123663952Y-55339425D01*
X123330619Y-55101330D02*
X124187761Y-55101330D01*
X124187761Y-55101330D02*
X124283000Y-55148949D01*
X124283000Y-55148949D02*
X124330619Y-55244187D01*
X124330619Y-55244187D02*
X124330619Y-55339425D01*
X123663952Y-55529902D02*
X123663952Y-55910854D01*
X123330619Y-55672759D02*
X124187761Y-55672759D01*
X124187761Y-55672759D02*
X124283000Y-55720378D01*
X124283000Y-55720378D02*
X124330619Y-55815616D01*
X124330619Y-55815616D02*
X124330619Y-55910854D01*
X123663952Y-56244188D02*
X124663952Y-56244188D01*
X123711571Y-56244188D02*
X123663952Y-56339426D01*
X123663952Y-56339426D02*
X123663952Y-56529902D01*
X123663952Y-56529902D02*
X123711571Y-56625140D01*
X123711571Y-56625140D02*
X123759190Y-56672759D01*
X123759190Y-56672759D02*
X123854428Y-56720378D01*
X123854428Y-56720378D02*
X124140142Y-56720378D01*
X124140142Y-56720378D02*
X124235380Y-56672759D01*
X124235380Y-56672759D02*
X124283000Y-56625140D01*
X124283000Y-56625140D02*
X124330619Y-56529902D01*
X124330619Y-56529902D02*
X124330619Y-56339426D01*
X124330619Y-56339426D02*
X124283000Y-56244188D01*
X124283000Y-57101331D02*
X124330619Y-57196569D01*
X124330619Y-57196569D02*
X124330619Y-57387045D01*
X124330619Y-57387045D02*
X124283000Y-57482283D01*
X124283000Y-57482283D02*
X124187761Y-57529902D01*
X124187761Y-57529902D02*
X124140142Y-57529902D01*
X124140142Y-57529902D02*
X124044904Y-57482283D01*
X124044904Y-57482283D02*
X123997285Y-57387045D01*
X123997285Y-57387045D02*
X123997285Y-57244188D01*
X123997285Y-57244188D02*
X123949666Y-57148950D01*
X123949666Y-57148950D02*
X123854428Y-57101331D01*
X123854428Y-57101331D02*
X123806809Y-57101331D01*
X123806809Y-57101331D02*
X123711571Y-57148950D01*
X123711571Y-57148950D02*
X123663952Y-57244188D01*
X123663952Y-57244188D02*
X123663952Y-57387045D01*
X123663952Y-57387045D02*
X123711571Y-57482283D01*
X124235380Y-57958474D02*
X124283000Y-58006093D01*
X124283000Y-58006093D02*
X124330619Y-57958474D01*
X124330619Y-57958474D02*
X124283000Y-57910855D01*
X124283000Y-57910855D02*
X124235380Y-57958474D01*
X124235380Y-57958474D02*
X124330619Y-57958474D01*
X123711571Y-57958474D02*
X123759190Y-58006093D01*
X123759190Y-58006093D02*
X123806809Y-57958474D01*
X123806809Y-57958474D02*
X123759190Y-57910855D01*
X123759190Y-57910855D02*
X123711571Y-57958474D01*
X123711571Y-57958474D02*
X123806809Y-57958474D01*
X123283000Y-59148949D02*
X124568714Y-58291807D01*
X123283000Y-60196568D02*
X124568714Y-59339426D01*
X123663952Y-60958473D02*
X124473476Y-60958473D01*
X124473476Y-60958473D02*
X124568714Y-60910854D01*
X124568714Y-60910854D02*
X124616333Y-60863235D01*
X124616333Y-60863235D02*
X124663952Y-60767997D01*
X124663952Y-60767997D02*
X124663952Y-60625140D01*
X124663952Y-60625140D02*
X124616333Y-60529902D01*
X124283000Y-60958473D02*
X124330619Y-60863235D01*
X124330619Y-60863235D02*
X124330619Y-60672759D01*
X124330619Y-60672759D02*
X124283000Y-60577521D01*
X124283000Y-60577521D02*
X124235380Y-60529902D01*
X124235380Y-60529902D02*
X124140142Y-60482283D01*
X124140142Y-60482283D02*
X123854428Y-60482283D01*
X123854428Y-60482283D02*
X123759190Y-60529902D01*
X123759190Y-60529902D02*
X123711571Y-60577521D01*
X123711571Y-60577521D02*
X123663952Y-60672759D01*
X123663952Y-60672759D02*
X123663952Y-60863235D01*
X123663952Y-60863235D02*
X123711571Y-60958473D01*
X124330619Y-61434664D02*
X123663952Y-61434664D01*
X123330619Y-61434664D02*
X123378238Y-61387045D01*
X123378238Y-61387045D02*
X123425857Y-61434664D01*
X123425857Y-61434664D02*
X123378238Y-61482283D01*
X123378238Y-61482283D02*
X123330619Y-61434664D01*
X123330619Y-61434664D02*
X123425857Y-61434664D01*
X123663952Y-61767997D02*
X123663952Y-62148949D01*
X123330619Y-61910854D02*
X124187761Y-61910854D01*
X124187761Y-61910854D02*
X124283000Y-61958473D01*
X124283000Y-61958473D02*
X124330619Y-62053711D01*
X124330619Y-62053711D02*
X124330619Y-62148949D01*
X124330619Y-62482283D02*
X123330619Y-62482283D01*
X124330619Y-62910854D02*
X123806809Y-62910854D01*
X123806809Y-62910854D02*
X123711571Y-62863235D01*
X123711571Y-62863235D02*
X123663952Y-62767997D01*
X123663952Y-62767997D02*
X123663952Y-62625140D01*
X123663952Y-62625140D02*
X123711571Y-62529902D01*
X123711571Y-62529902D02*
X123759190Y-62482283D01*
X123663952Y-63815616D02*
X124330619Y-63815616D01*
X123663952Y-63387045D02*
X124187761Y-63387045D01*
X124187761Y-63387045D02*
X124283000Y-63434664D01*
X124283000Y-63434664D02*
X124330619Y-63529902D01*
X124330619Y-63529902D02*
X124330619Y-63672759D01*
X124330619Y-63672759D02*
X124283000Y-63767997D01*
X124283000Y-63767997D02*
X124235380Y-63815616D01*
X124330619Y-64291807D02*
X123330619Y-64291807D01*
X123711571Y-64291807D02*
X123663952Y-64387045D01*
X123663952Y-64387045D02*
X123663952Y-64577521D01*
X123663952Y-64577521D02*
X123711571Y-64672759D01*
X123711571Y-64672759D02*
X123759190Y-64720378D01*
X123759190Y-64720378D02*
X123854428Y-64767997D01*
X123854428Y-64767997D02*
X124140142Y-64767997D01*
X124140142Y-64767997D02*
X124235380Y-64720378D01*
X124235380Y-64720378D02*
X124283000Y-64672759D01*
X124283000Y-64672759D02*
X124330619Y-64577521D01*
X124330619Y-64577521D02*
X124330619Y-64387045D01*
X124330619Y-64387045D02*
X124283000Y-64291807D01*
X124235380Y-65196569D02*
X124283000Y-65244188D01*
X124283000Y-65244188D02*
X124330619Y-65196569D01*
X124330619Y-65196569D02*
X124283000Y-65148950D01*
X124283000Y-65148950D02*
X124235380Y-65196569D01*
X124235380Y-65196569D02*
X124330619Y-65196569D01*
X124283000Y-66101330D02*
X124330619Y-66006092D01*
X124330619Y-66006092D02*
X124330619Y-65815616D01*
X124330619Y-65815616D02*
X124283000Y-65720378D01*
X124283000Y-65720378D02*
X124235380Y-65672759D01*
X124235380Y-65672759D02*
X124140142Y-65625140D01*
X124140142Y-65625140D02*
X123854428Y-65625140D01*
X123854428Y-65625140D02*
X123759190Y-65672759D01*
X123759190Y-65672759D02*
X123711571Y-65720378D01*
X123711571Y-65720378D02*
X123663952Y-65815616D01*
X123663952Y-65815616D02*
X123663952Y-66006092D01*
X123663952Y-66006092D02*
X123711571Y-66101330D01*
X124330619Y-66672759D02*
X124283000Y-66577521D01*
X124283000Y-66577521D02*
X124235380Y-66529902D01*
X124235380Y-66529902D02*
X124140142Y-66482283D01*
X124140142Y-66482283D02*
X123854428Y-66482283D01*
X123854428Y-66482283D02*
X123759190Y-66529902D01*
X123759190Y-66529902D02*
X123711571Y-66577521D01*
X123711571Y-66577521D02*
X123663952Y-66672759D01*
X123663952Y-66672759D02*
X123663952Y-66815616D01*
X123663952Y-66815616D02*
X123711571Y-66910854D01*
X123711571Y-66910854D02*
X123759190Y-66958473D01*
X123759190Y-66958473D02*
X123854428Y-67006092D01*
X123854428Y-67006092D02*
X124140142Y-67006092D01*
X124140142Y-67006092D02*
X124235380Y-66958473D01*
X124235380Y-66958473D02*
X124283000Y-66910854D01*
X124283000Y-66910854D02*
X124330619Y-66815616D01*
X124330619Y-66815616D02*
X124330619Y-66672759D01*
X124330619Y-67434664D02*
X123663952Y-67434664D01*
X123759190Y-67434664D02*
X123711571Y-67482283D01*
X123711571Y-67482283D02*
X123663952Y-67577521D01*
X123663952Y-67577521D02*
X123663952Y-67720378D01*
X123663952Y-67720378D02*
X123711571Y-67815616D01*
X123711571Y-67815616D02*
X123806809Y-67863235D01*
X123806809Y-67863235D02*
X124330619Y-67863235D01*
X123806809Y-67863235D02*
X123711571Y-67910854D01*
X123711571Y-67910854D02*
X123663952Y-68006092D01*
X123663952Y-68006092D02*
X123663952Y-68148949D01*
X123663952Y-68148949D02*
X123711571Y-68244188D01*
X123711571Y-68244188D02*
X123806809Y-68291807D01*
X123806809Y-68291807D02*
X124330619Y-68291807D01*
X123283000Y-69482282D02*
X124568714Y-68625140D01*
X123663952Y-69815616D02*
X124663952Y-69815616D01*
X123711571Y-69815616D02*
X123663952Y-69910854D01*
X123663952Y-69910854D02*
X123663952Y-70101330D01*
X123663952Y-70101330D02*
X123711571Y-70196568D01*
X123711571Y-70196568D02*
X123759190Y-70244187D01*
X123759190Y-70244187D02*
X123854428Y-70291806D01*
X123854428Y-70291806D02*
X124140142Y-70291806D01*
X124140142Y-70291806D02*
X124235380Y-70244187D01*
X124235380Y-70244187D02*
X124283000Y-70196568D01*
X124283000Y-70196568D02*
X124330619Y-70101330D01*
X124330619Y-70101330D02*
X124330619Y-69910854D01*
X124330619Y-69910854D02*
X124283000Y-69815616D01*
X124330619Y-71148949D02*
X123806809Y-71148949D01*
X123806809Y-71148949D02*
X123711571Y-71101330D01*
X123711571Y-71101330D02*
X123663952Y-71006092D01*
X123663952Y-71006092D02*
X123663952Y-70815616D01*
X123663952Y-70815616D02*
X123711571Y-70720378D01*
X124283000Y-71148949D02*
X124330619Y-71053711D01*
X124330619Y-71053711D02*
X124330619Y-70815616D01*
X124330619Y-70815616D02*
X124283000Y-70720378D01*
X124283000Y-70720378D02*
X124187761Y-70672759D01*
X124187761Y-70672759D02*
X124092523Y-70672759D01*
X124092523Y-70672759D02*
X123997285Y-70720378D01*
X123997285Y-70720378D02*
X123949666Y-70815616D01*
X123949666Y-70815616D02*
X123949666Y-71053711D01*
X123949666Y-71053711D02*
X123902047Y-71148949D01*
X123663952Y-71482283D02*
X123663952Y-71863235D01*
X123330619Y-71625140D02*
X124187761Y-71625140D01*
X124187761Y-71625140D02*
X124283000Y-71672759D01*
X124283000Y-71672759D02*
X124330619Y-71767997D01*
X124330619Y-71767997D02*
X124330619Y-71863235D01*
X124330619Y-72625140D02*
X123330619Y-72625140D01*
X124283000Y-72625140D02*
X124330619Y-72529902D01*
X124330619Y-72529902D02*
X124330619Y-72339426D01*
X124330619Y-72339426D02*
X124283000Y-72244188D01*
X124283000Y-72244188D02*
X124235380Y-72196569D01*
X124235380Y-72196569D02*
X124140142Y-72148950D01*
X124140142Y-72148950D02*
X123854428Y-72148950D01*
X123854428Y-72148950D02*
X123759190Y-72196569D01*
X123759190Y-72196569D02*
X123711571Y-72244188D01*
X123711571Y-72244188D02*
X123663952Y-72339426D01*
X123663952Y-72339426D02*
X123663952Y-72529902D01*
X123663952Y-72529902D02*
X123711571Y-72625140D01*
X124330619Y-73101331D02*
X123663952Y-73101331D01*
X123330619Y-73101331D02*
X123378238Y-73053712D01*
X123378238Y-73053712D02*
X123425857Y-73101331D01*
X123425857Y-73101331D02*
X123378238Y-73148950D01*
X123378238Y-73148950D02*
X123330619Y-73101331D01*
X123330619Y-73101331D02*
X123425857Y-73101331D01*
X124283000Y-73958473D02*
X124330619Y-73863235D01*
X124330619Y-73863235D02*
X124330619Y-73672759D01*
X124330619Y-73672759D02*
X124283000Y-73577521D01*
X124283000Y-73577521D02*
X124187761Y-73529902D01*
X124187761Y-73529902D02*
X123806809Y-73529902D01*
X123806809Y-73529902D02*
X123711571Y-73577521D01*
X123711571Y-73577521D02*
X123663952Y-73672759D01*
X123663952Y-73672759D02*
X123663952Y-73863235D01*
X123663952Y-73863235D02*
X123711571Y-73958473D01*
X123711571Y-73958473D02*
X123806809Y-74006092D01*
X123806809Y-74006092D02*
X123902047Y-74006092D01*
X123902047Y-74006092D02*
X123997285Y-73529902D01*
X123663952Y-74863235D02*
X124330619Y-74863235D01*
X123283000Y-74625140D02*
X123997285Y-74387045D01*
X123997285Y-74387045D02*
X123997285Y-75006092D01*
X123425857Y-75339426D02*
X123378238Y-75387045D01*
X123378238Y-75387045D02*
X123330619Y-75482283D01*
X123330619Y-75482283D02*
X123330619Y-75720378D01*
X123330619Y-75720378D02*
X123378238Y-75815616D01*
X123378238Y-75815616D02*
X123425857Y-75863235D01*
X123425857Y-75863235D02*
X123521095Y-75910854D01*
X123521095Y-75910854D02*
X123616333Y-75910854D01*
X123616333Y-75910854D02*
X123759190Y-75863235D01*
X123759190Y-75863235D02*
X124330619Y-75291807D01*
X124330619Y-75291807D02*
X124330619Y-75910854D01*
X124330619Y-76863235D02*
X124330619Y-76291807D01*
X124330619Y-76577521D02*
X123330619Y-76577521D01*
X123330619Y-76577521D02*
X123473476Y-76482283D01*
X123473476Y-76482283D02*
X123568714Y-76387045D01*
X123568714Y-76387045D02*
X123616333Y-76291807D01*
D13*
X108782828Y-55672510D02*
X109782828Y-55672510D01*
X108925685Y-55672510D02*
X108854257Y-55743939D01*
X108854257Y-55743939D02*
X108782828Y-55886796D01*
X108782828Y-55886796D02*
X108782828Y-56101082D01*
X108782828Y-56101082D02*
X108854257Y-56243939D01*
X108854257Y-56243939D02*
X108997114Y-56315368D01*
X108997114Y-56315368D02*
X109782828Y-56315368D01*
X109782828Y-57243939D02*
X109711400Y-57101082D01*
X109711400Y-57101082D02*
X109639971Y-57029653D01*
X109639971Y-57029653D02*
X109497114Y-56958225D01*
X109497114Y-56958225D02*
X109068542Y-56958225D01*
X109068542Y-56958225D02*
X108925685Y-57029653D01*
X108925685Y-57029653D02*
X108854257Y-57101082D01*
X108854257Y-57101082D02*
X108782828Y-57243939D01*
X108782828Y-57243939D02*
X108782828Y-57458225D01*
X108782828Y-57458225D02*
X108854257Y-57601082D01*
X108854257Y-57601082D02*
X108925685Y-57672511D01*
X108925685Y-57672511D02*
X109068542Y-57743939D01*
X109068542Y-57743939D02*
X109497114Y-57743939D01*
X109497114Y-57743939D02*
X109639971Y-57672511D01*
X109639971Y-57672511D02*
X109711400Y-57601082D01*
X109711400Y-57601082D02*
X109782828Y-57458225D01*
X109782828Y-57458225D02*
X109782828Y-57243939D01*
X109711400Y-59458225D02*
X109782828Y-59601082D01*
X109782828Y-59601082D02*
X109782828Y-59886796D01*
X109782828Y-59886796D02*
X109711400Y-60029653D01*
X109711400Y-60029653D02*
X109568542Y-60101082D01*
X109568542Y-60101082D02*
X109497114Y-60101082D01*
X109497114Y-60101082D02*
X109354257Y-60029653D01*
X109354257Y-60029653D02*
X109282828Y-59886796D01*
X109282828Y-59886796D02*
X109282828Y-59672511D01*
X109282828Y-59672511D02*
X109211400Y-59529653D01*
X109211400Y-59529653D02*
X109068542Y-59458225D01*
X109068542Y-59458225D02*
X108997114Y-59458225D01*
X108997114Y-59458225D02*
X108854257Y-59529653D01*
X108854257Y-59529653D02*
X108782828Y-59672511D01*
X108782828Y-59672511D02*
X108782828Y-59886796D01*
X108782828Y-59886796D02*
X108854257Y-60029653D01*
X109782828Y-60958225D02*
X109711400Y-60815368D01*
X109711400Y-60815368D02*
X109568542Y-60743939D01*
X109568542Y-60743939D02*
X108282828Y-60743939D01*
X109782828Y-61743939D02*
X109711400Y-61601082D01*
X109711400Y-61601082D02*
X109639971Y-61529653D01*
X109639971Y-61529653D02*
X109497114Y-61458225D01*
X109497114Y-61458225D02*
X109068542Y-61458225D01*
X109068542Y-61458225D02*
X108925685Y-61529653D01*
X108925685Y-61529653D02*
X108854257Y-61601082D01*
X108854257Y-61601082D02*
X108782828Y-61743939D01*
X108782828Y-61743939D02*
X108782828Y-61958225D01*
X108782828Y-61958225D02*
X108854257Y-62101082D01*
X108854257Y-62101082D02*
X108925685Y-62172511D01*
X108925685Y-62172511D02*
X109068542Y-62243939D01*
X109068542Y-62243939D02*
X109497114Y-62243939D01*
X109497114Y-62243939D02*
X109639971Y-62172511D01*
X109639971Y-62172511D02*
X109711400Y-62101082D01*
X109711400Y-62101082D02*
X109782828Y-61958225D01*
X109782828Y-61958225D02*
X109782828Y-61743939D01*
X108782828Y-62672511D02*
X108782828Y-63243939D01*
X108282828Y-62886796D02*
X109568542Y-62886796D01*
X109568542Y-62886796D02*
X109711400Y-62958225D01*
X109711400Y-62958225D02*
X109782828Y-63101082D01*
X109782828Y-63101082D02*
X109782828Y-63243939D01*
X109711400Y-65529654D02*
X109782828Y-65386796D01*
X109782828Y-65386796D02*
X109782828Y-65101082D01*
X109782828Y-65101082D02*
X109711400Y-64958225D01*
X109711400Y-64958225D02*
X109639971Y-64886796D01*
X109639971Y-64886796D02*
X109497114Y-64815368D01*
X109497114Y-64815368D02*
X109068542Y-64815368D01*
X109068542Y-64815368D02*
X108925685Y-64886796D01*
X108925685Y-64886796D02*
X108854257Y-64958225D01*
X108854257Y-64958225D02*
X108782828Y-65101082D01*
X108782828Y-65101082D02*
X108782828Y-65386796D01*
X108782828Y-65386796D02*
X108854257Y-65529654D01*
X109782828Y-66386796D02*
X109711400Y-66243939D01*
X109711400Y-66243939D02*
X109568542Y-66172510D01*
X109568542Y-66172510D02*
X108282828Y-66172510D01*
X109782828Y-67172510D02*
X109711400Y-67029653D01*
X109711400Y-67029653D02*
X109639971Y-66958224D01*
X109639971Y-66958224D02*
X109497114Y-66886796D01*
X109497114Y-66886796D02*
X109068542Y-66886796D01*
X109068542Y-66886796D02*
X108925685Y-66958224D01*
X108925685Y-66958224D02*
X108854257Y-67029653D01*
X108854257Y-67029653D02*
X108782828Y-67172510D01*
X108782828Y-67172510D02*
X108782828Y-67386796D01*
X108782828Y-67386796D02*
X108854257Y-67529653D01*
X108854257Y-67529653D02*
X108925685Y-67601082D01*
X108925685Y-67601082D02*
X109068542Y-67672510D01*
X109068542Y-67672510D02*
X109497114Y-67672510D01*
X109497114Y-67672510D02*
X109639971Y-67601082D01*
X109639971Y-67601082D02*
X109711400Y-67529653D01*
X109711400Y-67529653D02*
X109782828Y-67386796D01*
X109782828Y-67386796D02*
X109782828Y-67172510D01*
X109711400Y-68958225D02*
X109782828Y-68815367D01*
X109782828Y-68815367D02*
X109782828Y-68529653D01*
X109782828Y-68529653D02*
X109711400Y-68386796D01*
X109711400Y-68386796D02*
X109639971Y-68315367D01*
X109639971Y-68315367D02*
X109497114Y-68243939D01*
X109497114Y-68243939D02*
X109068542Y-68243939D01*
X109068542Y-68243939D02*
X108925685Y-68315367D01*
X108925685Y-68315367D02*
X108854257Y-68386796D01*
X108854257Y-68386796D02*
X108782828Y-68529653D01*
X108782828Y-68529653D02*
X108782828Y-68815367D01*
X108782828Y-68815367D02*
X108854257Y-68958225D01*
X109782828Y-69601081D02*
X108282828Y-69601081D01*
X109211400Y-69743939D02*
X109782828Y-70172510D01*
X108782828Y-70172510D02*
X109354257Y-69601081D01*
X131140828Y-57904510D02*
X132140828Y-57904510D01*
X131283685Y-57904510D02*
X131212257Y-57975939D01*
X131212257Y-57975939D02*
X131140828Y-58118796D01*
X131140828Y-58118796D02*
X131140828Y-58333082D01*
X131140828Y-58333082D02*
X131212257Y-58475939D01*
X131212257Y-58475939D02*
X131355114Y-58547368D01*
X131355114Y-58547368D02*
X132140828Y-58547368D01*
X132140828Y-59475939D02*
X132069400Y-59333082D01*
X132069400Y-59333082D02*
X131997971Y-59261653D01*
X131997971Y-59261653D02*
X131855114Y-59190225D01*
X131855114Y-59190225D02*
X131426542Y-59190225D01*
X131426542Y-59190225D02*
X131283685Y-59261653D01*
X131283685Y-59261653D02*
X131212257Y-59333082D01*
X131212257Y-59333082D02*
X131140828Y-59475939D01*
X131140828Y-59475939D02*
X131140828Y-59690225D01*
X131140828Y-59690225D02*
X131212257Y-59833082D01*
X131212257Y-59833082D02*
X131283685Y-59904511D01*
X131283685Y-59904511D02*
X131426542Y-59975939D01*
X131426542Y-59975939D02*
X131855114Y-59975939D01*
X131855114Y-59975939D02*
X131997971Y-59904511D01*
X131997971Y-59904511D02*
X132069400Y-59833082D01*
X132069400Y-59833082D02*
X132140828Y-59690225D01*
X132140828Y-59690225D02*
X132140828Y-59475939D01*
X132069400Y-61690225D02*
X132140828Y-61833082D01*
X132140828Y-61833082D02*
X132140828Y-62118796D01*
X132140828Y-62118796D02*
X132069400Y-62261653D01*
X132069400Y-62261653D02*
X131926542Y-62333082D01*
X131926542Y-62333082D02*
X131855114Y-62333082D01*
X131855114Y-62333082D02*
X131712257Y-62261653D01*
X131712257Y-62261653D02*
X131640828Y-62118796D01*
X131640828Y-62118796D02*
X131640828Y-61904511D01*
X131640828Y-61904511D02*
X131569400Y-61761653D01*
X131569400Y-61761653D02*
X131426542Y-61690225D01*
X131426542Y-61690225D02*
X131355114Y-61690225D01*
X131355114Y-61690225D02*
X131212257Y-61761653D01*
X131212257Y-61761653D02*
X131140828Y-61904511D01*
X131140828Y-61904511D02*
X131140828Y-62118796D01*
X131140828Y-62118796D02*
X131212257Y-62261653D01*
X132140828Y-63190225D02*
X132069400Y-63047368D01*
X132069400Y-63047368D02*
X131926542Y-62975939D01*
X131926542Y-62975939D02*
X130640828Y-62975939D01*
X132140828Y-63975939D02*
X132069400Y-63833082D01*
X132069400Y-63833082D02*
X131997971Y-63761653D01*
X131997971Y-63761653D02*
X131855114Y-63690225D01*
X131855114Y-63690225D02*
X131426542Y-63690225D01*
X131426542Y-63690225D02*
X131283685Y-63761653D01*
X131283685Y-63761653D02*
X131212257Y-63833082D01*
X131212257Y-63833082D02*
X131140828Y-63975939D01*
X131140828Y-63975939D02*
X131140828Y-64190225D01*
X131140828Y-64190225D02*
X131212257Y-64333082D01*
X131212257Y-64333082D02*
X131283685Y-64404511D01*
X131283685Y-64404511D02*
X131426542Y-64475939D01*
X131426542Y-64475939D02*
X131855114Y-64475939D01*
X131855114Y-64475939D02*
X131997971Y-64404511D01*
X131997971Y-64404511D02*
X132069400Y-64333082D01*
X132069400Y-64333082D02*
X132140828Y-64190225D01*
X132140828Y-64190225D02*
X132140828Y-63975939D01*
X131140828Y-64904511D02*
X131140828Y-65475939D01*
X130640828Y-65118796D02*
X131926542Y-65118796D01*
X131926542Y-65118796D02*
X132069400Y-65190225D01*
X132069400Y-65190225D02*
X132140828Y-65333082D01*
X132140828Y-65333082D02*
X132140828Y-65475939D01*
X132069400Y-67761654D02*
X132140828Y-67618796D01*
X132140828Y-67618796D02*
X132140828Y-67333082D01*
X132140828Y-67333082D02*
X132069400Y-67190225D01*
X132069400Y-67190225D02*
X131997971Y-67118796D01*
X131997971Y-67118796D02*
X131855114Y-67047368D01*
X131855114Y-67047368D02*
X131426542Y-67047368D01*
X131426542Y-67047368D02*
X131283685Y-67118796D01*
X131283685Y-67118796D02*
X131212257Y-67190225D01*
X131212257Y-67190225D02*
X131140828Y-67333082D01*
X131140828Y-67333082D02*
X131140828Y-67618796D01*
X131140828Y-67618796D02*
X131212257Y-67761654D01*
X132140828Y-68618796D02*
X132069400Y-68475939D01*
X132069400Y-68475939D02*
X131926542Y-68404510D01*
X131926542Y-68404510D02*
X130640828Y-68404510D01*
X132140828Y-69404510D02*
X132069400Y-69261653D01*
X132069400Y-69261653D02*
X131997971Y-69190224D01*
X131997971Y-69190224D02*
X131855114Y-69118796D01*
X131855114Y-69118796D02*
X131426542Y-69118796D01*
X131426542Y-69118796D02*
X131283685Y-69190224D01*
X131283685Y-69190224D02*
X131212257Y-69261653D01*
X131212257Y-69261653D02*
X131140828Y-69404510D01*
X131140828Y-69404510D02*
X131140828Y-69618796D01*
X131140828Y-69618796D02*
X131212257Y-69761653D01*
X131212257Y-69761653D02*
X131283685Y-69833082D01*
X131283685Y-69833082D02*
X131426542Y-69904510D01*
X131426542Y-69904510D02*
X131855114Y-69904510D01*
X131855114Y-69904510D02*
X131997971Y-69833082D01*
X131997971Y-69833082D02*
X132069400Y-69761653D01*
X132069400Y-69761653D02*
X132140828Y-69618796D01*
X132140828Y-69618796D02*
X132140828Y-69404510D01*
X132069400Y-71190225D02*
X132140828Y-71047367D01*
X132140828Y-71047367D02*
X132140828Y-70761653D01*
X132140828Y-70761653D02*
X132069400Y-70618796D01*
X132069400Y-70618796D02*
X131997971Y-70547367D01*
X131997971Y-70547367D02*
X131855114Y-70475939D01*
X131855114Y-70475939D02*
X131426542Y-70475939D01*
X131426542Y-70475939D02*
X131283685Y-70547367D01*
X131283685Y-70547367D02*
X131212257Y-70618796D01*
X131212257Y-70618796D02*
X131140828Y-70761653D01*
X131140828Y-70761653D02*
X131140828Y-71047367D01*
X131140828Y-71047367D02*
X131212257Y-71190225D01*
X132140828Y-71833081D02*
X130640828Y-71833081D01*
X131569400Y-71975939D02*
X132140828Y-72404510D01*
X131140828Y-72404510D02*
X131712257Y-71833081D01*
M02*
