M48
; DRILL file KiCad 10.0.0 date 2026-05-10T18:04:46
; FORMAT={-:-/ absolute / metric / decimal}
; #@! TF.CreationDate,2026-05-10T18:04:46+02:00
; #@! TF.GenerationSoftware,Kicad,Pcbnew,10.0.0
; #@! TF.FileFunction,Plated,1,2,PTH
FMAT,2
METRIC
; #@! TA.AperFunction,Plated,PTH,ViaDrill
T1C0.300
; #@! TA.AperFunction,Plated,PTH,ComponentDrill
T2C0.500
; #@! TA.AperFunction,Plated,PTH,ComponentDrill
T3C0.800
; #@! TA.AperFunction,Plated,PTH,ComponentDrill
T4C1.000
%
G90
G05
T1
X99.06Y-83.03
X101.6Y-64.77
X104.14Y-73.314
X105.41Y-72.39
X107.95Y-68.58
T2
X106.68Y-74.93
X109.22Y-74.93
X124.23Y-52.016
X126.77Y-52.016
T3
X96.52Y-41.91
X96.52Y-44.45
X96.52Y-46.99
X96.52Y-49.53
X96.52Y-52.07
X96.52Y-54.61
X96.52Y-57.15
X96.52Y-59.69
X96.52Y-62.23
X96.52Y-64.77
X96.52Y-67.31
X96.52Y-69.85
X96.52Y-72.39
X96.52Y-74.93
X96.52Y-77.47
X96.52Y-85.09
X99.06Y-77.47
X99.06Y-85.09
X101.6Y-77.47
X101.6Y-85.09
X104.14Y-77.47
X104.14Y-85.09
X106.68Y-77.47
X106.68Y-85.09
X109.22Y-77.47
X109.22Y-85.09
X111.76Y-41.91
X111.76Y-44.45
X111.76Y-46.99
X111.76Y-49.53
X111.76Y-52.07
X111.76Y-54.61
X111.76Y-57.15
X111.76Y-59.69
X111.76Y-62.23
X111.76Y-64.77
X111.76Y-67.31
X111.76Y-69.85
X111.76Y-72.39
X111.76Y-74.93
X111.76Y-77.47
X111.76Y-85.09
X114.3Y-77.47
X114.3Y-85.09
X119.15Y-41.88
X119.15Y-49.5
X121.69Y-41.88
X121.69Y-49.5
X121.69Y-52.04
X121.69Y-54.58
X121.69Y-57.12
X121.69Y-59.66
X121.69Y-62.2
X121.69Y-64.74
X121.69Y-67.28
X121.69Y-69.82
X121.69Y-72.36
X121.69Y-74.9
X121.69Y-77.44
X121.69Y-79.98
X121.69Y-82.52
X121.69Y-85.06
X124.23Y-41.88
X124.23Y-49.5
X126.77Y-41.88
X126.77Y-49.5
X129.31Y-41.88
X129.31Y-49.5
X131.85Y-41.88
X131.85Y-49.5
X134.39Y-41.88
X134.39Y-49.5
X136.93Y-41.88
X136.93Y-49.5
X136.93Y-52.04
X136.93Y-54.58
X136.93Y-57.12
X136.93Y-59.66
X136.93Y-62.2
X136.93Y-64.74
X136.93Y-67.28
X136.93Y-69.82
X136.93Y-72.36
X136.93Y-74.9
X136.93Y-77.44
X136.93Y-79.98
X136.93Y-82.52
X136.93Y-85.06
T4
X99.06Y-41.91
X99.06Y-44.45
X99.06Y-46.99
X99.06Y-49.53
X99.06Y-52.07
X99.06Y-54.61
X99.06Y-57.15
X99.06Y-59.69
X99.06Y-62.23
X99.06Y-64.77
X99.06Y-67.31
X99.06Y-69.85
X99.06Y-72.39
X99.06Y-74.93
X104.14Y-49.53
X106.68Y-49.53
X114.3Y-41.91
X114.3Y-44.45
X114.3Y-46.99
X114.3Y-49.53
X114.3Y-52.07
X114.3Y-54.61
X114.3Y-57.15
X114.3Y-59.69
X114.3Y-62.23
X114.3Y-64.77
X114.3Y-67.31
X114.3Y-69.85
X114.3Y-72.39
X114.3Y-74.93
X119.15Y-52.04
X119.15Y-54.58
X119.15Y-57.12
X119.15Y-59.66
X119.15Y-62.2
X119.15Y-64.74
X119.15Y-67.28
X119.15Y-69.82
X119.15Y-72.36
X119.15Y-74.9
X119.15Y-77.44
X119.15Y-79.98
X119.15Y-82.52
X119.15Y-85.06
X126.77Y-77.44
X129.31Y-77.44
X134.39Y-52.04
X134.39Y-54.58
X134.39Y-57.12
X134.39Y-59.66
X134.39Y-62.2
X134.39Y-64.74
X134.39Y-67.28
X134.39Y-69.82
X134.39Y-72.36
X134.39Y-74.9
X134.39Y-77.44
X134.39Y-79.98
X134.39Y-82.52
X134.39Y-85.06
M30
