%TF.GenerationSoftware,KiCad,Pcbnew,10.0.0*%
%TF.CreationDate,2026-06-04T22:51:01+02:00*%
%TF.ProjectId,ns-clock-neo,6e732d63-6c6f-4636-9b2d-6e656f2e6b69,rev?*%
%TF.SameCoordinates,Original*%
%TF.FileFunction,Copper,L1,Top*%
%TF.FilePolarity,Positive*%
%FSLAX46Y46*%
G04 Gerber Fmt 4.6, Leading zero omitted, Abs format (unit mm)*
G04 Created by KiCad (PCBNEW 10.0.0) date 2026-06-04 22:51:01*
%MOMM*%
%LPD*%
G01*
G04 APERTURE LIST*
G04 Aperture macros list*
%AMRoundRect*
0 Rectangle with rounded corners*
0 $1 Rounding radius*
0 $2 $3 $4 $5 $6 $7 $8 $9 X,Y pos of 4 corners*
0 Add a 4 corners polygon primitive as box body*
4,1,4,$2,$3,$4,$5,$6,$7,$8,$9,$2,$3,0*
0 Add four circle primitives for the rounded corners*
1,1,$1+$1,$2,$3*
1,1,$1+$1,$4,$5*
1,1,$1+$1,$6,$7*
1,1,$1+$1,$8,$9*
0 Add four rect primitives between the rounded corners*
20,1,$1+$1,$2,$3,$4,$5,0*
20,1,$1+$1,$4,$5,$6,$7,0*
20,1,$1+$1,$6,$7,$8,$9,0*
20,1,$1+$1,$8,$9,$2,$3,0*%
G04 Aperture macros list end*
%TA.AperFunction,ComponentPad*%
%ADD10C,1.000000*%
%TD*%
%TA.AperFunction,ComponentPad*%
%ADD11R,1.700000X1.700000*%
%TD*%
%TA.AperFunction,ComponentPad*%
%ADD12C,1.700000*%
%TD*%
%TA.AperFunction,ComponentPad*%
%ADD13RoundRect,0.250000X0.550000X-0.550000X0.550000X0.550000X-0.550000X0.550000X-0.550000X-0.550000X0*%
%TD*%
%TA.AperFunction,ComponentPad*%
%ADD14C,1.600000*%
%TD*%
%TA.AperFunction,ComponentPad*%
%ADD15RoundRect,0.250000X0.550000X0.550000X-0.550000X0.550000X-0.550000X-0.550000X0.550000X-0.550000X0*%
%TD*%
%TA.AperFunction,ViaPad*%
%ADD16C,0.600000*%
%TD*%
%TA.AperFunction,Conductor*%
%ADD17C,0.200000*%
%TD*%
G04 APERTURE END LIST*
D10*
%TO.P,Y1,1,1_1*%
%TO.N,Net-(U2-X1)*%
X111125000Y-74065000D03*
%TO.P,Y1,2,2_2*%
%TO.N,Net-(U2-X2)*%
X108585000Y-74065000D03*
%TD*%
D11*
%TO.P,J2,1,Pin_1_1*%
%TO.N,GND*%
X105410000Y-113665000D03*
D12*
%TO.P,J2,2,Pin_2_2*%
%TO.N,+3V0*%
X107950000Y-113665000D03*
%TD*%
%TO.P,J4,1,Pin_1_1*%
%TO.N,+5V*%
X99060000Y-76200000D03*
%TO.P,J4,2,Pin_2_2*%
%TO.N,PGM*%
X99060000Y-73660000D03*
%TO.P,J4,3,Pin_3_3*%
%TO.N,GND*%
X99060000Y-71120000D03*
%TO.P,J4,4,Pin_4_4*%
%TO.N,A8*%
X99060000Y-68580000D03*
%TO.P,J4,5,Pin_5_5*%
%TO.N,A9*%
X99060000Y-66040000D03*
%TO.P,J4,6,Pin_6_6*%
%TO.N,A11*%
X99060000Y-63500000D03*
%TO.P,J4,7,Pin_7_7*%
%TO.N,OE*%
X99060000Y-60960000D03*
%TO.P,J4,8,Pin_8_8*%
%TO.N,A10*%
X99060000Y-58420000D03*
%TO.P,J4,9,Pin_9_9*%
%TO.N,CEI*%
X99060000Y-55880000D03*
%TO.P,J4,10,Pin_10_10*%
%TO.N,D7*%
X99060000Y-53340000D03*
%TO.P,J4,11,Pin_11_11*%
%TO.N,D6*%
X99060000Y-50800000D03*
%TO.P,J4,12,Pin_12_12*%
%TO.N,D5*%
X99060000Y-48260000D03*
%TO.P,J4,13,Pin_13_13*%
%TO.N,D4*%
X99060000Y-45720000D03*
%TO.P,J4,14,Pin_14_14*%
%TO.N,D3*%
X99060000Y-43180000D03*
%TD*%
D11*
%TO.P,J3,1,Pin_1_1*%
%TO.N,VPP*%
X114300000Y-76200000D03*
D12*
%TO.P,J3,2,Pin_2_2*%
%TO.N,A12*%
X114300000Y-73660000D03*
%TO.P,J3,3,Pin_3_3*%
%TO.N,A7*%
X114300000Y-71120000D03*
%TO.P,J3,4,Pin_4_4*%
%TO.N,A6*%
X114300000Y-68580000D03*
%TO.P,J3,5,Pin_5_5*%
%TO.N,A5*%
X114300000Y-66040000D03*
%TO.P,J3,6,Pin_6_6*%
%TO.N,A4*%
X114300000Y-63500000D03*
%TO.P,J3,7,Pin_7_7*%
%TO.N,A3*%
X114300000Y-60960000D03*
%TO.P,J3,8,Pin_8_8*%
%TO.N,A2*%
X114300000Y-58420000D03*
%TO.P,J3,9,Pin_9_9*%
%TO.N,A1*%
X114300000Y-55880000D03*
%TO.P,J3,10,Pin_10_10*%
%TO.N,A0*%
X114300000Y-53340000D03*
%TO.P,J3,11,Pin_11_11*%
%TO.N,D0*%
X114300000Y-50800000D03*
%TO.P,J3,12,Pin_12_12*%
%TO.N,D1*%
X114300000Y-48260000D03*
%TO.P,J3,13,Pin_13_13*%
%TO.N,D2*%
X114300000Y-45720000D03*
%TO.P,J3,14,Pin_14_14*%
%TO.N,GND*%
X114300000Y-43180000D03*
%TD*%
D13*
%TO.P,DS1215,1,X1_1*%
%TO.N,Net-(U2-X1)*%
X114300000Y-87630000D03*
D14*
%TO.P,DS1215,2,X2_2*%
%TO.N,Net-(U2-X2)*%
X111760000Y-87630000D03*
%TO.P,DS1215,3,~{WE}_3*%
%TO.N,A2*%
X109220000Y-87630000D03*
%TO.P,DS1215,4,BAT1_4*%
%TO.N,+3V0*%
X106680000Y-87630000D03*
%TO.P,DS1215,5,GND_5*%
%TO.N,GND*%
X104140000Y-87630000D03*
%TO.P,DS1215,6,D_6*%
%TO.N,A0*%
X101600000Y-87630000D03*
%TO.P,DS1215,7,Q_7*%
%TO.N,D0*%
X99060000Y-87630000D03*
%TO.P,DS1215,8,GND_8*%
%TO.N,GND*%
X96520000Y-87630000D03*
%TO.P,DS1215,9,ROM/~{RAM}_9*%
%TO.N,+5V*%
X96520000Y-80010000D03*
%TO.P,DS1215,10,~{CEO}_10*%
%TO.N,CE*%
X99060000Y-80010000D03*
%TO.P,DS1215,11,~{CEI}_11*%
%TO.N,CEI*%
X101600000Y-80010000D03*
%TO.P,DS1215,12,~{OE}_12*%
%TO.N,OE*%
X104140000Y-80010000D03*
%TO.P,DS1215,13,~{RST}_13*%
%TO.N,+5V*%
X106680000Y-80010000D03*
%TO.P,DS1215,14,BAT2_14*%
%TO.N,GND*%
X109220000Y-80010000D03*
%TO.P,DS1215,15,VCCO_15*%
%TO.N,unconnected-(U2-VCCO-Pad15)*%
X111760000Y-80010000D03*
%TO.P,DS1215,16,VCCI_16*%
%TO.N,+5V*%
X114300000Y-80010000D03*
%TD*%
D15*
%TO.P,U1,1,VPP_1*%
%TO.N,VPP*%
X114300000Y-91440000D03*
D14*
%TO.P,U1,2,A12_2*%
%TO.N,A12*%
X114300000Y-93980000D03*
%TO.P,U1,3,A7_3*%
%TO.N,A7*%
X114300000Y-96520000D03*
%TO.P,U1,4,A6_4*%
%TO.N,A6*%
X114300000Y-99060000D03*
%TO.P,U1,5,A5_5*%
%TO.N,A5*%
X114300000Y-101600000D03*
%TO.P,U1,6,A4_6*%
%TO.N,A4*%
X114300000Y-104140000D03*
%TO.P,U1,7,A3_7*%
%TO.N,A3*%
X114300000Y-106680000D03*
%TO.P,U1,8,A2_8*%
%TO.N,A2*%
X114300000Y-109220000D03*
%TO.P,U1,9,A1_9*%
%TO.N,A1*%
X114300000Y-111760000D03*
%TO.P,U1,10,A0_10*%
%TO.N,A0*%
X114300000Y-114300000D03*
%TO.P,U1,11,D0_11*%
%TO.N,D0*%
X114300000Y-116840000D03*
%TO.P,U1,12,D1_12*%
%TO.N,D1*%
X114300000Y-119380000D03*
%TO.P,U1,13,D2_13*%
%TO.N,D2*%
X114300000Y-121920000D03*
%TO.P,U1,14,GND_14*%
%TO.N,GND*%
X114300000Y-124460000D03*
%TO.P,U1,15,D3_15*%
%TO.N,D3*%
X99060000Y-124460000D03*
%TO.P,U1,16,D4_16*%
%TO.N,D4*%
X99060000Y-121920000D03*
%TO.P,U1,17,D5_17*%
%TO.N,D5*%
X99060000Y-119380000D03*
%TO.P,U1,18,D6_18*%
%TO.N,D6*%
X99060000Y-116840000D03*
%TO.P,U1,19,D7_19*%
%TO.N,D7*%
X99060000Y-114300000D03*
%TO.P,U1,20,~{CE}_20*%
%TO.N,CE*%
X99060000Y-111760000D03*
%TO.P,U1,21,A10_21*%
%TO.N,A10*%
X99060000Y-109220000D03*
%TO.P,U1,22,~{OE}_22*%
%TO.N,OE*%
X99060000Y-106680000D03*
%TO.P,U1,23,A11_23*%
%TO.N,A11*%
X99060000Y-104140000D03*
%TO.P,U1,24,A9_24*%
%TO.N,A9*%
X99060000Y-101600000D03*
%TO.P,U1,25,A8_25*%
%TO.N,A8*%
X99060000Y-99060000D03*
%TO.P,U1,26,NC_26*%
%TO.N,unconnected-(U1-NC-Pad26)*%
X99060000Y-96520000D03*
%TO.P,U1,27,~{PGM}_27*%
%TO.N,PGM*%
X99060000Y-93980000D03*
%TO.P,U1,28,VCC_28*%
%TO.N,+5V*%
X99060000Y-91440000D03*
%TD*%
D16*
%TO.N,A0*%
X107950000Y-91694000D03*
X107950000Y-108550000D03*
%TD*%
%TO.N,D0*%
D17*
X114300000Y-116840000D02*
X112630000Y-115170000D01*
X95390000Y-98603614D02*
X94990000Y-98203613D01*
X94990000Y-98203613D02*
X94990000Y-96213481D01*
X112630000Y-115170000D02*
X101708000Y-115170000D01*
X101708000Y-115170000D02*
X99398000Y-112860000D01*
X94990000Y-96213481D02*
X94590000Y-95813480D01*
X94590000Y-95813480D02*
X94590000Y-93192541D01*
X99398000Y-112860000D02*
X97800496Y-112860000D01*
X97800496Y-112860000D02*
X97390000Y-112449503D01*
X97390000Y-112449503D02*
X97390000Y-110475189D01*
X97390000Y-110475189D02*
X96990000Y-110075188D01*
X96990000Y-108083660D02*
X96590000Y-107683659D01*
X96590000Y-107683659D02*
X96590000Y-105710741D01*
X96590000Y-105710741D02*
X96190000Y-105310740D01*
X96990000Y-110075188D02*
X96990000Y-108083660D01*
X96190000Y-105310740D02*
X96190000Y-103336426D01*
X96190000Y-103336426D02*
X95790000Y-102936425D01*
X95790000Y-102936425D02*
X95790000Y-101054111D01*
X95790000Y-101054111D02*
X95390000Y-100654110D01*
X95390000Y-100654110D02*
X95390000Y-98603614D01*
X94590000Y-93192541D02*
X91542000Y-90144536D01*
X91542000Y-90144536D02*
X91542000Y-78626826D01*
X91542000Y-78626826D02*
X94520000Y-75648825D01*
%TO.N,A0*%
X107950000Y-91694000D02*
X106934000Y-90678000D01*
X106934000Y-90678000D02*
X102870000Y-90678000D01*
X102870000Y-90678000D02*
X101600000Y-89408000D01*
X101600000Y-89408000D02*
X101600000Y-87630000D01*
%TO.N,+5V*%
X106680000Y-80010000D02*
X106680000Y-81280000D01*
X106680000Y-81280000D02*
X107442000Y-82042000D01*
X107442000Y-82042000D02*
X113538000Y-82042000D01*
X113538000Y-82042000D02*
X114300000Y-81280000D01*
X114300000Y-81280000D02*
X114300000Y-80010000D01*
%TO.N,GND*%
X98044000Y-86106000D02*
X96520000Y-87630000D01*
X102616000Y-86106000D02*
X98044000Y-86106000D01*
X104140000Y-87630000D02*
X102616000Y-86106000D01*
%TO.N,+5V*%
X102870000Y-76200000D02*
X106680000Y-80010000D01*
X97928630Y-91440000D02*
X99060000Y-91440000D01*
X99060000Y-76200000D02*
X102870000Y-76200000D01*
X96520000Y-78740000D02*
X96520000Y-80010000D01*
X99060000Y-76200000D02*
X96520000Y-78740000D01*
X95142000Y-88653370D02*
X97928630Y-91440000D01*
X95142000Y-81388000D02*
X95142000Y-88653370D01*
X96520000Y-80010000D02*
X95142000Y-81388000D01*
%TO.N,A12*%
X115732000Y-75092000D02*
X115732000Y-92548000D01*
X115732000Y-92548000D02*
X114300000Y-93980000D01*
X114300000Y-73660000D02*
X115732000Y-75092000D01*
%TO.N,A7*%
X97790000Y-72898000D02*
X97790000Y-76904314D01*
X98632944Y-92710000D02*
X106114314Y-92710000D01*
X98298000Y-72390000D02*
X97790000Y-72898000D01*
X114300000Y-71120000D02*
X113030000Y-72390000D01*
X94742000Y-79952313D02*
X94742000Y-88819056D01*
X106114314Y-92710000D02*
X106514315Y-93110000D01*
X97790000Y-76904314D02*
X94742000Y-79952313D01*
X106514315Y-93110000D02*
X110889999Y-93110000D01*
X94742000Y-88819056D02*
X98632944Y-92710000D01*
X110889999Y-93110000D02*
X114300000Y-96520000D01*
X113030000Y-72390000D02*
X98298000Y-72390000D01*
%TO.N,A6*%
X98552000Y-95250000D02*
X110490000Y-95250000D01*
X97790000Y-72332314D02*
X97390000Y-72732315D01*
X113030000Y-69850000D02*
X98552000Y-69850000D01*
X114300000Y-68580000D02*
X113030000Y-69850000D01*
X97790000Y-70612000D02*
X97790000Y-72332314D01*
X94342000Y-88984742D02*
X97390000Y-92032741D01*
X110490000Y-95250000D02*
X114300000Y-99060000D01*
X97390000Y-72732315D02*
X97390000Y-76738628D01*
X98552000Y-69850000D02*
X97790000Y-70612000D01*
X97390000Y-94088000D02*
X98552000Y-95250000D01*
X94342000Y-79786628D02*
X94342000Y-88984742D01*
X97390000Y-76738628D02*
X94342000Y-79786628D01*
X97390000Y-92032741D02*
X97390000Y-94088000D01*
%TO.N,A5*%
X93942000Y-89150426D02*
X96990000Y-92198428D01*
X97790000Y-70000722D02*
X97390000Y-70400723D01*
X97390000Y-70400723D02*
X97390000Y-72166628D01*
X93971242Y-79591722D02*
X93942000Y-79620963D01*
X96990000Y-76572943D02*
X93971242Y-79591702D01*
X114300000Y-66040000D02*
X113030000Y-67310000D01*
X97390000Y-72166628D02*
X96990000Y-72566628D01*
X97790000Y-67983654D02*
X97790000Y-70000722D01*
X96990000Y-72566628D02*
X96990000Y-76572943D01*
X93942000Y-79620963D02*
X93942000Y-89150426D01*
X96990000Y-92198428D02*
X96990000Y-94819370D01*
X110490000Y-97790000D02*
X114300000Y-101600000D01*
X97390000Y-97209503D02*
X97970497Y-97790000D01*
X96990000Y-94819370D02*
X97390000Y-95219371D01*
X113030000Y-67310000D02*
X98463654Y-67310000D01*
X97390000Y-95219371D02*
X97390000Y-97209503D01*
X98463654Y-67310000D02*
X97790000Y-67983654D01*
X97970497Y-97790000D02*
X110490000Y-97790000D01*
X93971242Y-79591702D02*
X93971242Y-79591722D01*
%TO.N,A4*%
X96990000Y-70235038D02*
X96990000Y-72000942D01*
X96990000Y-72000942D02*
X96590000Y-72400942D01*
X93571248Y-79426010D02*
X93571245Y-79426029D01*
X96590000Y-76407257D02*
X93571248Y-79426010D01*
X93571245Y-79426029D02*
X93542000Y-79455273D01*
X96590000Y-92364113D02*
X96590000Y-94985055D01*
X96590000Y-94985055D02*
X96990000Y-95385056D01*
X96990000Y-95385056D02*
X96990000Y-97375188D01*
X113150000Y-64650000D02*
X98672000Y-64650000D01*
X97390000Y-97775189D02*
X97390000Y-99825685D01*
X110490000Y-100330000D02*
X114300000Y-104140000D01*
X93542000Y-79455273D02*
X93542000Y-89316111D01*
X96990000Y-97375188D02*
X97390000Y-97775189D01*
X97894315Y-100330000D02*
X110490000Y-100330000D01*
X97390000Y-99825685D02*
X97894315Y-100330000D01*
X97390000Y-69835037D02*
X96990000Y-70235038D01*
X93542000Y-89316111D02*
X96590000Y-92364113D01*
X96590000Y-72400942D02*
X96590000Y-76407257D01*
X98672000Y-64650000D02*
X97790000Y-65532000D01*
X97390000Y-67817968D02*
X97390000Y-69835037D01*
X97790000Y-67417968D02*
X97390000Y-67817968D01*
X114300000Y-63500000D02*
X113150000Y-64650000D01*
X97790000Y-65532000D02*
X97790000Y-67417968D01*
%TO.N,A3*%
X96190000Y-72235256D02*
X96190000Y-76241571D01*
X113030000Y-62230000D02*
X98552000Y-62230000D01*
X97390000Y-102273685D02*
X97986315Y-102870000D01*
X97390000Y-100391371D02*
X97390000Y-102273685D01*
X96990000Y-97940874D02*
X96990000Y-99991370D01*
X93171248Y-79260336D02*
X93142000Y-79289583D01*
X96590000Y-95550741D02*
X96590000Y-97540873D01*
X96190000Y-92529801D02*
X96190000Y-95150740D01*
X93171248Y-79260324D02*
X93171248Y-79260336D01*
X96190000Y-95150740D02*
X96590000Y-95550741D01*
X96990000Y-99991370D02*
X97390000Y-100391371D01*
X96590000Y-97540873D02*
X96990000Y-97940874D01*
X97790000Y-62992000D02*
X97790000Y-64966314D01*
X114300000Y-60960000D02*
X113030000Y-62230000D01*
X96590000Y-70069353D02*
X96590000Y-71835256D01*
X93142000Y-89481796D02*
X96190000Y-92529801D01*
X96190000Y-76241571D02*
X93171248Y-79260324D01*
X96990000Y-69669352D02*
X96590000Y-70069353D01*
X96990000Y-67652282D02*
X96990000Y-69669352D01*
X97986315Y-102870000D02*
X110490000Y-102870000D01*
X110490000Y-102870000D02*
X114300000Y-106680000D01*
X97790000Y-64966314D02*
X97390000Y-65366314D01*
X96590000Y-71835256D02*
X96190000Y-72235256D01*
X97390000Y-65366314D02*
X97390000Y-67252282D01*
X97390000Y-67252282D02*
X96990000Y-67652282D01*
X98552000Y-62230000D02*
X97790000Y-62992000D01*
X93142000Y-79289583D02*
X93142000Y-89481796D01*
%TO.N,A2*%
X92742000Y-79123893D02*
X92742000Y-89647481D01*
X96990000Y-67086596D02*
X96590000Y-67486596D01*
X96190000Y-97706558D02*
X96590000Y-98106559D01*
X97390000Y-62826314D02*
X97390000Y-64800628D01*
X97390000Y-104813685D02*
X97986314Y-105410000D01*
X95790000Y-95316425D02*
X96190000Y-95716426D01*
X96590000Y-69503667D02*
X96190000Y-69903668D01*
X97390000Y-64800628D02*
X96990000Y-65200628D01*
X97790000Y-62426314D02*
X97390000Y-62826314D01*
X96990000Y-65200628D02*
X96990000Y-67086596D01*
X96190000Y-71669570D02*
X95790000Y-72069570D01*
X97986314Y-105410000D02*
X110490000Y-105410000D01*
X96590000Y-98106559D02*
X96590000Y-100157055D01*
X95790000Y-76075885D02*
X92771254Y-79094632D01*
X96990000Y-100557056D02*
X96990000Y-102439370D01*
X92742000Y-89647481D02*
X95790000Y-92695486D01*
X96190000Y-95716426D02*
X96190000Y-97706558D01*
X92771251Y-79094643D02*
X92742000Y-79123893D01*
X92771254Y-79094632D02*
X92771251Y-79094643D01*
X114300000Y-58420000D02*
X113030000Y-59690000D01*
X96590000Y-67486596D02*
X96590000Y-69503667D01*
X95790000Y-92695486D02*
X95790000Y-95316425D01*
X96990000Y-102439370D02*
X97390000Y-102839371D01*
X96190000Y-69903668D02*
X96190000Y-71669570D01*
X95790000Y-72069570D02*
X95790000Y-76075885D01*
X97790000Y-60469213D02*
X97790000Y-62426314D01*
X97390000Y-102839371D02*
X97390000Y-104813685D01*
X98569213Y-59690000D02*
X97790000Y-60469213D01*
X96590000Y-100157055D02*
X96990000Y-100557056D01*
X110490000Y-105410000D02*
X114300000Y-109220000D01*
X113030000Y-59690000D02*
X98569213Y-59690000D01*
%TO.N,A1*%
X96590000Y-66920910D02*
X96190000Y-67320911D01*
X97790000Y-57912000D02*
X97790000Y-59182000D01*
X113030000Y-57150000D02*
X98552000Y-57150000D01*
X96990000Y-104979370D02*
X97390000Y-105379371D01*
X110490000Y-107950000D02*
X114300000Y-111760000D01*
X95390000Y-92861171D02*
X95390000Y-95482110D01*
X92342000Y-79289575D02*
X92342000Y-89813166D01*
X96990000Y-103005056D02*
X96990000Y-104979370D01*
X92341997Y-79289572D02*
X92342000Y-79289575D01*
X97790000Y-59182000D02*
X97790000Y-59903527D01*
X96590000Y-100722741D02*
X96590000Y-102605055D01*
X97790000Y-59182000D02*
X97790000Y-59436000D01*
X97987710Y-107950000D02*
X110490000Y-107950000D01*
X95790000Y-95882111D02*
X95790000Y-97872243D01*
X92342000Y-78958203D02*
X92341997Y-79289572D01*
X92371243Y-78928957D02*
X92371243Y-78928961D01*
X114300000Y-55880000D02*
X113030000Y-57150000D01*
X97390000Y-62260628D02*
X96990000Y-62660629D01*
X95790000Y-97872243D02*
X96190000Y-98272244D01*
X96590000Y-65034943D02*
X96590000Y-66920910D01*
X95790000Y-71503884D02*
X95390000Y-71903885D01*
X92342000Y-89813166D02*
X95390000Y-92861171D01*
X98552000Y-57150000D02*
X97790000Y-57912000D01*
X96190000Y-100322740D02*
X96590000Y-100722741D01*
X97790000Y-59903527D02*
X97390000Y-60303528D01*
X92371243Y-78928961D02*
X92342000Y-78958203D01*
X95790000Y-69737983D02*
X95790000Y-71503884D01*
X97390000Y-107352289D02*
X97987710Y-107950000D01*
X96190000Y-98272244D02*
X96190000Y-100322740D01*
X95390000Y-71903885D02*
X95390000Y-75910199D01*
X95390000Y-95482110D02*
X95790000Y-95882111D01*
X97390000Y-60303528D02*
X97390000Y-62260628D01*
X95390000Y-75910199D02*
X92371243Y-78928957D01*
X97390000Y-105379371D02*
X97390000Y-107352289D01*
X96990000Y-64634942D02*
X96590000Y-65034943D01*
X96190000Y-67320911D02*
X96190000Y-69337982D01*
X96590000Y-102605055D02*
X96990000Y-103005056D01*
X96190000Y-69337982D02*
X95790000Y-69737983D01*
X96990000Y-62660629D02*
X96990000Y-64634942D01*
%TO.N,A0*%
X97390000Y-107917975D02*
X96990000Y-107517974D01*
X96190000Y-64869258D02*
X96190000Y-66755223D01*
X96190000Y-102770740D02*
X96190000Y-100888426D01*
X95390000Y-71338197D02*
X94990000Y-71738200D01*
X95790000Y-100488425D02*
X95790000Y-98437929D01*
X94990000Y-71738200D02*
X94990000Y-75744513D01*
X96590000Y-64469256D02*
X96190000Y-64869258D01*
X95790000Y-69172297D02*
X95390000Y-69572298D01*
X97790000Y-57150000D02*
X97390000Y-57550000D01*
X96190000Y-66755223D02*
X95790000Y-67155226D01*
X97790000Y-55283654D02*
X97790000Y-57150000D01*
X96990000Y-105545056D02*
X96590000Y-105145055D01*
X97390000Y-109909503D02*
X97390000Y-107917975D01*
X96190000Y-100888426D02*
X95790000Y-100488425D01*
X108550000Y-108550000D02*
X114300000Y-114300000D01*
X107950000Y-108550000D02*
X101762000Y-108550000D01*
X96990000Y-60137843D02*
X96990000Y-62094941D01*
X99822000Y-110490000D02*
X97970497Y-110490000D01*
X91942001Y-78792512D02*
X91942000Y-78792512D01*
X95790000Y-67155226D02*
X95790000Y-69172297D01*
X94990000Y-75744513D02*
X91971257Y-78763257D01*
X91971257Y-78763257D02*
X91942000Y-78792514D01*
X96990000Y-107517974D02*
X96990000Y-105545056D01*
X96590000Y-103170741D02*
X96190000Y-102770740D01*
X95390000Y-98037928D02*
X95390000Y-96047796D01*
X114300000Y-53340000D02*
X113150000Y-54490000D01*
X91942000Y-78792514D02*
X91942000Y-89978851D01*
X94990000Y-95647795D02*
X94990000Y-93026856D01*
X97390000Y-57550000D02*
X97390000Y-59737842D01*
X95390000Y-96047796D02*
X94990000Y-95647795D01*
X98583654Y-54490000D02*
X97790000Y-55283654D01*
X107950000Y-108550000D02*
X108550000Y-108550000D01*
X96590000Y-62494944D02*
X96590000Y-64469256D01*
X94990000Y-93026856D02*
X91942000Y-89978851D01*
X97970497Y-110490000D02*
X97390000Y-109909503D01*
X96590000Y-105145055D02*
X96590000Y-103170741D01*
X113150000Y-54490000D02*
X98583654Y-54490000D01*
X101762000Y-108550000D02*
X99822000Y-110490000D01*
X95390000Y-69572298D02*
X95390000Y-71338197D01*
X91971257Y-78763257D02*
X91942001Y-78792512D01*
X97390000Y-59737842D02*
X96990000Y-60137843D01*
X96990000Y-62094941D02*
X96590000Y-62494944D01*
X95790000Y-98437929D02*
X95390000Y-98037928D01*
%TO.N,D0*%
X97390000Y-55117969D02*
X97390000Y-56947099D01*
X96990000Y-57347100D02*
X96990000Y-59572157D01*
X97790000Y-52743654D02*
X97790000Y-54717967D01*
X96590000Y-61929255D02*
X96190000Y-62329259D01*
X96190000Y-62329259D02*
X96190000Y-64303570D01*
X113150000Y-51950000D02*
X98583654Y-51950000D01*
X94520000Y-74002315D02*
X94520000Y-75648825D01*
X97390000Y-56947099D02*
X96990000Y-57347100D01*
X94520000Y-75648825D02*
X94520000Y-73914000D01*
X94990000Y-69406613D02*
X94990000Y-71172511D01*
X95790000Y-66589537D02*
X95390000Y-66989541D01*
X98583654Y-51950000D02*
X97790000Y-52743654D01*
X94990000Y-71172511D02*
X94590000Y-71572515D01*
X95790001Y-64703569D02*
X95790000Y-66589537D01*
X94590000Y-71572515D02*
X94590000Y-73932315D01*
X94590000Y-73932315D02*
X94520000Y-74002315D01*
X97790000Y-54717967D02*
X97390000Y-55117969D01*
X114300000Y-50800000D02*
X113150000Y-51950000D01*
X96190000Y-64303570D02*
X95790001Y-64703569D01*
X95390000Y-69006611D02*
X94990000Y-69406613D01*
X96990000Y-59572157D02*
X96590000Y-59972158D01*
X95390000Y-66989541D02*
X95390000Y-69006611D01*
X96590000Y-59972158D02*
X96590000Y-61929255D01*
%TO.N,D1*%
X94190000Y-71406826D02*
X94590000Y-71006825D01*
X96590000Y-108249345D02*
X96190000Y-107849344D01*
X94990000Y-100819795D02*
X94990000Y-98769299D01*
X96190000Y-59806473D02*
X96590000Y-59406472D01*
X96990000Y-54952282D02*
X97390000Y-54552281D01*
X94590000Y-96379166D02*
X94190000Y-95979165D01*
X94190000Y-73678314D02*
X94190000Y-71406826D01*
X94590000Y-71006825D02*
X94590000Y-69240926D01*
X97790000Y-50443654D02*
X98583654Y-49650000D01*
X96990000Y-110640874D02*
X96590000Y-110240873D01*
X94990000Y-66823852D02*
X95390000Y-66423851D01*
X97790000Y-52177967D02*
X97790000Y-50443654D01*
X95390001Y-64537883D02*
X95790000Y-64137884D01*
X95790000Y-62163570D02*
X96190000Y-61763569D01*
X91142000Y-90310221D02*
X91142000Y-78461141D01*
X96590000Y-57181414D02*
X96990000Y-56781413D01*
X97390000Y-114989504D02*
X97390000Y-113015189D01*
X112910000Y-49650000D02*
X114300000Y-48260000D01*
X94990000Y-68840925D02*
X94990000Y-66823852D01*
X96990000Y-112615188D02*
X96990000Y-110640874D01*
X96190000Y-61763569D02*
X96190000Y-59806473D01*
X96190000Y-105876426D02*
X95790000Y-105476425D01*
X95390000Y-66423851D02*
X95390001Y-64537883D01*
X97970496Y-115570000D02*
X97390000Y-114989504D01*
X94120000Y-73748315D02*
X94190000Y-73678314D01*
X96990000Y-56781413D02*
X96990000Y-54952282D01*
X94990000Y-98769299D02*
X94590000Y-98369298D01*
X96190000Y-107849344D02*
X96190000Y-105876426D01*
X94190000Y-93358226D02*
X91142000Y-90310221D01*
X97390000Y-113015189D02*
X96990000Y-112615188D01*
X94120000Y-75483140D02*
X94120000Y-73748315D01*
X95390000Y-101219796D02*
X94990000Y-100819795D01*
X94590000Y-98369298D02*
X94590000Y-96379166D01*
X96590000Y-110240873D02*
X96590000Y-108249345D01*
X98583654Y-49650000D02*
X112910000Y-49650000D01*
X97390000Y-54552281D02*
X97390000Y-52577968D01*
X91142000Y-78461141D02*
X94120000Y-75483140D01*
X94590000Y-69240926D02*
X94990000Y-68840925D01*
X95790000Y-103502111D02*
X95390000Y-103102110D01*
X95390000Y-103102110D02*
X95390000Y-101219796D01*
X95790000Y-105476425D02*
X95790000Y-103502111D01*
X95790000Y-64137884D02*
X95790000Y-62163570D01*
X94120000Y-75483140D02*
X94120000Y-73914000D01*
X94190000Y-95979165D02*
X94190000Y-93358226D01*
X97390000Y-52577968D02*
X97790000Y-52177967D01*
X114300000Y-119380000D02*
X110490000Y-115570000D01*
X110490000Y-115570000D02*
X97970496Y-115570000D01*
X96590000Y-59406472D02*
X96590000Y-57181414D01*
%TO.N,D2*%
X97390000Y-117631320D02*
X97389999Y-115555189D01*
X114300000Y-121920000D02*
X101600000Y-121920000D01*
X94590000Y-100985480D02*
X94590000Y-98934984D01*
X93790000Y-93523911D02*
X90742000Y-90475906D01*
X93790000Y-96144850D02*
X93790000Y-93523911D01*
X94990000Y-101385481D02*
X94590000Y-100985480D01*
X94990000Y-103267795D02*
X94990000Y-101385481D01*
X96190000Y-110406558D02*
X96190000Y-108415030D01*
X97389999Y-115555189D02*
X96990000Y-115155189D01*
X95790000Y-106042111D02*
X95390000Y-105642110D01*
X94990001Y-64372197D02*
X95390000Y-63972199D01*
X99949000Y-118110000D02*
X97868680Y-118110000D01*
X94590000Y-68675240D02*
X94590000Y-66658166D01*
X93720000Y-75317454D02*
X93720000Y-73582630D01*
X94590000Y-66658166D02*
X94990000Y-66258166D01*
X96990000Y-52412282D02*
X97390000Y-52012282D01*
X96190000Y-57015728D02*
X96590000Y-56615728D01*
X94990000Y-66258166D02*
X94990001Y-64372197D01*
X95790000Y-108015029D02*
X95790000Y-106042111D01*
X96990000Y-115155189D02*
X96990000Y-113180874D01*
X93790000Y-73512629D02*
X93790000Y-71241140D01*
X101600000Y-121920000D02*
X100774500Y-121094500D01*
X96190000Y-59240787D02*
X96190000Y-57015728D01*
X96190000Y-108415030D02*
X95790000Y-108015029D01*
X95390000Y-103667796D02*
X94990000Y-103267795D01*
X97790000Y-49877968D02*
X97790000Y-47663654D01*
X94190000Y-70841140D02*
X94190000Y-69075240D01*
X93790000Y-71241140D02*
X94190000Y-70841140D01*
X96990000Y-54386596D02*
X96990000Y-52412282D01*
X90742000Y-90475906D02*
X90742000Y-78295454D01*
X100774500Y-118935500D02*
X99949000Y-118110000D01*
X96990000Y-113180874D02*
X96590000Y-112780873D01*
X94190000Y-96544851D02*
X93790000Y-96144850D01*
X96590000Y-110806559D02*
X96190000Y-110406558D01*
X98583654Y-46870000D02*
X113150000Y-46870000D01*
X95390000Y-61997884D02*
X95790000Y-61597884D01*
X96590000Y-54786596D02*
X96990000Y-54386596D01*
X97790000Y-47663654D02*
X98583654Y-46870000D01*
X96590000Y-56615728D02*
X96590000Y-54786596D01*
X94190000Y-69075240D02*
X94590000Y-68675240D01*
X113150000Y-46870000D02*
X114300000Y-45720000D01*
X95390000Y-63972199D02*
X95390000Y-61997884D01*
X97868680Y-118110000D02*
X97390000Y-117631320D01*
X90742000Y-78295454D02*
X93720000Y-75317454D01*
X94190000Y-98534983D02*
X94190000Y-96544851D01*
X97390000Y-50277968D02*
X97790000Y-49877968D01*
X95790000Y-61597884D02*
X95790000Y-59640788D01*
X97390000Y-52012282D02*
X97390000Y-50277968D01*
X95790000Y-59640788D02*
X96190000Y-59240787D01*
X95390000Y-105642110D02*
X95390000Y-103667796D01*
X100774500Y-121094500D02*
X100774500Y-118935500D01*
X94590000Y-98934984D02*
X94190000Y-98534983D01*
X96590000Y-112780873D02*
X96590000Y-110806559D01*
X93720000Y-73582630D02*
X93790000Y-73512629D01*
%TD*%
%TA.AperFunction,Conductor*%
%TO.N,GND*%
G36*
X98358044Y-42183685D02*
G01*
X98403799Y-42236489D01*
X98413743Y-42305647D01*
X98384718Y-42369203D01*
X98378686Y-42375681D01*
X98244025Y-42510341D01*
X98244024Y-42510342D01*
X98129058Y-42682403D01*
X98049870Y-42873579D01*
X98049868Y-42873587D01*
X98009500Y-43076530D01*
X98009500Y-43283469D01*
X98049868Y-43486412D01*
X98049870Y-43486420D01*
X98129058Y-43677596D01*
X98244024Y-43849657D01*
X98390342Y-43995975D01*
X98390345Y-43995977D01*
X98562402Y-44110941D01*
X98753580Y-44190130D01*
X98956530Y-44230499D01*
X98956534Y-44230500D01*
X98956535Y-44230500D01*
X99163466Y-44230500D01*
X99163467Y-44230499D01*
X99366420Y-44190130D01*
X99557598Y-44110941D01*
X99729655Y-43995977D01*
X99875977Y-43849655D01*
X99990941Y-43677598D01*
X100070130Y-43486420D01*
X100110500Y-43283465D01*
X100110500Y-43076535D01*
X100070130Y-42873580D01*
X99990941Y-42682402D01*
X99875977Y-42510345D01*
X99875975Y-42510342D01*
X99741314Y-42375681D01*
X99707829Y-42314358D01*
X99712813Y-42244666D01*
X99754685Y-42188733D01*
X99820149Y-42164316D01*
X99828995Y-42164000D01*
X113126112Y-42164000D01*
X113193151Y-42183685D01*
X113238906Y-42236489D01*
X113248850Y-42305647D01*
X113226430Y-42360885D01*
X113145379Y-42472442D01*
X113048904Y-42661782D01*
X112983242Y-42863869D01*
X112983242Y-42863872D01*
X112950000Y-43073753D01*
X112950000Y-43286246D01*
X112983242Y-43496127D01*
X112983242Y-43496130D01*
X113048904Y-43698217D01*
X113145375Y-43887550D01*
X113184728Y-43941716D01*
X113817036Y-43309407D01*
X113834075Y-43372993D01*
X113899901Y-43487007D01*
X113992993Y-43580099D01*
X114107007Y-43645925D01*
X114170590Y-43662962D01*
X113538282Y-44295269D01*
X113538282Y-44295270D01*
X113592449Y-44334624D01*
X113781782Y-44431095D01*
X113957973Y-44488343D01*
X114015648Y-44527780D01*
X114042847Y-44592139D01*
X114030932Y-44660985D01*
X113983688Y-44712461D01*
X113967108Y-44720835D01*
X113802403Y-44789057D01*
X113630342Y-44904024D01*
X113484024Y-45050342D01*
X113369058Y-45222403D01*
X113289870Y-45413579D01*
X113289868Y-45413587D01*
X113249500Y-45616530D01*
X113249500Y-45823469D01*
X113289868Y-46026412D01*
X113289871Y-46026424D01*
X113339803Y-46146971D01*
X113347272Y-46216440D01*
X113315997Y-46278919D01*
X113312924Y-46282104D01*
X113061846Y-46533182D01*
X113000526Y-46566666D01*
X112974167Y-46569500D01*
X99987796Y-46569500D01*
X99920757Y-46549815D01*
X99875002Y-46497011D01*
X99865058Y-46427853D01*
X99884694Y-46376610D01*
X99990940Y-46217600D01*
X99990940Y-46217599D01*
X99990941Y-46217598D01*
X100070130Y-46026420D01*
X100110500Y-45823465D01*
X100110500Y-45616535D01*
X100070130Y-45413580D01*
X99990941Y-45222402D01*
X99875977Y-45050345D01*
X99875975Y-45050342D01*
X99729657Y-44904024D01*
X99559404Y-44790266D01*
X99557598Y-44789059D01*
X99557593Y-44789057D01*
X99366420Y-44709870D01*
X99366412Y-44709868D01*
X99163469Y-44669500D01*
X99163465Y-44669500D01*
X98956535Y-44669500D01*
X98956530Y-44669500D01*
X98753587Y-44709868D01*
X98753579Y-44709870D01*
X98562403Y-44789058D01*
X98390342Y-44904024D01*
X98244024Y-45050342D01*
X98129058Y-45222403D01*
X98049870Y-45413579D01*
X98049868Y-45413587D01*
X98009500Y-45616530D01*
X98009500Y-45823469D01*
X98049868Y-46026412D01*
X98049870Y-46026420D01*
X98077006Y-46091933D01*
X98129059Y-46217598D01*
X98132412Y-46222616D01*
X98244024Y-46389657D01*
X98353844Y-46499477D01*
X98387329Y-46560800D01*
X98382345Y-46630492D01*
X98353844Y-46674839D01*
X97549541Y-47479141D01*
X97549535Y-47479149D01*
X97509982Y-47547658D01*
X97509979Y-47547663D01*
X97489500Y-47624093D01*
X97489500Y-49702135D01*
X97469815Y-49769174D01*
X97453181Y-49789816D01*
X97149541Y-50093455D01*
X97149535Y-50093463D01*
X97109982Y-50161972D01*
X97109979Y-50161977D01*
X97089500Y-50238407D01*
X97089500Y-51836449D01*
X97069815Y-51903488D01*
X97053181Y-51924130D01*
X96749541Y-52227769D01*
X96749535Y-52227777D01*
X96709982Y-52296286D01*
X96709979Y-52296291D01*
X96689500Y-52372721D01*
X96689500Y-54210763D01*
X96669815Y-54277802D01*
X96653181Y-54298444D01*
X96349541Y-54602083D01*
X96349535Y-54602091D01*
X96309982Y-54670600D01*
X96309979Y-54670605D01*
X96289500Y-54747035D01*
X96289500Y-56439895D01*
X96269815Y-56506934D01*
X96253181Y-56527576D01*
X95949541Y-56831215D01*
X95949535Y-56831223D01*
X95909982Y-56899732D01*
X95909979Y-56899737D01*
X95889500Y-56976167D01*
X95889500Y-59064954D01*
X95869815Y-59131993D01*
X95853181Y-59152635D01*
X95549542Y-59456274D01*
X95549540Y-59456277D01*
X95509979Y-59524798D01*
X95496792Y-59574008D01*
X95496792Y-59574011D01*
X95489500Y-59601226D01*
X95489500Y-59601229D01*
X95489500Y-61422051D01*
X95469815Y-61489090D01*
X95453181Y-61509732D01*
X95149541Y-61813371D01*
X95149535Y-61813379D01*
X95109982Y-61881888D01*
X95109979Y-61881893D01*
X95089500Y-61958323D01*
X95089500Y-63796364D01*
X95069815Y-63863403D01*
X95053181Y-63884045D01*
X94788052Y-64149172D01*
X94788048Y-64149178D01*
X94749542Y-64187684D01*
X94749536Y-64187692D01*
X94709983Y-64256201D01*
X94709980Y-64256206D01*
X94689500Y-64332636D01*
X94689500Y-66082332D01*
X94669815Y-66149372D01*
X94653181Y-66170013D01*
X94405489Y-66417706D01*
X94349541Y-66473653D01*
X94349535Y-66473661D01*
X94309982Y-66542170D01*
X94309979Y-66542175D01*
X94289500Y-66618605D01*
X94289500Y-68499407D01*
X94269815Y-68566446D01*
X94253181Y-68587088D01*
X93949541Y-68890727D01*
X93949535Y-68890735D01*
X93909982Y-68959244D01*
X93909979Y-68959249D01*
X93889500Y-69035679D01*
X93889500Y-70665307D01*
X93869815Y-70732346D01*
X93853181Y-70752988D01*
X93549541Y-71056627D01*
X93549535Y-71056635D01*
X93509982Y-71125144D01*
X93509979Y-71125149D01*
X93489500Y-71201579D01*
X93489500Y-73347641D01*
X93472888Y-73409640D01*
X93439979Y-73466640D01*
X93419500Y-73543069D01*
X93419500Y-75141621D01*
X93399815Y-75208660D01*
X93383181Y-75229302D01*
X90501541Y-78110941D01*
X90501535Y-78110949D01*
X90461982Y-78179458D01*
X90461979Y-78179463D01*
X90448326Y-78230416D01*
X90441500Y-78255892D01*
X90441500Y-90515468D01*
X90451656Y-90553371D01*
X90461979Y-90591896D01*
X90461982Y-90591901D01*
X90501535Y-90660410D01*
X90501539Y-90660415D01*
X90501540Y-90660417D01*
X93453182Y-93612064D01*
X93486666Y-93673385D01*
X93489500Y-93699743D01*
X93489500Y-96184411D01*
X93509978Y-96260839D01*
X93529759Y-96295099D01*
X93549540Y-96329361D01*
X93549542Y-96329363D01*
X93853181Y-96633002D01*
X93886666Y-96694325D01*
X93889500Y-96720683D01*
X93889500Y-98495421D01*
X93889500Y-98574545D01*
X93892594Y-98586092D01*
X93909978Y-98650972D01*
X93919335Y-98667178D01*
X93949540Y-98719494D01*
X93949542Y-98719496D01*
X94253181Y-99023135D01*
X94286666Y-99084458D01*
X94289500Y-99110816D01*
X94289500Y-101025041D01*
X94309978Y-101101469D01*
X94324187Y-101126079D01*
X94349540Y-101169991D01*
X94349542Y-101169993D01*
X94653181Y-101473632D01*
X94686666Y-101534955D01*
X94689500Y-101561313D01*
X94689500Y-103228233D01*
X94689500Y-103307357D01*
X94693118Y-103320858D01*
X94709978Y-103383784D01*
X94729759Y-103418044D01*
X94749540Y-103452306D01*
X94749542Y-103452308D01*
X95053181Y-103755947D01*
X95086666Y-103817270D01*
X95089500Y-103843628D01*
X95089500Y-105602548D01*
X95089500Y-105681672D01*
X95096377Y-105707336D01*
X95109978Y-105758099D01*
X95124349Y-105782989D01*
X95149540Y-105826621D01*
X95149542Y-105826623D01*
X95453181Y-106130262D01*
X95486666Y-106191585D01*
X95489500Y-106217943D01*
X95489500Y-108054590D01*
X95509978Y-108131018D01*
X95529759Y-108165278D01*
X95549540Y-108199540D01*
X95549542Y-108199542D01*
X95853181Y-108503181D01*
X95886666Y-108564504D01*
X95889500Y-108590862D01*
X95889500Y-110446119D01*
X95909978Y-110522547D01*
X95929759Y-110556807D01*
X95949540Y-110591069D01*
X95949542Y-110591071D01*
X96253181Y-110894710D01*
X96286666Y-110956033D01*
X96289500Y-110982391D01*
X96289500Y-112820434D01*
X96309978Y-112896862D01*
X96329759Y-112931122D01*
X96349540Y-112965384D01*
X96349542Y-112965386D01*
X96653181Y-113269025D01*
X96686666Y-113330348D01*
X96689500Y-113356706D01*
X96689500Y-115194750D01*
X96709978Y-115271178D01*
X96726908Y-115300500D01*
X96749540Y-115339700D01*
X96749542Y-115339702D01*
X97053180Y-115643340D01*
X97086665Y-115704663D01*
X97089499Y-115731021D01*
X97089499Y-117670880D01*
X97109979Y-117747310D01*
X97109980Y-117747311D01*
X97136445Y-117793150D01*
X97149540Y-117815831D01*
X97684169Y-118350460D01*
X97752692Y-118390022D01*
X97829118Y-118410500D01*
X97908242Y-118410500D01*
X98315216Y-118410500D01*
X98382255Y-118430185D01*
X98428010Y-118482989D01*
X98437954Y-118552147D01*
X98408929Y-118615703D01*
X98402897Y-118622181D01*
X98282863Y-118742214D01*
X98282860Y-118742218D01*
X98173371Y-118906079D01*
X98173364Y-118906092D01*
X98097950Y-119088160D01*
X98097947Y-119088170D01*
X98059500Y-119281456D01*
X98059500Y-119281459D01*
X98059500Y-119478541D01*
X98059500Y-119478543D01*
X98059499Y-119478543D01*
X98097947Y-119671829D01*
X98097950Y-119671839D01*
X98173364Y-119853907D01*
X98173371Y-119853920D01*
X98282860Y-120017781D01*
X98282863Y-120017785D01*
X98422214Y-120157136D01*
X98422218Y-120157139D01*
X98586079Y-120266628D01*
X98586092Y-120266635D01*
X98768160Y-120342049D01*
X98768165Y-120342051D01*
X98768169Y-120342051D01*
X98768170Y-120342052D01*
X98961456Y-120380500D01*
X98961459Y-120380500D01*
X99158543Y-120380500D01*
X99288582Y-120354632D01*
X99351835Y-120342051D01*
X99533914Y-120266632D01*
X99697782Y-120157139D01*
X99837139Y-120017782D01*
X99946632Y-119853914D01*
X100022051Y-119671835D01*
X100060500Y-119478541D01*
X100060500Y-119281459D01*
X100060500Y-119281456D01*
X100022052Y-119088170D01*
X100022051Y-119088169D01*
X100022051Y-119088165D01*
X99982453Y-118992566D01*
X99946635Y-118906092D01*
X99946628Y-118906079D01*
X99894020Y-118827346D01*
X99873142Y-118760669D01*
X99891626Y-118693288D01*
X99943605Y-118646598D01*
X100012575Y-118635422D01*
X100076639Y-118663307D01*
X100084803Y-118670774D01*
X100437681Y-119023652D01*
X100471166Y-119084975D01*
X100474000Y-119111333D01*
X100474000Y-121134062D01*
X100487652Y-121185013D01*
X100494479Y-121210490D01*
X100511514Y-121239994D01*
X100528549Y-121269500D01*
X100534040Y-121279011D01*
X101359540Y-122104511D01*
X101415489Y-122160460D01*
X101415491Y-122160461D01*
X101415495Y-122160464D01*
X101484004Y-122200017D01*
X101484011Y-122200021D01*
X101560438Y-122220500D01*
X101639562Y-122220500D01*
X113258684Y-122220500D01*
X113325723Y-122240185D01*
X113371478Y-122292989D01*
X113373245Y-122297048D01*
X113413364Y-122393907D01*
X113413371Y-122393920D01*
X113522860Y-122557781D01*
X113522863Y-122557785D01*
X113662214Y-122697136D01*
X113662218Y-122697139D01*
X113826079Y-122806628D01*
X113826092Y-122806635D01*
X114008160Y-122882049D01*
X114008165Y-122882051D01*
X114140674Y-122908409D01*
X114189061Y-122918034D01*
X114250972Y-122950419D01*
X114285546Y-123011134D01*
X114281807Y-123080904D01*
X114240940Y-123137576D01*
X114184269Y-123162124D01*
X113995581Y-123192010D01*
X113800968Y-123255244D01*
X113618644Y-123348143D01*
X113574077Y-123380523D01*
X113574077Y-123380524D01*
X114253554Y-124060000D01*
X114247339Y-124060000D01*
X114145606Y-124087259D01*
X114054394Y-124139920D01*
X113979920Y-124214394D01*
X113927259Y-124305606D01*
X113900000Y-124407339D01*
X113900000Y-124413553D01*
X113220524Y-123734077D01*
X113220523Y-123734077D01*
X113188143Y-123778644D01*
X113095244Y-123960968D01*
X113032009Y-124155582D01*
X113000000Y-124357682D01*
X113000000Y-124562317D01*
X113032009Y-124764417D01*
X113095244Y-124959031D01*
X113188141Y-125141350D01*
X113188147Y-125141359D01*
X113220523Y-125185921D01*
X113220524Y-125185922D01*
X113900000Y-124506446D01*
X113900000Y-124512661D01*
X113927259Y-124614394D01*
X113979920Y-124705606D01*
X114054394Y-124780080D01*
X114145606Y-124832741D01*
X114247339Y-124860000D01*
X114253553Y-124860000D01*
X113574076Y-125539474D01*
X113618650Y-125571859D01*
X113800968Y-125664755D01*
X113995582Y-125727990D01*
X114197683Y-125760000D01*
X114402317Y-125760000D01*
X114604417Y-125727990D01*
X114799031Y-125664755D01*
X114981349Y-125571859D01*
X115025921Y-125539474D01*
X114346447Y-124860000D01*
X114352661Y-124860000D01*
X114454394Y-124832741D01*
X114545606Y-124780080D01*
X114620080Y-124705606D01*
X114672741Y-124614394D01*
X114700000Y-124512661D01*
X114700000Y-124506448D01*
X115379474Y-125185922D01*
X115379474Y-125185921D01*
X115411859Y-125141349D01*
X115504755Y-124959031D01*
X115567990Y-124764417D01*
X115577527Y-124704204D01*
X115607456Y-124641069D01*
X115666768Y-124604138D01*
X115736630Y-124605136D01*
X115794863Y-124643746D01*
X115822977Y-124707709D01*
X115824000Y-124723602D01*
X115824000Y-126375499D01*
X115804315Y-126442538D01*
X115751511Y-126488293D01*
X115700000Y-126499499D01*
X90294000Y-126499499D01*
X90226961Y-126479814D01*
X90181206Y-126427010D01*
X90170000Y-126375499D01*
X90170000Y-123814332D01*
X90863500Y-123814332D01*
X90863500Y-124089667D01*
X90863501Y-124089684D01*
X90899438Y-124362655D01*
X90899439Y-124362658D01*
X90899440Y-124362666D01*
X90899441Y-124362668D01*
X90970704Y-124628630D01*
X91076075Y-124883017D01*
X91076080Y-124883028D01*
X91155809Y-125021121D01*
X91213751Y-125121479D01*
X91213753Y-125121482D01*
X91213754Y-125121483D01*
X91381370Y-125339926D01*
X91381376Y-125339933D01*
X91576066Y-125534623D01*
X91576073Y-125534629D01*
X91704403Y-125633099D01*
X91794521Y-125702249D01*
X91894549Y-125760000D01*
X92032971Y-125839919D01*
X92032976Y-125839921D01*
X92032979Y-125839923D01*
X92287368Y-125945295D01*
X92553334Y-126016560D01*
X92826326Y-126052500D01*
X92826333Y-126052500D01*
X93101667Y-126052500D01*
X93101674Y-126052500D01*
X93374666Y-126016560D01*
X93640632Y-125945295D01*
X93895021Y-125839923D01*
X94133479Y-125702249D01*
X94351928Y-125534628D01*
X94546628Y-125339928D01*
X94714249Y-125121479D01*
X94851923Y-124883021D01*
X94957295Y-124628632D01*
X94976075Y-124558543D01*
X98059499Y-124558543D01*
X98097947Y-124751829D01*
X98097950Y-124751839D01*
X98173364Y-124933907D01*
X98173371Y-124933920D01*
X98282860Y-125097781D01*
X98282863Y-125097785D01*
X98422214Y-125237136D01*
X98422218Y-125237139D01*
X98586079Y-125346628D01*
X98586092Y-125346635D01*
X98660980Y-125377654D01*
X98768165Y-125422051D01*
X98768169Y-125422051D01*
X98768170Y-125422052D01*
X98961456Y-125460500D01*
X98961459Y-125460500D01*
X99158543Y-125460500D01*
X99288582Y-125434632D01*
X99351835Y-125422051D01*
X99393164Y-125404931D01*
X99459021Y-125377654D01*
X99533907Y-125346635D01*
X99533907Y-125346634D01*
X99533914Y-125346632D01*
X99697782Y-125237139D01*
X99837139Y-125097782D01*
X99946632Y-124933914D01*
X100022051Y-124751835D01*
X100039111Y-124666068D01*
X100060500Y-124558543D01*
X100060500Y-124361458D01*
X100060499Y-124361455D01*
X100059748Y-124357682D01*
X100022051Y-124168165D01*
X100010352Y-124139920D01*
X99946635Y-123986092D01*
X99946628Y-123986079D01*
X99837139Y-123822218D01*
X99837136Y-123822214D01*
X99697785Y-123682863D01*
X99697781Y-123682860D01*
X99533920Y-123573371D01*
X99533907Y-123573364D01*
X99351839Y-123497950D01*
X99351829Y-123497947D01*
X99158543Y-123459500D01*
X99158541Y-123459500D01*
X98961459Y-123459500D01*
X98961457Y-123459500D01*
X98768170Y-123497947D01*
X98768160Y-123497950D01*
X98586092Y-123573364D01*
X98586079Y-123573371D01*
X98422218Y-123682860D01*
X98422214Y-123682863D01*
X98282863Y-123822214D01*
X98282860Y-123822218D01*
X98173371Y-123986079D01*
X98173364Y-123986092D01*
X98097950Y-124168160D01*
X98097947Y-124168170D01*
X98059500Y-124361456D01*
X98059500Y-124361458D01*
X98059500Y-124361459D01*
X98059500Y-124558541D01*
X98059500Y-124558543D01*
X98059499Y-124558543D01*
X94976075Y-124558543D01*
X95028560Y-124362666D01*
X95064500Y-124089674D01*
X95064500Y-123814326D01*
X95028560Y-123541334D01*
X94957295Y-123275368D01*
X94851923Y-123020979D01*
X94851921Y-123020976D01*
X94851919Y-123020971D01*
X94793911Y-122920500D01*
X94714249Y-122782521D01*
X94546628Y-122564072D01*
X94546623Y-122564066D01*
X94351933Y-122369376D01*
X94351926Y-122369370D01*
X94133483Y-122201754D01*
X94133482Y-122201753D01*
X94133479Y-122201751D01*
X94038407Y-122146861D01*
X93895028Y-122064080D01*
X93895017Y-122064075D01*
X93785094Y-122018543D01*
X98059499Y-122018543D01*
X98097947Y-122211829D01*
X98097950Y-122211839D01*
X98173364Y-122393907D01*
X98173371Y-122393920D01*
X98282860Y-122557781D01*
X98282863Y-122557785D01*
X98422214Y-122697136D01*
X98422218Y-122697139D01*
X98586079Y-122806628D01*
X98586092Y-122806635D01*
X98768160Y-122882049D01*
X98768165Y-122882051D01*
X98768169Y-122882051D01*
X98768170Y-122882052D01*
X98961456Y-122920500D01*
X98961459Y-122920500D01*
X99158543Y-122920500D01*
X99347672Y-122882879D01*
X99351835Y-122882051D01*
X99533914Y-122806632D01*
X99697782Y-122697139D01*
X99837139Y-122557782D01*
X99946632Y-122393914D01*
X100022051Y-122211835D01*
X100060500Y-122018541D01*
X100060500Y-121821459D01*
X100060500Y-121821456D01*
X100022052Y-121628170D01*
X100022051Y-121628169D01*
X100022051Y-121628165D01*
X99986755Y-121542952D01*
X99946635Y-121446092D01*
X99946628Y-121446079D01*
X99837139Y-121282218D01*
X99837136Y-121282214D01*
X99697785Y-121142863D01*
X99697781Y-121142860D01*
X99533920Y-121033371D01*
X99533907Y-121033364D01*
X99351839Y-120957950D01*
X99351829Y-120957947D01*
X99158543Y-120919500D01*
X99158541Y-120919500D01*
X98961459Y-120919500D01*
X98961457Y-120919500D01*
X98768170Y-120957947D01*
X98768160Y-120957950D01*
X98586092Y-121033364D01*
X98586079Y-121033371D01*
X98422218Y-121142860D01*
X98422214Y-121142863D01*
X98282863Y-121282214D01*
X98282860Y-121282218D01*
X98173371Y-121446079D01*
X98173364Y-121446092D01*
X98097950Y-121628160D01*
X98097947Y-121628170D01*
X98059500Y-121821456D01*
X98059500Y-121821459D01*
X98059500Y-122018541D01*
X98059500Y-122018543D01*
X98059499Y-122018543D01*
X93785094Y-122018543D01*
X93640630Y-121958704D01*
X93589107Y-121944899D01*
X93374666Y-121887440D01*
X93374660Y-121887439D01*
X93374655Y-121887438D01*
X93101684Y-121851501D01*
X93101679Y-121851500D01*
X93101674Y-121851500D01*
X92826326Y-121851500D01*
X92826320Y-121851500D01*
X92826315Y-121851501D01*
X92553344Y-121887438D01*
X92553337Y-121887439D01*
X92553334Y-121887440D01*
X92497125Y-121902500D01*
X92287369Y-121958704D01*
X92032982Y-122064075D01*
X92032971Y-122064080D01*
X91810106Y-122192752D01*
X91797518Y-122200021D01*
X91794516Y-122201754D01*
X91576073Y-122369370D01*
X91576066Y-122369376D01*
X91381376Y-122564066D01*
X91381370Y-122564073D01*
X91213754Y-122782516D01*
X91076080Y-123020971D01*
X91076075Y-123020982D01*
X90970704Y-123275369D01*
X90899441Y-123541331D01*
X90899438Y-123541344D01*
X90863501Y-123814315D01*
X90863500Y-123814332D01*
X90170000Y-123814332D01*
X90170000Y-44679636D01*
X90522935Y-44679636D01*
X90588250Y-44776318D01*
X90609235Y-44837624D01*
X90609501Y-44841684D01*
X90645438Y-45114655D01*
X90645439Y-45114660D01*
X90645440Y-45114666D01*
X90645441Y-45114668D01*
X90716704Y-45380630D01*
X90822075Y-45635017D01*
X90822080Y-45635028D01*
X90901809Y-45773121D01*
X90959751Y-45873479D01*
X90959753Y-45873482D01*
X90959754Y-45873483D01*
X91127370Y-46091926D01*
X91127376Y-46091933D01*
X91322066Y-46286623D01*
X91322072Y-46286628D01*
X91540521Y-46454249D01*
X91682078Y-46535977D01*
X91778971Y-46591919D01*
X91778976Y-46591921D01*
X91778979Y-46591923D01*
X92033368Y-46697295D01*
X92299334Y-46768560D01*
X92572326Y-46804500D01*
X92572333Y-46804500D01*
X92847667Y-46804500D01*
X92847674Y-46804500D01*
X93120666Y-46768560D01*
X93386632Y-46697295D01*
X93641021Y-46591923D01*
X93879479Y-46454249D01*
X94097928Y-46286628D01*
X94292628Y-46091928D01*
X94460249Y-45873479D01*
X94597923Y-45635021D01*
X94703295Y-45380632D01*
X94774560Y-45114666D01*
X94810500Y-44841674D01*
X94810500Y-44566326D01*
X94774560Y-44293334D01*
X94703295Y-44027368D01*
X94597923Y-43772979D01*
X94597921Y-43772976D01*
X94597919Y-43772971D01*
X94542855Y-43677598D01*
X94460249Y-43534521D01*
X94292628Y-43316072D01*
X94292623Y-43316066D01*
X94097933Y-43121376D01*
X94097926Y-43121370D01*
X93879483Y-42953754D01*
X93879482Y-42953753D01*
X93879479Y-42953751D01*
X93784407Y-42898861D01*
X93641028Y-42816080D01*
X93641017Y-42816075D01*
X93386630Y-42710704D01*
X93253649Y-42675072D01*
X93120666Y-42639440D01*
X93120660Y-42639439D01*
X93120655Y-42639438D01*
X92847684Y-42603501D01*
X92847679Y-42603500D01*
X92847674Y-42603500D01*
X92572326Y-42603500D01*
X92572320Y-42603500D01*
X92572315Y-42603501D01*
X92299344Y-42639438D01*
X92299337Y-42639439D01*
X92299334Y-42639440D01*
X92243125Y-42654500D01*
X92033369Y-42710704D01*
X91778982Y-42816075D01*
X91778971Y-42816080D01*
X91540516Y-42953754D01*
X91322073Y-43121370D01*
X91322066Y-43121376D01*
X91127376Y-43316066D01*
X91127370Y-43316073D01*
X90959754Y-43534516D01*
X90822080Y-43772971D01*
X90822075Y-43772982D01*
X90716704Y-44027369D01*
X90645441Y-44293331D01*
X90645438Y-44293344D01*
X90609501Y-44566315D01*
X90609235Y-44570376D01*
X90607534Y-44575019D01*
X90608238Y-44579914D01*
X90595638Y-44607503D01*
X90585208Y-44635985D01*
X90581267Y-44638971D01*
X90579213Y-44643470D01*
X90553699Y-44659866D01*
X90529525Y-44678189D01*
X90523455Y-44679302D01*
X90522935Y-44679636D01*
X90170000Y-44679636D01*
X90170000Y-42288000D01*
X90189685Y-42220961D01*
X90242489Y-42175206D01*
X90294000Y-42164000D01*
X98291005Y-42164000D01*
X98358044Y-42183685D01*
G37*
%TD.AperFunction*%
%TA.AperFunction,Conductor*%
G36*
X102761206Y-76520185D02*
G01*
X102781848Y-76536819D01*
X105731192Y-79486163D01*
X105764677Y-79547486D01*
X105759693Y-79617178D01*
X105758073Y-79621295D01*
X105733196Y-79681353D01*
X105723162Y-79705581D01*
X105717948Y-79718168D01*
X105717947Y-79718171D01*
X105679500Y-79911456D01*
X105679500Y-79911459D01*
X105679500Y-80108541D01*
X105679500Y-80108543D01*
X105679499Y-80108543D01*
X105717947Y-80301829D01*
X105717950Y-80301839D01*
X105793364Y-80483907D01*
X105793371Y-80483920D01*
X105902860Y-80647781D01*
X105902863Y-80647785D01*
X106042217Y-80787139D01*
X106187678Y-80884332D01*
X106206086Y-80896632D01*
X106302953Y-80936755D01*
X106357355Y-80980594D01*
X106379421Y-81046888D01*
X106379500Y-81051315D01*
X106379500Y-81319562D01*
X106390474Y-81360518D01*
X106399978Y-81395987D01*
X106418209Y-81427564D01*
X106418208Y-81427564D01*
X106439535Y-81464504D01*
X106439539Y-81464509D01*
X106439540Y-81464511D01*
X107257489Y-82282460D01*
X107316829Y-82316720D01*
X107326008Y-82322020D01*
X107326012Y-82322022D01*
X107402438Y-82342500D01*
X107402440Y-82342500D01*
X113577560Y-82342500D01*
X113577562Y-82342500D01*
X113653989Y-82322021D01*
X113722511Y-82282460D01*
X113778460Y-82226511D01*
X114540460Y-81464511D01*
X114580022Y-81395988D01*
X114600500Y-81319562D01*
X114600500Y-81240438D01*
X114600500Y-81051315D01*
X114620185Y-80984276D01*
X114672989Y-80938521D01*
X114677002Y-80936773D01*
X114773914Y-80896632D01*
X114937782Y-80787139D01*
X115077139Y-80647782D01*
X115186632Y-80483914D01*
X115192938Y-80468688D01*
X115236778Y-80414285D01*
X115303072Y-80392219D01*
X115370772Y-80409497D01*
X115418383Y-80460634D01*
X115431500Y-80516140D01*
X115431500Y-86732425D01*
X115411815Y-86799464D01*
X115359011Y-86845219D01*
X115289853Y-86855163D01*
X115226297Y-86826138D01*
X115207730Y-86806059D01*
X115198719Y-86793850D01*
X115172150Y-86757850D01*
X115062882Y-86677207D01*
X115062880Y-86677206D01*
X114934700Y-86632353D01*
X114904270Y-86629500D01*
X114904266Y-86629500D01*
X113695734Y-86629500D01*
X113695730Y-86629500D01*
X113665300Y-86632353D01*
X113665298Y-86632353D01*
X113537119Y-86677206D01*
X113537117Y-86677207D01*
X113427850Y-86757850D01*
X113347207Y-86867117D01*
X113347206Y-86867119D01*
X113302353Y-86995298D01*
X113302353Y-86995300D01*
X113299500Y-87025730D01*
X113299500Y-88234269D01*
X113302353Y-88264699D01*
X113302353Y-88264701D01*
X113347206Y-88392880D01*
X113347207Y-88392882D01*
X113427850Y-88502150D01*
X113537118Y-88582793D01*
X113563576Y-88592051D01*
X113665299Y-88627646D01*
X113695730Y-88630500D01*
X113695734Y-88630500D01*
X114904270Y-88630500D01*
X114934699Y-88627646D01*
X114934701Y-88627646D01*
X115012009Y-88600594D01*
X115062882Y-88582793D01*
X115172150Y-88502150D01*
X115207730Y-88453939D01*
X115263377Y-88411690D01*
X115333033Y-88406231D01*
X115394583Y-88439298D01*
X115428484Y-88500392D01*
X115431500Y-88527574D01*
X115431500Y-90542425D01*
X115411815Y-90609464D01*
X115359011Y-90655219D01*
X115289853Y-90665163D01*
X115226297Y-90636138D01*
X115207730Y-90616059D01*
X115189900Y-90591901D01*
X115172150Y-90567850D01*
X115062882Y-90487207D01*
X115062880Y-90487206D01*
X114934700Y-90442353D01*
X114904270Y-90439500D01*
X114904266Y-90439500D01*
X113695734Y-90439500D01*
X113695730Y-90439500D01*
X113665300Y-90442353D01*
X113665298Y-90442353D01*
X113537119Y-90487206D01*
X113537117Y-90487207D01*
X113427850Y-90567850D01*
X113347207Y-90677117D01*
X113347206Y-90677119D01*
X113302353Y-90805298D01*
X113302353Y-90805300D01*
X113299500Y-90835730D01*
X113299500Y-92044269D01*
X113302353Y-92074699D01*
X113302353Y-92074701D01*
X113344274Y-92194500D01*
X113347207Y-92202882D01*
X113427850Y-92312150D01*
X113537118Y-92392793D01*
X113579845Y-92407744D01*
X113665299Y-92437646D01*
X113695730Y-92440500D01*
X113695734Y-92440500D01*
X114904270Y-92440500D01*
X114934699Y-92437646D01*
X114934701Y-92437646D01*
X114998790Y-92415219D01*
X115062882Y-92392793D01*
X115172150Y-92312150D01*
X115207730Y-92263939D01*
X115263377Y-92221690D01*
X115333033Y-92216231D01*
X115394583Y-92249298D01*
X115428484Y-92310392D01*
X115431500Y-92337574D01*
X115431500Y-92372166D01*
X115411815Y-92439205D01*
X115395181Y-92459847D01*
X114823835Y-93031192D01*
X114762512Y-93064677D01*
X114692820Y-93059693D01*
X114688702Y-93058072D01*
X114591839Y-93017950D01*
X114591829Y-93017947D01*
X114398543Y-92979500D01*
X114398541Y-92979500D01*
X114201459Y-92979500D01*
X114201457Y-92979500D01*
X114008170Y-93017947D01*
X114008160Y-93017950D01*
X113826092Y-93093364D01*
X113826079Y-93093371D01*
X113662218Y-93202860D01*
X113662214Y-93202863D01*
X113522863Y-93342214D01*
X113522860Y-93342218D01*
X113413371Y-93506079D01*
X113413364Y-93506092D01*
X113337950Y-93688160D01*
X113337947Y-93688170D01*
X113299500Y-93881456D01*
X113299500Y-93881459D01*
X113299500Y-94078541D01*
X113299500Y-94078543D01*
X113299499Y-94078543D01*
X113337947Y-94271829D01*
X113337950Y-94271839D01*
X113413364Y-94453907D01*
X113413371Y-94453920D01*
X113522860Y-94617781D01*
X113522863Y-94617785D01*
X113662214Y-94757136D01*
X113662218Y-94757139D01*
X113826079Y-94866628D01*
X113826092Y-94866635D01*
X113978624Y-94929815D01*
X114008165Y-94942051D01*
X114008169Y-94942051D01*
X114008170Y-94942052D01*
X114201456Y-94980500D01*
X114201459Y-94980500D01*
X114398543Y-94980500D01*
X114528582Y-94954632D01*
X114591835Y-94942051D01*
X114748857Y-94877011D01*
X114773907Y-94866635D01*
X114773907Y-94866634D01*
X114773914Y-94866632D01*
X114937782Y-94757139D01*
X115077139Y-94617782D01*
X115186632Y-94453914D01*
X115262051Y-94271835D01*
X115300500Y-94078541D01*
X115300500Y-93881459D01*
X115300500Y-93881456D01*
X115262052Y-93688170D01*
X115262051Y-93688169D01*
X115262051Y-93688165D01*
X115221925Y-93591294D01*
X115214457Y-93521828D01*
X115245732Y-93459349D01*
X115248776Y-93456194D01*
X115612320Y-93092650D01*
X115673642Y-93059166D01*
X115743334Y-93064150D01*
X115799267Y-93106022D01*
X115823684Y-93171486D01*
X115824000Y-93180332D01*
X115824000Y-124196397D01*
X115804315Y-124263436D01*
X115751511Y-124309191D01*
X115682353Y-124319135D01*
X115618797Y-124290110D01*
X115581023Y-124231332D01*
X115577527Y-124215795D01*
X115567990Y-124155582D01*
X115504755Y-123960968D01*
X115411859Y-123778650D01*
X115379474Y-123734077D01*
X115379474Y-123734076D01*
X114700000Y-124413551D01*
X114700000Y-124407339D01*
X114672741Y-124305606D01*
X114620080Y-124214394D01*
X114545606Y-124139920D01*
X114454394Y-124087259D01*
X114352661Y-124060000D01*
X114346446Y-124060000D01*
X115025922Y-123380524D01*
X115025921Y-123380523D01*
X114981359Y-123348147D01*
X114981350Y-123348141D01*
X114799031Y-123255244D01*
X114604417Y-123192009D01*
X114415731Y-123162124D01*
X114352596Y-123132194D01*
X114315665Y-123072883D01*
X114316663Y-123003020D01*
X114355273Y-122944788D01*
X114410938Y-122918034D01*
X114591835Y-122882051D01*
X114773914Y-122806632D01*
X114937782Y-122697139D01*
X115077139Y-122557782D01*
X115186632Y-122393914D01*
X115262051Y-122211835D01*
X115300500Y-122018541D01*
X115300500Y-121821459D01*
X115300500Y-121821456D01*
X115262052Y-121628170D01*
X115262051Y-121628169D01*
X115262051Y-121628165D01*
X115226755Y-121542952D01*
X115186635Y-121446092D01*
X115186628Y-121446079D01*
X115077139Y-121282218D01*
X115077136Y-121282214D01*
X114937785Y-121142863D01*
X114937781Y-121142860D01*
X114773920Y-121033371D01*
X114773907Y-121033364D01*
X114591839Y-120957950D01*
X114591829Y-120957947D01*
X114398543Y-120919500D01*
X114398541Y-120919500D01*
X114201459Y-120919500D01*
X114201457Y-120919500D01*
X114008170Y-120957947D01*
X114008160Y-120957950D01*
X113826092Y-121033364D01*
X113826079Y-121033371D01*
X113662218Y-121142860D01*
X113662214Y-121142863D01*
X113522863Y-121282214D01*
X113522860Y-121282218D01*
X113413371Y-121446079D01*
X113413364Y-121446092D01*
X113373245Y-121542952D01*
X113329405Y-121597356D01*
X113263111Y-121619421D01*
X113258684Y-121619500D01*
X101775833Y-121619500D01*
X101708794Y-121599815D01*
X101688152Y-121583181D01*
X101111319Y-121006348D01*
X101077834Y-120945025D01*
X101075000Y-120918667D01*
X101075000Y-118895939D01*
X101072161Y-118885343D01*
X101054521Y-118819511D01*
X101020549Y-118760669D01*
X101014964Y-118750995D01*
X101014958Y-118750987D01*
X100133512Y-117869541D01*
X100133504Y-117869535D01*
X100064995Y-117829982D01*
X100064990Y-117829979D01*
X100039513Y-117823152D01*
X99988562Y-117809500D01*
X99988560Y-117809500D01*
X99804784Y-117809500D01*
X99737745Y-117789815D01*
X99691990Y-117737011D01*
X99682046Y-117667853D01*
X99711071Y-117604297D01*
X99717103Y-117597819D01*
X99837136Y-117477785D01*
X99837139Y-117477782D01*
X99946632Y-117313914D01*
X100022051Y-117131835D01*
X100060500Y-116938541D01*
X100060500Y-116741459D01*
X100060500Y-116741456D01*
X100022052Y-116548170D01*
X100022051Y-116548169D01*
X100022051Y-116548165D01*
X100022049Y-116548160D01*
X99946635Y-116366092D01*
X99946628Y-116366079D01*
X99837139Y-116202218D01*
X99837136Y-116202214D01*
X99717103Y-116082181D01*
X99683618Y-116020858D01*
X99688602Y-115951166D01*
X99730474Y-115895233D01*
X99795938Y-115870816D01*
X99804784Y-115870500D01*
X103396813Y-115870500D01*
X103463852Y-115890185D01*
X103509607Y-115942989D01*
X103519551Y-116012147D01*
X103490526Y-116075703D01*
X103431748Y-116113477D01*
X103416211Y-116116973D01*
X103280631Y-116138446D01*
X103056003Y-116211433D01*
X102845566Y-116318657D01*
X102768362Y-116374750D01*
X102654490Y-116457483D01*
X102654488Y-116457485D01*
X102654487Y-116457485D01*
X102487485Y-116624487D01*
X102487485Y-116624488D01*
X102487483Y-116624490D01*
X102427862Y-116706550D01*
X102348657Y-116815566D01*
X102241433Y-117026003D01*
X102168446Y-117250631D01*
X102131500Y-117483902D01*
X102131500Y-117720097D01*
X102168446Y-117953368D01*
X102241433Y-118177996D01*
X102329307Y-118350457D01*
X102348657Y-118388433D01*
X102487483Y-118579510D01*
X102654490Y-118746517D01*
X102845567Y-118885343D01*
X102944991Y-118936002D01*
X103056003Y-118992566D01*
X103056005Y-118992566D01*
X103056008Y-118992568D01*
X103176412Y-119031689D01*
X103280631Y-119065553D01*
X103513903Y-119102500D01*
X103513908Y-119102500D01*
X103750097Y-119102500D01*
X103983368Y-119065553D01*
X104207992Y-118992568D01*
X104418433Y-118885343D01*
X104609510Y-118746517D01*
X104776517Y-118579510D01*
X104915343Y-118388433D01*
X105022568Y-118177992D01*
X105095553Y-117953368D01*
X105108831Y-117869535D01*
X105132500Y-117720097D01*
X105132500Y-117483902D01*
X105095553Y-117250631D01*
X105022566Y-117026003D01*
X104959897Y-116903010D01*
X104915343Y-116815567D01*
X104776517Y-116624490D01*
X104609510Y-116457483D01*
X104418433Y-116318657D01*
X104413538Y-116316163D01*
X104207996Y-116211433D01*
X103983368Y-116138446D01*
X103847789Y-116116973D01*
X103784654Y-116087044D01*
X103747723Y-116027732D01*
X103748721Y-115957870D01*
X103787331Y-115899637D01*
X103851295Y-115871523D01*
X103867187Y-115870500D01*
X109492813Y-115870500D01*
X109559852Y-115890185D01*
X109605607Y-115942989D01*
X109615551Y-116012147D01*
X109586526Y-116075703D01*
X109527748Y-116113477D01*
X109512211Y-116116973D01*
X109376631Y-116138446D01*
X109152003Y-116211433D01*
X108941566Y-116318657D01*
X108864362Y-116374750D01*
X108750490Y-116457483D01*
X108750488Y-116457485D01*
X108750487Y-116457485D01*
X108583485Y-116624487D01*
X108583485Y-116624488D01*
X108583483Y-116624490D01*
X108523862Y-116706550D01*
X108444657Y-116815566D01*
X108337433Y-117026003D01*
X108264446Y-117250631D01*
X108227500Y-117483902D01*
X108227500Y-117720097D01*
X108264446Y-117953368D01*
X108337433Y-118177996D01*
X108425307Y-118350457D01*
X108444657Y-118388433D01*
X108583483Y-118579510D01*
X108750490Y-118746517D01*
X108941567Y-118885343D01*
X109040991Y-118936002D01*
X109152003Y-118992566D01*
X109152005Y-118992566D01*
X109152008Y-118992568D01*
X109272412Y-119031689D01*
X109376631Y-119065553D01*
X109609903Y-119102500D01*
X109609908Y-119102500D01*
X109846097Y-119102500D01*
X110079368Y-119065553D01*
X110303992Y-118992568D01*
X110514433Y-118885343D01*
X110705510Y-118746517D01*
X110872517Y-118579510D01*
X111011343Y-118388433D01*
X111118568Y-118177992D01*
X111191553Y-117953368D01*
X111204831Y-117869535D01*
X111228500Y-117720097D01*
X111228500Y-117483902D01*
X111191553Y-117250631D01*
X111118566Y-117026003D01*
X111055897Y-116903010D01*
X111043001Y-116834341D01*
X111069277Y-116769601D01*
X111126383Y-116729343D01*
X111196189Y-116726351D01*
X111254063Y-116759034D01*
X113351192Y-118856163D01*
X113384677Y-118917486D01*
X113379693Y-118987178D01*
X113378073Y-118991295D01*
X113339271Y-119084975D01*
X113337948Y-119088168D01*
X113337947Y-119088171D01*
X113299500Y-119281456D01*
X113299500Y-119281459D01*
X113299500Y-119478541D01*
X113299500Y-119478543D01*
X113299499Y-119478543D01*
X113337947Y-119671829D01*
X113337950Y-119671839D01*
X113413364Y-119853907D01*
X113413371Y-119853920D01*
X113522860Y-120017781D01*
X113522863Y-120017785D01*
X113662214Y-120157136D01*
X113662218Y-120157139D01*
X113826079Y-120266628D01*
X113826092Y-120266635D01*
X114008160Y-120342049D01*
X114008165Y-120342051D01*
X114008169Y-120342051D01*
X114008170Y-120342052D01*
X114201456Y-120380500D01*
X114201459Y-120380500D01*
X114398543Y-120380500D01*
X114528582Y-120354632D01*
X114591835Y-120342051D01*
X114773914Y-120266632D01*
X114937782Y-120157139D01*
X115077139Y-120017782D01*
X115186632Y-119853914D01*
X115262051Y-119671835D01*
X115300500Y-119478541D01*
X115300500Y-119281459D01*
X115300500Y-119281456D01*
X115262052Y-119088170D01*
X115262051Y-119088169D01*
X115262051Y-119088165D01*
X115222453Y-118992566D01*
X115186635Y-118906092D01*
X115186628Y-118906079D01*
X115077139Y-118742218D01*
X115077136Y-118742214D01*
X114937785Y-118602863D01*
X114937781Y-118602860D01*
X114773920Y-118493371D01*
X114773907Y-118493364D01*
X114591839Y-118417950D01*
X114591829Y-118417947D01*
X114398543Y-118379500D01*
X114398541Y-118379500D01*
X114201459Y-118379500D01*
X114201457Y-118379500D01*
X114008171Y-118417947D01*
X114008168Y-118417948D01*
X114008166Y-118417948D01*
X114008165Y-118417949D01*
X114008163Y-118417950D01*
X113911295Y-118458073D01*
X113841826Y-118465540D01*
X113779347Y-118434265D01*
X113776163Y-118431192D01*
X111027152Y-115682181D01*
X110993667Y-115620858D01*
X110998651Y-115551166D01*
X111040523Y-115495233D01*
X111105987Y-115470816D01*
X111114833Y-115470500D01*
X112454167Y-115470500D01*
X112521206Y-115490185D01*
X112541848Y-115506819D01*
X113351192Y-116316163D01*
X113384677Y-116377486D01*
X113379693Y-116447178D01*
X113378073Y-116451295D01*
X113337948Y-116548168D01*
X113337947Y-116548171D01*
X113299500Y-116741456D01*
X113299500Y-116741459D01*
X113299500Y-116938541D01*
X113299500Y-116938543D01*
X113299499Y-116938543D01*
X113337947Y-117131829D01*
X113337950Y-117131839D01*
X113413364Y-117313907D01*
X113413371Y-117313920D01*
X113522860Y-117477781D01*
X113522863Y-117477785D01*
X113662214Y-117617136D01*
X113662218Y-117617139D01*
X113826079Y-117726628D01*
X113826092Y-117726635D01*
X113938466Y-117773181D01*
X114008165Y-117802051D01*
X114008169Y-117802051D01*
X114008170Y-117802052D01*
X114201456Y-117840500D01*
X114201459Y-117840500D01*
X114398543Y-117840500D01*
X114528582Y-117814632D01*
X114591835Y-117802051D01*
X114773914Y-117726632D01*
X114937782Y-117617139D01*
X115077139Y-117477782D01*
X115186632Y-117313914D01*
X115262051Y-117131835D01*
X115300500Y-116938541D01*
X115300500Y-116741459D01*
X115300500Y-116741456D01*
X115262052Y-116548170D01*
X115262051Y-116548169D01*
X115262051Y-116548165D01*
X115262049Y-116548160D01*
X115186635Y-116366092D01*
X115186628Y-116366079D01*
X115077139Y-116202218D01*
X115077136Y-116202214D01*
X114937785Y-116062863D01*
X114937781Y-116062860D01*
X114773920Y-115953371D01*
X114773907Y-115953364D01*
X114591839Y-115877950D01*
X114591829Y-115877947D01*
X114398543Y-115839500D01*
X114398541Y-115839500D01*
X114201459Y-115839500D01*
X114201457Y-115839500D01*
X114008171Y-115877947D01*
X114008168Y-115877948D01*
X114008166Y-115877948D01*
X114008165Y-115877949D01*
X114008163Y-115877950D01*
X113911295Y-115918073D01*
X113841826Y-115925540D01*
X113779347Y-115894265D01*
X113776163Y-115891192D01*
X112814512Y-114929541D01*
X112814511Y-114929540D01*
X112788857Y-114914729D01*
X112788857Y-114914727D01*
X112788854Y-114914727D01*
X112745994Y-114889981D01*
X112745991Y-114889979D01*
X112707775Y-114879739D01*
X112669562Y-114869500D01*
X112669560Y-114869500D01*
X108410559Y-114869500D01*
X108343520Y-114849815D01*
X108297765Y-114797011D01*
X108287821Y-114727853D01*
X108316846Y-114664297D01*
X108363106Y-114630939D01*
X108447596Y-114595942D01*
X108447596Y-114595941D01*
X108447598Y-114595941D01*
X108619655Y-114480977D01*
X108765977Y-114334655D01*
X108880941Y-114162598D01*
X108960130Y-113971420D01*
X109000500Y-113768465D01*
X109000500Y-113561535D01*
X108960130Y-113358580D01*
X108880941Y-113167402D01*
X108765977Y-112995345D01*
X108765975Y-112995342D01*
X108619657Y-112849024D01*
X108458451Y-112741311D01*
X108447598Y-112734059D01*
X108418608Y-112722051D01*
X108256420Y-112654870D01*
X108256412Y-112654868D01*
X108053469Y-112614500D01*
X108053465Y-112614500D01*
X107846535Y-112614500D01*
X107846530Y-112614500D01*
X107643587Y-112654868D01*
X107643579Y-112654870D01*
X107452403Y-112734058D01*
X107280342Y-112849024D01*
X107134024Y-112995342D01*
X107019058Y-113167403D01*
X106998561Y-113216888D01*
X106954720Y-113271291D01*
X106888426Y-113293356D01*
X106820726Y-113276077D01*
X106773116Y-113224939D01*
X106760000Y-113169435D01*
X106760000Y-112767172D01*
X106759999Y-112767155D01*
X106753598Y-112707627D01*
X106753596Y-112707620D01*
X106703354Y-112572913D01*
X106703350Y-112572906D01*
X106617190Y-112457812D01*
X106617187Y-112457809D01*
X106502093Y-112371649D01*
X106502086Y-112371645D01*
X106367379Y-112321403D01*
X106367372Y-112321401D01*
X106307844Y-112315000D01*
X105660000Y-112315000D01*
X105660000Y-113231988D01*
X105602993Y-113199075D01*
X105475826Y-113165000D01*
X105344174Y-113165000D01*
X105217007Y-113199075D01*
X105160000Y-113231988D01*
X105160000Y-112315000D01*
X104512155Y-112315000D01*
X104452627Y-112321401D01*
X104452620Y-112321403D01*
X104317913Y-112371645D01*
X104317906Y-112371649D01*
X104202812Y-112457809D01*
X104202809Y-112457812D01*
X104116649Y-112572906D01*
X104116645Y-112572913D01*
X104066403Y-112707620D01*
X104066401Y-112707627D01*
X104060000Y-112767155D01*
X104060000Y-113415000D01*
X104976988Y-113415000D01*
X104944075Y-113472007D01*
X104910000Y-113599174D01*
X104910000Y-113730826D01*
X104944075Y-113857993D01*
X104976988Y-113915000D01*
X104060000Y-113915000D01*
X104060000Y-114562844D01*
X104066401Y-114622372D01*
X104066403Y-114622379D01*
X104096162Y-114702167D01*
X104101146Y-114771858D01*
X104067661Y-114833182D01*
X104006338Y-114866666D01*
X103979980Y-114869500D01*
X101883833Y-114869500D01*
X101816794Y-114849815D01*
X101796152Y-114833181D01*
X99814504Y-112851532D01*
X99685953Y-112722981D01*
X99652468Y-112661658D01*
X99657452Y-112591966D01*
X99693515Y-112541487D01*
X99693475Y-112541447D01*
X99693717Y-112541204D01*
X99694978Y-112539440D01*
X99697777Y-112537142D01*
X99697782Y-112537139D01*
X99837139Y-112397782D01*
X99946632Y-112233914D01*
X100022051Y-112051835D01*
X100060500Y-111858541D01*
X100060500Y-111661459D01*
X100060500Y-111661456D01*
X100022052Y-111468170D01*
X100022051Y-111468169D01*
X100022051Y-111468165D01*
X100022049Y-111468160D01*
X99946635Y-111286092D01*
X99946628Y-111286079D01*
X99837139Y-111122218D01*
X99837136Y-111122214D01*
X99717103Y-111002181D01*
X99683618Y-110940858D01*
X99688602Y-110871166D01*
X99730474Y-110815233D01*
X99795938Y-110790816D01*
X99804784Y-110790500D01*
X99861560Y-110790500D01*
X99861562Y-110790500D01*
X99937989Y-110770021D01*
X100006511Y-110730460D01*
X100062460Y-110674511D01*
X101850152Y-108886819D01*
X101911475Y-108853334D01*
X101937833Y-108850500D01*
X107491324Y-108850500D01*
X107558363Y-108870185D01*
X107579005Y-108886819D01*
X107642686Y-108950500D01*
X107756814Y-109016392D01*
X107884108Y-109050500D01*
X107884110Y-109050500D01*
X108015890Y-109050500D01*
X108015892Y-109050500D01*
X108143186Y-109016392D01*
X108257314Y-108950500D01*
X108303741Y-108904072D01*
X108365062Y-108870588D01*
X108434753Y-108875572D01*
X108479102Y-108904073D01*
X113351192Y-113776163D01*
X113384677Y-113837486D01*
X113379693Y-113907178D01*
X113378073Y-113911295D01*
X113337948Y-114008168D01*
X113337947Y-114008171D01*
X113299500Y-114201456D01*
X113299500Y-114201459D01*
X113299500Y-114398541D01*
X113299500Y-114398543D01*
X113299499Y-114398543D01*
X113337947Y-114591829D01*
X113337950Y-114591839D01*
X113413364Y-114773907D01*
X113413371Y-114773920D01*
X113522860Y-114937781D01*
X113522863Y-114937785D01*
X113662214Y-115077136D01*
X113662218Y-115077139D01*
X113826079Y-115186628D01*
X113826092Y-115186635D01*
X113938466Y-115233181D01*
X114008165Y-115262051D01*
X114008169Y-115262051D01*
X114008170Y-115262052D01*
X114201456Y-115300500D01*
X114201459Y-115300500D01*
X114398543Y-115300500D01*
X114545956Y-115271177D01*
X114591835Y-115262051D01*
X114773914Y-115186632D01*
X114937782Y-115077139D01*
X115077139Y-114937782D01*
X115186632Y-114773914D01*
X115262051Y-114591835D01*
X115300500Y-114398541D01*
X115300500Y-114201459D01*
X115300500Y-114201456D01*
X115262052Y-114008170D01*
X115262051Y-114008169D01*
X115262051Y-114008165D01*
X115223461Y-113915000D01*
X115186635Y-113826092D01*
X115186628Y-113826079D01*
X115077139Y-113662218D01*
X115077136Y-113662214D01*
X114937785Y-113522863D01*
X114937781Y-113522860D01*
X114773920Y-113413371D01*
X114773907Y-113413364D01*
X114591839Y-113337950D01*
X114591829Y-113337947D01*
X114398543Y-113299500D01*
X114398541Y-113299500D01*
X114201459Y-113299500D01*
X114201457Y-113299500D01*
X114008171Y-113337947D01*
X114008168Y-113337948D01*
X114008166Y-113337948D01*
X114008165Y-113337949D01*
X114008163Y-113337950D01*
X113911295Y-113378073D01*
X113841826Y-113385540D01*
X113779347Y-113354265D01*
X113776163Y-113351192D01*
X108887152Y-108462181D01*
X108853667Y-108400858D01*
X108858651Y-108331166D01*
X108900523Y-108275233D01*
X108965987Y-108250816D01*
X108974833Y-108250500D01*
X110314167Y-108250500D01*
X110381206Y-108270185D01*
X110401848Y-108286819D01*
X113351192Y-111236163D01*
X113384677Y-111297486D01*
X113379693Y-111367178D01*
X113378073Y-111371295D01*
X113337948Y-111468168D01*
X113337947Y-111468171D01*
X113299500Y-111661456D01*
X113299500Y-111661459D01*
X113299500Y-111858541D01*
X113299500Y-111858543D01*
X113299499Y-111858543D01*
X113337947Y-112051829D01*
X113337950Y-112051839D01*
X113413364Y-112233907D01*
X113413371Y-112233920D01*
X113522860Y-112397781D01*
X113522863Y-112397785D01*
X113662214Y-112537136D01*
X113662218Y-112537139D01*
X113826079Y-112646628D01*
X113826092Y-112646635D01*
X113973325Y-112707620D01*
X114008165Y-112722051D01*
X114008169Y-112722051D01*
X114008170Y-112722052D01*
X114201456Y-112760500D01*
X114201459Y-112760500D01*
X114398543Y-112760500D01*
X114531472Y-112734058D01*
X114591835Y-112722051D01*
X114754026Y-112654870D01*
X114773907Y-112646635D01*
X114773907Y-112646634D01*
X114773914Y-112646632D01*
X114937782Y-112537139D01*
X115077139Y-112397782D01*
X115186632Y-112233914D01*
X115262051Y-112051835D01*
X115300500Y-111858541D01*
X115300500Y-111661459D01*
X115300500Y-111661456D01*
X115262052Y-111468170D01*
X115262051Y-111468169D01*
X115262051Y-111468165D01*
X115262049Y-111468160D01*
X115186635Y-111286092D01*
X115186628Y-111286079D01*
X115077139Y-111122218D01*
X115077136Y-111122214D01*
X114937785Y-110982863D01*
X114937781Y-110982860D01*
X114773920Y-110873371D01*
X114773907Y-110873364D01*
X114591839Y-110797950D01*
X114591829Y-110797947D01*
X114398543Y-110759500D01*
X114398541Y-110759500D01*
X114201459Y-110759500D01*
X114201457Y-110759500D01*
X114008171Y-110797947D01*
X114008168Y-110797948D01*
X114008166Y-110797948D01*
X114008165Y-110797949D01*
X114008163Y-110797950D01*
X113911295Y-110838073D01*
X113841826Y-110845540D01*
X113779347Y-110814265D01*
X113776163Y-110811192D01*
X110674513Y-107709542D01*
X110674508Y-107709538D01*
X110662291Y-107702484D01*
X110662289Y-107702484D01*
X110605989Y-107669979D01*
X110529562Y-107649500D01*
X110529560Y-107649500D01*
X99804784Y-107649500D01*
X99737745Y-107629815D01*
X99691990Y-107577011D01*
X99682046Y-107507853D01*
X99711071Y-107444297D01*
X99717103Y-107437819D01*
X99837136Y-107317785D01*
X99837139Y-107317782D01*
X99946632Y-107153914D01*
X100022051Y-106971835D01*
X100060500Y-106778541D01*
X100060500Y-106581459D01*
X100060500Y-106581456D01*
X100022052Y-106388170D01*
X100022051Y-106388169D01*
X100022051Y-106388165D01*
X100022049Y-106388160D01*
X99946635Y-106206092D01*
X99946628Y-106206079D01*
X99837139Y-106042218D01*
X99837136Y-106042214D01*
X99717103Y-105922181D01*
X99683618Y-105860858D01*
X99688602Y-105791166D01*
X99730474Y-105735233D01*
X99795938Y-105710816D01*
X99804784Y-105710500D01*
X110314167Y-105710500D01*
X110381206Y-105730185D01*
X110401848Y-105746819D01*
X113351192Y-108696163D01*
X113384677Y-108757486D01*
X113379693Y-108827178D01*
X113378073Y-108831295D01*
X113337948Y-108928168D01*
X113337947Y-108928171D01*
X113299500Y-109121456D01*
X113299500Y-109121459D01*
X113299500Y-109318541D01*
X113299500Y-109318543D01*
X113299499Y-109318543D01*
X113337947Y-109511829D01*
X113337950Y-109511839D01*
X113413364Y-109693907D01*
X113413371Y-109693920D01*
X113522860Y-109857781D01*
X113522863Y-109857785D01*
X113662214Y-109997136D01*
X113662218Y-109997139D01*
X113826079Y-110106628D01*
X113826092Y-110106635D01*
X113938466Y-110153181D01*
X114008165Y-110182051D01*
X114008169Y-110182051D01*
X114008170Y-110182052D01*
X114201456Y-110220500D01*
X114201459Y-110220500D01*
X114398543Y-110220500D01*
X114528582Y-110194632D01*
X114591835Y-110182051D01*
X114773914Y-110106632D01*
X114937782Y-109997139D01*
X115077139Y-109857782D01*
X115186632Y-109693914D01*
X115262051Y-109511835D01*
X115300500Y-109318541D01*
X115300500Y-109121459D01*
X115300500Y-109121456D01*
X115262052Y-108928170D01*
X115262051Y-108928169D01*
X115262051Y-108928165D01*
X115244925Y-108886819D01*
X115186635Y-108746092D01*
X115186628Y-108746079D01*
X115077139Y-108582218D01*
X115077136Y-108582214D01*
X114937785Y-108442863D01*
X114937781Y-108442860D01*
X114773920Y-108333371D01*
X114773907Y-108333364D01*
X114591839Y-108257950D01*
X114591829Y-108257947D01*
X114398543Y-108219500D01*
X114398541Y-108219500D01*
X114201459Y-108219500D01*
X114201457Y-108219500D01*
X114008171Y-108257947D01*
X114008168Y-108257948D01*
X114008166Y-108257948D01*
X114008165Y-108257949D01*
X114008163Y-108257950D01*
X113911295Y-108298073D01*
X113841826Y-108305540D01*
X113779347Y-108274265D01*
X113776163Y-108271192D01*
X110674511Y-105169540D01*
X110664709Y-105163881D01*
X110624212Y-105140500D01*
X110605990Y-105129979D01*
X110580513Y-105123152D01*
X110529562Y-105109500D01*
X110529560Y-105109500D01*
X99804784Y-105109500D01*
X99737745Y-105089815D01*
X99691990Y-105037011D01*
X99682046Y-104967853D01*
X99711071Y-104904297D01*
X99717103Y-104897819D01*
X99837136Y-104777785D01*
X99837139Y-104777782D01*
X99946632Y-104613914D01*
X100022051Y-104431835D01*
X100060500Y-104238541D01*
X100060500Y-104041459D01*
X100060500Y-104041456D01*
X100022052Y-103848170D01*
X100022051Y-103848169D01*
X100022051Y-103848165D01*
X99998897Y-103792266D01*
X99946635Y-103666092D01*
X99946628Y-103666079D01*
X99837139Y-103502218D01*
X99837136Y-103502214D01*
X99717103Y-103382181D01*
X99683618Y-103320858D01*
X99688602Y-103251166D01*
X99730474Y-103195233D01*
X99795938Y-103170816D01*
X99804784Y-103170500D01*
X110314167Y-103170500D01*
X110381206Y-103190185D01*
X110401848Y-103206819D01*
X113351192Y-106156163D01*
X113384677Y-106217486D01*
X113379693Y-106287178D01*
X113378073Y-106291295D01*
X113337948Y-106388168D01*
X113337947Y-106388171D01*
X113299500Y-106581456D01*
X113299500Y-106581459D01*
X113299500Y-106778541D01*
X113299500Y-106778543D01*
X113299499Y-106778543D01*
X113337947Y-106971829D01*
X113337950Y-106971839D01*
X113413364Y-107153907D01*
X113413371Y-107153920D01*
X113522860Y-107317781D01*
X113522863Y-107317785D01*
X113662214Y-107457136D01*
X113662218Y-107457139D01*
X113826079Y-107566628D01*
X113826092Y-107566635D01*
X113938466Y-107613181D01*
X114008165Y-107642051D01*
X114008169Y-107642051D01*
X114008170Y-107642052D01*
X114201456Y-107680500D01*
X114201459Y-107680500D01*
X114398543Y-107680500D01*
X114528582Y-107654632D01*
X114591835Y-107642051D01*
X114773914Y-107566632D01*
X114937782Y-107457139D01*
X115077139Y-107317782D01*
X115186632Y-107153914D01*
X115262051Y-106971835D01*
X115300500Y-106778541D01*
X115300500Y-106581459D01*
X115300500Y-106581456D01*
X115262052Y-106388170D01*
X115262051Y-106388169D01*
X115262051Y-106388165D01*
X115262049Y-106388160D01*
X115186635Y-106206092D01*
X115186628Y-106206079D01*
X115077139Y-106042218D01*
X115077136Y-106042214D01*
X114937785Y-105902863D01*
X114937781Y-105902860D01*
X114773920Y-105793371D01*
X114773907Y-105793364D01*
X114591839Y-105717950D01*
X114591829Y-105717947D01*
X114398543Y-105679500D01*
X114398541Y-105679500D01*
X114201459Y-105679500D01*
X114201457Y-105679500D01*
X114008171Y-105717947D01*
X114008168Y-105717948D01*
X114008166Y-105717948D01*
X114008165Y-105717949D01*
X113979187Y-105729952D01*
X113911295Y-105758073D01*
X113841826Y-105765540D01*
X113779347Y-105734265D01*
X113776163Y-105731192D01*
X110674511Y-102629540D01*
X110664709Y-102623881D01*
X110624212Y-102600500D01*
X110605990Y-102589979D01*
X110580513Y-102583152D01*
X110529562Y-102569500D01*
X110529560Y-102569500D01*
X99804784Y-102569500D01*
X99737745Y-102549815D01*
X99691990Y-102497011D01*
X99682046Y-102427853D01*
X99711071Y-102364297D01*
X99717103Y-102357819D01*
X99837136Y-102237785D01*
X99837139Y-102237782D01*
X99946632Y-102073914D01*
X100022051Y-101891835D01*
X100060500Y-101698541D01*
X100060500Y-101501459D01*
X100060500Y-101501456D01*
X100022052Y-101308170D01*
X100022051Y-101308169D01*
X100022051Y-101308165D01*
X100022049Y-101308160D01*
X99946635Y-101126092D01*
X99946628Y-101126079D01*
X99837139Y-100962218D01*
X99837136Y-100962214D01*
X99717103Y-100842181D01*
X99683618Y-100780858D01*
X99688602Y-100711166D01*
X99730474Y-100655233D01*
X99795938Y-100630816D01*
X99804784Y-100630500D01*
X110314167Y-100630500D01*
X110381206Y-100650185D01*
X110401848Y-100666819D01*
X113351192Y-103616163D01*
X113384677Y-103677486D01*
X113379693Y-103747178D01*
X113378073Y-103751295D01*
X113337948Y-103848168D01*
X113337947Y-103848171D01*
X113299500Y-104041456D01*
X113299500Y-104041459D01*
X113299500Y-104238541D01*
X113299500Y-104238543D01*
X113299499Y-104238543D01*
X113337947Y-104431829D01*
X113337950Y-104431839D01*
X113413364Y-104613907D01*
X113413371Y-104613920D01*
X113522860Y-104777781D01*
X113522863Y-104777785D01*
X113662214Y-104917136D01*
X113662218Y-104917139D01*
X113826079Y-105026628D01*
X113826092Y-105026635D01*
X113938466Y-105073181D01*
X114008165Y-105102051D01*
X114008169Y-105102051D01*
X114008170Y-105102052D01*
X114201456Y-105140500D01*
X114201459Y-105140500D01*
X114398543Y-105140500D01*
X114528582Y-105114632D01*
X114591835Y-105102051D01*
X114773914Y-105026632D01*
X114937782Y-104917139D01*
X115077139Y-104777782D01*
X115186632Y-104613914D01*
X115262051Y-104431835D01*
X115300500Y-104238541D01*
X115300500Y-104041459D01*
X115300500Y-104041456D01*
X115262052Y-103848170D01*
X115262051Y-103848169D01*
X115262051Y-103848165D01*
X115238897Y-103792266D01*
X115186635Y-103666092D01*
X115186628Y-103666079D01*
X115077139Y-103502218D01*
X115077136Y-103502214D01*
X114937785Y-103362863D01*
X114937781Y-103362860D01*
X114773920Y-103253371D01*
X114773907Y-103253364D01*
X114591839Y-103177950D01*
X114591829Y-103177947D01*
X114398543Y-103139500D01*
X114398541Y-103139500D01*
X114201459Y-103139500D01*
X114201457Y-103139500D01*
X114008171Y-103177947D01*
X114008168Y-103177948D01*
X114008166Y-103177948D01*
X114008165Y-103177949D01*
X114008163Y-103177950D01*
X113911295Y-103218073D01*
X113841826Y-103225540D01*
X113779347Y-103194265D01*
X113776163Y-103191192D01*
X110674512Y-100089541D01*
X110674504Y-100089535D01*
X110633989Y-100066144D01*
X110633987Y-100066144D01*
X110605989Y-100049979D01*
X110529562Y-100029500D01*
X110529560Y-100029500D01*
X99804784Y-100029500D01*
X99737745Y-100009815D01*
X99691990Y-99957011D01*
X99682046Y-99887853D01*
X99711071Y-99824297D01*
X99717103Y-99817819D01*
X99837136Y-99697785D01*
X99837139Y-99697782D01*
X99946632Y-99533914D01*
X100022051Y-99351835D01*
X100060500Y-99158541D01*
X100060500Y-98961459D01*
X100060500Y-98961456D01*
X100022052Y-98768170D01*
X100022051Y-98768169D01*
X100022051Y-98768165D01*
X100001891Y-98719493D01*
X99946635Y-98586092D01*
X99946628Y-98586079D01*
X99837139Y-98422218D01*
X99837136Y-98422214D01*
X99717103Y-98302181D01*
X99683618Y-98240858D01*
X99688602Y-98171166D01*
X99730474Y-98115233D01*
X99795938Y-98090816D01*
X99804784Y-98090500D01*
X110314167Y-98090500D01*
X110381206Y-98110185D01*
X110401848Y-98126819D01*
X113351192Y-101076163D01*
X113384677Y-101137486D01*
X113379693Y-101207178D01*
X113378073Y-101211295D01*
X113337948Y-101308168D01*
X113337947Y-101308171D01*
X113299500Y-101501456D01*
X113299500Y-101501459D01*
X113299500Y-101698541D01*
X113299500Y-101698543D01*
X113299499Y-101698543D01*
X113337947Y-101891829D01*
X113337950Y-101891839D01*
X113413364Y-102073907D01*
X113413371Y-102073920D01*
X113522860Y-102237781D01*
X113522863Y-102237785D01*
X113662214Y-102377136D01*
X113662218Y-102377139D01*
X113826079Y-102486628D01*
X113826092Y-102486635D01*
X113938466Y-102533181D01*
X114008165Y-102562051D01*
X114008169Y-102562051D01*
X114008170Y-102562052D01*
X114201456Y-102600500D01*
X114201459Y-102600500D01*
X114398543Y-102600500D01*
X114528582Y-102574632D01*
X114591835Y-102562051D01*
X114773914Y-102486632D01*
X114937782Y-102377139D01*
X115077139Y-102237782D01*
X115186632Y-102073914D01*
X115262051Y-101891835D01*
X115300500Y-101698541D01*
X115300500Y-101501459D01*
X115300500Y-101501456D01*
X115262052Y-101308170D01*
X115262051Y-101308169D01*
X115262051Y-101308165D01*
X115262049Y-101308160D01*
X115186635Y-101126092D01*
X115186628Y-101126079D01*
X115077139Y-100962218D01*
X115077136Y-100962214D01*
X114937785Y-100822863D01*
X114937781Y-100822860D01*
X114773920Y-100713371D01*
X114773907Y-100713364D01*
X114591839Y-100637950D01*
X114591829Y-100637947D01*
X114398543Y-100599500D01*
X114398541Y-100599500D01*
X114201459Y-100599500D01*
X114201457Y-100599500D01*
X114008171Y-100637947D01*
X114008168Y-100637948D01*
X114008166Y-100637948D01*
X114008165Y-100637949D01*
X114008163Y-100637950D01*
X113911295Y-100678073D01*
X113841826Y-100685540D01*
X113779347Y-100654265D01*
X113776163Y-100651192D01*
X110674512Y-97549541D01*
X110674504Y-97549535D01*
X110626892Y-97522046D01*
X110626892Y-97522047D01*
X110614824Y-97515079D01*
X110605989Y-97509979D01*
X110529562Y-97489500D01*
X110529560Y-97489500D01*
X99804784Y-97489500D01*
X99737745Y-97469815D01*
X99691990Y-97417011D01*
X99682046Y-97347853D01*
X99711071Y-97284297D01*
X99717103Y-97277819D01*
X99837136Y-97157785D01*
X99837139Y-97157782D01*
X99946632Y-96993914D01*
X100022051Y-96811835D01*
X100034632Y-96748582D01*
X100060500Y-96618543D01*
X100060500Y-96421456D01*
X100022052Y-96228170D01*
X100022051Y-96228169D01*
X100022051Y-96228165D01*
X100003928Y-96184411D01*
X99946635Y-96046092D01*
X99946628Y-96046079D01*
X99837139Y-95882218D01*
X99837136Y-95882214D01*
X99717103Y-95762181D01*
X99683618Y-95700858D01*
X99688602Y-95631166D01*
X99730474Y-95575233D01*
X99795938Y-95550816D01*
X99804784Y-95550500D01*
X110314167Y-95550500D01*
X110381206Y-95570185D01*
X110401848Y-95586819D01*
X113351192Y-98536163D01*
X113384677Y-98597486D01*
X113379693Y-98667178D01*
X113378073Y-98671295D01*
X113337948Y-98768168D01*
X113337947Y-98768171D01*
X113299500Y-98961456D01*
X113299500Y-98961459D01*
X113299500Y-99158541D01*
X113299500Y-99158543D01*
X113299499Y-99158543D01*
X113337947Y-99351829D01*
X113337950Y-99351839D01*
X113413364Y-99533907D01*
X113413371Y-99533920D01*
X113522860Y-99697781D01*
X113522863Y-99697785D01*
X113662214Y-99837136D01*
X113662218Y-99837139D01*
X113826079Y-99946628D01*
X113826092Y-99946635D01*
X113938466Y-99993181D01*
X114008165Y-100022051D01*
X114008169Y-100022051D01*
X114008170Y-100022052D01*
X114201456Y-100060500D01*
X114201459Y-100060500D01*
X114398543Y-100060500D01*
X114528582Y-100034632D01*
X114591835Y-100022051D01*
X114773914Y-99946632D01*
X114937782Y-99837139D01*
X115077139Y-99697782D01*
X115186632Y-99533914D01*
X115262051Y-99351835D01*
X115300500Y-99158541D01*
X115300500Y-98961459D01*
X115300500Y-98961456D01*
X115262052Y-98768170D01*
X115262051Y-98768169D01*
X115262051Y-98768165D01*
X115241891Y-98719493D01*
X115186635Y-98586092D01*
X115186628Y-98586079D01*
X115077139Y-98422218D01*
X115077136Y-98422214D01*
X114937785Y-98282863D01*
X114937781Y-98282860D01*
X114773920Y-98173371D01*
X114773907Y-98173364D01*
X114591839Y-98097950D01*
X114591829Y-98097947D01*
X114398543Y-98059500D01*
X114398541Y-98059500D01*
X114201459Y-98059500D01*
X114201457Y-98059500D01*
X114008171Y-98097947D01*
X114008168Y-98097948D01*
X114008166Y-98097948D01*
X114008165Y-98097949D01*
X114008163Y-98097950D01*
X113911295Y-98138073D01*
X113841826Y-98145540D01*
X113779347Y-98114265D01*
X113776163Y-98111192D01*
X110674511Y-95009540D01*
X110664709Y-95003881D01*
X110621460Y-94978911D01*
X110605990Y-94969979D01*
X110580513Y-94963152D01*
X110529562Y-94949500D01*
X110529560Y-94949500D01*
X99804784Y-94949500D01*
X99737745Y-94929815D01*
X99691990Y-94877011D01*
X99682046Y-94807853D01*
X99711071Y-94744297D01*
X99717103Y-94737819D01*
X99837136Y-94617785D01*
X99837139Y-94617782D01*
X99946632Y-94453914D01*
X100022051Y-94271835D01*
X100060500Y-94078541D01*
X100060500Y-93881459D01*
X100060500Y-93881456D01*
X100022052Y-93688170D01*
X100022051Y-93688169D01*
X100022051Y-93688165D01*
X100015929Y-93673385D01*
X99946635Y-93506092D01*
X99946628Y-93506079D01*
X99837139Y-93342218D01*
X99837136Y-93342214D01*
X99717103Y-93222181D01*
X99683618Y-93160858D01*
X99688602Y-93091166D01*
X99730474Y-93035233D01*
X99795938Y-93010816D01*
X99804784Y-93010500D01*
X105938481Y-93010500D01*
X106005520Y-93030185D01*
X106026162Y-93046819D01*
X106150830Y-93171486D01*
X106273855Y-93294511D01*
X106329804Y-93350460D01*
X106329806Y-93350461D01*
X106329810Y-93350464D01*
X106398319Y-93390017D01*
X106398326Y-93390021D01*
X106474753Y-93410500D01*
X110714166Y-93410500D01*
X110781205Y-93430185D01*
X110801847Y-93446819D01*
X113351192Y-95996163D01*
X113384677Y-96057486D01*
X113379693Y-96127178D01*
X113378073Y-96131295D01*
X113337948Y-96228168D01*
X113337947Y-96228171D01*
X113299500Y-96421456D01*
X113299500Y-96421459D01*
X113299500Y-96618541D01*
X113299500Y-96618543D01*
X113299499Y-96618543D01*
X113337947Y-96811829D01*
X113337950Y-96811839D01*
X113413364Y-96993907D01*
X113413371Y-96993920D01*
X113522860Y-97157781D01*
X113522863Y-97157785D01*
X113662214Y-97297136D01*
X113662218Y-97297139D01*
X113826079Y-97406628D01*
X113826092Y-97406635D01*
X113938466Y-97453181D01*
X114008165Y-97482051D01*
X114008169Y-97482051D01*
X114008170Y-97482052D01*
X114201456Y-97520500D01*
X114201459Y-97520500D01*
X114398543Y-97520500D01*
X114528582Y-97494632D01*
X114591835Y-97482051D01*
X114773914Y-97406632D01*
X114937782Y-97297139D01*
X115077139Y-97157782D01*
X115186632Y-96993914D01*
X115262051Y-96811835D01*
X115274632Y-96748582D01*
X115300500Y-96618543D01*
X115300500Y-96421456D01*
X115262052Y-96228170D01*
X115262051Y-96228169D01*
X115262051Y-96228165D01*
X115243928Y-96184411D01*
X115186635Y-96046092D01*
X115186628Y-96046079D01*
X115077139Y-95882218D01*
X115077136Y-95882214D01*
X114937785Y-95742863D01*
X114937781Y-95742860D01*
X114773920Y-95633371D01*
X114773907Y-95633364D01*
X114591839Y-95557950D01*
X114591829Y-95557947D01*
X114398543Y-95519500D01*
X114398541Y-95519500D01*
X114201459Y-95519500D01*
X114201457Y-95519500D01*
X114008171Y-95557947D01*
X114008168Y-95557948D01*
X114008166Y-95557948D01*
X114008165Y-95557949D01*
X114008163Y-95557950D01*
X113911295Y-95598073D01*
X113841826Y-95605540D01*
X113779347Y-95574265D01*
X113776163Y-95571192D01*
X111074511Y-92869541D01*
X111074510Y-92869540D01*
X111038067Y-92848500D01*
X111038067Y-92848499D01*
X111038063Y-92848498D01*
X111026871Y-92842036D01*
X111005989Y-92829979D01*
X111005990Y-92829979D01*
X110967774Y-92819739D01*
X110929561Y-92809500D01*
X110929559Y-92809500D01*
X106690148Y-92809500D01*
X106623109Y-92789815D01*
X106602467Y-92773181D01*
X106298827Y-92469542D01*
X106298825Y-92469540D01*
X106246284Y-92439205D01*
X106230303Y-92429978D01*
X106192089Y-92419739D01*
X106153876Y-92409500D01*
X106153875Y-92409500D01*
X99804784Y-92409500D01*
X99737745Y-92389815D01*
X99691990Y-92337011D01*
X99682046Y-92267853D01*
X99711071Y-92204297D01*
X99717103Y-92197819D01*
X99837136Y-92077785D01*
X99837139Y-92077782D01*
X99946632Y-91913914D01*
X100022051Y-91731835D01*
X100039627Y-91643475D01*
X100060500Y-91538543D01*
X100060500Y-91341456D01*
X100022052Y-91148170D01*
X100022051Y-91148169D01*
X100022051Y-91148165D01*
X99993305Y-91078765D01*
X99946635Y-90966092D01*
X99946628Y-90966079D01*
X99837139Y-90802218D01*
X99837136Y-90802214D01*
X99697785Y-90662863D01*
X99697781Y-90662860D01*
X99533920Y-90553371D01*
X99533907Y-90553364D01*
X99351839Y-90477950D01*
X99351829Y-90477947D01*
X99158543Y-90439500D01*
X99158541Y-90439500D01*
X98961459Y-90439500D01*
X98961457Y-90439500D01*
X98768170Y-90477947D01*
X98768160Y-90477950D01*
X98586092Y-90553364D01*
X98586079Y-90553371D01*
X98422218Y-90662860D01*
X98422214Y-90662863D01*
X98282863Y-90802214D01*
X98282860Y-90802218D01*
X98173371Y-90966079D01*
X98173363Y-90966094D01*
X98158367Y-91002298D01*
X98114526Y-91056701D01*
X98048231Y-91078765D01*
X97980532Y-91061485D01*
X97956126Y-91042525D01*
X95982365Y-89068764D01*
X95948880Y-89007441D01*
X95953864Y-88937749D01*
X95995736Y-88881816D01*
X96061200Y-88857399D01*
X96108365Y-88863152D01*
X96215582Y-88897990D01*
X96417683Y-88930000D01*
X96622317Y-88930000D01*
X96824417Y-88897990D01*
X97019031Y-88834755D01*
X97201349Y-88741859D01*
X97245921Y-88709474D01*
X96566446Y-88030000D01*
X96572661Y-88030000D01*
X96674394Y-88002741D01*
X96765606Y-87950080D01*
X96840080Y-87875606D01*
X96892741Y-87784394D01*
X96920000Y-87682661D01*
X96920000Y-87676447D01*
X97599474Y-88355921D01*
X97631859Y-88311349D01*
X97724755Y-88129031D01*
X97787990Y-87934417D01*
X97817875Y-87745731D01*
X97847804Y-87682596D01*
X97907116Y-87645665D01*
X97976978Y-87646663D01*
X98035211Y-87685273D01*
X98061965Y-87740937D01*
X98097947Y-87921829D01*
X98097950Y-87921839D01*
X98173364Y-88103907D01*
X98173371Y-88103920D01*
X98282860Y-88267781D01*
X98282863Y-88267785D01*
X98422214Y-88407136D01*
X98422218Y-88407139D01*
X98586079Y-88516628D01*
X98586092Y-88516635D01*
X98745814Y-88582793D01*
X98768165Y-88592051D01*
X98768169Y-88592051D01*
X98768170Y-88592052D01*
X98961456Y-88630500D01*
X98961459Y-88630500D01*
X99158543Y-88630500D01*
X99308887Y-88600594D01*
X99351835Y-88592051D01*
X99504299Y-88528899D01*
X99533907Y-88516635D01*
X99533907Y-88516634D01*
X99533914Y-88516632D01*
X99697782Y-88407139D01*
X99837139Y-88267782D01*
X99946632Y-88103914D01*
X100022051Y-87921835D01*
X100058034Y-87740938D01*
X100060500Y-87728543D01*
X100599499Y-87728543D01*
X100637947Y-87921829D01*
X100637950Y-87921839D01*
X100713364Y-88103907D01*
X100713371Y-88103920D01*
X100822860Y-88267781D01*
X100822863Y-88267785D01*
X100962217Y-88407139D01*
X101104412Y-88502150D01*
X101126086Y-88516632D01*
X101222953Y-88556755D01*
X101277355Y-88600594D01*
X101299421Y-88666888D01*
X101299500Y-88671315D01*
X101299500Y-89447562D01*
X101313152Y-89498513D01*
X101319979Y-89523990D01*
X101319980Y-89523991D01*
X101338790Y-89556571D01*
X101359540Y-89592511D01*
X102629540Y-90862511D01*
X102685489Y-90918460D01*
X102685491Y-90918461D01*
X102685495Y-90918464D01*
X102754004Y-90958017D01*
X102754011Y-90958021D01*
X102830438Y-90978500D01*
X102909562Y-90978500D01*
X106758167Y-90978500D01*
X106825206Y-90998185D01*
X106845848Y-91014819D01*
X107413181Y-91582152D01*
X107446666Y-91643475D01*
X107449500Y-91669833D01*
X107449500Y-91759891D01*
X107483608Y-91887187D01*
X107499035Y-91913907D01*
X107549500Y-92001314D01*
X107642686Y-92094500D01*
X107756814Y-92160392D01*
X107884108Y-92194500D01*
X107884110Y-92194500D01*
X108015890Y-92194500D01*
X108015892Y-92194500D01*
X108143186Y-92160392D01*
X108257314Y-92094500D01*
X108350500Y-92001314D01*
X108416392Y-91887186D01*
X108450500Y-91759892D01*
X108450500Y-91628108D01*
X108416392Y-91500814D01*
X108350500Y-91386686D01*
X108257314Y-91293500D01*
X108200250Y-91260554D01*
X108143187Y-91227608D01*
X108079539Y-91210554D01*
X108015892Y-91193500D01*
X107925833Y-91193500D01*
X107858794Y-91173815D01*
X107838152Y-91157181D01*
X107118511Y-90437540D01*
X107118508Y-90437538D01*
X107116441Y-90436345D01*
X107116437Y-90436342D01*
X107049989Y-90397979D01*
X106973562Y-90377500D01*
X106973560Y-90377500D01*
X103045833Y-90377500D01*
X102978794Y-90357815D01*
X102958152Y-90341181D01*
X101936819Y-89319848D01*
X101903334Y-89258525D01*
X101900500Y-89232167D01*
X101900500Y-88671315D01*
X101920185Y-88604276D01*
X101972989Y-88558521D01*
X101976981Y-88556781D01*
X102073914Y-88516632D01*
X102237782Y-88407139D01*
X102377139Y-88267782D01*
X102486632Y-88103914D01*
X102562051Y-87921835D01*
X102598034Y-87740937D01*
X102630419Y-87679027D01*
X102691134Y-87644453D01*
X102760904Y-87648192D01*
X102817576Y-87689059D01*
X102842124Y-87745731D01*
X102872009Y-87934417D01*
X102935244Y-88129031D01*
X103028141Y-88311350D01*
X103028147Y-88311359D01*
X103060523Y-88355921D01*
X103060524Y-88355922D01*
X103740000Y-87676446D01*
X103740000Y-87682661D01*
X103767259Y-87784394D01*
X103819920Y-87875606D01*
X103894394Y-87950080D01*
X103985606Y-88002741D01*
X104087339Y-88030000D01*
X104093553Y-88030000D01*
X103414076Y-88709474D01*
X103458650Y-88741859D01*
X103640968Y-88834755D01*
X103835582Y-88897990D01*
X104037683Y-88930000D01*
X104242317Y-88930000D01*
X104444417Y-88897990D01*
X104639031Y-88834755D01*
X104821349Y-88741859D01*
X104865921Y-88709474D01*
X104186447Y-88030000D01*
X104192661Y-88030000D01*
X104294394Y-88002741D01*
X104385606Y-87950080D01*
X104460080Y-87875606D01*
X104512741Y-87784394D01*
X104540000Y-87682661D01*
X104540000Y-87676447D01*
X105219474Y-88355921D01*
X105251859Y-88311349D01*
X105344755Y-88129031D01*
X105407990Y-87934417D01*
X105437875Y-87745731D01*
X105467804Y-87682596D01*
X105527116Y-87645665D01*
X105596978Y-87646663D01*
X105655211Y-87685273D01*
X105681965Y-87740937D01*
X105717947Y-87921829D01*
X105717950Y-87921839D01*
X105793364Y-88103907D01*
X105793371Y-88103920D01*
X105902860Y-88267781D01*
X105902863Y-88267785D01*
X106042214Y-88407136D01*
X106042218Y-88407139D01*
X106206079Y-88516628D01*
X106206092Y-88516635D01*
X106365814Y-88582793D01*
X106388165Y-88592051D01*
X106388169Y-88592051D01*
X106388170Y-88592052D01*
X106581456Y-88630500D01*
X106581459Y-88630500D01*
X106778543Y-88630500D01*
X106928887Y-88600594D01*
X106971835Y-88592051D01*
X107124299Y-88528899D01*
X107153907Y-88516635D01*
X107153907Y-88516634D01*
X107153914Y-88516632D01*
X107317782Y-88407139D01*
X107457139Y-88267782D01*
X107566632Y-88103914D01*
X107642051Y-87921835D01*
X107678034Y-87740938D01*
X107680500Y-87728543D01*
X108219499Y-87728543D01*
X108257947Y-87921829D01*
X108257950Y-87921839D01*
X108333364Y-88103907D01*
X108333371Y-88103920D01*
X108442860Y-88267781D01*
X108442863Y-88267785D01*
X108582214Y-88407136D01*
X108582218Y-88407139D01*
X108746079Y-88516628D01*
X108746092Y-88516635D01*
X108905814Y-88582793D01*
X108928165Y-88592051D01*
X108928169Y-88592051D01*
X108928170Y-88592052D01*
X109121456Y-88630500D01*
X109121459Y-88630500D01*
X109318543Y-88630500D01*
X109468887Y-88600594D01*
X109511835Y-88592051D01*
X109664299Y-88528899D01*
X109693907Y-88516635D01*
X109693907Y-88516634D01*
X109693914Y-88516632D01*
X109857782Y-88407139D01*
X109997139Y-88267782D01*
X110106632Y-88103914D01*
X110182051Y-87921835D01*
X110218034Y-87740938D01*
X110220500Y-87728543D01*
X110759499Y-87728543D01*
X110797947Y-87921829D01*
X110797950Y-87921839D01*
X110873364Y-88103907D01*
X110873371Y-88103920D01*
X110982860Y-88267781D01*
X110982863Y-88267785D01*
X111122214Y-88407136D01*
X111122218Y-88407139D01*
X111286079Y-88516628D01*
X111286092Y-88516635D01*
X111445814Y-88582793D01*
X111468165Y-88592051D01*
X111468169Y-88592051D01*
X111468170Y-88592052D01*
X111661456Y-88630500D01*
X111661459Y-88630500D01*
X111858543Y-88630500D01*
X112008887Y-88600594D01*
X112051835Y-88592051D01*
X112204299Y-88528899D01*
X112233907Y-88516635D01*
X112233907Y-88516634D01*
X112233914Y-88516632D01*
X112397782Y-88407139D01*
X112537139Y-88267782D01*
X112646632Y-88103914D01*
X112722051Y-87921835D01*
X112758034Y-87740938D01*
X112760500Y-87728543D01*
X112760500Y-87531456D01*
X112722052Y-87338170D01*
X112722051Y-87338169D01*
X112722051Y-87338165D01*
X112710352Y-87309920D01*
X112646635Y-87156092D01*
X112646628Y-87156079D01*
X112537139Y-86992218D01*
X112537136Y-86992214D01*
X112397785Y-86852863D01*
X112397781Y-86852860D01*
X112233920Y-86743371D01*
X112233907Y-86743364D01*
X112051839Y-86667950D01*
X112051829Y-86667947D01*
X111858543Y-86629500D01*
X111858541Y-86629500D01*
X111661459Y-86629500D01*
X111661457Y-86629500D01*
X111468170Y-86667947D01*
X111468160Y-86667950D01*
X111286092Y-86743364D01*
X111286079Y-86743371D01*
X111122218Y-86852860D01*
X111122214Y-86852863D01*
X110982863Y-86992214D01*
X110982860Y-86992218D01*
X110873371Y-87156079D01*
X110873364Y-87156092D01*
X110797950Y-87338160D01*
X110797947Y-87338170D01*
X110759500Y-87531456D01*
X110759500Y-87531459D01*
X110759500Y-87728541D01*
X110759500Y-87728543D01*
X110759499Y-87728543D01*
X110220500Y-87728543D01*
X110220500Y-87531456D01*
X110182052Y-87338170D01*
X110182051Y-87338169D01*
X110182051Y-87338165D01*
X110170352Y-87309920D01*
X110106635Y-87156092D01*
X110106628Y-87156079D01*
X109997139Y-86992218D01*
X109997136Y-86992214D01*
X109857785Y-86852863D01*
X109857781Y-86852860D01*
X109693920Y-86743371D01*
X109693907Y-86743364D01*
X109511839Y-86667950D01*
X109511829Y-86667947D01*
X109318543Y-86629500D01*
X109318541Y-86629500D01*
X109121459Y-86629500D01*
X109121457Y-86629500D01*
X108928170Y-86667947D01*
X108928160Y-86667950D01*
X108746092Y-86743364D01*
X108746079Y-86743371D01*
X108582218Y-86852860D01*
X108582214Y-86852863D01*
X108442863Y-86992214D01*
X108442860Y-86992218D01*
X108333371Y-87156079D01*
X108333364Y-87156092D01*
X108257950Y-87338160D01*
X108257947Y-87338170D01*
X108219500Y-87531456D01*
X108219500Y-87531459D01*
X108219500Y-87728541D01*
X108219500Y-87728543D01*
X108219499Y-87728543D01*
X107680500Y-87728543D01*
X107680500Y-87531456D01*
X107642052Y-87338170D01*
X107642051Y-87338169D01*
X107642051Y-87338165D01*
X107630352Y-87309920D01*
X107566635Y-87156092D01*
X107566628Y-87156079D01*
X107457139Y-86992218D01*
X107457136Y-86992214D01*
X107317785Y-86852863D01*
X107317781Y-86852860D01*
X107153920Y-86743371D01*
X107153907Y-86743364D01*
X106971839Y-86667950D01*
X106971829Y-86667947D01*
X106778543Y-86629500D01*
X106778541Y-86629500D01*
X106581459Y-86629500D01*
X106581457Y-86629500D01*
X106388170Y-86667947D01*
X106388160Y-86667950D01*
X106206092Y-86743364D01*
X106206079Y-86743371D01*
X106042218Y-86852860D01*
X106042214Y-86852863D01*
X105902863Y-86992214D01*
X105902860Y-86992218D01*
X105793371Y-87156079D01*
X105793364Y-87156092D01*
X105717950Y-87338160D01*
X105717947Y-87338170D01*
X105681965Y-87519062D01*
X105649580Y-87580973D01*
X105588864Y-87615547D01*
X105519094Y-87611806D01*
X105462423Y-87570940D01*
X105437875Y-87514268D01*
X105407990Y-87325582D01*
X105344755Y-87130968D01*
X105251859Y-86948650D01*
X105219474Y-86904077D01*
X105219474Y-86904076D01*
X104540000Y-87583551D01*
X104540000Y-87577339D01*
X104512741Y-87475606D01*
X104460080Y-87384394D01*
X104385606Y-87309920D01*
X104294394Y-87257259D01*
X104192661Y-87230000D01*
X104186446Y-87230000D01*
X104865922Y-86550524D01*
X104865921Y-86550523D01*
X104821359Y-86518147D01*
X104821350Y-86518141D01*
X104639031Y-86425244D01*
X104444417Y-86362009D01*
X104242317Y-86330000D01*
X104037683Y-86330000D01*
X103835582Y-86362009D01*
X103640968Y-86425244D01*
X103458644Y-86518143D01*
X103414077Y-86550523D01*
X103414077Y-86550524D01*
X104093554Y-87230000D01*
X104087339Y-87230000D01*
X103985606Y-87257259D01*
X103894394Y-87309920D01*
X103819920Y-87384394D01*
X103767259Y-87475606D01*
X103740000Y-87577339D01*
X103740000Y-87583553D01*
X103060524Y-86904077D01*
X103060523Y-86904077D01*
X103028143Y-86948644D01*
X102935244Y-87130968D01*
X102872010Y-87325581D01*
X102842124Y-87514269D01*
X102812194Y-87577403D01*
X102752883Y-87614334D01*
X102683020Y-87613336D01*
X102624788Y-87574726D01*
X102598034Y-87519061D01*
X102588409Y-87470674D01*
X102562051Y-87338165D01*
X102550352Y-87309920D01*
X102486635Y-87156092D01*
X102486628Y-87156079D01*
X102377139Y-86992218D01*
X102377136Y-86992214D01*
X102237785Y-86852863D01*
X102237781Y-86852860D01*
X102073920Y-86743371D01*
X102073907Y-86743364D01*
X101999016Y-86712344D01*
X101891839Y-86667950D01*
X101891829Y-86667947D01*
X101698543Y-86629500D01*
X101698541Y-86629500D01*
X101501459Y-86629500D01*
X101501457Y-86629500D01*
X101308170Y-86667947D01*
X101308160Y-86667950D01*
X101126092Y-86743364D01*
X101126079Y-86743371D01*
X100962218Y-86852860D01*
X100962214Y-86852863D01*
X100822863Y-86992214D01*
X100822860Y-86992218D01*
X100713371Y-87156079D01*
X100713364Y-87156092D01*
X100637950Y-87338160D01*
X100637947Y-87338170D01*
X100599500Y-87531456D01*
X100599500Y-87531459D01*
X100599500Y-87728541D01*
X100599500Y-87728543D01*
X100599499Y-87728543D01*
X100060500Y-87728543D01*
X100060500Y-87531456D01*
X100022052Y-87338170D01*
X100022051Y-87338169D01*
X100022051Y-87338165D01*
X100010352Y-87309920D01*
X99946635Y-87156092D01*
X99946628Y-87156079D01*
X99837139Y-86992218D01*
X99837136Y-86992214D01*
X99697785Y-86852863D01*
X99697781Y-86852860D01*
X99533920Y-86743371D01*
X99533907Y-86743364D01*
X99351839Y-86667950D01*
X99351829Y-86667947D01*
X99158543Y-86629500D01*
X99158541Y-86629500D01*
X98961459Y-86629500D01*
X98961457Y-86629500D01*
X98768170Y-86667947D01*
X98768160Y-86667950D01*
X98586092Y-86743364D01*
X98586079Y-86743371D01*
X98422218Y-86852860D01*
X98422214Y-86852863D01*
X98282863Y-86992214D01*
X98282860Y-86992218D01*
X98173371Y-87156079D01*
X98173364Y-87156092D01*
X98097950Y-87338160D01*
X98097947Y-87338170D01*
X98061965Y-87519062D01*
X98029580Y-87580973D01*
X97968864Y-87615547D01*
X97899094Y-87611806D01*
X97842423Y-87570940D01*
X97817875Y-87514268D01*
X97787990Y-87325582D01*
X97724755Y-87130968D01*
X97631859Y-86948650D01*
X97599474Y-86904077D01*
X97599474Y-86904076D01*
X96920000Y-87583551D01*
X96920000Y-87577339D01*
X96892741Y-87475606D01*
X96840080Y-87384394D01*
X96765606Y-87309920D01*
X96674394Y-87257259D01*
X96572661Y-87230000D01*
X96566446Y-87230000D01*
X97245922Y-86550524D01*
X97245921Y-86550523D01*
X97201359Y-86518147D01*
X97201350Y-86518141D01*
X97019031Y-86425244D01*
X96824417Y-86362009D01*
X96622317Y-86330000D01*
X96417683Y-86330000D01*
X96215582Y-86362009D01*
X96020968Y-86425244D01*
X95838644Y-86518143D01*
X95794077Y-86550523D01*
X95789592Y-86607513D01*
X95788126Y-86611358D01*
X95788712Y-86615430D01*
X95784137Y-86625446D01*
X96464476Y-87230766D01*
X96365606Y-87257259D01*
X96274394Y-87309920D01*
X96199920Y-87384394D01*
X96147259Y-87475606D01*
X96120000Y-87577339D01*
X96120000Y-87583553D01*
X95478819Y-86942372D01*
X95445334Y-86881049D01*
X95442500Y-86854691D01*
X95442500Y-81563832D01*
X95462185Y-81496793D01*
X95478815Y-81476155D01*
X95996165Y-80958804D01*
X96057486Y-80925321D01*
X96127177Y-80930305D01*
X96131254Y-80931909D01*
X96228165Y-80972051D01*
X96228169Y-80972051D01*
X96228170Y-80972052D01*
X96421456Y-81010500D01*
X96421459Y-81010500D01*
X96618543Y-81010500D01*
X96768887Y-80980594D01*
X96811835Y-80972051D01*
X96993914Y-80896632D01*
X97157782Y-80787139D01*
X97297139Y-80647782D01*
X97406632Y-80483914D01*
X97482051Y-80301835D01*
X97509390Y-80164394D01*
X97520500Y-80108543D01*
X98059499Y-80108543D01*
X98097947Y-80301829D01*
X98097950Y-80301839D01*
X98173364Y-80483907D01*
X98173371Y-80483920D01*
X98282860Y-80647781D01*
X98282863Y-80647785D01*
X98422214Y-80787136D01*
X98422218Y-80787139D01*
X98586079Y-80896628D01*
X98586092Y-80896635D01*
X98736188Y-80958806D01*
X98768165Y-80972051D01*
X98768169Y-80972051D01*
X98768170Y-80972052D01*
X98961456Y-81010500D01*
X98961459Y-81010500D01*
X99158543Y-81010500D01*
X99308887Y-80980594D01*
X99351835Y-80972051D01*
X99533914Y-80896632D01*
X99697782Y-80787139D01*
X99837139Y-80647782D01*
X99946632Y-80483914D01*
X100022051Y-80301835D01*
X100049390Y-80164394D01*
X100060500Y-80108543D01*
X100599499Y-80108543D01*
X100637947Y-80301829D01*
X100637950Y-80301839D01*
X100713364Y-80483907D01*
X100713371Y-80483920D01*
X100822860Y-80647781D01*
X100822863Y-80647785D01*
X100962214Y-80787136D01*
X100962218Y-80787139D01*
X101126079Y-80896628D01*
X101126092Y-80896635D01*
X101276188Y-80958806D01*
X101308165Y-80972051D01*
X101308169Y-80972051D01*
X101308170Y-80972052D01*
X101501456Y-81010500D01*
X101501459Y-81010500D01*
X101698543Y-81010500D01*
X101848887Y-80980594D01*
X101891835Y-80972051D01*
X102073914Y-80896632D01*
X102237782Y-80787139D01*
X102377139Y-80647782D01*
X102486632Y-80483914D01*
X102562051Y-80301835D01*
X102589390Y-80164394D01*
X102600500Y-80108543D01*
X103139499Y-80108543D01*
X103177947Y-80301829D01*
X103177950Y-80301839D01*
X103253364Y-80483907D01*
X103253371Y-80483920D01*
X103362860Y-80647781D01*
X103362863Y-80647785D01*
X103502214Y-80787136D01*
X103502218Y-80787139D01*
X103666079Y-80896628D01*
X103666092Y-80896635D01*
X103816188Y-80958806D01*
X103848165Y-80972051D01*
X103848169Y-80972051D01*
X103848170Y-80972052D01*
X104041456Y-81010500D01*
X104041459Y-81010500D01*
X104238543Y-81010500D01*
X104388887Y-80980594D01*
X104431835Y-80972051D01*
X104613914Y-80896632D01*
X104777782Y-80787139D01*
X104917139Y-80647782D01*
X105026632Y-80483914D01*
X105102051Y-80301835D01*
X105129390Y-80164394D01*
X105140500Y-80108543D01*
X105140500Y-79911456D01*
X105102052Y-79718170D01*
X105102051Y-79718169D01*
X105102051Y-79718165D01*
X105090352Y-79689920D01*
X105026635Y-79536092D01*
X105026628Y-79536079D01*
X104917139Y-79372218D01*
X104917136Y-79372214D01*
X104777785Y-79232863D01*
X104777781Y-79232860D01*
X104613920Y-79123371D01*
X104613907Y-79123364D01*
X104431839Y-79047950D01*
X104431829Y-79047947D01*
X104238543Y-79009500D01*
X104238541Y-79009500D01*
X104041459Y-79009500D01*
X104041457Y-79009500D01*
X103848170Y-79047947D01*
X103848160Y-79047950D01*
X103666092Y-79123364D01*
X103666079Y-79123371D01*
X103502218Y-79232860D01*
X103502214Y-79232863D01*
X103362863Y-79372214D01*
X103362860Y-79372218D01*
X103253371Y-79536079D01*
X103253364Y-79536092D01*
X103177950Y-79718160D01*
X103177947Y-79718170D01*
X103139500Y-79911456D01*
X103139500Y-79911459D01*
X103139500Y-80108541D01*
X103139500Y-80108543D01*
X103139499Y-80108543D01*
X102600500Y-80108543D01*
X102600500Y-79911456D01*
X102562052Y-79718170D01*
X102562051Y-79718169D01*
X102562051Y-79718165D01*
X102550352Y-79689920D01*
X102486635Y-79536092D01*
X102486628Y-79536079D01*
X102377139Y-79372218D01*
X102377136Y-79372214D01*
X102237785Y-79232863D01*
X102237781Y-79232860D01*
X102073920Y-79123371D01*
X102073907Y-79123364D01*
X101891839Y-79047950D01*
X101891829Y-79047947D01*
X101698543Y-79009500D01*
X101698541Y-79009500D01*
X101501459Y-79009500D01*
X101501457Y-79009500D01*
X101308170Y-79047947D01*
X101308160Y-79047950D01*
X101126092Y-79123364D01*
X101126079Y-79123371D01*
X100962218Y-79232860D01*
X100962214Y-79232863D01*
X100822863Y-79372214D01*
X100822860Y-79372218D01*
X100713371Y-79536079D01*
X100713364Y-79536092D01*
X100637950Y-79718160D01*
X100637947Y-79718170D01*
X100599500Y-79911456D01*
X100599500Y-79911459D01*
X100599500Y-80108541D01*
X100599500Y-80108543D01*
X100599499Y-80108543D01*
X100060500Y-80108543D01*
X100060500Y-79911456D01*
X100022052Y-79718170D01*
X100022051Y-79718169D01*
X100022051Y-79718165D01*
X100010352Y-79689920D01*
X99946635Y-79536092D01*
X99946628Y-79536079D01*
X99837139Y-79372218D01*
X99837136Y-79372214D01*
X99697785Y-79232863D01*
X99697781Y-79232860D01*
X99533920Y-79123371D01*
X99533907Y-79123364D01*
X99351839Y-79047950D01*
X99351829Y-79047947D01*
X99158543Y-79009500D01*
X99158541Y-79009500D01*
X98961459Y-79009500D01*
X98961457Y-79009500D01*
X98768170Y-79047947D01*
X98768160Y-79047950D01*
X98586092Y-79123364D01*
X98586079Y-79123371D01*
X98422218Y-79232860D01*
X98422214Y-79232863D01*
X98282863Y-79372214D01*
X98282860Y-79372218D01*
X98173371Y-79536079D01*
X98173364Y-79536092D01*
X98097950Y-79718160D01*
X98097947Y-79718170D01*
X98059500Y-79911456D01*
X98059500Y-79911459D01*
X98059500Y-80108541D01*
X98059500Y-80108543D01*
X98059499Y-80108543D01*
X97520500Y-80108543D01*
X97520500Y-79911456D01*
X97482052Y-79718170D01*
X97482051Y-79718169D01*
X97482051Y-79718165D01*
X97470352Y-79689920D01*
X97406635Y-79536092D01*
X97406628Y-79536079D01*
X97297139Y-79372218D01*
X97297136Y-79372214D01*
X97157785Y-79232863D01*
X97157781Y-79232860D01*
X96993920Y-79123371D01*
X96993910Y-79123366D01*
X96897047Y-79083244D01*
X96842644Y-79039403D01*
X96820579Y-78973109D01*
X96820500Y-78968683D01*
X96820500Y-78915832D01*
X96840185Y-78848793D01*
X96856814Y-78828156D01*
X98497896Y-77187073D01*
X98559217Y-77153590D01*
X98628909Y-77158574D01*
X98633007Y-77160186D01*
X98753580Y-77210130D01*
X98898052Y-77238867D01*
X98956530Y-77250499D01*
X98956534Y-77250500D01*
X98956535Y-77250500D01*
X99163466Y-77250500D01*
X99163467Y-77250499D01*
X99366420Y-77210130D01*
X99557598Y-77130941D01*
X99729655Y-77015977D01*
X99875977Y-76869655D01*
X99990941Y-76697598D01*
X100040875Y-76577046D01*
X100084716Y-76522644D01*
X100151010Y-76500579D01*
X100155436Y-76500500D01*
X102694167Y-76500500D01*
X102761206Y-76520185D01*
G37*
%TD.AperFunction*%
%TA.AperFunction,Conductor*%
G36*
X115415270Y-43941717D02*
G01*
X115415270Y-43941716D01*
X115454622Y-43887554D01*
X115551095Y-43698217D01*
X115582069Y-43602890D01*
X115621506Y-43545215D01*
X115685865Y-43518016D01*
X115754711Y-43529930D01*
X115806187Y-43577174D01*
X115824000Y-43641208D01*
X115824000Y-74459667D01*
X115804315Y-74526706D01*
X115751511Y-74572461D01*
X115682353Y-74582405D01*
X115618797Y-74553380D01*
X115612319Y-74547348D01*
X115287075Y-74222104D01*
X115253590Y-74160781D01*
X115258574Y-74091089D01*
X115260163Y-74087049D01*
X115310130Y-73966420D01*
X115350500Y-73763465D01*
X115350500Y-73556535D01*
X115310130Y-73353580D01*
X115230941Y-73162402D01*
X115115977Y-72990345D01*
X115115975Y-72990342D01*
X114969657Y-72844024D01*
X114860616Y-72771166D01*
X114797598Y-72729059D01*
X114764219Y-72715233D01*
X114606420Y-72649870D01*
X114606412Y-72649868D01*
X114403469Y-72609500D01*
X114403465Y-72609500D01*
X114196535Y-72609500D01*
X114196530Y-72609500D01*
X113993587Y-72649868D01*
X113993579Y-72649870D01*
X113802403Y-72729058D01*
X113630342Y-72844024D01*
X113484024Y-72990342D01*
X113369058Y-73162403D01*
X113289870Y-73353579D01*
X113289868Y-73353587D01*
X113249500Y-73556530D01*
X113249500Y-73763469D01*
X113289868Y-73966412D01*
X113289870Y-73966420D01*
X113369058Y-74157596D01*
X113484024Y-74329657D01*
X113630342Y-74475975D01*
X113630345Y-74475977D01*
X113802402Y-74590941D01*
X113993580Y-74670130D01*
X114196530Y-74710499D01*
X114196534Y-74710500D01*
X114196535Y-74710500D01*
X114403466Y-74710500D01*
X114403467Y-74710499D01*
X114606420Y-74670130D01*
X114726974Y-74620194D01*
X114796438Y-74612726D01*
X114858918Y-74644000D01*
X114862104Y-74647075D01*
X115152848Y-74937819D01*
X115186333Y-74999142D01*
X115181349Y-75068834D01*
X115139477Y-75124767D01*
X115074013Y-75149184D01*
X115065167Y-75149500D01*
X113430247Y-75149500D01*
X113371770Y-75161131D01*
X113371769Y-75161132D01*
X113305447Y-75205447D01*
X113261132Y-75271769D01*
X113261131Y-75271770D01*
X113249500Y-75330247D01*
X113249500Y-77069752D01*
X113261131Y-77128229D01*
X113261132Y-77128230D01*
X113305447Y-77194552D01*
X113371769Y-77238867D01*
X113371770Y-77238868D01*
X113430247Y-77250499D01*
X113430250Y-77250500D01*
X113430252Y-77250500D01*
X115169750Y-77250500D01*
X115169751Y-77250499D01*
X115184568Y-77247552D01*
X115228229Y-77238868D01*
X115228230Y-77238867D01*
X115228231Y-77238867D01*
X115238607Y-77231933D01*
X115305283Y-77211054D01*
X115372663Y-77229536D01*
X115419355Y-77281514D01*
X115431500Y-77335034D01*
X115431500Y-79503859D01*
X115411815Y-79570898D01*
X115359011Y-79616653D01*
X115289853Y-79626597D01*
X115226297Y-79597572D01*
X115192939Y-79551312D01*
X115186633Y-79536088D01*
X115186628Y-79536079D01*
X115077139Y-79372218D01*
X115077136Y-79372214D01*
X114937785Y-79232863D01*
X114937781Y-79232860D01*
X114773920Y-79123371D01*
X114773907Y-79123364D01*
X114591839Y-79047950D01*
X114591829Y-79047947D01*
X114398543Y-79009500D01*
X114398541Y-79009500D01*
X114201459Y-79009500D01*
X114201457Y-79009500D01*
X114008170Y-79047947D01*
X114008160Y-79047950D01*
X113826092Y-79123364D01*
X113826079Y-79123371D01*
X113662218Y-79232860D01*
X113662214Y-79232863D01*
X113522863Y-79372214D01*
X113522860Y-79372218D01*
X113413371Y-79536079D01*
X113413364Y-79536092D01*
X113337950Y-79718160D01*
X113337947Y-79718170D01*
X113299500Y-79911456D01*
X113299500Y-79911459D01*
X113299500Y-80108541D01*
X113299500Y-80108543D01*
X113299499Y-80108543D01*
X113337947Y-80301829D01*
X113337950Y-80301839D01*
X113413364Y-80483907D01*
X113413371Y-80483920D01*
X113522860Y-80647781D01*
X113522863Y-80647785D01*
X113662217Y-80787139D01*
X113807678Y-80884332D01*
X113826086Y-80896632D01*
X113922953Y-80936755D01*
X113977355Y-80980594D01*
X113999421Y-81046888D01*
X113999500Y-81051315D01*
X113999500Y-81104167D01*
X113979815Y-81171206D01*
X113963181Y-81191848D01*
X113449848Y-81705181D01*
X113388525Y-81738666D01*
X113362167Y-81741500D01*
X107617833Y-81741500D01*
X107550794Y-81721815D01*
X107530152Y-81705181D01*
X107016819Y-81191848D01*
X106983334Y-81130525D01*
X106980500Y-81104167D01*
X106980500Y-81051315D01*
X107000185Y-80984276D01*
X107052989Y-80938521D01*
X107056981Y-80936781D01*
X107153914Y-80896632D01*
X107317782Y-80787139D01*
X107457139Y-80647782D01*
X107566632Y-80483914D01*
X107642051Y-80301835D01*
X107678034Y-80120937D01*
X107710419Y-80059027D01*
X107771134Y-80024453D01*
X107840904Y-80028192D01*
X107897576Y-80069059D01*
X107922124Y-80125731D01*
X107952009Y-80314417D01*
X108015244Y-80509031D01*
X108108141Y-80691350D01*
X108108147Y-80691359D01*
X108140523Y-80735921D01*
X108140524Y-80735922D01*
X108820000Y-80056446D01*
X108820000Y-80062661D01*
X108847259Y-80164394D01*
X108899920Y-80255606D01*
X108974394Y-80330080D01*
X109065606Y-80382741D01*
X109167339Y-80410000D01*
X109173553Y-80410000D01*
X108494076Y-81089474D01*
X108538650Y-81121859D01*
X108720968Y-81214755D01*
X108915582Y-81277990D01*
X109117683Y-81310000D01*
X109322317Y-81310000D01*
X109524417Y-81277990D01*
X109719031Y-81214755D01*
X109901349Y-81121859D01*
X109945921Y-81089474D01*
X109266447Y-80410000D01*
X109272661Y-80410000D01*
X109374394Y-80382741D01*
X109465606Y-80330080D01*
X109540080Y-80255606D01*
X109592741Y-80164394D01*
X109620000Y-80062661D01*
X109620000Y-80056448D01*
X110299474Y-80735922D01*
X110299474Y-80735921D01*
X110331859Y-80691349D01*
X110424755Y-80509031D01*
X110487990Y-80314417D01*
X110517875Y-80125731D01*
X110547804Y-80062596D01*
X110607116Y-80025665D01*
X110676978Y-80026663D01*
X110735211Y-80065273D01*
X110761965Y-80120937D01*
X110797947Y-80301829D01*
X110797950Y-80301839D01*
X110873364Y-80483907D01*
X110873371Y-80483920D01*
X110982860Y-80647781D01*
X110982863Y-80647785D01*
X111122214Y-80787136D01*
X111122218Y-80787139D01*
X111286079Y-80896628D01*
X111286092Y-80896635D01*
X111436188Y-80958806D01*
X111468165Y-80972051D01*
X111468169Y-80972051D01*
X111468170Y-80972052D01*
X111661456Y-81010500D01*
X111661459Y-81010500D01*
X111858543Y-81010500D01*
X112008887Y-80980594D01*
X112051835Y-80972051D01*
X112233914Y-80896632D01*
X112397782Y-80787139D01*
X112537139Y-80647782D01*
X112646632Y-80483914D01*
X112722051Y-80301835D01*
X112749390Y-80164394D01*
X112760500Y-80108543D01*
X112760500Y-79911456D01*
X112722052Y-79718170D01*
X112722051Y-79718169D01*
X112722051Y-79718165D01*
X112710352Y-79689920D01*
X112646635Y-79536092D01*
X112646628Y-79536079D01*
X112537139Y-79372218D01*
X112537136Y-79372214D01*
X112397785Y-79232863D01*
X112397781Y-79232860D01*
X112233920Y-79123371D01*
X112233907Y-79123364D01*
X112051839Y-79047950D01*
X112051829Y-79047947D01*
X111858543Y-79009500D01*
X111858541Y-79009500D01*
X111661459Y-79009500D01*
X111661457Y-79009500D01*
X111468170Y-79047947D01*
X111468160Y-79047950D01*
X111286092Y-79123364D01*
X111286079Y-79123371D01*
X111122218Y-79232860D01*
X111122214Y-79232863D01*
X110982863Y-79372214D01*
X110982860Y-79372218D01*
X110873371Y-79536079D01*
X110873364Y-79536092D01*
X110797950Y-79718160D01*
X110797947Y-79718170D01*
X110761965Y-79899062D01*
X110729580Y-79960973D01*
X110668864Y-79995547D01*
X110599094Y-79991806D01*
X110542423Y-79950940D01*
X110517875Y-79894268D01*
X110487990Y-79705582D01*
X110424755Y-79510968D01*
X110331859Y-79328650D01*
X110299474Y-79284077D01*
X110299474Y-79284076D01*
X109620000Y-79963551D01*
X109620000Y-79957339D01*
X109592741Y-79855606D01*
X109540080Y-79764394D01*
X109465606Y-79689920D01*
X109374394Y-79637259D01*
X109272661Y-79610000D01*
X109266446Y-79610000D01*
X109945922Y-78930524D01*
X109945921Y-78930523D01*
X109901359Y-78898147D01*
X109901350Y-78898141D01*
X109719031Y-78805244D01*
X109524417Y-78742009D01*
X109322317Y-78710000D01*
X109117683Y-78710000D01*
X108915582Y-78742009D01*
X108720968Y-78805244D01*
X108538644Y-78898143D01*
X108494077Y-78930523D01*
X108494077Y-78930524D01*
X109173554Y-79610000D01*
X109167339Y-79610000D01*
X109065606Y-79637259D01*
X108974394Y-79689920D01*
X108899920Y-79764394D01*
X108847259Y-79855606D01*
X108820000Y-79957339D01*
X108820000Y-79963553D01*
X108140524Y-79284077D01*
X108140523Y-79284077D01*
X108108143Y-79328644D01*
X108015244Y-79510968D01*
X107952010Y-79705581D01*
X107922124Y-79894269D01*
X107892194Y-79957403D01*
X107832883Y-79994334D01*
X107763020Y-79993336D01*
X107704788Y-79954726D01*
X107678034Y-79899061D01*
X107653814Y-79777300D01*
X107642051Y-79718165D01*
X107630352Y-79689920D01*
X107566635Y-79536092D01*
X107566628Y-79536079D01*
X107457139Y-79372218D01*
X107457136Y-79372214D01*
X107317785Y-79232863D01*
X107317781Y-79232860D01*
X107153920Y-79123371D01*
X107153907Y-79123364D01*
X107079016Y-79092344D01*
X106971839Y-79047950D01*
X106971829Y-79047947D01*
X106778543Y-79009500D01*
X106778541Y-79009500D01*
X106581459Y-79009500D01*
X106581457Y-79009500D01*
X106388171Y-79047947D01*
X106388168Y-79047948D01*
X106388166Y-79047948D01*
X106388165Y-79047949D01*
X106356193Y-79061192D01*
X106291295Y-79088073D01*
X106221826Y-79095540D01*
X106159347Y-79064265D01*
X106156163Y-79061192D01*
X103054510Y-75959539D01*
X103045664Y-75954432D01*
X103036818Y-75949325D01*
X102985991Y-75919980D01*
X102985990Y-75919979D01*
X102960513Y-75913152D01*
X102909562Y-75899500D01*
X102909560Y-75899500D01*
X100155436Y-75899500D01*
X100088397Y-75879815D01*
X100042642Y-75827011D01*
X100040875Y-75822953D01*
X99990941Y-75702403D01*
X99990941Y-75702402D01*
X99875977Y-75530345D01*
X99875975Y-75530342D01*
X99729657Y-75384024D01*
X99561655Y-75271770D01*
X99557598Y-75269059D01*
X99366420Y-75189870D01*
X99366412Y-75189868D01*
X99163469Y-75149500D01*
X99163465Y-75149500D01*
X98956535Y-75149500D01*
X98956530Y-75149500D01*
X98753587Y-75189868D01*
X98753579Y-75189870D01*
X98562403Y-75269058D01*
X98390342Y-75384024D01*
X98390341Y-75384025D01*
X98302181Y-75472186D01*
X98240858Y-75505671D01*
X98171166Y-75500687D01*
X98115233Y-75458815D01*
X98090816Y-75393351D01*
X98090500Y-75384505D01*
X98090500Y-74475495D01*
X98110185Y-74408456D01*
X98162989Y-74362701D01*
X98232147Y-74352757D01*
X98295703Y-74381782D01*
X98302181Y-74387814D01*
X98390342Y-74475975D01*
X98390345Y-74475977D01*
X98562402Y-74590941D01*
X98753580Y-74670130D01*
X98956530Y-74710499D01*
X98956534Y-74710500D01*
X98956535Y-74710500D01*
X99163466Y-74710500D01*
X99163467Y-74710499D01*
X99366420Y-74670130D01*
X99557598Y-74590941D01*
X99729655Y-74475977D01*
X99875977Y-74329655D01*
X99990941Y-74157598D01*
X100000718Y-74133995D01*
X107884499Y-74133995D01*
X107911418Y-74269322D01*
X107911421Y-74269332D01*
X107964221Y-74396804D01*
X107964228Y-74396817D01*
X108040885Y-74511541D01*
X108040888Y-74511545D01*
X108138454Y-74609111D01*
X108138458Y-74609114D01*
X108253182Y-74685771D01*
X108253195Y-74685778D01*
X108380667Y-74738578D01*
X108380672Y-74738580D01*
X108380676Y-74738580D01*
X108380677Y-74738581D01*
X108516004Y-74765500D01*
X108516007Y-74765500D01*
X108653995Y-74765500D01*
X108745041Y-74747389D01*
X108789328Y-74738580D01*
X108916811Y-74685775D01*
X109031542Y-74609114D01*
X109129114Y-74511542D01*
X109205775Y-74396811D01*
X109258580Y-74269328D01*
X109267974Y-74222104D01*
X109285500Y-74133995D01*
X110424499Y-74133995D01*
X110451418Y-74269322D01*
X110451421Y-74269332D01*
X110504221Y-74396804D01*
X110504228Y-74396817D01*
X110580885Y-74511541D01*
X110580888Y-74511545D01*
X110678454Y-74609111D01*
X110678458Y-74609114D01*
X110793182Y-74685771D01*
X110793195Y-74685778D01*
X110920667Y-74738578D01*
X110920672Y-74738580D01*
X110920676Y-74738580D01*
X110920677Y-74738581D01*
X111056004Y-74765500D01*
X111056007Y-74765500D01*
X111193995Y-74765500D01*
X111285041Y-74747389D01*
X111329328Y-74738580D01*
X111456811Y-74685775D01*
X111571542Y-74609114D01*
X111669114Y-74511542D01*
X111745775Y-74396811D01*
X111798580Y-74269328D01*
X111807974Y-74222104D01*
X111825500Y-74133995D01*
X111825500Y-73996004D01*
X111798581Y-73860677D01*
X111798580Y-73860676D01*
X111798580Y-73860672D01*
X111798578Y-73860667D01*
X111745778Y-73733195D01*
X111745771Y-73733182D01*
X111669114Y-73618458D01*
X111669111Y-73618454D01*
X111571545Y-73520888D01*
X111571541Y-73520885D01*
X111456817Y-73444228D01*
X111456804Y-73444221D01*
X111329332Y-73391421D01*
X111329322Y-73391418D01*
X111193995Y-73364500D01*
X111193993Y-73364500D01*
X111056007Y-73364500D01*
X111056005Y-73364500D01*
X110920677Y-73391418D01*
X110920667Y-73391421D01*
X110793195Y-73444221D01*
X110793182Y-73444228D01*
X110678458Y-73520885D01*
X110678454Y-73520888D01*
X110580888Y-73618454D01*
X110580885Y-73618458D01*
X110504228Y-73733182D01*
X110504221Y-73733195D01*
X110451421Y-73860667D01*
X110451418Y-73860677D01*
X110424500Y-73996004D01*
X110424500Y-73996007D01*
X110424500Y-74133993D01*
X110424500Y-74133995D01*
X110424499Y-74133995D01*
X109285500Y-74133995D01*
X109285500Y-73996004D01*
X109258581Y-73860677D01*
X109258580Y-73860676D01*
X109258580Y-73860672D01*
X109258578Y-73860667D01*
X109205778Y-73733195D01*
X109205771Y-73733182D01*
X109129114Y-73618458D01*
X109129111Y-73618454D01*
X109031545Y-73520888D01*
X109031541Y-73520885D01*
X108916817Y-73444228D01*
X108916804Y-73444221D01*
X108789332Y-73391421D01*
X108789322Y-73391418D01*
X108653995Y-73364500D01*
X108653993Y-73364500D01*
X108516007Y-73364500D01*
X108516005Y-73364500D01*
X108380677Y-73391418D01*
X108380667Y-73391421D01*
X108253195Y-73444221D01*
X108253182Y-73444228D01*
X108138458Y-73520885D01*
X108138454Y-73520888D01*
X108040888Y-73618454D01*
X108040885Y-73618458D01*
X107964228Y-73733182D01*
X107964221Y-73733195D01*
X107911421Y-73860667D01*
X107911418Y-73860677D01*
X107884500Y-73996004D01*
X107884500Y-73996007D01*
X107884500Y-74133993D01*
X107884500Y-74133995D01*
X107884499Y-74133995D01*
X100000718Y-74133995D01*
X100070130Y-73966420D01*
X100110500Y-73763465D01*
X100110500Y-73556535D01*
X100070130Y-73353580D01*
X99990941Y-73162402D01*
X99875977Y-72990345D01*
X99875975Y-72990342D01*
X99787814Y-72902181D01*
X99754329Y-72840858D01*
X99759313Y-72771166D01*
X99801185Y-72715233D01*
X99866649Y-72690816D01*
X99875495Y-72690500D01*
X113069560Y-72690500D01*
X113069562Y-72690500D01*
X113145989Y-72670021D01*
X113214511Y-72630460D01*
X113270460Y-72574511D01*
X113737896Y-72107073D01*
X113799217Y-72073590D01*
X113868908Y-72078574D01*
X113873007Y-72080186D01*
X113993580Y-72130130D01*
X114196530Y-72170499D01*
X114196534Y-72170500D01*
X114196535Y-72170500D01*
X114403466Y-72170500D01*
X114403467Y-72170499D01*
X114606420Y-72130130D01*
X114797598Y-72050941D01*
X114969655Y-71935977D01*
X115115977Y-71789655D01*
X115230941Y-71617598D01*
X115310130Y-71426420D01*
X115350500Y-71223465D01*
X115350500Y-71016535D01*
X115310130Y-70813580D01*
X115230941Y-70622402D01*
X115115977Y-70450345D01*
X115115975Y-70450342D01*
X114969657Y-70304024D01*
X114834214Y-70213525D01*
X114797598Y-70189059D01*
X114739104Y-70164830D01*
X114606420Y-70109870D01*
X114606412Y-70109868D01*
X114403469Y-70069500D01*
X114403465Y-70069500D01*
X114196535Y-70069500D01*
X114196530Y-70069500D01*
X113993587Y-70109868D01*
X113993579Y-70109870D01*
X113802403Y-70189058D01*
X113630342Y-70304024D01*
X113484024Y-70450342D01*
X113369058Y-70622403D01*
X113289870Y-70813579D01*
X113289868Y-70813587D01*
X113249500Y-71016530D01*
X113249500Y-71223469D01*
X113289868Y-71426412D01*
X113289871Y-71426424D01*
X113339803Y-71546971D01*
X113347272Y-71616440D01*
X113315997Y-71678919D01*
X113312923Y-71682104D01*
X112941848Y-72053181D01*
X112880525Y-72086666D01*
X112854167Y-72089500D01*
X100267672Y-72089500D01*
X100200633Y-72069815D01*
X100154878Y-72017011D01*
X100144934Y-71947853D01*
X100167354Y-71892615D01*
X100214620Y-71827557D01*
X100311095Y-71638217D01*
X100376757Y-71436130D01*
X100376757Y-71436127D01*
X100410000Y-71226246D01*
X100410000Y-71013753D01*
X100376757Y-70803872D01*
X100376757Y-70803869D01*
X100311095Y-70601782D01*
X100214620Y-70412442D01*
X100167354Y-70347385D01*
X100143874Y-70281579D01*
X100159699Y-70213525D01*
X100209805Y-70164830D01*
X100267672Y-70150500D01*
X113069560Y-70150500D01*
X113069562Y-70150500D01*
X113145989Y-70130021D01*
X113214511Y-70090460D01*
X113270460Y-70034511D01*
X113737896Y-69567073D01*
X113799217Y-69533590D01*
X113868908Y-69538574D01*
X113873007Y-69540186D01*
X113993580Y-69590130D01*
X114196530Y-69630499D01*
X114196534Y-69630500D01*
X114196535Y-69630500D01*
X114403466Y-69630500D01*
X114403467Y-69630499D01*
X114606420Y-69590130D01*
X114797598Y-69510941D01*
X114969655Y-69395977D01*
X115115977Y-69249655D01*
X115230941Y-69077598D01*
X115310130Y-68886420D01*
X115350500Y-68683465D01*
X115350500Y-68476535D01*
X115310130Y-68273580D01*
X115230941Y-68082402D01*
X115115977Y-67910345D01*
X115115975Y-67910342D01*
X114969657Y-67764024D01*
X114860616Y-67691166D01*
X114797598Y-67649059D01*
X114764219Y-67635233D01*
X114606420Y-67569870D01*
X114606412Y-67569868D01*
X114403469Y-67529500D01*
X114403465Y-67529500D01*
X114196535Y-67529500D01*
X114196530Y-67529500D01*
X113993587Y-67569868D01*
X113993579Y-67569870D01*
X113802403Y-67649058D01*
X113630342Y-67764024D01*
X113484024Y-67910342D01*
X113369058Y-68082403D01*
X113289870Y-68273579D01*
X113289868Y-68273587D01*
X113249500Y-68476530D01*
X113249500Y-68683469D01*
X113289868Y-68886412D01*
X113289871Y-68886424D01*
X113339803Y-69006971D01*
X113347272Y-69076440D01*
X113315997Y-69138919D01*
X113312923Y-69142104D01*
X112941848Y-69513181D01*
X112880525Y-69546666D01*
X112854167Y-69549500D01*
X99875495Y-69549500D01*
X99808456Y-69529815D01*
X99762701Y-69477011D01*
X99752757Y-69407853D01*
X99781782Y-69344297D01*
X99787814Y-69337819D01*
X99875974Y-69249658D01*
X99875975Y-69249657D01*
X99875977Y-69249655D01*
X99990941Y-69077598D01*
X100070130Y-68886420D01*
X100110500Y-68683465D01*
X100110500Y-68476535D01*
X100070130Y-68273580D01*
X99990941Y-68082402D01*
X99875977Y-67910345D01*
X99875975Y-67910342D01*
X99787814Y-67822181D01*
X99754329Y-67760858D01*
X99759313Y-67691166D01*
X99801185Y-67635233D01*
X99866649Y-67610816D01*
X99875495Y-67610500D01*
X113069560Y-67610500D01*
X113069562Y-67610500D01*
X113145989Y-67590021D01*
X113214511Y-67550460D01*
X113270460Y-67494511D01*
X113737896Y-67027073D01*
X113799217Y-66993590D01*
X113868908Y-66998574D01*
X113873007Y-67000186D01*
X113993580Y-67050130D01*
X114196530Y-67090499D01*
X114196534Y-67090500D01*
X114196535Y-67090500D01*
X114403466Y-67090500D01*
X114403467Y-67090499D01*
X114606420Y-67050130D01*
X114797598Y-66970941D01*
X114969655Y-66855977D01*
X115115977Y-66709655D01*
X115230941Y-66537598D01*
X115310130Y-66346420D01*
X115350500Y-66143465D01*
X115350500Y-65936535D01*
X115310130Y-65733580D01*
X115230941Y-65542402D01*
X115115977Y-65370345D01*
X115115975Y-65370342D01*
X114969657Y-65224024D01*
X114819944Y-65123990D01*
X114797598Y-65109059D01*
X114606420Y-65029870D01*
X114606412Y-65029868D01*
X114403469Y-64989500D01*
X114403465Y-64989500D01*
X114196535Y-64989500D01*
X114196530Y-64989500D01*
X113993587Y-65029868D01*
X113993579Y-65029870D01*
X113802403Y-65109058D01*
X113630342Y-65224024D01*
X113484024Y-65370342D01*
X113369058Y-65542403D01*
X113289870Y-65733579D01*
X113289868Y-65733587D01*
X113249500Y-65936530D01*
X113249500Y-66143469D01*
X113289868Y-66346412D01*
X113289871Y-66346424D01*
X113339803Y-66466971D01*
X113347272Y-66536440D01*
X113315997Y-66598919D01*
X113312923Y-66602104D01*
X112941848Y-66973181D01*
X112880525Y-67006666D01*
X112854167Y-67009500D01*
X99875495Y-67009500D01*
X99808456Y-66989815D01*
X99762701Y-66937011D01*
X99752757Y-66867853D01*
X99781782Y-66804297D01*
X99787814Y-66797819D01*
X99875974Y-66709658D01*
X99875975Y-66709657D01*
X99875977Y-66709655D01*
X99990941Y-66537598D01*
X100070130Y-66346420D01*
X100110500Y-66143465D01*
X100110500Y-65936535D01*
X100070130Y-65733580D01*
X99990941Y-65542402D01*
X99875977Y-65370345D01*
X99875975Y-65370342D01*
X99729658Y-65224025D01*
X99729650Y-65224019D01*
X99660182Y-65177602D01*
X99615376Y-65123990D01*
X99606669Y-65054665D01*
X99636823Y-64991638D01*
X99696266Y-64954918D01*
X99729072Y-64950500D01*
X113189560Y-64950500D01*
X113189562Y-64950500D01*
X113265989Y-64930021D01*
X113334511Y-64890460D01*
X113390460Y-64834511D01*
X113737896Y-64487073D01*
X113799217Y-64453590D01*
X113868908Y-64458574D01*
X113873007Y-64460186D01*
X113993580Y-64510130D01*
X114196530Y-64550499D01*
X114196534Y-64550500D01*
X114196535Y-64550500D01*
X114403466Y-64550500D01*
X114403467Y-64550499D01*
X114606420Y-64510130D01*
X114797598Y-64430941D01*
X114969655Y-64315977D01*
X115115977Y-64169655D01*
X115230941Y-63997598D01*
X115310130Y-63806420D01*
X115350500Y-63603465D01*
X115350500Y-63396535D01*
X115310130Y-63193580D01*
X115230941Y-63002402D01*
X115115977Y-62830345D01*
X115115975Y-62830342D01*
X114969657Y-62684024D01*
X114860616Y-62611166D01*
X114797598Y-62569059D01*
X114764219Y-62555233D01*
X114606420Y-62489870D01*
X114606412Y-62489868D01*
X114403469Y-62449500D01*
X114403465Y-62449500D01*
X114196535Y-62449500D01*
X114196530Y-62449500D01*
X113993587Y-62489868D01*
X113993579Y-62489870D01*
X113802403Y-62569058D01*
X113630342Y-62684024D01*
X113484024Y-62830342D01*
X113369058Y-63002403D01*
X113289870Y-63193579D01*
X113289868Y-63193587D01*
X113249500Y-63396530D01*
X113249500Y-63603469D01*
X113289868Y-63806412D01*
X113289871Y-63806424D01*
X113339803Y-63926971D01*
X113347272Y-63996440D01*
X113315997Y-64058919D01*
X113312924Y-64062104D01*
X113061846Y-64313182D01*
X113000526Y-64346666D01*
X112974167Y-64349500D01*
X99987796Y-64349500D01*
X99920757Y-64329815D01*
X99875002Y-64277011D01*
X99865058Y-64207853D01*
X99884694Y-64156610D01*
X99990940Y-63997600D01*
X99990940Y-63997599D01*
X99990941Y-63997598D01*
X100070130Y-63806420D01*
X100110500Y-63603465D01*
X100110500Y-63396535D01*
X100070130Y-63193580D01*
X99990941Y-63002402D01*
X99875977Y-62830345D01*
X99875975Y-62830342D01*
X99787814Y-62742181D01*
X99754329Y-62680858D01*
X99759313Y-62611166D01*
X99801185Y-62555233D01*
X99866649Y-62530816D01*
X99875495Y-62530500D01*
X113069560Y-62530500D01*
X113069562Y-62530500D01*
X113145989Y-62510021D01*
X113214511Y-62470460D01*
X113270460Y-62414511D01*
X113737896Y-61947073D01*
X113799217Y-61913590D01*
X113868908Y-61918574D01*
X113873007Y-61920186D01*
X113993580Y-61970130D01*
X114196530Y-62010499D01*
X114196534Y-62010500D01*
X114196535Y-62010500D01*
X114403466Y-62010500D01*
X114403467Y-62010499D01*
X114606420Y-61970130D01*
X114797598Y-61890941D01*
X114969655Y-61775977D01*
X115115977Y-61629655D01*
X115230941Y-61457598D01*
X115310130Y-61266420D01*
X115350500Y-61063465D01*
X115350500Y-60856535D01*
X115310130Y-60653580D01*
X115230941Y-60462402D01*
X115115977Y-60290345D01*
X115115975Y-60290342D01*
X114969657Y-60144024D01*
X114860616Y-60071166D01*
X114797598Y-60029059D01*
X114764219Y-60015233D01*
X114606420Y-59949870D01*
X114606412Y-59949868D01*
X114403469Y-59909500D01*
X114403465Y-59909500D01*
X114196535Y-59909500D01*
X114196530Y-59909500D01*
X113993587Y-59949868D01*
X113993579Y-59949870D01*
X113802403Y-60029058D01*
X113630342Y-60144024D01*
X113484024Y-60290342D01*
X113369058Y-60462403D01*
X113289870Y-60653579D01*
X113289868Y-60653587D01*
X113249500Y-60856530D01*
X113249500Y-61063469D01*
X113289868Y-61266412D01*
X113289871Y-61266424D01*
X113339803Y-61386971D01*
X113347272Y-61456440D01*
X113315997Y-61518919D01*
X113312923Y-61522104D01*
X112941848Y-61893181D01*
X112880525Y-61926666D01*
X112854167Y-61929500D01*
X99875495Y-61929500D01*
X99808456Y-61909815D01*
X99762701Y-61857011D01*
X99752757Y-61787853D01*
X99781782Y-61724297D01*
X99787814Y-61717819D01*
X99875974Y-61629658D01*
X99875975Y-61629657D01*
X99875977Y-61629655D01*
X99990941Y-61457598D01*
X100070130Y-61266420D01*
X100110500Y-61063465D01*
X100110500Y-60856535D01*
X100070130Y-60653580D01*
X99990941Y-60462402D01*
X99875977Y-60290345D01*
X99875975Y-60290342D01*
X99787814Y-60202181D01*
X99754329Y-60140858D01*
X99759313Y-60071166D01*
X99801185Y-60015233D01*
X99866649Y-59990816D01*
X99875495Y-59990500D01*
X113069560Y-59990500D01*
X113069562Y-59990500D01*
X113145989Y-59970021D01*
X113214511Y-59930460D01*
X113270460Y-59874511D01*
X113737896Y-59407073D01*
X113799217Y-59373590D01*
X113868908Y-59378574D01*
X113873007Y-59380186D01*
X113993580Y-59430130D01*
X114125016Y-59456274D01*
X114196530Y-59470499D01*
X114196534Y-59470500D01*
X114196535Y-59470500D01*
X114403466Y-59470500D01*
X114403467Y-59470499D01*
X114606420Y-59430130D01*
X114797598Y-59350941D01*
X114969655Y-59235977D01*
X115115977Y-59089655D01*
X115230941Y-58917598D01*
X115310130Y-58726420D01*
X115350500Y-58523465D01*
X115350500Y-58316535D01*
X115310130Y-58113580D01*
X115230941Y-57922402D01*
X115115977Y-57750345D01*
X115115975Y-57750342D01*
X114969657Y-57604024D01*
X114860616Y-57531166D01*
X114797598Y-57489059D01*
X114764219Y-57475233D01*
X114606420Y-57409870D01*
X114606412Y-57409868D01*
X114403469Y-57369500D01*
X114403465Y-57369500D01*
X114196535Y-57369500D01*
X114196530Y-57369500D01*
X113993587Y-57409868D01*
X113993579Y-57409870D01*
X113802403Y-57489058D01*
X113630342Y-57604024D01*
X113484024Y-57750342D01*
X113369058Y-57922403D01*
X113289870Y-58113579D01*
X113289868Y-58113587D01*
X113249500Y-58316530D01*
X113249500Y-58523469D01*
X113289868Y-58726412D01*
X113289871Y-58726424D01*
X113339803Y-58846971D01*
X113347272Y-58916440D01*
X113315997Y-58978919D01*
X113312923Y-58982104D01*
X112941848Y-59353181D01*
X112880525Y-59386666D01*
X112854167Y-59389500D01*
X99875495Y-59389500D01*
X99808456Y-59369815D01*
X99762701Y-59317011D01*
X99752757Y-59247853D01*
X99781782Y-59184297D01*
X99787814Y-59177819D01*
X99875974Y-59089658D01*
X99875975Y-59089657D01*
X99875977Y-59089655D01*
X99990941Y-58917598D01*
X100070130Y-58726420D01*
X100110500Y-58523465D01*
X100110500Y-58316535D01*
X100070130Y-58113580D01*
X99990941Y-57922402D01*
X99875977Y-57750345D01*
X99875975Y-57750342D01*
X99787814Y-57662181D01*
X99754329Y-57600858D01*
X99759313Y-57531166D01*
X99801185Y-57475233D01*
X99866649Y-57450816D01*
X99875495Y-57450500D01*
X113069560Y-57450500D01*
X113069562Y-57450500D01*
X113145989Y-57430021D01*
X113214511Y-57390460D01*
X113270460Y-57334511D01*
X113737896Y-56867073D01*
X113799217Y-56833590D01*
X113868908Y-56838574D01*
X113873007Y-56840186D01*
X113993580Y-56890130D01*
X114196530Y-56930499D01*
X114196534Y-56930500D01*
X114196535Y-56930500D01*
X114403466Y-56930500D01*
X114403467Y-56930499D01*
X114606420Y-56890130D01*
X114797598Y-56810941D01*
X114969655Y-56695977D01*
X115115977Y-56549655D01*
X115230941Y-56377598D01*
X115310130Y-56186420D01*
X115350500Y-55983465D01*
X115350500Y-55776535D01*
X115310130Y-55573580D01*
X115230941Y-55382402D01*
X115115977Y-55210345D01*
X115115975Y-55210342D01*
X114969657Y-55064024D01*
X114883626Y-55006541D01*
X114797598Y-54949059D01*
X114606420Y-54869870D01*
X114606412Y-54869868D01*
X114403469Y-54829500D01*
X114403465Y-54829500D01*
X114196535Y-54829500D01*
X114196530Y-54829500D01*
X113993587Y-54869868D01*
X113993579Y-54869870D01*
X113802403Y-54949058D01*
X113630342Y-55064024D01*
X113484024Y-55210342D01*
X113369058Y-55382403D01*
X113289870Y-55573579D01*
X113289868Y-55573587D01*
X113249500Y-55776530D01*
X113249500Y-55983469D01*
X113289868Y-56186412D01*
X113289871Y-56186424D01*
X113339803Y-56306971D01*
X113347272Y-56376440D01*
X113315997Y-56438919D01*
X113312923Y-56442104D01*
X112941848Y-56813181D01*
X112880525Y-56846666D01*
X112854167Y-56849500D01*
X99875495Y-56849500D01*
X99808456Y-56829815D01*
X99762701Y-56777011D01*
X99752757Y-56707853D01*
X99781782Y-56644297D01*
X99787814Y-56637819D01*
X99875974Y-56549658D01*
X99875975Y-56549657D01*
X99875977Y-56549655D01*
X99990941Y-56377598D01*
X100070130Y-56186420D01*
X100110500Y-55983465D01*
X100110500Y-55776535D01*
X100070130Y-55573580D01*
X99990941Y-55382402D01*
X99875977Y-55210345D01*
X99875975Y-55210342D01*
X99729658Y-55064025D01*
X99729650Y-55064019D01*
X99660182Y-55017602D01*
X99615376Y-54963990D01*
X99606669Y-54894665D01*
X99636823Y-54831638D01*
X99696266Y-54794918D01*
X99729072Y-54790500D01*
X113189560Y-54790500D01*
X113189562Y-54790500D01*
X113265989Y-54770021D01*
X113334511Y-54730460D01*
X113390460Y-54674511D01*
X113737896Y-54327073D01*
X113799217Y-54293590D01*
X113868908Y-54298574D01*
X113873007Y-54300186D01*
X113993580Y-54350130D01*
X114196530Y-54390499D01*
X114196534Y-54390500D01*
X114196535Y-54390500D01*
X114403466Y-54390500D01*
X114403467Y-54390499D01*
X114606420Y-54350130D01*
X114797598Y-54270941D01*
X114969655Y-54155977D01*
X115115977Y-54009655D01*
X115230941Y-53837598D01*
X115310130Y-53646420D01*
X115350500Y-53443465D01*
X115350500Y-53236535D01*
X115310130Y-53033580D01*
X115230941Y-52842402D01*
X115115977Y-52670345D01*
X115115975Y-52670342D01*
X114969657Y-52524024D01*
X114883626Y-52466541D01*
X114797598Y-52409059D01*
X114709868Y-52372720D01*
X114606420Y-52329870D01*
X114606412Y-52329868D01*
X114403469Y-52289500D01*
X114403465Y-52289500D01*
X114196535Y-52289500D01*
X114196530Y-52289500D01*
X113993587Y-52329868D01*
X113993579Y-52329870D01*
X113802403Y-52409058D01*
X113630342Y-52524024D01*
X113484024Y-52670342D01*
X113369058Y-52842403D01*
X113289870Y-53033579D01*
X113289868Y-53033587D01*
X113249500Y-53236530D01*
X113249500Y-53443469D01*
X113289868Y-53646412D01*
X113289871Y-53646424D01*
X113339803Y-53766971D01*
X113347272Y-53836440D01*
X113315997Y-53898919D01*
X113312924Y-53902104D01*
X113061846Y-54153182D01*
X113000526Y-54186666D01*
X112974167Y-54189500D01*
X99987796Y-54189500D01*
X99920757Y-54169815D01*
X99875002Y-54117011D01*
X99865058Y-54047853D01*
X99884694Y-53996610D01*
X99990940Y-53837600D01*
X99990940Y-53837599D01*
X99990941Y-53837598D01*
X100070130Y-53646420D01*
X100110500Y-53443465D01*
X100110500Y-53236535D01*
X100070130Y-53033580D01*
X99990941Y-52842402D01*
X99875977Y-52670345D01*
X99875975Y-52670342D01*
X99729658Y-52524025D01*
X99729650Y-52524019D01*
X99660182Y-52477602D01*
X99615376Y-52423990D01*
X99606669Y-52354665D01*
X99636823Y-52291638D01*
X99696266Y-52254918D01*
X99729072Y-52250500D01*
X113189560Y-52250500D01*
X113189562Y-52250500D01*
X113265989Y-52230021D01*
X113334511Y-52190460D01*
X113390460Y-52134511D01*
X113737896Y-51787073D01*
X113799217Y-51753590D01*
X113868908Y-51758574D01*
X113873007Y-51760186D01*
X113993580Y-51810130D01*
X114196530Y-51850499D01*
X114196534Y-51850500D01*
X114196535Y-51850500D01*
X114403466Y-51850500D01*
X114403467Y-51850499D01*
X114606420Y-51810130D01*
X114797598Y-51730941D01*
X114969655Y-51615977D01*
X115115977Y-51469655D01*
X115230941Y-51297598D01*
X115310130Y-51106420D01*
X115350500Y-50903465D01*
X115350500Y-50696535D01*
X115310130Y-50493580D01*
X115230941Y-50302402D01*
X115115977Y-50130345D01*
X115115975Y-50130342D01*
X114969657Y-49984024D01*
X114829624Y-49890458D01*
X114797598Y-49869059D01*
X114606420Y-49789870D01*
X114606412Y-49789868D01*
X114403469Y-49749500D01*
X114403465Y-49749500D01*
X114196535Y-49749500D01*
X114196530Y-49749500D01*
X113993587Y-49789868D01*
X113993579Y-49789870D01*
X113802403Y-49869058D01*
X113630342Y-49984024D01*
X113484024Y-50130342D01*
X113369058Y-50302403D01*
X113289870Y-50493579D01*
X113289868Y-50493587D01*
X113249500Y-50696530D01*
X113249500Y-50903469D01*
X113289868Y-51106412D01*
X113289871Y-51106424D01*
X113339803Y-51226971D01*
X113347272Y-51296440D01*
X113315997Y-51358919D01*
X113312924Y-51362104D01*
X113061846Y-51613182D01*
X113000526Y-51646666D01*
X112974167Y-51649500D01*
X99987796Y-51649500D01*
X99920757Y-51629815D01*
X99875002Y-51577011D01*
X99865058Y-51507853D01*
X99884694Y-51456610D01*
X99990940Y-51297600D01*
X99990940Y-51297599D01*
X99990941Y-51297598D01*
X100070130Y-51106420D01*
X100110500Y-50903465D01*
X100110500Y-50696535D01*
X100070130Y-50493580D01*
X99990941Y-50302402D01*
X99990940Y-50302400D01*
X99990940Y-50302399D01*
X99884694Y-50143390D01*
X99863816Y-50076713D01*
X99882301Y-50009333D01*
X99934280Y-49962643D01*
X99987796Y-49950500D01*
X112949560Y-49950500D01*
X112949562Y-49950500D01*
X113025989Y-49930021D01*
X113094511Y-49890460D01*
X113150460Y-49834511D01*
X113737896Y-49247073D01*
X113799217Y-49213590D01*
X113868908Y-49218574D01*
X113873007Y-49220186D01*
X113993580Y-49270130D01*
X114196530Y-49310499D01*
X114196534Y-49310500D01*
X114196535Y-49310500D01*
X114403466Y-49310500D01*
X114403467Y-49310499D01*
X114606420Y-49270130D01*
X114797598Y-49190941D01*
X114969655Y-49075977D01*
X115115977Y-48929655D01*
X115230941Y-48757598D01*
X115310130Y-48566420D01*
X115350500Y-48363465D01*
X115350500Y-48156535D01*
X115310130Y-47953580D01*
X115230941Y-47762402D01*
X115115977Y-47590345D01*
X115115975Y-47590342D01*
X114969657Y-47444024D01*
X114883626Y-47386541D01*
X114797598Y-47329059D01*
X114606420Y-47249870D01*
X114606412Y-47249868D01*
X114403469Y-47209500D01*
X114403465Y-47209500D01*
X114196535Y-47209500D01*
X114196530Y-47209500D01*
X113993587Y-47249868D01*
X113993579Y-47249870D01*
X113802403Y-47329058D01*
X113630342Y-47444024D01*
X113484024Y-47590342D01*
X113369058Y-47762403D01*
X113289870Y-47953579D01*
X113289868Y-47953587D01*
X113249500Y-48156530D01*
X113249500Y-48363469D01*
X113289868Y-48566412D01*
X113289871Y-48566424D01*
X113339803Y-48686971D01*
X113347272Y-48756440D01*
X113315997Y-48818919D01*
X113312923Y-48822104D01*
X112821848Y-49313181D01*
X112760525Y-49346666D01*
X112734167Y-49349500D01*
X99729072Y-49349500D01*
X99662033Y-49329815D01*
X99616278Y-49277011D01*
X99606334Y-49207853D01*
X99635359Y-49144297D01*
X99660182Y-49122398D01*
X99724999Y-49079088D01*
X99729655Y-49075977D01*
X99875977Y-48929655D01*
X99990941Y-48757598D01*
X100070130Y-48566420D01*
X100110500Y-48363465D01*
X100110500Y-48156535D01*
X100070130Y-47953580D01*
X99990941Y-47762402D01*
X99875977Y-47590345D01*
X99875975Y-47590342D01*
X99729658Y-47444025D01*
X99729650Y-47444019D01*
X99660182Y-47397602D01*
X99615376Y-47343990D01*
X99606669Y-47274665D01*
X99636823Y-47211638D01*
X99696266Y-47174918D01*
X99729072Y-47170500D01*
X113189560Y-47170500D01*
X113189562Y-47170500D01*
X113265989Y-47150021D01*
X113334511Y-47110460D01*
X113390460Y-47054511D01*
X113737896Y-46707073D01*
X113799217Y-46673590D01*
X113868908Y-46678574D01*
X113873007Y-46680186D01*
X113993580Y-46730130D01*
X114186772Y-46768558D01*
X114196530Y-46770499D01*
X114196534Y-46770500D01*
X114196535Y-46770500D01*
X114403466Y-46770500D01*
X114403467Y-46770499D01*
X114606420Y-46730130D01*
X114797598Y-46650941D01*
X114969655Y-46535977D01*
X115115977Y-46389655D01*
X115230941Y-46217598D01*
X115310130Y-46026420D01*
X115350500Y-45823465D01*
X115350500Y-45616535D01*
X115310130Y-45413580D01*
X115230941Y-45222402D01*
X115115977Y-45050345D01*
X115115975Y-45050342D01*
X114969657Y-44904024D01*
X114799404Y-44790266D01*
X114797598Y-44789059D01*
X114797593Y-44789057D01*
X114735891Y-44763499D01*
X114632890Y-44720834D01*
X114578488Y-44676994D01*
X114556423Y-44610700D01*
X114573702Y-44543001D01*
X114624839Y-44495390D01*
X114642026Y-44488343D01*
X114818217Y-44431095D01*
X115007554Y-44334622D01*
X115061716Y-44295270D01*
X115061717Y-44295270D01*
X114429408Y-43662962D01*
X114492993Y-43645925D01*
X114607007Y-43580099D01*
X114700099Y-43487007D01*
X114765925Y-43372993D01*
X114782962Y-43309409D01*
X115415270Y-43941717D01*
G37*
%TD.AperFunction*%
%TD*%
M02*
