%TF.GenerationSoftware,KiCad,Pcbnew,10.0.0*%
%TF.CreationDate,2026-06-04T22:51:01+02:00*%
%TF.ProjectId,ns-clock-neo,6e732d63-6c6f-4636-9b2d-6e656f2e6b69,rev?*%
%TF.SameCoordinates,Original*%
%TF.FileFunction,Legend,Top*%
%TF.FilePolarity,Positive*%
%FSLAX46Y46*%
G04 Gerber Fmt 4.6, Leading zero omitted, Abs format (unit mm)*
G04 Created by KiCad (PCBNEW 10.0.0) date 2026-06-04 22:51:01*
%MOMM*%
%LPD*%
G01*
G04 APERTURE LIST*
%ADD10C,0.250000*%
%ADD11C,0.200000*%
%ADD12C,0.300000*%
G04 APERTURE END LIST*
D10*
X97790000Y-77470000D02*
X97790000Y-41656000D01*
D11*
X104648000Y-77470000D02*
G75*
G02*
X108718824Y-77470000I2035412J0D01*
G01*
D10*
X115570000Y-41656000D02*
X115570000Y-77470000D01*
X115570000Y-77470000D02*
X97790000Y-77470000D01*
D11*
X96919695Y-70543945D02*
X96119695Y-70543945D01*
X96119695Y-70543945D02*
X96119695Y-70239183D01*
X96119695Y-70239183D02*
X96157790Y-70162993D01*
X96157790Y-70162993D02*
X96195885Y-70124898D01*
X96195885Y-70124898D02*
X96272076Y-70086802D01*
X96272076Y-70086802D02*
X96386361Y-70086802D01*
X96386361Y-70086802D02*
X96462552Y-70124898D01*
X96462552Y-70124898D02*
X96500647Y-70162993D01*
X96500647Y-70162993D02*
X96538742Y-70239183D01*
X96538742Y-70239183D02*
X96538742Y-70543945D01*
X96919695Y-69629660D02*
X96881600Y-69705850D01*
X96881600Y-69705850D02*
X96805409Y-69743945D01*
X96805409Y-69743945D02*
X96119695Y-69743945D01*
X96386361Y-68982040D02*
X96919695Y-68982040D01*
X96386361Y-69324897D02*
X96805409Y-69324897D01*
X96805409Y-69324897D02*
X96881600Y-69286802D01*
X96881600Y-69286802D02*
X96919695Y-69210612D01*
X96919695Y-69210612D02*
X96919695Y-69096326D01*
X96919695Y-69096326D02*
X96881600Y-69020135D01*
X96881600Y-69020135D02*
X96843504Y-68982040D01*
X96386361Y-68258230D02*
X97033980Y-68258230D01*
X97033980Y-68258230D02*
X97110171Y-68296325D01*
X97110171Y-68296325D02*
X97148266Y-68334421D01*
X97148266Y-68334421D02*
X97186361Y-68410611D01*
X97186361Y-68410611D02*
X97186361Y-68524897D01*
X97186361Y-68524897D02*
X97148266Y-68601087D01*
X96881600Y-68258230D02*
X96919695Y-68334421D01*
X96919695Y-68334421D02*
X96919695Y-68486802D01*
X96919695Y-68486802D02*
X96881600Y-68562992D01*
X96881600Y-68562992D02*
X96843504Y-68601087D01*
X96843504Y-68601087D02*
X96767314Y-68639183D01*
X96767314Y-68639183D02*
X96538742Y-68639183D01*
X96538742Y-68639183D02*
X96462552Y-68601087D01*
X96462552Y-68601087D02*
X96424457Y-68562992D01*
X96424457Y-68562992D02*
X96386361Y-68486802D01*
X96386361Y-68486802D02*
X96386361Y-68334421D01*
X96386361Y-68334421D02*
X96424457Y-68258230D01*
X96386361Y-67382039D02*
X96386361Y-67077277D01*
X96119695Y-67267753D02*
X96805409Y-67267753D01*
X96805409Y-67267753D02*
X96881600Y-67229658D01*
X96881600Y-67229658D02*
X96919695Y-67153468D01*
X96919695Y-67153468D02*
X96919695Y-67077277D01*
X96919695Y-66810610D02*
X96119695Y-66810610D01*
X96919695Y-66467753D02*
X96500647Y-66467753D01*
X96500647Y-66467753D02*
X96424457Y-66505848D01*
X96424457Y-66505848D02*
X96386361Y-66582039D01*
X96386361Y-66582039D02*
X96386361Y-66696325D01*
X96386361Y-66696325D02*
X96424457Y-66772515D01*
X96424457Y-66772515D02*
X96462552Y-66810610D01*
X96919695Y-66086800D02*
X96386361Y-66086800D01*
X96119695Y-66086800D02*
X96157790Y-66124896D01*
X96157790Y-66124896D02*
X96195885Y-66086800D01*
X96195885Y-66086800D02*
X96157790Y-66048705D01*
X96157790Y-66048705D02*
X96119695Y-66086800D01*
X96119695Y-66086800D02*
X96195885Y-66086800D01*
X96881600Y-65743944D02*
X96919695Y-65667753D01*
X96919695Y-65667753D02*
X96919695Y-65515372D01*
X96919695Y-65515372D02*
X96881600Y-65439182D01*
X96881600Y-65439182D02*
X96805409Y-65401086D01*
X96805409Y-65401086D02*
X96767314Y-65401086D01*
X96767314Y-65401086D02*
X96691123Y-65439182D01*
X96691123Y-65439182D02*
X96653028Y-65515372D01*
X96653028Y-65515372D02*
X96653028Y-65629658D01*
X96653028Y-65629658D02*
X96614933Y-65705848D01*
X96614933Y-65705848D02*
X96538742Y-65743944D01*
X96538742Y-65743944D02*
X96500647Y-65743944D01*
X96500647Y-65743944D02*
X96424457Y-65705848D01*
X96424457Y-65705848D02*
X96386361Y-65629658D01*
X96386361Y-65629658D02*
X96386361Y-65515372D01*
X96386361Y-65515372D02*
X96424457Y-65439182D01*
X96919695Y-64448705D02*
X96386361Y-64448705D01*
X96119695Y-64448705D02*
X96157790Y-64486801D01*
X96157790Y-64486801D02*
X96195885Y-64448705D01*
X96195885Y-64448705D02*
X96157790Y-64410610D01*
X96157790Y-64410610D02*
X96119695Y-64448705D01*
X96119695Y-64448705D02*
X96195885Y-64448705D01*
X96386361Y-64067753D02*
X96919695Y-64067753D01*
X96462552Y-64067753D02*
X96424457Y-64029658D01*
X96424457Y-64029658D02*
X96386361Y-63953468D01*
X96386361Y-63953468D02*
X96386361Y-63839182D01*
X96386361Y-63839182D02*
X96424457Y-63762991D01*
X96424457Y-63762991D02*
X96500647Y-63724896D01*
X96500647Y-63724896D02*
X96919695Y-63724896D01*
X96919695Y-62277276D02*
X96538742Y-62543943D01*
X96919695Y-62734419D02*
X96119695Y-62734419D01*
X96119695Y-62734419D02*
X96119695Y-62429657D01*
X96119695Y-62429657D02*
X96157790Y-62353467D01*
X96157790Y-62353467D02*
X96195885Y-62315372D01*
X96195885Y-62315372D02*
X96272076Y-62277276D01*
X96272076Y-62277276D02*
X96386361Y-62277276D01*
X96386361Y-62277276D02*
X96462552Y-62315372D01*
X96462552Y-62315372D02*
X96500647Y-62353467D01*
X96500647Y-62353467D02*
X96538742Y-62429657D01*
X96538742Y-62429657D02*
X96538742Y-62734419D01*
X96119695Y-61782038D02*
X96119695Y-61629657D01*
X96119695Y-61629657D02*
X96157790Y-61553467D01*
X96157790Y-61553467D02*
X96233980Y-61477276D01*
X96233980Y-61477276D02*
X96386361Y-61439181D01*
X96386361Y-61439181D02*
X96653028Y-61439181D01*
X96653028Y-61439181D02*
X96805409Y-61477276D01*
X96805409Y-61477276D02*
X96881600Y-61553467D01*
X96881600Y-61553467D02*
X96919695Y-61629657D01*
X96919695Y-61629657D02*
X96919695Y-61782038D01*
X96919695Y-61782038D02*
X96881600Y-61858229D01*
X96881600Y-61858229D02*
X96805409Y-61934419D01*
X96805409Y-61934419D02*
X96653028Y-61972515D01*
X96653028Y-61972515D02*
X96386361Y-61972515D01*
X96386361Y-61972515D02*
X96233980Y-61934419D01*
X96233980Y-61934419D02*
X96157790Y-61858229D01*
X96157790Y-61858229D02*
X96119695Y-61782038D01*
X96919695Y-61096324D02*
X96119695Y-61096324D01*
X96119695Y-61096324D02*
X96691123Y-60829658D01*
X96691123Y-60829658D02*
X96119695Y-60562991D01*
X96119695Y-60562991D02*
X96919695Y-60562991D01*
X96843504Y-59115371D02*
X96881600Y-59153467D01*
X96881600Y-59153467D02*
X96919695Y-59267752D01*
X96919695Y-59267752D02*
X96919695Y-59343943D01*
X96919695Y-59343943D02*
X96881600Y-59458229D01*
X96881600Y-59458229D02*
X96805409Y-59534419D01*
X96805409Y-59534419D02*
X96729219Y-59572514D01*
X96729219Y-59572514D02*
X96576838Y-59610610D01*
X96576838Y-59610610D02*
X96462552Y-59610610D01*
X96462552Y-59610610D02*
X96310171Y-59572514D01*
X96310171Y-59572514D02*
X96233980Y-59534419D01*
X96233980Y-59534419D02*
X96157790Y-59458229D01*
X96157790Y-59458229D02*
X96119695Y-59343943D01*
X96119695Y-59343943D02*
X96119695Y-59267752D01*
X96119695Y-59267752D02*
X96157790Y-59153467D01*
X96157790Y-59153467D02*
X96195885Y-59115371D01*
X96919695Y-58772514D02*
X96119695Y-58772514D01*
X96119695Y-58772514D02*
X96119695Y-58582038D01*
X96119695Y-58582038D02*
X96157790Y-58467752D01*
X96157790Y-58467752D02*
X96233980Y-58391562D01*
X96233980Y-58391562D02*
X96310171Y-58353467D01*
X96310171Y-58353467D02*
X96462552Y-58315371D01*
X96462552Y-58315371D02*
X96576838Y-58315371D01*
X96576838Y-58315371D02*
X96729219Y-58353467D01*
X96729219Y-58353467D02*
X96805409Y-58391562D01*
X96805409Y-58391562D02*
X96881600Y-58467752D01*
X96881600Y-58467752D02*
X96919695Y-58582038D01*
X96919695Y-58582038D02*
X96919695Y-58772514D01*
X96919695Y-57248705D02*
X96881600Y-57324895D01*
X96881600Y-57324895D02*
X96843504Y-57362990D01*
X96843504Y-57362990D02*
X96767314Y-57401086D01*
X96767314Y-57401086D02*
X96538742Y-57401086D01*
X96538742Y-57401086D02*
X96462552Y-57362990D01*
X96462552Y-57362990D02*
X96424457Y-57324895D01*
X96424457Y-57324895D02*
X96386361Y-57248705D01*
X96386361Y-57248705D02*
X96386361Y-57134419D01*
X96386361Y-57134419D02*
X96424457Y-57058228D01*
X96424457Y-57058228D02*
X96462552Y-57020133D01*
X96462552Y-57020133D02*
X96538742Y-56982038D01*
X96538742Y-56982038D02*
X96767314Y-56982038D01*
X96767314Y-56982038D02*
X96843504Y-57020133D01*
X96843504Y-57020133D02*
X96881600Y-57058228D01*
X96881600Y-57058228D02*
X96919695Y-57134419D01*
X96919695Y-57134419D02*
X96919695Y-57248705D01*
X96919695Y-56639180D02*
X96386361Y-56639180D01*
X96538742Y-56639180D02*
X96462552Y-56601085D01*
X96462552Y-56601085D02*
X96424457Y-56562990D01*
X96424457Y-56562990D02*
X96386361Y-56486799D01*
X96386361Y-56486799D02*
X96386361Y-56410609D01*
X96919695Y-55534418D02*
X96119695Y-55534418D01*
X96119695Y-55534418D02*
X96691123Y-55267752D01*
X96691123Y-55267752D02*
X96119695Y-55001085D01*
X96119695Y-55001085D02*
X96919695Y-55001085D01*
X96119695Y-54467751D02*
X96119695Y-54315370D01*
X96119695Y-54315370D02*
X96157790Y-54239180D01*
X96157790Y-54239180D02*
X96233980Y-54162989D01*
X96233980Y-54162989D02*
X96386361Y-54124894D01*
X96386361Y-54124894D02*
X96653028Y-54124894D01*
X96653028Y-54124894D02*
X96805409Y-54162989D01*
X96805409Y-54162989D02*
X96881600Y-54239180D01*
X96881600Y-54239180D02*
X96919695Y-54315370D01*
X96919695Y-54315370D02*
X96919695Y-54467751D01*
X96919695Y-54467751D02*
X96881600Y-54543942D01*
X96881600Y-54543942D02*
X96805409Y-54620132D01*
X96805409Y-54620132D02*
X96653028Y-54658228D01*
X96653028Y-54658228D02*
X96386361Y-54658228D01*
X96386361Y-54658228D02*
X96233980Y-54620132D01*
X96233980Y-54620132D02*
X96157790Y-54543942D01*
X96157790Y-54543942D02*
X96119695Y-54467751D01*
X96919695Y-53782037D02*
X96119695Y-53782037D01*
X96119695Y-53782037D02*
X96919695Y-53324894D01*
X96919695Y-53324894D02*
X96119695Y-53324894D01*
X96881600Y-52372514D02*
X96919695Y-52258228D01*
X96919695Y-52258228D02*
X96919695Y-52067752D01*
X96919695Y-52067752D02*
X96881600Y-51991561D01*
X96881600Y-51991561D02*
X96843504Y-51953466D01*
X96843504Y-51953466D02*
X96767314Y-51915371D01*
X96767314Y-51915371D02*
X96691123Y-51915371D01*
X96691123Y-51915371D02*
X96614933Y-51953466D01*
X96614933Y-51953466D02*
X96576838Y-51991561D01*
X96576838Y-51991561D02*
X96538742Y-52067752D01*
X96538742Y-52067752D02*
X96500647Y-52220133D01*
X96500647Y-52220133D02*
X96462552Y-52296323D01*
X96462552Y-52296323D02*
X96424457Y-52334418D01*
X96424457Y-52334418D02*
X96348266Y-52372514D01*
X96348266Y-52372514D02*
X96272076Y-52372514D01*
X96272076Y-52372514D02*
X96195885Y-52334418D01*
X96195885Y-52334418D02*
X96157790Y-52296323D01*
X96157790Y-52296323D02*
X96119695Y-52220133D01*
X96119695Y-52220133D02*
X96119695Y-52029656D01*
X96119695Y-52029656D02*
X96157790Y-51915371D01*
X96919695Y-51458228D02*
X96881600Y-51534418D01*
X96881600Y-51534418D02*
X96843504Y-51572513D01*
X96843504Y-51572513D02*
X96767314Y-51610609D01*
X96767314Y-51610609D02*
X96538742Y-51610609D01*
X96538742Y-51610609D02*
X96462552Y-51572513D01*
X96462552Y-51572513D02*
X96424457Y-51534418D01*
X96424457Y-51534418D02*
X96386361Y-51458228D01*
X96386361Y-51458228D02*
X96386361Y-51343942D01*
X96386361Y-51343942D02*
X96424457Y-51267751D01*
X96424457Y-51267751D02*
X96462552Y-51229656D01*
X96462552Y-51229656D02*
X96538742Y-51191561D01*
X96538742Y-51191561D02*
X96767314Y-51191561D01*
X96767314Y-51191561D02*
X96843504Y-51229656D01*
X96843504Y-51229656D02*
X96881600Y-51267751D01*
X96881600Y-51267751D02*
X96919695Y-51343942D01*
X96919695Y-51343942D02*
X96919695Y-51458228D01*
X96881600Y-50505846D02*
X96919695Y-50582037D01*
X96919695Y-50582037D02*
X96919695Y-50734418D01*
X96919695Y-50734418D02*
X96881600Y-50810608D01*
X96881600Y-50810608D02*
X96843504Y-50848703D01*
X96843504Y-50848703D02*
X96767314Y-50886799D01*
X96767314Y-50886799D02*
X96538742Y-50886799D01*
X96538742Y-50886799D02*
X96462552Y-50848703D01*
X96462552Y-50848703D02*
X96424457Y-50810608D01*
X96424457Y-50810608D02*
X96386361Y-50734418D01*
X96386361Y-50734418D02*
X96386361Y-50582037D01*
X96386361Y-50582037D02*
X96424457Y-50505846D01*
X96919695Y-50162989D02*
X96119695Y-50162989D01*
X96614933Y-50086799D02*
X96919695Y-49858227D01*
X96386361Y-49858227D02*
X96691123Y-50162989D01*
X96881600Y-49210608D02*
X96919695Y-49286799D01*
X96919695Y-49286799D02*
X96919695Y-49439180D01*
X96919695Y-49439180D02*
X96881600Y-49515370D01*
X96881600Y-49515370D02*
X96805409Y-49553466D01*
X96805409Y-49553466D02*
X96500647Y-49553466D01*
X96500647Y-49553466D02*
X96424457Y-49515370D01*
X96424457Y-49515370D02*
X96386361Y-49439180D01*
X96386361Y-49439180D02*
X96386361Y-49286799D01*
X96386361Y-49286799D02*
X96424457Y-49210608D01*
X96424457Y-49210608D02*
X96500647Y-49172513D01*
X96500647Y-49172513D02*
X96576838Y-49172513D01*
X96576838Y-49172513D02*
X96653028Y-49553466D01*
X96386361Y-48943942D02*
X96386361Y-48639180D01*
X96119695Y-48829656D02*
X96805409Y-48829656D01*
X96805409Y-48829656D02*
X96881600Y-48791561D01*
X96881600Y-48791561D02*
X96919695Y-48715371D01*
X96919695Y-48715371D02*
X96919695Y-48639180D01*
D10*
X91558619Y-120755431D02*
X90558619Y-120755431D01*
X91558619Y-120326860D02*
X91034809Y-120326860D01*
X91034809Y-120326860D02*
X90939571Y-120374479D01*
X90939571Y-120374479D02*
X90891952Y-120469717D01*
X90891952Y-120469717D02*
X90891952Y-120612574D01*
X90891952Y-120612574D02*
X90939571Y-120707812D01*
X90939571Y-120707812D02*
X90987190Y-120755431D01*
X90891952Y-119993526D02*
X90891952Y-119612574D01*
X90558619Y-119850669D02*
X91415761Y-119850669D01*
X91415761Y-119850669D02*
X91511000Y-119803050D01*
X91511000Y-119803050D02*
X91558619Y-119707812D01*
X91558619Y-119707812D02*
X91558619Y-119612574D01*
X90891952Y-119422097D02*
X90891952Y-119041145D01*
X90558619Y-119279240D02*
X91415761Y-119279240D01*
X91415761Y-119279240D02*
X91511000Y-119231621D01*
X91511000Y-119231621D02*
X91558619Y-119136383D01*
X91558619Y-119136383D02*
X91558619Y-119041145D01*
X90891952Y-118707811D02*
X91891952Y-118707811D01*
X90939571Y-118707811D02*
X90891952Y-118612573D01*
X90891952Y-118612573D02*
X90891952Y-118422097D01*
X90891952Y-118422097D02*
X90939571Y-118326859D01*
X90939571Y-118326859D02*
X90987190Y-118279240D01*
X90987190Y-118279240D02*
X91082428Y-118231621D01*
X91082428Y-118231621D02*
X91368142Y-118231621D01*
X91368142Y-118231621D02*
X91463380Y-118279240D01*
X91463380Y-118279240D02*
X91511000Y-118326859D01*
X91511000Y-118326859D02*
X91558619Y-118422097D01*
X91558619Y-118422097D02*
X91558619Y-118612573D01*
X91558619Y-118612573D02*
X91511000Y-118707811D01*
X91511000Y-117850668D02*
X91558619Y-117755430D01*
X91558619Y-117755430D02*
X91558619Y-117564954D01*
X91558619Y-117564954D02*
X91511000Y-117469716D01*
X91511000Y-117469716D02*
X91415761Y-117422097D01*
X91415761Y-117422097D02*
X91368142Y-117422097D01*
X91368142Y-117422097D02*
X91272904Y-117469716D01*
X91272904Y-117469716D02*
X91225285Y-117564954D01*
X91225285Y-117564954D02*
X91225285Y-117707811D01*
X91225285Y-117707811D02*
X91177666Y-117803049D01*
X91177666Y-117803049D02*
X91082428Y-117850668D01*
X91082428Y-117850668D02*
X91034809Y-117850668D01*
X91034809Y-117850668D02*
X90939571Y-117803049D01*
X90939571Y-117803049D02*
X90891952Y-117707811D01*
X90891952Y-117707811D02*
X90891952Y-117564954D01*
X90891952Y-117564954D02*
X90939571Y-117469716D01*
X91463380Y-116993525D02*
X91511000Y-116945906D01*
X91511000Y-116945906D02*
X91558619Y-116993525D01*
X91558619Y-116993525D02*
X91511000Y-117041144D01*
X91511000Y-117041144D02*
X91463380Y-116993525D01*
X91463380Y-116993525D02*
X91558619Y-116993525D01*
X90939571Y-116993525D02*
X90987190Y-116945906D01*
X90987190Y-116945906D02*
X91034809Y-116993525D01*
X91034809Y-116993525D02*
X90987190Y-117041144D01*
X90987190Y-117041144D02*
X90939571Y-116993525D01*
X90939571Y-116993525D02*
X91034809Y-116993525D01*
X90511000Y-115803050D02*
X91796714Y-116660192D01*
X90511000Y-114755431D02*
X91796714Y-115612573D01*
X90891952Y-113993526D02*
X91701476Y-113993526D01*
X91701476Y-113993526D02*
X91796714Y-114041145D01*
X91796714Y-114041145D02*
X91844333Y-114088764D01*
X91844333Y-114088764D02*
X91891952Y-114184002D01*
X91891952Y-114184002D02*
X91891952Y-114326859D01*
X91891952Y-114326859D02*
X91844333Y-114422097D01*
X91511000Y-113993526D02*
X91558619Y-114088764D01*
X91558619Y-114088764D02*
X91558619Y-114279240D01*
X91558619Y-114279240D02*
X91511000Y-114374478D01*
X91511000Y-114374478D02*
X91463380Y-114422097D01*
X91463380Y-114422097D02*
X91368142Y-114469716D01*
X91368142Y-114469716D02*
X91082428Y-114469716D01*
X91082428Y-114469716D02*
X90987190Y-114422097D01*
X90987190Y-114422097D02*
X90939571Y-114374478D01*
X90939571Y-114374478D02*
X90891952Y-114279240D01*
X90891952Y-114279240D02*
X90891952Y-114088764D01*
X90891952Y-114088764D02*
X90939571Y-113993526D01*
X91558619Y-113517335D02*
X90891952Y-113517335D01*
X90558619Y-113517335D02*
X90606238Y-113564954D01*
X90606238Y-113564954D02*
X90653857Y-113517335D01*
X90653857Y-113517335D02*
X90606238Y-113469716D01*
X90606238Y-113469716D02*
X90558619Y-113517335D01*
X90558619Y-113517335D02*
X90653857Y-113517335D01*
X90891952Y-113184002D02*
X90891952Y-112803050D01*
X90558619Y-113041145D02*
X91415761Y-113041145D01*
X91415761Y-113041145D02*
X91511000Y-112993526D01*
X91511000Y-112993526D02*
X91558619Y-112898288D01*
X91558619Y-112898288D02*
X91558619Y-112803050D01*
X91558619Y-112469716D02*
X90558619Y-112469716D01*
X91558619Y-112041145D02*
X91034809Y-112041145D01*
X91034809Y-112041145D02*
X90939571Y-112088764D01*
X90939571Y-112088764D02*
X90891952Y-112184002D01*
X90891952Y-112184002D02*
X90891952Y-112326859D01*
X90891952Y-112326859D02*
X90939571Y-112422097D01*
X90939571Y-112422097D02*
X90987190Y-112469716D01*
X90891952Y-111136383D02*
X91558619Y-111136383D01*
X90891952Y-111564954D02*
X91415761Y-111564954D01*
X91415761Y-111564954D02*
X91511000Y-111517335D01*
X91511000Y-111517335D02*
X91558619Y-111422097D01*
X91558619Y-111422097D02*
X91558619Y-111279240D01*
X91558619Y-111279240D02*
X91511000Y-111184002D01*
X91511000Y-111184002D02*
X91463380Y-111136383D01*
X91558619Y-110660192D02*
X90558619Y-110660192D01*
X90939571Y-110660192D02*
X90891952Y-110564954D01*
X90891952Y-110564954D02*
X90891952Y-110374478D01*
X90891952Y-110374478D02*
X90939571Y-110279240D01*
X90939571Y-110279240D02*
X90987190Y-110231621D01*
X90987190Y-110231621D02*
X91082428Y-110184002D01*
X91082428Y-110184002D02*
X91368142Y-110184002D01*
X91368142Y-110184002D02*
X91463380Y-110231621D01*
X91463380Y-110231621D02*
X91511000Y-110279240D01*
X91511000Y-110279240D02*
X91558619Y-110374478D01*
X91558619Y-110374478D02*
X91558619Y-110564954D01*
X91558619Y-110564954D02*
X91511000Y-110660192D01*
X91463380Y-109755430D02*
X91511000Y-109707811D01*
X91511000Y-109707811D02*
X91558619Y-109755430D01*
X91558619Y-109755430D02*
X91511000Y-109803049D01*
X91511000Y-109803049D02*
X91463380Y-109755430D01*
X91463380Y-109755430D02*
X91558619Y-109755430D01*
X91511000Y-108850669D02*
X91558619Y-108945907D01*
X91558619Y-108945907D02*
X91558619Y-109136383D01*
X91558619Y-109136383D02*
X91511000Y-109231621D01*
X91511000Y-109231621D02*
X91463380Y-109279240D01*
X91463380Y-109279240D02*
X91368142Y-109326859D01*
X91368142Y-109326859D02*
X91082428Y-109326859D01*
X91082428Y-109326859D02*
X90987190Y-109279240D01*
X90987190Y-109279240D02*
X90939571Y-109231621D01*
X90939571Y-109231621D02*
X90891952Y-109136383D01*
X90891952Y-109136383D02*
X90891952Y-108945907D01*
X90891952Y-108945907D02*
X90939571Y-108850669D01*
X91558619Y-108279240D02*
X91511000Y-108374478D01*
X91511000Y-108374478D02*
X91463380Y-108422097D01*
X91463380Y-108422097D02*
X91368142Y-108469716D01*
X91368142Y-108469716D02*
X91082428Y-108469716D01*
X91082428Y-108469716D02*
X90987190Y-108422097D01*
X90987190Y-108422097D02*
X90939571Y-108374478D01*
X90939571Y-108374478D02*
X90891952Y-108279240D01*
X90891952Y-108279240D02*
X90891952Y-108136383D01*
X90891952Y-108136383D02*
X90939571Y-108041145D01*
X90939571Y-108041145D02*
X90987190Y-107993526D01*
X90987190Y-107993526D02*
X91082428Y-107945907D01*
X91082428Y-107945907D02*
X91368142Y-107945907D01*
X91368142Y-107945907D02*
X91463380Y-107993526D01*
X91463380Y-107993526D02*
X91511000Y-108041145D01*
X91511000Y-108041145D02*
X91558619Y-108136383D01*
X91558619Y-108136383D02*
X91558619Y-108279240D01*
X91558619Y-107517335D02*
X90891952Y-107517335D01*
X90987190Y-107517335D02*
X90939571Y-107469716D01*
X90939571Y-107469716D02*
X90891952Y-107374478D01*
X90891952Y-107374478D02*
X90891952Y-107231621D01*
X90891952Y-107231621D02*
X90939571Y-107136383D01*
X90939571Y-107136383D02*
X91034809Y-107088764D01*
X91034809Y-107088764D02*
X91558619Y-107088764D01*
X91034809Y-107088764D02*
X90939571Y-107041145D01*
X90939571Y-107041145D02*
X90891952Y-106945907D01*
X90891952Y-106945907D02*
X90891952Y-106803050D01*
X90891952Y-106803050D02*
X90939571Y-106707811D01*
X90939571Y-106707811D02*
X91034809Y-106660192D01*
X91034809Y-106660192D02*
X91558619Y-106660192D01*
X90511000Y-105469717D02*
X91796714Y-106326859D01*
X90891952Y-105136383D02*
X91891952Y-105136383D01*
X90939571Y-105136383D02*
X90891952Y-105041145D01*
X90891952Y-105041145D02*
X90891952Y-104850669D01*
X90891952Y-104850669D02*
X90939571Y-104755431D01*
X90939571Y-104755431D02*
X90987190Y-104707812D01*
X90987190Y-104707812D02*
X91082428Y-104660193D01*
X91082428Y-104660193D02*
X91368142Y-104660193D01*
X91368142Y-104660193D02*
X91463380Y-104707812D01*
X91463380Y-104707812D02*
X91511000Y-104755431D01*
X91511000Y-104755431D02*
X91558619Y-104850669D01*
X91558619Y-104850669D02*
X91558619Y-105041145D01*
X91558619Y-105041145D02*
X91511000Y-105136383D01*
X91558619Y-103803050D02*
X91034809Y-103803050D01*
X91034809Y-103803050D02*
X90939571Y-103850669D01*
X90939571Y-103850669D02*
X90891952Y-103945907D01*
X90891952Y-103945907D02*
X90891952Y-104136383D01*
X90891952Y-104136383D02*
X90939571Y-104231621D01*
X91511000Y-103803050D02*
X91558619Y-103898288D01*
X91558619Y-103898288D02*
X91558619Y-104136383D01*
X91558619Y-104136383D02*
X91511000Y-104231621D01*
X91511000Y-104231621D02*
X91415761Y-104279240D01*
X91415761Y-104279240D02*
X91320523Y-104279240D01*
X91320523Y-104279240D02*
X91225285Y-104231621D01*
X91225285Y-104231621D02*
X91177666Y-104136383D01*
X91177666Y-104136383D02*
X91177666Y-103898288D01*
X91177666Y-103898288D02*
X91130047Y-103803050D01*
X90891952Y-103469716D02*
X90891952Y-103088764D01*
X90558619Y-103326859D02*
X91415761Y-103326859D01*
X91415761Y-103326859D02*
X91511000Y-103279240D01*
X91511000Y-103279240D02*
X91558619Y-103184002D01*
X91558619Y-103184002D02*
X91558619Y-103088764D01*
X91558619Y-102326859D02*
X90558619Y-102326859D01*
X91511000Y-102326859D02*
X91558619Y-102422097D01*
X91558619Y-102422097D02*
X91558619Y-102612573D01*
X91558619Y-102612573D02*
X91511000Y-102707811D01*
X91511000Y-102707811D02*
X91463380Y-102755430D01*
X91463380Y-102755430D02*
X91368142Y-102803049D01*
X91368142Y-102803049D02*
X91082428Y-102803049D01*
X91082428Y-102803049D02*
X90987190Y-102755430D01*
X90987190Y-102755430D02*
X90939571Y-102707811D01*
X90939571Y-102707811D02*
X90891952Y-102612573D01*
X90891952Y-102612573D02*
X90891952Y-102422097D01*
X90891952Y-102422097D02*
X90939571Y-102326859D01*
X91558619Y-101850668D02*
X90891952Y-101850668D01*
X90558619Y-101850668D02*
X90606238Y-101898287D01*
X90606238Y-101898287D02*
X90653857Y-101850668D01*
X90653857Y-101850668D02*
X90606238Y-101803049D01*
X90606238Y-101803049D02*
X90558619Y-101850668D01*
X90558619Y-101850668D02*
X90653857Y-101850668D01*
X91511000Y-100993526D02*
X91558619Y-101088764D01*
X91558619Y-101088764D02*
X91558619Y-101279240D01*
X91558619Y-101279240D02*
X91511000Y-101374478D01*
X91511000Y-101374478D02*
X91415761Y-101422097D01*
X91415761Y-101422097D02*
X91034809Y-101422097D01*
X91034809Y-101422097D02*
X90939571Y-101374478D01*
X90939571Y-101374478D02*
X90891952Y-101279240D01*
X90891952Y-101279240D02*
X90891952Y-101088764D01*
X90891952Y-101088764D02*
X90939571Y-100993526D01*
X90939571Y-100993526D02*
X91034809Y-100945907D01*
X91034809Y-100945907D02*
X91130047Y-100945907D01*
X91130047Y-100945907D02*
X91225285Y-101422097D01*
X90891952Y-100088764D02*
X91558619Y-100088764D01*
X90511000Y-100326859D02*
X91225285Y-100564954D01*
X91225285Y-100564954D02*
X91225285Y-99945907D01*
X90653857Y-99612573D02*
X90606238Y-99564954D01*
X90606238Y-99564954D02*
X90558619Y-99469716D01*
X90558619Y-99469716D02*
X90558619Y-99231621D01*
X90558619Y-99231621D02*
X90606238Y-99136383D01*
X90606238Y-99136383D02*
X90653857Y-99088764D01*
X90653857Y-99088764D02*
X90749095Y-99041145D01*
X90749095Y-99041145D02*
X90844333Y-99041145D01*
X90844333Y-99041145D02*
X90987190Y-99088764D01*
X90987190Y-99088764D02*
X91558619Y-99660192D01*
X91558619Y-99660192D02*
X91558619Y-99041145D01*
X91558619Y-98088764D02*
X91558619Y-98660192D01*
X91558619Y-98374478D02*
X90558619Y-98374478D01*
X90558619Y-98374478D02*
X90701476Y-98469716D01*
X90701476Y-98469716D02*
X90796714Y-98564954D01*
X90796714Y-98564954D02*
X90844333Y-98660192D01*
X107909952Y-66240669D02*
X108576619Y-66002574D01*
X108576619Y-66002574D02*
X107909952Y-65764479D01*
X107576619Y-65478764D02*
X107576619Y-64859717D01*
X107576619Y-64859717D02*
X107957571Y-65193050D01*
X107957571Y-65193050D02*
X107957571Y-65050193D01*
X107957571Y-65050193D02*
X108005190Y-64954955D01*
X108005190Y-64954955D02*
X108052809Y-64907336D01*
X108052809Y-64907336D02*
X108148047Y-64859717D01*
X108148047Y-64859717D02*
X108386142Y-64859717D01*
X108386142Y-64859717D02*
X108481380Y-64907336D01*
X108481380Y-64907336D02*
X108529000Y-64954955D01*
X108529000Y-64954955D02*
X108576619Y-65050193D01*
X108576619Y-65050193D02*
X108576619Y-65335907D01*
X108576619Y-65335907D02*
X108529000Y-65431145D01*
X108529000Y-65431145D02*
X108481380Y-65478764D01*
X108481380Y-64431145D02*
X108529000Y-64383526D01*
X108529000Y-64383526D02*
X108576619Y-64431145D01*
X108576619Y-64431145D02*
X108529000Y-64478764D01*
X108529000Y-64478764D02*
X108481380Y-64431145D01*
X108481380Y-64431145D02*
X108576619Y-64431145D01*
X107576619Y-63764479D02*
X107576619Y-63669241D01*
X107576619Y-63669241D02*
X107624238Y-63574003D01*
X107624238Y-63574003D02*
X107671857Y-63526384D01*
X107671857Y-63526384D02*
X107767095Y-63478765D01*
X107767095Y-63478765D02*
X107957571Y-63431146D01*
X107957571Y-63431146D02*
X108195666Y-63431146D01*
X108195666Y-63431146D02*
X108386142Y-63478765D01*
X108386142Y-63478765D02*
X108481380Y-63526384D01*
X108481380Y-63526384D02*
X108529000Y-63574003D01*
X108529000Y-63574003D02*
X108576619Y-63669241D01*
X108576619Y-63669241D02*
X108576619Y-63764479D01*
X108576619Y-63764479D02*
X108529000Y-63859717D01*
X108529000Y-63859717D02*
X108481380Y-63907336D01*
X108481380Y-63907336D02*
X108386142Y-63954955D01*
X108386142Y-63954955D02*
X108195666Y-64002574D01*
X108195666Y-64002574D02*
X107957571Y-64002574D01*
X107957571Y-64002574D02*
X107767095Y-63954955D01*
X107767095Y-63954955D02*
X107671857Y-63907336D01*
X107671857Y-63907336D02*
X107624238Y-63859717D01*
X107624238Y-63859717D02*
X107576619Y-63764479D01*
X108957571Y-61954955D02*
X108909952Y-62002574D01*
X108909952Y-62002574D02*
X108767095Y-62097812D01*
X108767095Y-62097812D02*
X108671857Y-62145431D01*
X108671857Y-62145431D02*
X108529000Y-62193050D01*
X108529000Y-62193050D02*
X108290904Y-62240669D01*
X108290904Y-62240669D02*
X108100428Y-62240669D01*
X108100428Y-62240669D02*
X107862333Y-62193050D01*
X107862333Y-62193050D02*
X107719476Y-62145431D01*
X107719476Y-62145431D02*
X107624238Y-62097812D01*
X107624238Y-62097812D02*
X107481380Y-62002574D01*
X107481380Y-62002574D02*
X107433761Y-61954955D01*
X108576619Y-61145431D02*
X108052809Y-61145431D01*
X108052809Y-61145431D02*
X107957571Y-61193050D01*
X107957571Y-61193050D02*
X107909952Y-61288288D01*
X107909952Y-61288288D02*
X107909952Y-61478764D01*
X107909952Y-61478764D02*
X107957571Y-61574002D01*
X108529000Y-61145431D02*
X108576619Y-61240669D01*
X108576619Y-61240669D02*
X108576619Y-61478764D01*
X108576619Y-61478764D02*
X108529000Y-61574002D01*
X108529000Y-61574002D02*
X108433761Y-61621621D01*
X108433761Y-61621621D02*
X108338523Y-61621621D01*
X108338523Y-61621621D02*
X108243285Y-61574002D01*
X108243285Y-61574002D02*
X108195666Y-61478764D01*
X108195666Y-61478764D02*
X108195666Y-61240669D01*
X108195666Y-61240669D02*
X108148047Y-61145431D01*
X107909952Y-60669240D02*
X108909952Y-60669240D01*
X107957571Y-60669240D02*
X107909952Y-60574002D01*
X107909952Y-60574002D02*
X107909952Y-60383526D01*
X107909952Y-60383526D02*
X107957571Y-60288288D01*
X107957571Y-60288288D02*
X108005190Y-60240669D01*
X108005190Y-60240669D02*
X108100428Y-60193050D01*
X108100428Y-60193050D02*
X108386142Y-60193050D01*
X108386142Y-60193050D02*
X108481380Y-60240669D01*
X108481380Y-60240669D02*
X108529000Y-60288288D01*
X108529000Y-60288288D02*
X108576619Y-60383526D01*
X108576619Y-60383526D02*
X108576619Y-60574002D01*
X108576619Y-60574002D02*
X108529000Y-60669240D01*
X107909952Y-59764478D02*
X108909952Y-59764478D01*
X107957571Y-59764478D02*
X107909952Y-59669240D01*
X107909952Y-59669240D02*
X107909952Y-59478764D01*
X107909952Y-59478764D02*
X107957571Y-59383526D01*
X107957571Y-59383526D02*
X108005190Y-59335907D01*
X108005190Y-59335907D02*
X108100428Y-59288288D01*
X108100428Y-59288288D02*
X108386142Y-59288288D01*
X108386142Y-59288288D02*
X108481380Y-59335907D01*
X108481380Y-59335907D02*
X108529000Y-59383526D01*
X108529000Y-59383526D02*
X108576619Y-59478764D01*
X108576619Y-59478764D02*
X108576619Y-59669240D01*
X108576619Y-59669240D02*
X108529000Y-59764478D01*
X108576619Y-58716859D02*
X108529000Y-58812097D01*
X108529000Y-58812097D02*
X108433761Y-58859716D01*
X108433761Y-58859716D02*
X107576619Y-58859716D01*
X108529000Y-57954954D02*
X108576619Y-58050192D01*
X108576619Y-58050192D02*
X108576619Y-58240668D01*
X108576619Y-58240668D02*
X108529000Y-58335906D01*
X108529000Y-58335906D02*
X108433761Y-58383525D01*
X108433761Y-58383525D02*
X108052809Y-58383525D01*
X108052809Y-58383525D02*
X107957571Y-58335906D01*
X107957571Y-58335906D02*
X107909952Y-58240668D01*
X107909952Y-58240668D02*
X107909952Y-58050192D01*
X107909952Y-58050192D02*
X107957571Y-57954954D01*
X107957571Y-57954954D02*
X108052809Y-57907335D01*
X108052809Y-57907335D02*
X108148047Y-57907335D01*
X108148047Y-57907335D02*
X108243285Y-58383525D01*
X108576619Y-56716858D02*
X107576619Y-56716858D01*
X108576619Y-56240668D02*
X107576619Y-56240668D01*
X108529000Y-55335907D02*
X108576619Y-55431145D01*
X108576619Y-55431145D02*
X108576619Y-55621621D01*
X108576619Y-55621621D02*
X108529000Y-55716859D01*
X108529000Y-55716859D02*
X108481380Y-55764478D01*
X108481380Y-55764478D02*
X108386142Y-55812097D01*
X108386142Y-55812097D02*
X108100428Y-55812097D01*
X108100428Y-55812097D02*
X108005190Y-55764478D01*
X108005190Y-55764478D02*
X107957571Y-55716859D01*
X107957571Y-55716859D02*
X107909952Y-55621621D01*
X107909952Y-55621621D02*
X107909952Y-55431145D01*
X107909952Y-55431145D02*
X107957571Y-55335907D01*
X108957571Y-55002573D02*
X108909952Y-54954954D01*
X108909952Y-54954954D02*
X108767095Y-54859716D01*
X108767095Y-54859716D02*
X108671857Y-54812097D01*
X108671857Y-54812097D02*
X108529000Y-54764478D01*
X108529000Y-54764478D02*
X108290904Y-54716859D01*
X108290904Y-54716859D02*
X108100428Y-54716859D01*
X108100428Y-54716859D02*
X107862333Y-54764478D01*
X107862333Y-54764478D02*
X107719476Y-54812097D01*
X107719476Y-54812097D02*
X107624238Y-54859716D01*
X107624238Y-54859716D02*
X107481380Y-54954954D01*
X107481380Y-54954954D02*
X107433761Y-55002573D01*
D12*
X99900225Y-82882828D02*
X100043082Y-82882828D01*
X100043082Y-82882828D02*
X100185939Y-82954257D01*
X100185939Y-82954257D02*
X100257368Y-83025685D01*
X100257368Y-83025685D02*
X100328796Y-83168542D01*
X100328796Y-83168542D02*
X100400225Y-83454257D01*
X100400225Y-83454257D02*
X100400225Y-83811400D01*
X100400225Y-83811400D02*
X100328796Y-84097114D01*
X100328796Y-84097114D02*
X100257368Y-84239971D01*
X100257368Y-84239971D02*
X100185939Y-84311400D01*
X100185939Y-84311400D02*
X100043082Y-84382828D01*
X100043082Y-84382828D02*
X99900225Y-84382828D01*
X99900225Y-84382828D02*
X99757368Y-84311400D01*
X99757368Y-84311400D02*
X99685939Y-84239971D01*
X99685939Y-84239971D02*
X99614510Y-84097114D01*
X99614510Y-84097114D02*
X99543082Y-83811400D01*
X99543082Y-83811400D02*
X99543082Y-83454257D01*
X99543082Y-83454257D02*
X99614510Y-83168542D01*
X99614510Y-83168542D02*
X99685939Y-83025685D01*
X99685939Y-83025685D02*
X99757368Y-82954257D01*
X99757368Y-82954257D02*
X99900225Y-82882828D01*
X101685939Y-83382828D02*
X101685939Y-84382828D01*
X101328796Y-82811400D02*
X100971653Y-83882828D01*
X100971653Y-83882828D02*
X101900224Y-83882828D01*
X103543081Y-82811400D02*
X102257367Y-84739971D01*
X104328796Y-82882828D02*
X104471653Y-82882828D01*
X104471653Y-82882828D02*
X104614510Y-82954257D01*
X104614510Y-82954257D02*
X104685939Y-83025685D01*
X104685939Y-83025685D02*
X104757367Y-83168542D01*
X104757367Y-83168542D02*
X104828796Y-83454257D01*
X104828796Y-83454257D02*
X104828796Y-83811400D01*
X104828796Y-83811400D02*
X104757367Y-84097114D01*
X104757367Y-84097114D02*
X104685939Y-84239971D01*
X104685939Y-84239971D02*
X104614510Y-84311400D01*
X104614510Y-84311400D02*
X104471653Y-84382828D01*
X104471653Y-84382828D02*
X104328796Y-84382828D01*
X104328796Y-84382828D02*
X104185939Y-84311400D01*
X104185939Y-84311400D02*
X104114510Y-84239971D01*
X104114510Y-84239971D02*
X104043081Y-84097114D01*
X104043081Y-84097114D02*
X103971653Y-83811400D01*
X103971653Y-83811400D02*
X103971653Y-83454257D01*
X103971653Y-83454257D02*
X104043081Y-83168542D01*
X104043081Y-83168542D02*
X104114510Y-83025685D01*
X104114510Y-83025685D02*
X104185939Y-82954257D01*
X104185939Y-82954257D02*
X104328796Y-82882828D01*
X106114510Y-82882828D02*
X105828795Y-82882828D01*
X105828795Y-82882828D02*
X105685938Y-82954257D01*
X105685938Y-82954257D02*
X105614510Y-83025685D01*
X105614510Y-83025685D02*
X105471652Y-83239971D01*
X105471652Y-83239971D02*
X105400224Y-83525685D01*
X105400224Y-83525685D02*
X105400224Y-84097114D01*
X105400224Y-84097114D02*
X105471652Y-84239971D01*
X105471652Y-84239971D02*
X105543081Y-84311400D01*
X105543081Y-84311400D02*
X105685938Y-84382828D01*
X105685938Y-84382828D02*
X105971652Y-84382828D01*
X105971652Y-84382828D02*
X106114510Y-84311400D01*
X106114510Y-84311400D02*
X106185938Y-84239971D01*
X106185938Y-84239971D02*
X106257367Y-84097114D01*
X106257367Y-84097114D02*
X106257367Y-83739971D01*
X106257367Y-83739971D02*
X106185938Y-83597114D01*
X106185938Y-83597114D02*
X106114510Y-83525685D01*
X106114510Y-83525685D02*
X105971652Y-83454257D01*
X105971652Y-83454257D02*
X105685938Y-83454257D01*
X105685938Y-83454257D02*
X105543081Y-83525685D01*
X105543081Y-83525685D02*
X105471652Y-83597114D01*
X105471652Y-83597114D02*
X105400224Y-83739971D01*
X107971652Y-82811400D02*
X106685938Y-84739971D01*
X108400224Y-83025685D02*
X108471652Y-82954257D01*
X108471652Y-82954257D02*
X108614510Y-82882828D01*
X108614510Y-82882828D02*
X108971652Y-82882828D01*
X108971652Y-82882828D02*
X109114510Y-82954257D01*
X109114510Y-82954257D02*
X109185938Y-83025685D01*
X109185938Y-83025685D02*
X109257367Y-83168542D01*
X109257367Y-83168542D02*
X109257367Y-83311400D01*
X109257367Y-83311400D02*
X109185938Y-83525685D01*
X109185938Y-83525685D02*
X108328795Y-84382828D01*
X108328795Y-84382828D02*
X109257367Y-84382828D01*
X110185938Y-82882828D02*
X110328795Y-82882828D01*
X110328795Y-82882828D02*
X110471652Y-82954257D01*
X110471652Y-82954257D02*
X110543081Y-83025685D01*
X110543081Y-83025685D02*
X110614509Y-83168542D01*
X110614509Y-83168542D02*
X110685938Y-83454257D01*
X110685938Y-83454257D02*
X110685938Y-83811400D01*
X110685938Y-83811400D02*
X110614509Y-84097114D01*
X110614509Y-84097114D02*
X110543081Y-84239971D01*
X110543081Y-84239971D02*
X110471652Y-84311400D01*
X110471652Y-84311400D02*
X110328795Y-84382828D01*
X110328795Y-84382828D02*
X110185938Y-84382828D01*
X110185938Y-84382828D02*
X110043081Y-84311400D01*
X110043081Y-84311400D02*
X109971652Y-84239971D01*
X109971652Y-84239971D02*
X109900223Y-84097114D01*
X109900223Y-84097114D02*
X109828795Y-83811400D01*
X109828795Y-83811400D02*
X109828795Y-83454257D01*
X109828795Y-83454257D02*
X109900223Y-83168542D01*
X109900223Y-83168542D02*
X109971652Y-83025685D01*
X109971652Y-83025685D02*
X110043081Y-82954257D01*
X110043081Y-82954257D02*
X110185938Y-82882828D01*
X111257366Y-83025685D02*
X111328794Y-82954257D01*
X111328794Y-82954257D02*
X111471652Y-82882828D01*
X111471652Y-82882828D02*
X111828794Y-82882828D01*
X111828794Y-82882828D02*
X111971652Y-82954257D01*
X111971652Y-82954257D02*
X112043080Y-83025685D01*
X112043080Y-83025685D02*
X112114509Y-83168542D01*
X112114509Y-83168542D02*
X112114509Y-83311400D01*
X112114509Y-83311400D02*
X112043080Y-83525685D01*
X112043080Y-83525685D02*
X111185937Y-84382828D01*
X111185937Y-84382828D02*
X112114509Y-84382828D01*
X113400223Y-82882828D02*
X113114508Y-82882828D01*
X113114508Y-82882828D02*
X112971651Y-82954257D01*
X112971651Y-82954257D02*
X112900223Y-83025685D01*
X112900223Y-83025685D02*
X112757365Y-83239971D01*
X112757365Y-83239971D02*
X112685937Y-83525685D01*
X112685937Y-83525685D02*
X112685937Y-84097114D01*
X112685937Y-84097114D02*
X112757365Y-84239971D01*
X112757365Y-84239971D02*
X112828794Y-84311400D01*
X112828794Y-84311400D02*
X112971651Y-84382828D01*
X112971651Y-84382828D02*
X113257365Y-84382828D01*
X113257365Y-84382828D02*
X113400223Y-84311400D01*
X113400223Y-84311400D02*
X113471651Y-84239971D01*
X113471651Y-84239971D02*
X113543080Y-84097114D01*
X113543080Y-84097114D02*
X113543080Y-83739971D01*
X113543080Y-83739971D02*
X113471651Y-83597114D01*
X113471651Y-83597114D02*
X113400223Y-83525685D01*
X113400223Y-83525685D02*
X113257365Y-83454257D01*
X113257365Y-83454257D02*
X112971651Y-83454257D01*
X112971651Y-83454257D02*
X112828794Y-83525685D01*
X112828794Y-83525685D02*
X112757365Y-83597114D01*
X112757365Y-83597114D02*
X112685937Y-83739971D01*
G36*
X105787769Y-110723647D02*
G01*
X105816946Y-110752824D01*
X105861653Y-110842237D01*
X105861653Y-110985704D01*
X105816946Y-111075117D01*
X105779941Y-111112122D01*
X105690529Y-111156828D01*
X105304510Y-111156828D01*
X105304510Y-110671114D01*
X105630167Y-110671114D01*
X105787769Y-110723647D01*
G37*
G36*
X105708514Y-110001535D02*
G01*
X105745518Y-110038539D01*
X105790225Y-110127952D01*
X105790225Y-110199989D01*
X105745518Y-110289402D01*
X105708514Y-110326407D01*
X105619100Y-110371114D01*
X105304510Y-110371114D01*
X105304510Y-109956828D01*
X105619100Y-109956828D01*
X105708514Y-110001535D01*
G37*
G36*
X107089255Y-110728257D02*
G01*
X106791196Y-110728257D01*
X106940225Y-110281169D01*
X107089255Y-110728257D01*
G37*
G36*
X111682581Y-111623495D02*
G01*
X101840725Y-111623495D01*
X101840725Y-110706136D01*
X102007392Y-110706136D01*
X102007392Y-110764664D01*
X102029790Y-110818736D01*
X102071174Y-110860120D01*
X102125246Y-110882518D01*
X102154510Y-110885400D01*
X103297368Y-110885400D01*
X103326632Y-110882518D01*
X103380704Y-110860120D01*
X103422088Y-110818736D01*
X103444486Y-110764664D01*
X103444486Y-110706136D01*
X103422088Y-110652064D01*
X103380704Y-110610680D01*
X103326632Y-110588282D01*
X103297368Y-110585400D01*
X102154510Y-110585400D01*
X102125246Y-110588282D01*
X102071174Y-110610680D01*
X102029790Y-110652064D01*
X102007392Y-110706136D01*
X101840725Y-110706136D01*
X101840725Y-109806828D01*
X105004510Y-109806828D01*
X105004510Y-111306828D01*
X105007392Y-111336092D01*
X105029790Y-111390164D01*
X105071174Y-111431548D01*
X105125246Y-111453946D01*
X105154510Y-111456828D01*
X105725939Y-111456828D01*
X105755203Y-111453946D01*
X105760181Y-111451883D01*
X105765557Y-111451502D01*
X105793021Y-111440992D01*
X105935878Y-111369564D01*
X105948471Y-111361636D01*
X105952131Y-111360121D01*
X105956250Y-111356739D01*
X105960764Y-111353899D01*
X105963360Y-111350905D01*
X105974862Y-111341466D01*
X106028261Y-111288067D01*
X106291403Y-111288067D01*
X106295552Y-111346448D01*
X106321726Y-111398795D01*
X106365940Y-111437142D01*
X106421464Y-111455650D01*
X106479845Y-111451501D01*
X106532192Y-111425327D01*
X106570539Y-111381113D01*
X106582527Y-111354262D01*
X106691196Y-111028257D01*
X107189255Y-111028257D01*
X107297923Y-111354262D01*
X107309911Y-111381113D01*
X107348258Y-111425328D01*
X107400606Y-111451501D01*
X107458986Y-111455651D01*
X107514510Y-111437142D01*
X107558724Y-111398795D01*
X107584898Y-111346448D01*
X107589048Y-111288068D01*
X107582528Y-111259394D01*
X107088584Y-109777564D01*
X107578821Y-109777564D01*
X107578821Y-109836092D01*
X107601219Y-109890164D01*
X107642603Y-109931548D01*
X107696675Y-109953946D01*
X107725939Y-109956828D01*
X108004510Y-109956828D01*
X108004510Y-111306828D01*
X108007392Y-111336092D01*
X108029790Y-111390164D01*
X108071174Y-111431548D01*
X108125246Y-111453946D01*
X108183774Y-111453946D01*
X108237846Y-111431548D01*
X108279230Y-111390164D01*
X108301628Y-111336092D01*
X108304510Y-111306828D01*
X108304510Y-110706136D01*
X110078820Y-110706136D01*
X110078820Y-110764664D01*
X110101218Y-110818736D01*
X110142602Y-110860120D01*
X110196674Y-110882518D01*
X110225938Y-110885400D01*
X110647367Y-110885400D01*
X110647367Y-111306828D01*
X110650249Y-111336092D01*
X110672647Y-111390164D01*
X110714031Y-111431548D01*
X110768103Y-111453946D01*
X110826631Y-111453946D01*
X110880703Y-111431548D01*
X110922087Y-111390164D01*
X110944485Y-111336092D01*
X110947367Y-111306828D01*
X110947367Y-110885400D01*
X111368796Y-110885400D01*
X111398060Y-110882518D01*
X111452132Y-110860120D01*
X111493516Y-110818736D01*
X111515914Y-110764664D01*
X111515914Y-110706136D01*
X111493516Y-110652064D01*
X111452132Y-110610680D01*
X111398060Y-110588282D01*
X111368796Y-110585400D01*
X110947367Y-110585400D01*
X110947367Y-110163971D01*
X110944485Y-110134707D01*
X110922087Y-110080635D01*
X110880703Y-110039251D01*
X110826631Y-110016853D01*
X110768103Y-110016853D01*
X110714031Y-110039251D01*
X110672647Y-110080635D01*
X110650249Y-110134707D01*
X110647367Y-110163971D01*
X110647367Y-110585400D01*
X110225938Y-110585400D01*
X110196674Y-110588282D01*
X110142602Y-110610680D01*
X110101218Y-110652064D01*
X110078820Y-110706136D01*
X108304510Y-110706136D01*
X108304510Y-109956828D01*
X108583082Y-109956828D01*
X108612346Y-109953946D01*
X108666418Y-109931548D01*
X108707802Y-109890164D01*
X108730200Y-109836092D01*
X108730200Y-109777564D01*
X108707802Y-109723492D01*
X108666418Y-109682108D01*
X108612346Y-109659710D01*
X108583082Y-109656828D01*
X107725939Y-109656828D01*
X107696675Y-109659710D01*
X107642603Y-109682108D01*
X107601219Y-109723492D01*
X107578821Y-109777564D01*
X107088584Y-109777564D01*
X107082527Y-109759394D01*
X107070539Y-109732543D01*
X107063516Y-109724446D01*
X107058724Y-109714861D01*
X107044515Y-109702537D01*
X107032192Y-109688329D01*
X107022606Y-109683536D01*
X107014510Y-109676514D01*
X106996666Y-109670565D01*
X106979845Y-109662155D01*
X106969156Y-109661395D01*
X106958986Y-109658005D01*
X106940220Y-109659338D01*
X106921464Y-109658006D01*
X106911296Y-109661395D01*
X106900606Y-109662155D01*
X106883782Y-109670566D01*
X106865940Y-109676514D01*
X106857845Y-109683534D01*
X106848258Y-109688328D01*
X106835932Y-109702539D01*
X106821726Y-109714861D01*
X106816933Y-109724445D01*
X106809911Y-109732543D01*
X106797923Y-109759394D01*
X106297923Y-111259394D01*
X106291403Y-111288067D01*
X106028261Y-111288067D01*
X106046291Y-111270037D01*
X106055732Y-111258532D01*
X106058724Y-111255938D01*
X106061562Y-111251428D01*
X106064946Y-111247306D01*
X106066462Y-111243644D01*
X106074389Y-111231053D01*
X106145817Y-111088195D01*
X106156327Y-111060732D01*
X106156708Y-111055356D01*
X106158771Y-111050378D01*
X106161653Y-111021114D01*
X106161653Y-110806828D01*
X106158771Y-110777564D01*
X106156708Y-110772585D01*
X106156327Y-110767210D01*
X106145817Y-110739747D01*
X106074389Y-110596889D01*
X106066462Y-110584297D01*
X106064946Y-110580636D01*
X106061562Y-110576513D01*
X106058724Y-110572004D01*
X106055732Y-110569409D01*
X106046291Y-110557905D01*
X105974862Y-110486476D01*
X105973679Y-110485505D01*
X105974862Y-110484323D01*
X105984302Y-110472820D01*
X105987295Y-110470225D01*
X105990133Y-110465715D01*
X105993517Y-110461593D01*
X105995033Y-110457930D01*
X106002960Y-110445339D01*
X106074389Y-110302483D01*
X106084898Y-110275019D01*
X106085279Y-110269644D01*
X106087343Y-110264664D01*
X106090225Y-110235400D01*
X106090225Y-110092542D01*
X106087343Y-110063278D01*
X106085279Y-110058297D01*
X106084898Y-110052923D01*
X106074389Y-110025459D01*
X106002960Y-109882603D01*
X105995033Y-109870011D01*
X105993517Y-109866349D01*
X105990133Y-109862226D01*
X105987295Y-109857717D01*
X105984302Y-109855121D01*
X105974862Y-109843619D01*
X105903434Y-109772191D01*
X105891932Y-109762751D01*
X105889336Y-109759758D01*
X105884822Y-109756917D01*
X105880703Y-109753536D01*
X105877043Y-109752020D01*
X105864450Y-109744093D01*
X105721592Y-109672664D01*
X105694129Y-109662154D01*
X105688751Y-109661771D01*
X105683774Y-109659710D01*
X105654510Y-109656828D01*
X105154510Y-109656828D01*
X105125246Y-109659710D01*
X105071174Y-109682108D01*
X105029790Y-109723492D01*
X105007392Y-109777564D01*
X105004510Y-109806828D01*
X101840725Y-109806828D01*
X101840725Y-109490161D01*
X111682581Y-109490161D01*
X111682581Y-111623495D01*
G37*
X105226828Y-70311489D02*
X106226828Y-70311489D01*
X105369685Y-70311489D02*
X105298257Y-70240060D01*
X105298257Y-70240060D02*
X105226828Y-70097203D01*
X105226828Y-70097203D02*
X105226828Y-69882917D01*
X105226828Y-69882917D02*
X105298257Y-69740060D01*
X105298257Y-69740060D02*
X105441114Y-69668632D01*
X105441114Y-69668632D02*
X106226828Y-69668632D01*
X106226828Y-68740060D02*
X106155400Y-68882917D01*
X106155400Y-68882917D02*
X106083971Y-68954346D01*
X106083971Y-68954346D02*
X105941114Y-69025774D01*
X105941114Y-69025774D02*
X105512542Y-69025774D01*
X105512542Y-69025774D02*
X105369685Y-68954346D01*
X105369685Y-68954346D02*
X105298257Y-68882917D01*
X105298257Y-68882917D02*
X105226828Y-68740060D01*
X105226828Y-68740060D02*
X105226828Y-68525774D01*
X105226828Y-68525774D02*
X105298257Y-68382917D01*
X105298257Y-68382917D02*
X105369685Y-68311489D01*
X105369685Y-68311489D02*
X105512542Y-68240060D01*
X105512542Y-68240060D02*
X105941114Y-68240060D01*
X105941114Y-68240060D02*
X106083971Y-68311489D01*
X106083971Y-68311489D02*
X106155400Y-68382917D01*
X106155400Y-68382917D02*
X106226828Y-68525774D01*
X106226828Y-68525774D02*
X106226828Y-68740060D01*
X106155400Y-66525774D02*
X106226828Y-66382917D01*
X106226828Y-66382917D02*
X106226828Y-66097203D01*
X106226828Y-66097203D02*
X106155400Y-65954346D01*
X106155400Y-65954346D02*
X106012542Y-65882917D01*
X106012542Y-65882917D02*
X105941114Y-65882917D01*
X105941114Y-65882917D02*
X105798257Y-65954346D01*
X105798257Y-65954346D02*
X105726828Y-66097203D01*
X105726828Y-66097203D02*
X105726828Y-66311489D01*
X105726828Y-66311489D02*
X105655400Y-66454346D01*
X105655400Y-66454346D02*
X105512542Y-66525774D01*
X105512542Y-66525774D02*
X105441114Y-66525774D01*
X105441114Y-66525774D02*
X105298257Y-66454346D01*
X105298257Y-66454346D02*
X105226828Y-66311489D01*
X105226828Y-66311489D02*
X105226828Y-66097203D01*
X105226828Y-66097203D02*
X105298257Y-65954346D01*
X106226828Y-65025774D02*
X106155400Y-65168631D01*
X106155400Y-65168631D02*
X106012542Y-65240060D01*
X106012542Y-65240060D02*
X104726828Y-65240060D01*
X106226828Y-64240060D02*
X106155400Y-64382917D01*
X106155400Y-64382917D02*
X106083971Y-64454346D01*
X106083971Y-64454346D02*
X105941114Y-64525774D01*
X105941114Y-64525774D02*
X105512542Y-64525774D01*
X105512542Y-64525774D02*
X105369685Y-64454346D01*
X105369685Y-64454346D02*
X105298257Y-64382917D01*
X105298257Y-64382917D02*
X105226828Y-64240060D01*
X105226828Y-64240060D02*
X105226828Y-64025774D01*
X105226828Y-64025774D02*
X105298257Y-63882917D01*
X105298257Y-63882917D02*
X105369685Y-63811489D01*
X105369685Y-63811489D02*
X105512542Y-63740060D01*
X105512542Y-63740060D02*
X105941114Y-63740060D01*
X105941114Y-63740060D02*
X106083971Y-63811489D01*
X106083971Y-63811489D02*
X106155400Y-63882917D01*
X106155400Y-63882917D02*
X106226828Y-64025774D01*
X106226828Y-64025774D02*
X106226828Y-64240060D01*
X105226828Y-63311488D02*
X105226828Y-62740060D01*
X104726828Y-63097203D02*
X106012542Y-63097203D01*
X106012542Y-63097203D02*
X106155400Y-63025774D01*
X106155400Y-63025774D02*
X106226828Y-62882917D01*
X106226828Y-62882917D02*
X106226828Y-62740060D01*
X106155400Y-60454346D02*
X106226828Y-60597203D01*
X106226828Y-60597203D02*
X106226828Y-60882917D01*
X106226828Y-60882917D02*
X106155400Y-61025774D01*
X106155400Y-61025774D02*
X106083971Y-61097203D01*
X106083971Y-61097203D02*
X105941114Y-61168631D01*
X105941114Y-61168631D02*
X105512542Y-61168631D01*
X105512542Y-61168631D02*
X105369685Y-61097203D01*
X105369685Y-61097203D02*
X105298257Y-61025774D01*
X105298257Y-61025774D02*
X105226828Y-60882917D01*
X105226828Y-60882917D02*
X105226828Y-60597203D01*
X105226828Y-60597203D02*
X105298257Y-60454346D01*
X106226828Y-59597203D02*
X106155400Y-59740060D01*
X106155400Y-59740060D02*
X106012542Y-59811489D01*
X106012542Y-59811489D02*
X104726828Y-59811489D01*
X106226828Y-58811489D02*
X106155400Y-58954346D01*
X106155400Y-58954346D02*
X106083971Y-59025775D01*
X106083971Y-59025775D02*
X105941114Y-59097203D01*
X105941114Y-59097203D02*
X105512542Y-59097203D01*
X105512542Y-59097203D02*
X105369685Y-59025775D01*
X105369685Y-59025775D02*
X105298257Y-58954346D01*
X105298257Y-58954346D02*
X105226828Y-58811489D01*
X105226828Y-58811489D02*
X105226828Y-58597203D01*
X105226828Y-58597203D02*
X105298257Y-58454346D01*
X105298257Y-58454346D02*
X105369685Y-58382918D01*
X105369685Y-58382918D02*
X105512542Y-58311489D01*
X105512542Y-58311489D02*
X105941114Y-58311489D01*
X105941114Y-58311489D02*
X106083971Y-58382918D01*
X106083971Y-58382918D02*
X106155400Y-58454346D01*
X106155400Y-58454346D02*
X106226828Y-58597203D01*
X106226828Y-58597203D02*
X106226828Y-58811489D01*
X106155400Y-57025775D02*
X106226828Y-57168632D01*
X106226828Y-57168632D02*
X106226828Y-57454346D01*
X106226828Y-57454346D02*
X106155400Y-57597203D01*
X106155400Y-57597203D02*
X106083971Y-57668632D01*
X106083971Y-57668632D02*
X105941114Y-57740060D01*
X105941114Y-57740060D02*
X105512542Y-57740060D01*
X105512542Y-57740060D02*
X105369685Y-57668632D01*
X105369685Y-57668632D02*
X105298257Y-57597203D01*
X105298257Y-57597203D02*
X105226828Y-57454346D01*
X105226828Y-57454346D02*
X105226828Y-57168632D01*
X105226828Y-57168632D02*
X105298257Y-57025775D01*
X106226828Y-56382918D02*
X104726828Y-56382918D01*
X105655400Y-56240061D02*
X106226828Y-55811489D01*
X105226828Y-55811489D02*
X105798257Y-56382918D01*
X105226828Y-54025775D02*
X106226828Y-54025775D01*
X105369685Y-54025775D02*
X105298257Y-53954346D01*
X105298257Y-53954346D02*
X105226828Y-53811489D01*
X105226828Y-53811489D02*
X105226828Y-53597203D01*
X105226828Y-53597203D02*
X105298257Y-53454346D01*
X105298257Y-53454346D02*
X105441114Y-53382918D01*
X105441114Y-53382918D02*
X106226828Y-53382918D01*
X106155400Y-52097203D02*
X106226828Y-52240060D01*
X106226828Y-52240060D02*
X106226828Y-52525775D01*
X106226828Y-52525775D02*
X106155400Y-52668632D01*
X106155400Y-52668632D02*
X106012542Y-52740060D01*
X106012542Y-52740060D02*
X105441114Y-52740060D01*
X105441114Y-52740060D02*
X105298257Y-52668632D01*
X105298257Y-52668632D02*
X105226828Y-52525775D01*
X105226828Y-52525775D02*
X105226828Y-52240060D01*
X105226828Y-52240060D02*
X105298257Y-52097203D01*
X105298257Y-52097203D02*
X105441114Y-52025775D01*
X105441114Y-52025775D02*
X105583971Y-52025775D01*
X105583971Y-52025775D02*
X105726828Y-52740060D01*
X106226828Y-51168632D02*
X106155400Y-51311489D01*
X106155400Y-51311489D02*
X106083971Y-51382918D01*
X106083971Y-51382918D02*
X105941114Y-51454346D01*
X105941114Y-51454346D02*
X105512542Y-51454346D01*
X105512542Y-51454346D02*
X105369685Y-51382918D01*
X105369685Y-51382918D02*
X105298257Y-51311489D01*
X105298257Y-51311489D02*
X105226828Y-51168632D01*
X105226828Y-51168632D02*
X105226828Y-50954346D01*
X105226828Y-50954346D02*
X105298257Y-50811489D01*
X105298257Y-50811489D02*
X105369685Y-50740061D01*
X105369685Y-50740061D02*
X105512542Y-50668632D01*
X105512542Y-50668632D02*
X105941114Y-50668632D01*
X105941114Y-50668632D02*
X106083971Y-50740061D01*
X106083971Y-50740061D02*
X106155400Y-50811489D01*
X106155400Y-50811489D02*
X106226828Y-50954346D01*
X106226828Y-50954346D02*
X106226828Y-51168632D01*
M02*
