%TF.GenerationSoftware,KiCad,Pcbnew,10.0.0*%
%TF.CreationDate,2026-06-04T22:51:01+02:00*%
%TF.ProjectId,ns-clock-neo,6e732d63-6c6f-4636-9b2d-6e656f2e6b69,rev?*%
%TF.SameCoordinates,Original*%
%TF.FileFunction,Legend,Bot*%
%TF.FilePolarity,Positive*%
%FSLAX46Y46*%
G04 Gerber Fmt 4.6, Leading zero omitted, Abs format (unit mm)*
G04 Created by KiCad (PCBNEW 10.0.0) date 2026-06-04 22:51:01*
%MOMM*%
%LPD*%
G01*
G04 APERTURE LIST*
%ADD10C,0.200000*%
%ADD11C,0.150000*%
%ADD12C,0.120000*%
G04 APERTURE END LIST*
D10*
X97790000Y-41910000D02*
X100330000Y-41910000D01*
X100330000Y-77470000D01*
X97790000Y-77470000D01*
X97790000Y-41910000D01*
X113030000Y-41910000D02*
X115570000Y-41910000D01*
X115570000Y-77470000D01*
X113030000Y-77470000D01*
X113030000Y-41910000D01*
D11*
X109309819Y-61492524D02*
X109309819Y-62111571D01*
X109309819Y-62111571D02*
X109690771Y-61778238D01*
X109690771Y-61778238D02*
X109690771Y-61921095D01*
X109690771Y-61921095D02*
X109738390Y-62016333D01*
X109738390Y-62016333D02*
X109786009Y-62063952D01*
X109786009Y-62063952D02*
X109881247Y-62111571D01*
X109881247Y-62111571D02*
X110119342Y-62111571D01*
X110119342Y-62111571D02*
X110214580Y-62063952D01*
X110214580Y-62063952D02*
X110262200Y-62016333D01*
X110262200Y-62016333D02*
X110309819Y-61921095D01*
X110309819Y-61921095D02*
X110309819Y-61635381D01*
X110309819Y-61635381D02*
X110262200Y-61540143D01*
X110262200Y-61540143D02*
X110214580Y-61492524D01*
X109405057Y-62492524D02*
X109357438Y-62540143D01*
X109357438Y-62540143D02*
X109309819Y-62635381D01*
X109309819Y-62635381D02*
X109309819Y-62873476D01*
X109309819Y-62873476D02*
X109357438Y-62968714D01*
X109357438Y-62968714D02*
X109405057Y-63016333D01*
X109405057Y-63016333D02*
X109500295Y-63063952D01*
X109500295Y-63063952D02*
X109595533Y-63063952D01*
X109595533Y-63063952D02*
X109738390Y-63016333D01*
X109738390Y-63016333D02*
X110309819Y-62444905D01*
X110309819Y-62444905D02*
X110309819Y-63063952D01*
X110214580Y-63492524D02*
X110262200Y-63540143D01*
X110262200Y-63540143D02*
X110309819Y-63492524D01*
X110309819Y-63492524D02*
X110262200Y-63444905D01*
X110262200Y-63444905D02*
X110214580Y-63492524D01*
X110214580Y-63492524D02*
X110309819Y-63492524D01*
X109309819Y-63873476D02*
X109309819Y-64540142D01*
X109309819Y-64540142D02*
X110309819Y-64111571D01*
X109309819Y-65349666D02*
X109309819Y-65159190D01*
X109309819Y-65159190D02*
X109357438Y-65063952D01*
X109357438Y-65063952D02*
X109405057Y-65016333D01*
X109405057Y-65016333D02*
X109547914Y-64921095D01*
X109547914Y-64921095D02*
X109738390Y-64873476D01*
X109738390Y-64873476D02*
X110119342Y-64873476D01*
X110119342Y-64873476D02*
X110214580Y-64921095D01*
X110214580Y-64921095D02*
X110262200Y-64968714D01*
X110262200Y-64968714D02*
X110309819Y-65063952D01*
X110309819Y-65063952D02*
X110309819Y-65254428D01*
X110309819Y-65254428D02*
X110262200Y-65349666D01*
X110262200Y-65349666D02*
X110214580Y-65397285D01*
X110214580Y-65397285D02*
X110119342Y-65444904D01*
X110119342Y-65444904D02*
X109881247Y-65444904D01*
X109881247Y-65444904D02*
X109786009Y-65397285D01*
X109786009Y-65397285D02*
X109738390Y-65349666D01*
X109738390Y-65349666D02*
X109690771Y-65254428D01*
X109690771Y-65254428D02*
X109690771Y-65063952D01*
X109690771Y-65063952D02*
X109738390Y-64968714D01*
X109738390Y-64968714D02*
X109786009Y-64921095D01*
X109786009Y-64921095D02*
X109881247Y-64873476D01*
X109738390Y-66016333D02*
X109690771Y-65921095D01*
X109690771Y-65921095D02*
X109643152Y-65873476D01*
X109643152Y-65873476D02*
X109547914Y-65825857D01*
X109547914Y-65825857D02*
X109500295Y-65825857D01*
X109500295Y-65825857D02*
X109405057Y-65873476D01*
X109405057Y-65873476D02*
X109357438Y-65921095D01*
X109357438Y-65921095D02*
X109309819Y-66016333D01*
X109309819Y-66016333D02*
X109309819Y-66206809D01*
X109309819Y-66206809D02*
X109357438Y-66302047D01*
X109357438Y-66302047D02*
X109405057Y-66349666D01*
X109405057Y-66349666D02*
X109500295Y-66397285D01*
X109500295Y-66397285D02*
X109547914Y-66397285D01*
X109547914Y-66397285D02*
X109643152Y-66349666D01*
X109643152Y-66349666D02*
X109690771Y-66302047D01*
X109690771Y-66302047D02*
X109738390Y-66206809D01*
X109738390Y-66206809D02*
X109738390Y-66016333D01*
X109738390Y-66016333D02*
X109786009Y-65921095D01*
X109786009Y-65921095D02*
X109833628Y-65873476D01*
X109833628Y-65873476D02*
X109928866Y-65825857D01*
X109928866Y-65825857D02*
X110119342Y-65825857D01*
X110119342Y-65825857D02*
X110214580Y-65873476D01*
X110214580Y-65873476D02*
X110262200Y-65921095D01*
X110262200Y-65921095D02*
X110309819Y-66016333D01*
X110309819Y-66016333D02*
X110309819Y-66206809D01*
X110309819Y-66206809D02*
X110262200Y-66302047D01*
X110262200Y-66302047D02*
X110214580Y-66349666D01*
X110214580Y-66349666D02*
X110119342Y-66397285D01*
X110119342Y-66397285D02*
X109928866Y-66397285D01*
X109928866Y-66397285D02*
X109833628Y-66349666D01*
X109833628Y-66349666D02*
X109786009Y-66302047D01*
X109786009Y-66302047D02*
X109738390Y-66206809D01*
X110309819Y-67587762D02*
X109309819Y-67587762D01*
X109928866Y-67683000D02*
X110309819Y-67968714D01*
X109643152Y-67968714D02*
X110024104Y-67587762D01*
X110309819Y-68397286D02*
X109309819Y-68397286D01*
X109786009Y-68397286D02*
X109786009Y-68968714D01*
X110309819Y-68968714D02*
X109309819Y-68968714D01*
X109643152Y-69349667D02*
X109643152Y-69873476D01*
X109643152Y-69873476D02*
X110309819Y-69349667D01*
X110309819Y-69349667D02*
X110309819Y-69873476D01*
X107798856Y-84274819D02*
X107798856Y-83274819D01*
X107798856Y-83274819D02*
X107560761Y-83274819D01*
X107560761Y-83274819D02*
X107417904Y-83322438D01*
X107417904Y-83322438D02*
X107322666Y-83417676D01*
X107322666Y-83417676D02*
X107275047Y-83512914D01*
X107275047Y-83512914D02*
X107227428Y-83703390D01*
X107227428Y-83703390D02*
X107227428Y-83846247D01*
X107227428Y-83846247D02*
X107275047Y-84036723D01*
X107275047Y-84036723D02*
X107322666Y-84131961D01*
X107322666Y-84131961D02*
X107417904Y-84227200D01*
X107417904Y-84227200D02*
X107560761Y-84274819D01*
X107560761Y-84274819D02*
X107798856Y-84274819D01*
X106846475Y-84227200D02*
X106703618Y-84274819D01*
X106703618Y-84274819D02*
X106465523Y-84274819D01*
X106465523Y-84274819D02*
X106370285Y-84227200D01*
X106370285Y-84227200D02*
X106322666Y-84179580D01*
X106322666Y-84179580D02*
X106275047Y-84084342D01*
X106275047Y-84084342D02*
X106275047Y-83989104D01*
X106275047Y-83989104D02*
X106322666Y-83893866D01*
X106322666Y-83893866D02*
X106370285Y-83846247D01*
X106370285Y-83846247D02*
X106465523Y-83798628D01*
X106465523Y-83798628D02*
X106655999Y-83751009D01*
X106655999Y-83751009D02*
X106751237Y-83703390D01*
X106751237Y-83703390D02*
X106798856Y-83655771D01*
X106798856Y-83655771D02*
X106846475Y-83560533D01*
X106846475Y-83560533D02*
X106846475Y-83465295D01*
X106846475Y-83465295D02*
X106798856Y-83370057D01*
X106798856Y-83370057D02*
X106751237Y-83322438D01*
X106751237Y-83322438D02*
X106655999Y-83274819D01*
X106655999Y-83274819D02*
X106417904Y-83274819D01*
X106417904Y-83274819D02*
X106275047Y-83322438D01*
X105322666Y-84274819D02*
X105894094Y-84274819D01*
X105608380Y-84274819D02*
X105608380Y-83274819D01*
X105608380Y-83274819D02*
X105703618Y-83417676D01*
X105703618Y-83417676D02*
X105798856Y-83512914D01*
X105798856Y-83512914D02*
X105894094Y-83560533D01*
X104941713Y-83370057D02*
X104894094Y-83322438D01*
X104894094Y-83322438D02*
X104798856Y-83274819D01*
X104798856Y-83274819D02*
X104560761Y-83274819D01*
X104560761Y-83274819D02*
X104465523Y-83322438D01*
X104465523Y-83322438D02*
X104417904Y-83370057D01*
X104417904Y-83370057D02*
X104370285Y-83465295D01*
X104370285Y-83465295D02*
X104370285Y-83560533D01*
X104370285Y-83560533D02*
X104417904Y-83703390D01*
X104417904Y-83703390D02*
X104989332Y-84274819D01*
X104989332Y-84274819D02*
X104370285Y-84274819D01*
X103417904Y-84274819D02*
X103989332Y-84274819D01*
X103703618Y-84274819D02*
X103703618Y-83274819D01*
X103703618Y-83274819D02*
X103798856Y-83417676D01*
X103798856Y-83417676D02*
X103894094Y-83512914D01*
X103894094Y-83512914D02*
X103989332Y-83560533D01*
X102513142Y-83274819D02*
X102989332Y-83274819D01*
X102989332Y-83274819D02*
X103036951Y-83751009D01*
X103036951Y-83751009D02*
X102989332Y-83703390D01*
X102989332Y-83703390D02*
X102894094Y-83655771D01*
X102894094Y-83655771D02*
X102655999Y-83655771D01*
X102655999Y-83655771D02*
X102560761Y-83703390D01*
X102560761Y-83703390D02*
X102513142Y-83751009D01*
X102513142Y-83751009D02*
X102465523Y-83846247D01*
X102465523Y-83846247D02*
X102465523Y-84084342D01*
X102465523Y-84084342D02*
X102513142Y-84179580D01*
X102513142Y-84179580D02*
X102560761Y-84227200D01*
X102560761Y-84227200D02*
X102655999Y-84274819D01*
X102655999Y-84274819D02*
X102894094Y-84274819D01*
X102894094Y-84274819D02*
X102989332Y-84227200D01*
X102989332Y-84227200D02*
X103036951Y-84179580D01*
%TO.C,Y1*%
D12*
X108585000Y-72695000D02*
X108585000Y-73505000D01*
X109255000Y-71325000D02*
X108585000Y-72695000D01*
X110455000Y-71325000D02*
X111125000Y-72695000D01*
X111125000Y-72695000D02*
X111125000Y-73505000D01*
X108095000Y-60305000D02*
X111615000Y-60305000D01*
X111615000Y-71325000D01*
X108095000Y-71325000D01*
X108095000Y-60305000D01*
%TO.C,DS1215*%
X95190000Y-81170000D02*
X115630000Y-81170000D01*
X95190000Y-86470000D02*
X95190000Y-81170000D01*
X115630000Y-81170000D02*
X115630000Y-82820000D01*
X115630000Y-84820000D02*
X115630000Y-86470000D01*
X115630000Y-86470000D02*
X95190000Y-86470000D01*
X115630000Y-84820000D02*
G75*
G02*
X115630000Y-82820000I0J1000000D01*
G01*
%TO.C,U1*%
X100220000Y-90110000D02*
X105680000Y-90110000D01*
X100220000Y-125790000D02*
X100220000Y-90110000D01*
X107680000Y-90110000D02*
X113140000Y-90110000D01*
X113140000Y-90110000D02*
X113140000Y-125790000D01*
X113140000Y-125790000D02*
X100220000Y-125790000D01*
X107680000Y-90110000D02*
G75*
G02*
X105680000Y-90110000I-1000000J0D01*
G01*
%TD*%
M02*
