%TF.GenerationSoftware,KiCad,Pcbnew,10.0.0*%
%TF.CreationDate,2026-05-10T18:04:43+02:00*%
%TF.ProjectId,ns-clock-neo,6e732d63-6c6f-4636-9b2d-6e656f2e6b69,rev?*%
%TF.SameCoordinates,Original*%
%TF.FileFunction,Legend,Top*%
%TF.FilePolarity,Positive*%
%FSLAX46Y46*%
G04 Gerber Fmt 4.6, Leading zero omitted, Abs format (unit mm)*
G04 Created by KiCad (PCBNEW 10.0.0) date 2026-05-10 18:04:43*
%MOMM*%
%LPD*%
G01*
G04 APERTURE LIST*
%ADD10C,0.300000*%
%ADD11C,0.150000*%
%ADD12C,0.120000*%
G04 APERTURE END LIST*
D10*
X101392510Y-49521400D02*
X102535368Y-49521400D01*
G36*
X104057769Y-52303647D02*
G01*
X104086946Y-52332824D01*
X104131653Y-52422237D01*
X104131653Y-52565704D01*
X104086946Y-52655117D01*
X104049941Y-52692122D01*
X103960529Y-52736828D01*
X103574510Y-52736828D01*
X103574510Y-52251114D01*
X103900167Y-52251114D01*
X104057769Y-52303647D01*
G37*
G36*
X103978514Y-51581535D02*
G01*
X104015518Y-51618539D01*
X104060225Y-51707952D01*
X104060225Y-51779989D01*
X104015518Y-51869402D01*
X103978514Y-51906407D01*
X103889100Y-51951114D01*
X103574510Y-51951114D01*
X103574510Y-51536828D01*
X103889100Y-51536828D01*
X103978514Y-51581535D01*
G37*
G36*
X105417368Y-52722694D02*
G01*
X105389101Y-52736828D01*
X105102777Y-52736828D01*
X105036314Y-52703597D01*
X105003082Y-52637133D01*
X105003082Y-52565094D01*
X105036313Y-52498631D01*
X105102777Y-52465400D01*
X105417368Y-52465400D01*
X105417368Y-52722694D01*
G37*
G36*
X107524010Y-53203495D02*
G01*
X103107843Y-53203495D01*
X103107843Y-51386828D01*
X103274510Y-51386828D01*
X103274510Y-52886828D01*
X103277392Y-52916090D01*
X103277392Y-52916092D01*
X103299790Y-52970164D01*
X103341174Y-53011548D01*
X103395246Y-53033946D01*
X103424510Y-53036828D01*
X103995939Y-53036828D01*
X104025203Y-53033946D01*
X104030181Y-53031883D01*
X104035557Y-53031502D01*
X104063021Y-53020992D01*
X104205878Y-52949564D01*
X104218471Y-52941636D01*
X104222131Y-52940121D01*
X104226250Y-52936739D01*
X104230764Y-52933899D01*
X104233360Y-52930905D01*
X104244862Y-52921466D01*
X104316291Y-52850037D01*
X104325732Y-52838532D01*
X104328724Y-52835938D01*
X104331562Y-52831428D01*
X104334946Y-52827306D01*
X104336462Y-52823644D01*
X104344389Y-52811053D01*
X104415817Y-52668195D01*
X104426327Y-52640732D01*
X104426708Y-52635356D01*
X104428771Y-52630378D01*
X104431653Y-52601114D01*
X104431653Y-52529685D01*
X104703082Y-52529685D01*
X104703082Y-52672542D01*
X104705964Y-52701806D01*
X104708026Y-52706784D01*
X104708408Y-52712160D01*
X104718918Y-52739623D01*
X104790346Y-52882482D01*
X104793425Y-52887374D01*
X104794196Y-52889685D01*
X104796691Y-52892562D01*
X104806011Y-52907367D01*
X104820217Y-52919688D01*
X104832543Y-52933900D01*
X104847347Y-52943218D01*
X104850225Y-52945714D01*
X104852536Y-52946484D01*
X104857429Y-52949564D01*
X105000287Y-53020993D01*
X105027750Y-53031502D01*
X105033125Y-53031883D01*
X105038104Y-53033946D01*
X105067368Y-53036828D01*
X105424510Y-53036828D01*
X105453774Y-53033946D01*
X105458752Y-53031883D01*
X105464128Y-53031502D01*
X105491591Y-53020992D01*
X105498496Y-53017539D01*
X105538104Y-53033946D01*
X105596632Y-53033946D01*
X105650704Y-53011548D01*
X105692088Y-52970164D01*
X105714486Y-52916092D01*
X105717368Y-52886828D01*
X105717368Y-52101114D01*
X105714486Y-52071850D01*
X105712422Y-52066869D01*
X105712041Y-52061495D01*
X105701532Y-52034031D01*
X105630103Y-51891175D01*
X105627022Y-51886280D01*
X105626253Y-51883973D01*
X105623760Y-51881098D01*
X105614438Y-51866289D01*
X105604378Y-51857564D01*
X105920250Y-51857564D01*
X105920250Y-51916092D01*
X105942648Y-51970164D01*
X105984032Y-52011548D01*
X106038104Y-52033946D01*
X106067368Y-52036828D01*
X106131653Y-52036828D01*
X106131653Y-52672542D01*
X106134535Y-52701806D01*
X106136596Y-52706783D01*
X106136979Y-52712161D01*
X106147489Y-52739624D01*
X106218918Y-52882482D01*
X106221998Y-52887376D01*
X106222768Y-52889684D01*
X106225260Y-52892557D01*
X106234583Y-52907368D01*
X106248794Y-52919692D01*
X106261115Y-52933899D01*
X106275922Y-52943220D01*
X106278798Y-52945714D01*
X106281106Y-52946483D01*
X106286000Y-52949564D01*
X106428858Y-53020992D01*
X106456321Y-53031502D01*
X106461696Y-53031883D01*
X106466675Y-53033946D01*
X106495939Y-53036828D01*
X106638796Y-53036828D01*
X106668060Y-53033946D01*
X106722132Y-53011548D01*
X106763516Y-52970164D01*
X106785914Y-52916092D01*
X106785914Y-52857564D01*
X106763516Y-52803492D01*
X106746162Y-52786138D01*
X106920250Y-52786138D01*
X106920250Y-52844664D01*
X106922476Y-52850037D01*
X106942647Y-52898735D01*
X106961302Y-52921466D01*
X107032730Y-52992894D01*
X107055460Y-53011549D01*
X107077857Y-53020825D01*
X107109532Y-53033946D01*
X107168060Y-53033946D01*
X107208627Y-53017142D01*
X107222131Y-53011549D01*
X107222135Y-53011544D01*
X107244861Y-52992895D01*
X107316290Y-52921467D01*
X107334945Y-52898736D01*
X107334946Y-52898735D01*
X107357343Y-52844663D01*
X107357343Y-52786137D01*
X107334946Y-52732065D01*
X107316291Y-52709334D01*
X107244862Y-52637905D01*
X107222131Y-52619250D01*
X107188841Y-52605461D01*
X107168060Y-52596853D01*
X107109532Y-52596853D01*
X107088751Y-52605461D01*
X107055461Y-52619250D01*
X107055460Y-52619251D01*
X107032729Y-52637906D01*
X106961301Y-52709335D01*
X106942651Y-52732060D01*
X106942647Y-52732065D01*
X106922477Y-52780762D01*
X106920250Y-52786138D01*
X106746162Y-52786138D01*
X106722132Y-52762108D01*
X106668060Y-52739710D01*
X106638796Y-52736828D01*
X106531349Y-52736828D01*
X106464885Y-52703596D01*
X106431653Y-52637132D01*
X106431653Y-52036828D01*
X106638796Y-52036828D01*
X106668060Y-52033946D01*
X106722132Y-52011548D01*
X106763516Y-51970164D01*
X106785914Y-51916092D01*
X106785914Y-51857564D01*
X106763516Y-51803492D01*
X106722132Y-51762108D01*
X106668060Y-51739710D01*
X106638796Y-51736828D01*
X106431653Y-51736828D01*
X106431653Y-51386828D01*
X106428771Y-51357564D01*
X106406373Y-51303492D01*
X106364989Y-51262108D01*
X106310917Y-51239710D01*
X106252389Y-51239710D01*
X106198317Y-51262108D01*
X106156933Y-51303492D01*
X106134535Y-51357564D01*
X106131653Y-51386828D01*
X106131653Y-51736828D01*
X106067368Y-51736828D01*
X106038104Y-51739710D01*
X105984032Y-51762108D01*
X105942648Y-51803492D01*
X105920250Y-51857564D01*
X105604378Y-51857564D01*
X105600228Y-51853965D01*
X105587907Y-51839758D01*
X105573101Y-51830438D01*
X105570223Y-51827942D01*
X105567911Y-51827171D01*
X105563021Y-51824093D01*
X105420164Y-51752664D01*
X105392701Y-51742155D01*
X105387326Y-51741773D01*
X105382346Y-51739710D01*
X105353082Y-51736828D01*
X105067368Y-51736828D01*
X105038104Y-51739710D01*
X105033126Y-51741771D01*
X105027749Y-51742154D01*
X105000286Y-51752664D01*
X104857428Y-51824093D01*
X104832542Y-51839758D01*
X104794196Y-51883973D01*
X104775688Y-51939495D01*
X104779836Y-51997876D01*
X104806011Y-52050225D01*
X104850226Y-52088571D01*
X104905748Y-52107079D01*
X104964129Y-52102931D01*
X104991592Y-52092421D01*
X105102778Y-52036828D01*
X105317672Y-52036828D01*
X105384136Y-52070060D01*
X105417368Y-52136524D01*
X105417368Y-52151266D01*
X105389100Y-52165400D01*
X105067368Y-52165400D01*
X105038104Y-52168282D01*
X105033125Y-52170344D01*
X105027750Y-52170726D01*
X105000287Y-52181235D01*
X104857429Y-52252664D01*
X104852535Y-52255744D01*
X104850226Y-52256514D01*
X104847350Y-52259007D01*
X104832543Y-52268328D01*
X104820218Y-52282538D01*
X104806011Y-52294860D01*
X104796690Y-52309666D01*
X104794196Y-52312543D01*
X104793425Y-52314853D01*
X104790346Y-52319746D01*
X104718918Y-52462603D01*
X104708408Y-52490067D01*
X104708026Y-52495442D01*
X104705964Y-52500421D01*
X104703082Y-52529685D01*
X104431653Y-52529685D01*
X104431653Y-52386828D01*
X104428771Y-52357564D01*
X104426708Y-52352585D01*
X104426327Y-52347210D01*
X104415817Y-52319747D01*
X104344389Y-52176889D01*
X104336462Y-52164297D01*
X104334946Y-52160636D01*
X104331562Y-52156513D01*
X104328724Y-52152004D01*
X104325732Y-52149409D01*
X104316291Y-52137905D01*
X104244862Y-52066476D01*
X104243679Y-52065505D01*
X104244862Y-52064323D01*
X104254302Y-52052820D01*
X104257295Y-52050225D01*
X104260133Y-52045715D01*
X104263517Y-52041593D01*
X104265033Y-52037930D01*
X104272960Y-52025339D01*
X104344389Y-51882483D01*
X104354898Y-51855019D01*
X104355279Y-51849644D01*
X104357343Y-51844664D01*
X104360225Y-51815400D01*
X104360225Y-51672542D01*
X104357343Y-51643278D01*
X104355279Y-51638297D01*
X104354898Y-51632923D01*
X104344389Y-51605459D01*
X104272960Y-51462603D01*
X104265033Y-51450011D01*
X104263517Y-51446349D01*
X104260133Y-51442226D01*
X104257295Y-51437717D01*
X104254302Y-51435121D01*
X104244862Y-51423619D01*
X104173434Y-51352191D01*
X104161932Y-51342751D01*
X104159336Y-51339758D01*
X104154822Y-51336917D01*
X104150703Y-51333536D01*
X104147043Y-51332020D01*
X104134450Y-51324093D01*
X103991592Y-51252664D01*
X103964129Y-51242154D01*
X103958751Y-51241771D01*
X103953774Y-51239710D01*
X103924510Y-51236828D01*
X103424510Y-51236828D01*
X103395246Y-51239710D01*
X103341174Y-51262108D01*
X103299790Y-51303492D01*
X103277392Y-51357564D01*
X103274510Y-51386828D01*
X103107843Y-51386828D01*
X103107843Y-51070161D01*
X107524010Y-51070161D01*
X107524010Y-53203495D01*
G37*
X108250510Y-49521400D02*
X109393368Y-49521400D01*
X108821939Y-50092828D02*
X108821939Y-48949971D01*
X125235489Y-77470600D02*
X124092632Y-77470600D01*
X124664060Y-76899171D02*
X124664060Y-78042028D01*
G36*
X129911489Y-75455171D02*
G01*
X129596899Y-75455171D01*
X129507485Y-75410463D01*
X129470481Y-75373460D01*
X129425774Y-75284046D01*
X129425774Y-75212010D01*
X129470480Y-75122596D01*
X129507485Y-75085592D01*
X129596899Y-75040885D01*
X129911489Y-75040885D01*
X129911489Y-75455171D01*
G37*
G36*
X129911489Y-74740885D02*
G01*
X129585832Y-74740885D01*
X129428229Y-74688351D01*
X129399051Y-74659173D01*
X129354346Y-74569761D01*
X129354346Y-74426294D01*
X129399051Y-74336883D01*
X129436056Y-74299878D01*
X129525470Y-74255171D01*
X129911489Y-74255171D01*
X129911489Y-74740885D01*
G37*
G36*
X128449685Y-74288403D02*
G01*
X128482917Y-74354866D01*
X128482917Y-74426904D01*
X128449685Y-74493367D01*
X128383222Y-74526600D01*
X128068632Y-74526600D01*
X128068632Y-74269304D01*
X128096899Y-74255171D01*
X128383222Y-74255171D01*
X128449685Y-74288403D01*
G37*
G36*
X130378156Y-75921838D02*
G01*
X125961989Y-75921838D01*
X125961989Y-74147338D01*
X126128656Y-74147338D01*
X126128656Y-74205864D01*
X126134000Y-74218764D01*
X126151053Y-74259935D01*
X126151054Y-74259936D01*
X126169709Y-74282667D01*
X126241138Y-74354095D01*
X126263867Y-74372748D01*
X126263868Y-74372749D01*
X126295542Y-74385868D01*
X126317939Y-74395146D01*
X126317940Y-74395146D01*
X126317941Y-74395146D01*
X126376466Y-74395146D01*
X126376467Y-74395146D01*
X126398864Y-74385868D01*
X126430538Y-74372749D01*
X126453269Y-74354094D01*
X126524697Y-74282666D01*
X126543352Y-74259936D01*
X126565748Y-74205863D01*
X126565748Y-74179455D01*
X126565749Y-74147338D01*
X126543352Y-74093265D01*
X126529107Y-74075907D01*
X126700085Y-74075907D01*
X126700085Y-74134435D01*
X126722483Y-74188507D01*
X126763867Y-74229891D01*
X126817939Y-74252289D01*
X126847203Y-74255171D01*
X126954650Y-74255171D01*
X127021114Y-74288403D01*
X127054346Y-74354867D01*
X127054346Y-74955171D01*
X126847203Y-74955171D01*
X126817939Y-74958053D01*
X126763867Y-74980451D01*
X126722483Y-75021835D01*
X126700085Y-75075907D01*
X126700085Y-75134435D01*
X126722483Y-75188507D01*
X126763867Y-75229891D01*
X126817939Y-75252289D01*
X126847203Y-75255171D01*
X127054346Y-75255171D01*
X127054346Y-75605171D01*
X127057228Y-75634435D01*
X127079626Y-75688507D01*
X127121010Y-75729891D01*
X127175082Y-75752289D01*
X127233610Y-75752289D01*
X127287682Y-75729891D01*
X127329066Y-75688507D01*
X127351464Y-75634435D01*
X127354346Y-75605171D01*
X127354346Y-75255171D01*
X127418631Y-75255171D01*
X127447895Y-75252289D01*
X127501967Y-75229891D01*
X127543351Y-75188507D01*
X127565749Y-75134435D01*
X127565749Y-75075907D01*
X127543351Y-75021835D01*
X127501967Y-74980451D01*
X127447895Y-74958053D01*
X127418631Y-74955171D01*
X127354346Y-74955171D01*
X127354346Y-74319457D01*
X127351464Y-74290193D01*
X127349400Y-74285212D01*
X127349019Y-74279838D01*
X127338510Y-74252374D01*
X127267081Y-74109518D01*
X127264345Y-74105171D01*
X127768632Y-74105171D01*
X127768632Y-74890885D01*
X127771514Y-74920149D01*
X127773576Y-74925127D01*
X127773958Y-74930503D01*
X127784468Y-74957967D01*
X127855896Y-75100824D01*
X127858974Y-75105714D01*
X127859745Y-75108026D01*
X127862241Y-75110904D01*
X127871561Y-75125710D01*
X127885768Y-75138031D01*
X127898092Y-75152241D01*
X127912901Y-75161563D01*
X127915776Y-75164056D01*
X127918083Y-75164825D01*
X127922978Y-75167906D01*
X128065834Y-75239335D01*
X128093298Y-75249844D01*
X128098672Y-75250225D01*
X128103653Y-75252289D01*
X128132917Y-75255171D01*
X128418632Y-75255171D01*
X128447896Y-75252289D01*
X128452876Y-75250225D01*
X128458251Y-75249844D01*
X128485714Y-75239335D01*
X128628571Y-75167906D01*
X128653457Y-75152241D01*
X128691803Y-75108026D01*
X128710311Y-75052503D01*
X128706162Y-74994123D01*
X128679988Y-74941774D01*
X128635772Y-74903427D01*
X128580250Y-74884920D01*
X128521870Y-74889069D01*
X128494406Y-74899578D01*
X128383222Y-74955171D01*
X128168327Y-74955171D01*
X128101863Y-74921938D01*
X128068632Y-74855475D01*
X128068632Y-74840733D01*
X128096899Y-74826600D01*
X128418632Y-74826600D01*
X128447896Y-74823718D01*
X128452876Y-74821654D01*
X128458251Y-74821273D01*
X128485714Y-74810764D01*
X128628571Y-74739335D01*
X128633465Y-74736254D01*
X128635773Y-74735485D01*
X128638646Y-74732992D01*
X128653457Y-74723670D01*
X128665781Y-74709458D01*
X128679988Y-74697138D01*
X128689309Y-74682330D01*
X128691803Y-74679455D01*
X128692572Y-74677146D01*
X128695653Y-74672253D01*
X128767081Y-74529395D01*
X128777591Y-74501932D01*
X128777972Y-74496556D01*
X128780035Y-74491578D01*
X128782917Y-74462314D01*
X128782917Y-74390885D01*
X129054346Y-74390885D01*
X129054346Y-74605171D01*
X129057228Y-74634435D01*
X129059290Y-74639413D01*
X129059672Y-74644789D01*
X129070182Y-74672253D01*
X129141610Y-74815110D01*
X129149537Y-74827703D01*
X129151053Y-74831363D01*
X129154434Y-74835482D01*
X129157275Y-74839996D01*
X129160268Y-74842592D01*
X129169708Y-74854094D01*
X129241137Y-74925523D01*
X129242319Y-74926493D01*
X129241138Y-74927675D01*
X129231698Y-74939177D01*
X129228704Y-74941774D01*
X129225862Y-74946288D01*
X129222483Y-74950406D01*
X129220967Y-74954064D01*
X129213039Y-74966660D01*
X129141610Y-75109518D01*
X129131100Y-75136981D01*
X129130717Y-75142358D01*
X129128656Y-75147336D01*
X129125774Y-75176600D01*
X129125774Y-75319457D01*
X129128656Y-75348721D01*
X129130719Y-75353701D01*
X129131101Y-75359076D01*
X129141610Y-75386539D01*
X129213039Y-75529396D01*
X129220967Y-75541991D01*
X129222483Y-75545650D01*
X129225862Y-75549767D01*
X129228704Y-75554282D01*
X129231698Y-75556878D01*
X129241138Y-75568381D01*
X129312567Y-75639809D01*
X129324067Y-75649247D01*
X129326664Y-75652241D01*
X129331176Y-75655081D01*
X129335297Y-75658463D01*
X129338956Y-75659978D01*
X129351550Y-75667906D01*
X129494406Y-75739335D01*
X129521870Y-75749844D01*
X129527244Y-75750225D01*
X129532225Y-75752289D01*
X129561489Y-75755171D01*
X130061489Y-75755171D01*
X130090753Y-75752289D01*
X130144825Y-75729891D01*
X130186209Y-75688507D01*
X130208607Y-75634435D01*
X130211489Y-75605171D01*
X130211489Y-74105171D01*
X130208607Y-74075907D01*
X130186209Y-74021835D01*
X130144825Y-73980451D01*
X130090753Y-73958053D01*
X130061489Y-73955171D01*
X129490060Y-73955171D01*
X129460796Y-73958053D01*
X129455815Y-73960116D01*
X129450441Y-73960498D01*
X129422977Y-73971007D01*
X129280121Y-74042436D01*
X129267527Y-74050363D01*
X129263868Y-74051879D01*
X129259747Y-74055260D01*
X129255235Y-74058101D01*
X129252638Y-74061094D01*
X129241138Y-74070533D01*
X129169709Y-74141961D01*
X129160269Y-74153463D01*
X129157275Y-74156060D01*
X129154433Y-74160574D01*
X129151054Y-74164692D01*
X129149538Y-74168350D01*
X129141610Y-74180946D01*
X129070182Y-74323803D01*
X129059672Y-74351267D01*
X129059290Y-74356642D01*
X129057228Y-74361621D01*
X129054346Y-74390885D01*
X128782917Y-74390885D01*
X128782917Y-74319457D01*
X128780035Y-74290193D01*
X128777972Y-74285214D01*
X128777591Y-74279839D01*
X128767081Y-74252376D01*
X128695653Y-74109518D01*
X128692572Y-74104624D01*
X128691803Y-74102316D01*
X128689309Y-74099440D01*
X128679988Y-74084633D01*
X128665781Y-74072312D01*
X128653457Y-74058101D01*
X128638646Y-74048778D01*
X128635773Y-74046286D01*
X128633465Y-74045516D01*
X128628571Y-74042436D01*
X128485714Y-73971007D01*
X128458251Y-73960498D01*
X128452876Y-73960116D01*
X128447896Y-73958053D01*
X128418632Y-73955171D01*
X128061489Y-73955171D01*
X128032225Y-73958053D01*
X128027244Y-73960116D01*
X128021870Y-73960498D01*
X127994406Y-73971007D01*
X127987502Y-73974458D01*
X127947896Y-73958053D01*
X127889368Y-73958053D01*
X127835296Y-73980451D01*
X127793912Y-74021835D01*
X127771514Y-74075907D01*
X127768632Y-74105171D01*
X127264345Y-74105171D01*
X127264000Y-74104623D01*
X127263231Y-74102316D01*
X127260738Y-74099441D01*
X127251416Y-74084632D01*
X127237206Y-74072308D01*
X127224885Y-74058101D01*
X127210079Y-74048781D01*
X127207201Y-74046285D01*
X127204889Y-74045514D01*
X127199999Y-74042436D01*
X127057142Y-73971007D01*
X127029679Y-73960498D01*
X127024304Y-73960116D01*
X127019324Y-73958053D01*
X126990060Y-73955171D01*
X126847203Y-73955171D01*
X126817939Y-73958053D01*
X126763867Y-73980451D01*
X126722483Y-74021835D01*
X126700085Y-74075907D01*
X126529107Y-74075907D01*
X126524698Y-74070535D01*
X126453270Y-73999106D01*
X126430539Y-73980451D01*
X126430538Y-73980450D01*
X126398864Y-73967330D01*
X126376467Y-73958053D01*
X126317939Y-73958053D01*
X126295542Y-73967330D01*
X126263868Y-73980450D01*
X126241137Y-73999105D01*
X126169708Y-74070534D01*
X126151053Y-74093265D01*
X126130883Y-74141962D01*
X126128656Y-74147338D01*
X125961989Y-74147338D01*
X125961989Y-73788504D01*
X130378156Y-73788504D01*
X130378156Y-75921838D01*
G37*
X132093489Y-77470600D02*
X130950632Y-77470600D01*
D11*
X107658819Y-70738475D02*
X107658819Y-70119428D01*
X107658819Y-70119428D02*
X108039771Y-70452761D01*
X108039771Y-70452761D02*
X108039771Y-70309904D01*
X108039771Y-70309904D02*
X108087390Y-70214666D01*
X108087390Y-70214666D02*
X108135009Y-70167047D01*
X108135009Y-70167047D02*
X108230247Y-70119428D01*
X108230247Y-70119428D02*
X108468342Y-70119428D01*
X108468342Y-70119428D02*
X108563580Y-70167047D01*
X108563580Y-70167047D02*
X108611200Y-70214666D01*
X108611200Y-70214666D02*
X108658819Y-70309904D01*
X108658819Y-70309904D02*
X108658819Y-70595618D01*
X108658819Y-70595618D02*
X108611200Y-70690856D01*
X108611200Y-70690856D02*
X108563580Y-70738475D01*
X107754057Y-69738475D02*
X107706438Y-69690856D01*
X107706438Y-69690856D02*
X107658819Y-69595618D01*
X107658819Y-69595618D02*
X107658819Y-69357523D01*
X107658819Y-69357523D02*
X107706438Y-69262285D01*
X107706438Y-69262285D02*
X107754057Y-69214666D01*
X107754057Y-69214666D02*
X107849295Y-69167047D01*
X107849295Y-69167047D02*
X107944533Y-69167047D01*
X107944533Y-69167047D02*
X108087390Y-69214666D01*
X108087390Y-69214666D02*
X108658819Y-69786094D01*
X108658819Y-69786094D02*
X108658819Y-69167047D01*
X108563580Y-68738475D02*
X108611200Y-68690856D01*
X108611200Y-68690856D02*
X108658819Y-68738475D01*
X108658819Y-68738475D02*
X108611200Y-68786094D01*
X108611200Y-68786094D02*
X108563580Y-68738475D01*
X108563580Y-68738475D02*
X108658819Y-68738475D01*
X107658819Y-68357523D02*
X107658819Y-67690857D01*
X107658819Y-67690857D02*
X108658819Y-68119428D01*
X107658819Y-66881333D02*
X107658819Y-67071809D01*
X107658819Y-67071809D02*
X107706438Y-67167047D01*
X107706438Y-67167047D02*
X107754057Y-67214666D01*
X107754057Y-67214666D02*
X107896914Y-67309904D01*
X107896914Y-67309904D02*
X108087390Y-67357523D01*
X108087390Y-67357523D02*
X108468342Y-67357523D01*
X108468342Y-67357523D02*
X108563580Y-67309904D01*
X108563580Y-67309904D02*
X108611200Y-67262285D01*
X108611200Y-67262285D02*
X108658819Y-67167047D01*
X108658819Y-67167047D02*
X108658819Y-66976571D01*
X108658819Y-66976571D02*
X108611200Y-66881333D01*
X108611200Y-66881333D02*
X108563580Y-66833714D01*
X108563580Y-66833714D02*
X108468342Y-66786095D01*
X108468342Y-66786095D02*
X108230247Y-66786095D01*
X108230247Y-66786095D02*
X108135009Y-66833714D01*
X108135009Y-66833714D02*
X108087390Y-66881333D01*
X108087390Y-66881333D02*
X108039771Y-66976571D01*
X108039771Y-66976571D02*
X108039771Y-67167047D01*
X108039771Y-67167047D02*
X108087390Y-67262285D01*
X108087390Y-67262285D02*
X108135009Y-67309904D01*
X108135009Y-67309904D02*
X108230247Y-67357523D01*
X108087390Y-66214666D02*
X108039771Y-66309904D01*
X108039771Y-66309904D02*
X107992152Y-66357523D01*
X107992152Y-66357523D02*
X107896914Y-66405142D01*
X107896914Y-66405142D02*
X107849295Y-66405142D01*
X107849295Y-66405142D02*
X107754057Y-66357523D01*
X107754057Y-66357523D02*
X107706438Y-66309904D01*
X107706438Y-66309904D02*
X107658819Y-66214666D01*
X107658819Y-66214666D02*
X107658819Y-66024190D01*
X107658819Y-66024190D02*
X107706438Y-65928952D01*
X107706438Y-65928952D02*
X107754057Y-65881333D01*
X107754057Y-65881333D02*
X107849295Y-65833714D01*
X107849295Y-65833714D02*
X107896914Y-65833714D01*
X107896914Y-65833714D02*
X107992152Y-65881333D01*
X107992152Y-65881333D02*
X108039771Y-65928952D01*
X108039771Y-65928952D02*
X108087390Y-66024190D01*
X108087390Y-66024190D02*
X108087390Y-66214666D01*
X108087390Y-66214666D02*
X108135009Y-66309904D01*
X108135009Y-66309904D02*
X108182628Y-66357523D01*
X108182628Y-66357523D02*
X108277866Y-66405142D01*
X108277866Y-66405142D02*
X108468342Y-66405142D01*
X108468342Y-66405142D02*
X108563580Y-66357523D01*
X108563580Y-66357523D02*
X108611200Y-66309904D01*
X108611200Y-66309904D02*
X108658819Y-66214666D01*
X108658819Y-66214666D02*
X108658819Y-66024190D01*
X108658819Y-66024190D02*
X108611200Y-65928952D01*
X108611200Y-65928952D02*
X108563580Y-65881333D01*
X108563580Y-65881333D02*
X108468342Y-65833714D01*
X108468342Y-65833714D02*
X108277866Y-65833714D01*
X108277866Y-65833714D02*
X108182628Y-65881333D01*
X108182628Y-65881333D02*
X108135009Y-65928952D01*
X108135009Y-65928952D02*
X108087390Y-66024190D01*
X108658819Y-64643237D02*
X107658819Y-64643237D01*
X108277866Y-64547999D02*
X108658819Y-64262285D01*
X107992152Y-64262285D02*
X108373104Y-64643237D01*
X108658819Y-63833713D02*
X107658819Y-63833713D01*
X108135009Y-63833713D02*
X108135009Y-63262285D01*
X108658819Y-63262285D02*
X107658819Y-63262285D01*
X107992152Y-62881332D02*
X107992152Y-62357523D01*
X107992152Y-62357523D02*
X108658819Y-62881332D01*
X108658819Y-62881332D02*
X108658819Y-62357523D01*
X124904819Y-64110475D02*
X124904819Y-63491428D01*
X124904819Y-63491428D02*
X125285771Y-63824761D01*
X125285771Y-63824761D02*
X125285771Y-63681904D01*
X125285771Y-63681904D02*
X125333390Y-63586666D01*
X125333390Y-63586666D02*
X125381009Y-63539047D01*
X125381009Y-63539047D02*
X125476247Y-63491428D01*
X125476247Y-63491428D02*
X125714342Y-63491428D01*
X125714342Y-63491428D02*
X125809580Y-63539047D01*
X125809580Y-63539047D02*
X125857200Y-63586666D01*
X125857200Y-63586666D02*
X125904819Y-63681904D01*
X125904819Y-63681904D02*
X125904819Y-63967618D01*
X125904819Y-63967618D02*
X125857200Y-64062856D01*
X125857200Y-64062856D02*
X125809580Y-64110475D01*
X125000057Y-63110475D02*
X124952438Y-63062856D01*
X124952438Y-63062856D02*
X124904819Y-62967618D01*
X124904819Y-62967618D02*
X124904819Y-62729523D01*
X124904819Y-62729523D02*
X124952438Y-62634285D01*
X124952438Y-62634285D02*
X125000057Y-62586666D01*
X125000057Y-62586666D02*
X125095295Y-62539047D01*
X125095295Y-62539047D02*
X125190533Y-62539047D01*
X125190533Y-62539047D02*
X125333390Y-62586666D01*
X125333390Y-62586666D02*
X125904819Y-63158094D01*
X125904819Y-63158094D02*
X125904819Y-62539047D01*
X125809580Y-62110475D02*
X125857200Y-62062856D01*
X125857200Y-62062856D02*
X125904819Y-62110475D01*
X125904819Y-62110475D02*
X125857200Y-62158094D01*
X125857200Y-62158094D02*
X125809580Y-62110475D01*
X125809580Y-62110475D02*
X125904819Y-62110475D01*
X124904819Y-61729523D02*
X124904819Y-61062857D01*
X124904819Y-61062857D02*
X125904819Y-61491428D01*
X124904819Y-60253333D02*
X124904819Y-60443809D01*
X124904819Y-60443809D02*
X124952438Y-60539047D01*
X124952438Y-60539047D02*
X125000057Y-60586666D01*
X125000057Y-60586666D02*
X125142914Y-60681904D01*
X125142914Y-60681904D02*
X125333390Y-60729523D01*
X125333390Y-60729523D02*
X125714342Y-60729523D01*
X125714342Y-60729523D02*
X125809580Y-60681904D01*
X125809580Y-60681904D02*
X125857200Y-60634285D01*
X125857200Y-60634285D02*
X125904819Y-60539047D01*
X125904819Y-60539047D02*
X125904819Y-60348571D01*
X125904819Y-60348571D02*
X125857200Y-60253333D01*
X125857200Y-60253333D02*
X125809580Y-60205714D01*
X125809580Y-60205714D02*
X125714342Y-60158095D01*
X125714342Y-60158095D02*
X125476247Y-60158095D01*
X125476247Y-60158095D02*
X125381009Y-60205714D01*
X125381009Y-60205714D02*
X125333390Y-60253333D01*
X125333390Y-60253333D02*
X125285771Y-60348571D01*
X125285771Y-60348571D02*
X125285771Y-60539047D01*
X125285771Y-60539047D02*
X125333390Y-60634285D01*
X125333390Y-60634285D02*
X125381009Y-60681904D01*
X125381009Y-60681904D02*
X125476247Y-60729523D01*
X125333390Y-59586666D02*
X125285771Y-59681904D01*
X125285771Y-59681904D02*
X125238152Y-59729523D01*
X125238152Y-59729523D02*
X125142914Y-59777142D01*
X125142914Y-59777142D02*
X125095295Y-59777142D01*
X125095295Y-59777142D02*
X125000057Y-59729523D01*
X125000057Y-59729523D02*
X124952438Y-59681904D01*
X124952438Y-59681904D02*
X124904819Y-59586666D01*
X124904819Y-59586666D02*
X124904819Y-59396190D01*
X124904819Y-59396190D02*
X124952438Y-59300952D01*
X124952438Y-59300952D02*
X125000057Y-59253333D01*
X125000057Y-59253333D02*
X125095295Y-59205714D01*
X125095295Y-59205714D02*
X125142914Y-59205714D01*
X125142914Y-59205714D02*
X125238152Y-59253333D01*
X125238152Y-59253333D02*
X125285771Y-59300952D01*
X125285771Y-59300952D02*
X125333390Y-59396190D01*
X125333390Y-59396190D02*
X125333390Y-59586666D01*
X125333390Y-59586666D02*
X125381009Y-59681904D01*
X125381009Y-59681904D02*
X125428628Y-59729523D01*
X125428628Y-59729523D02*
X125523866Y-59777142D01*
X125523866Y-59777142D02*
X125714342Y-59777142D01*
X125714342Y-59777142D02*
X125809580Y-59729523D01*
X125809580Y-59729523D02*
X125857200Y-59681904D01*
X125857200Y-59681904D02*
X125904819Y-59586666D01*
X125904819Y-59586666D02*
X125904819Y-59396190D01*
X125904819Y-59396190D02*
X125857200Y-59300952D01*
X125857200Y-59300952D02*
X125809580Y-59253333D01*
X125809580Y-59253333D02*
X125714342Y-59205714D01*
X125714342Y-59205714D02*
X125523866Y-59205714D01*
X125523866Y-59205714D02*
X125428628Y-59253333D01*
X125428628Y-59253333D02*
X125381009Y-59300952D01*
X125381009Y-59300952D02*
X125333390Y-59396190D01*
X125904819Y-58015237D02*
X124904819Y-58015237D01*
X125523866Y-57919999D02*
X125904819Y-57634285D01*
X125238152Y-57634285D02*
X125619104Y-58015237D01*
X125904819Y-57205713D02*
X124904819Y-57205713D01*
X125381009Y-57205713D02*
X125381009Y-56634285D01*
X125904819Y-56634285D02*
X124904819Y-56634285D01*
X125238152Y-56253332D02*
X125238152Y-55729523D01*
X125238152Y-55729523D02*
X125904819Y-56253332D01*
X125904819Y-56253332D02*
X125904819Y-55729523D01*
X115854819Y-79471904D02*
X116664342Y-79471904D01*
X116664342Y-79471904D02*
X116759580Y-79424285D01*
X116759580Y-79424285D02*
X116807200Y-79376666D01*
X116807200Y-79376666D02*
X116854819Y-79281428D01*
X116854819Y-79281428D02*
X116854819Y-79090952D01*
X116854819Y-79090952D02*
X116807200Y-78995714D01*
X116807200Y-78995714D02*
X116759580Y-78948095D01*
X116759580Y-78948095D02*
X116664342Y-78900476D01*
X116664342Y-78900476D02*
X115854819Y-78900476D01*
X115950057Y-78471904D02*
X115902438Y-78424285D01*
X115902438Y-78424285D02*
X115854819Y-78329047D01*
X115854819Y-78329047D02*
X115854819Y-78090952D01*
X115854819Y-78090952D02*
X115902438Y-77995714D01*
X115902438Y-77995714D02*
X115950057Y-77948095D01*
X115950057Y-77948095D02*
X116045295Y-77900476D01*
X116045295Y-77900476D02*
X116140533Y-77900476D01*
X116140533Y-77900476D02*
X116283390Y-77948095D01*
X116283390Y-77948095D02*
X116854819Y-78519523D01*
X116854819Y-78519523D02*
X116854819Y-77900476D01*
X116274819Y-46451904D02*
X117084342Y-46451904D01*
X117084342Y-46451904D02*
X117179580Y-46404285D01*
X117179580Y-46404285D02*
X117227200Y-46356666D01*
X117227200Y-46356666D02*
X117274819Y-46261428D01*
X117274819Y-46261428D02*
X117274819Y-46070952D01*
X117274819Y-46070952D02*
X117227200Y-45975714D01*
X117227200Y-45975714D02*
X117179580Y-45928095D01*
X117179580Y-45928095D02*
X117084342Y-45880476D01*
X117084342Y-45880476D02*
X116274819Y-45880476D01*
X116274819Y-45499523D02*
X116274819Y-44880476D01*
X116274819Y-44880476D02*
X116655771Y-45213809D01*
X116655771Y-45213809D02*
X116655771Y-45070952D01*
X116655771Y-45070952D02*
X116703390Y-44975714D01*
X116703390Y-44975714D02*
X116751009Y-44928095D01*
X116751009Y-44928095D02*
X116846247Y-44880476D01*
X116846247Y-44880476D02*
X117084342Y-44880476D01*
X117084342Y-44880476D02*
X117179580Y-44928095D01*
X117179580Y-44928095D02*
X117227200Y-44975714D01*
X117227200Y-44975714D02*
X117274819Y-45070952D01*
X117274819Y-45070952D02*
X117274819Y-45356666D01*
X117274819Y-45356666D02*
X117227200Y-45451904D01*
X117227200Y-45451904D02*
X117179580Y-45499523D01*
%TO.C,U4*%
D12*
X122850000Y-50710000D02*
X122850000Y-86390000D01*
X122850000Y-86390000D02*
X135770000Y-86390000D01*
X128310000Y-50710000D02*
X122850000Y-50710000D01*
X135770000Y-50710000D02*
X130310000Y-50710000D01*
X135770000Y-86390000D02*
X135770000Y-50710000D01*
X130310000Y-50710000D02*
G75*
G02*
X128310000Y-50710000I-1000000J0D01*
G01*
%TO.C,Y1*%
X106680000Y-73560000D02*
X106680000Y-74370000D01*
X107350000Y-72190000D02*
X106680000Y-73560000D01*
X108550000Y-72190000D02*
X109220000Y-73560000D01*
X109220000Y-73560000D02*
X109220000Y-74370000D01*
X106190000Y-61170000D02*
X109710000Y-61170000D01*
X109710000Y-72190000D01*
X106190000Y-72190000D01*
X106190000Y-61170000D01*
%TO.C,Y2*%
X124230000Y-53386000D02*
X124230000Y-52576000D01*
X124900000Y-54756000D02*
X124230000Y-53386000D01*
X126100000Y-54756000D02*
X126770000Y-53386000D01*
X126770000Y-53386000D02*
X126770000Y-52576000D01*
X123740000Y-54756000D02*
X127260000Y-54756000D01*
X127260000Y-65776000D01*
X123740000Y-65776000D01*
X123740000Y-54756000D01*
%TO.C,U2*%
X95190000Y-78630000D02*
X95190000Y-83930000D01*
X95190000Y-83930000D02*
X115630000Y-83930000D01*
X115630000Y-78630000D02*
X95190000Y-78630000D01*
X115630000Y-80280000D02*
X115630000Y-78630000D01*
X115630000Y-83930000D02*
X115630000Y-82280000D01*
X115630000Y-82280000D02*
G75*
G02*
X115630000Y-80280000I0J1000000D01*
G01*
%TO.C,U3*%
X117820000Y-43040000D02*
X117820000Y-44690000D01*
X117820000Y-46690000D02*
X117820000Y-48340000D01*
X117820000Y-48340000D02*
X138260000Y-48340000D01*
X138260000Y-43040000D02*
X117820000Y-43040000D01*
X138260000Y-48340000D02*
X138260000Y-43040000D01*
X117820000Y-44690000D02*
G75*
G02*
X117820000Y-46690000I0J-1000000D01*
G01*
%TO.C,J5*%
X129310000Y-76170000D02*
X130580000Y-76170000D01*
X130580000Y-76170000D02*
X130580000Y-77440000D01*
%TO.C,U1*%
X97680000Y-40580000D02*
X97680000Y-76260000D01*
X97680000Y-76260000D02*
X110600000Y-76260000D01*
X103140000Y-40580000D02*
X97680000Y-40580000D01*
X110600000Y-40580000D02*
X105140000Y-40580000D01*
X110600000Y-76260000D02*
X110600000Y-40580000D01*
X105140000Y-40580000D02*
G75*
G02*
X103140000Y-40580000I-1000000J0D01*
G01*
%TD*%
M02*
