%TF.GenerationSoftware,KiCad,Pcbnew,10.0.0*%
%TF.CreationDate,2026-06-04T22:51:01+02:00*%
%TF.ProjectId,ns-clock-neo,6e732d63-6c6f-4636-9b2d-6e656f2e6b69,rev?*%
%TF.SameCoordinates,Original*%
%TF.FileFunction,Soldermask,Bot*%
%TF.FilePolarity,Negative*%
%FSLAX46Y46*%
G04 Gerber Fmt 4.6, Leading zero omitted, Abs format (unit mm)*
G04 Created by KiCad (PCBNEW 10.0.0) date 2026-06-04 22:51:01*
%MOMM*%
%LPD*%
G01*
G04 APERTURE LIST*
G04 Aperture macros list*
%AMRoundRect*
0 Rectangle with rounded corners*
0 $1 Rounding radius*
0 $2 $3 $4 $5 $6 $7 $8 $9 X,Y pos of 4 corners*
0 Add a 4 corners polygon primitive as box body*
4,1,4,$2,$3,$4,$5,$6,$7,$8,$9,$2,$3,0*
0 Add four circle primitives for the rounded corners*
1,1,$1+$1,$2,$3*
1,1,$1+$1,$4,$5*
1,1,$1+$1,$6,$7*
1,1,$1+$1,$8,$9*
0 Add four rect primitives between the rounded corners*
20,1,$1+$1,$2,$3,$4,$5,0*
20,1,$1+$1,$4,$5,$6,$7,0*
20,1,$1+$1,$6,$7,$8,$9,0*
20,1,$1+$1,$8,$9,$2,$3,0*%
G04 Aperture macros list end*
%ADD10C,1.000000*%
%ADD11R,1.700000X1.700000*%
%ADD12C,1.700000*%
%ADD13RoundRect,0.250000X0.550000X-0.550000X0.550000X0.550000X-0.550000X0.550000X-0.550000X-0.550000X0*%
%ADD14C,1.600000*%
%ADD15RoundRect,0.250000X0.550000X0.550000X-0.550000X0.550000X-0.550000X-0.550000X0.550000X-0.550000X0*%
G04 APERTURE END LIST*
D10*
%TO.C,Y1*%
X111125000Y-74065000D03*
X108585000Y-74065000D03*
%TD*%
D11*
%TO.C,J2*%
X105410000Y-113665000D03*
D12*
X107950000Y-113665000D03*
%TD*%
%TO.C,J4*%
X99060000Y-76200000D03*
X99060000Y-73660000D03*
X99060000Y-71120000D03*
X99060000Y-68580000D03*
X99060000Y-66040000D03*
X99060000Y-63500000D03*
X99060000Y-60960000D03*
X99060000Y-58420000D03*
X99060000Y-55880000D03*
X99060000Y-53340000D03*
X99060000Y-50800000D03*
X99060000Y-48260000D03*
X99060000Y-45720000D03*
X99060000Y-43180000D03*
%TD*%
D11*
%TO.C,J3*%
X114300000Y-76200000D03*
D12*
X114300000Y-73660000D03*
X114300000Y-71120000D03*
X114300000Y-68580000D03*
X114300000Y-66040000D03*
X114300000Y-63500000D03*
X114300000Y-60960000D03*
X114300000Y-58420000D03*
X114300000Y-55880000D03*
X114300000Y-53340000D03*
X114300000Y-50800000D03*
X114300000Y-48260000D03*
X114300000Y-45720000D03*
X114300000Y-43180000D03*
%TD*%
D13*
%TO.C,DS1215*%
X114300000Y-87630000D03*
D14*
X111760000Y-87630000D03*
X109220000Y-87630000D03*
X106680000Y-87630000D03*
X104140000Y-87630000D03*
X101600000Y-87630000D03*
X99060000Y-87630000D03*
X96520000Y-87630000D03*
X96520000Y-80010000D03*
X99060000Y-80010000D03*
X101600000Y-80010000D03*
X104140000Y-80010000D03*
X106680000Y-80010000D03*
X109220000Y-80010000D03*
X111760000Y-80010000D03*
X114300000Y-80010000D03*
%TD*%
D15*
%TO.C,U1*%
X114300000Y-91440000D03*
D14*
X114300000Y-93980000D03*
X114300000Y-96520000D03*
X114300000Y-99060000D03*
X114300000Y-101600000D03*
X114300000Y-104140000D03*
X114300000Y-106680000D03*
X114300000Y-109220000D03*
X114300000Y-111760000D03*
X114300000Y-114300000D03*
X114300000Y-116840000D03*
X114300000Y-119380000D03*
X114300000Y-121920000D03*
X114300000Y-124460000D03*
X99060000Y-124460000D03*
X99060000Y-121920000D03*
X99060000Y-119380000D03*
X99060000Y-116840000D03*
X99060000Y-114300000D03*
X99060000Y-111760000D03*
X99060000Y-109220000D03*
X99060000Y-106680000D03*
X99060000Y-104140000D03*
X99060000Y-101600000D03*
X99060000Y-99060000D03*
X99060000Y-96520000D03*
X99060000Y-93980000D03*
X99060000Y-91440000D03*
%TD*%
M02*
