M48
; DRILL file KiCad 10.0.0 date 2026-06-05T13:53:50
; FORMAT={-:-/ absolute / metric / decimal}
; #@! TF.CreationDate,2026-06-05T13:53:50+02:00
; #@! TF.GenerationSoftware,Kicad,Pcbnew,10.0.0
; #@! TF.FileFunction,Plated,1,2,PTH
FMAT,2
METRIC
; #@! TA.AperFunction,Plated,PTH,ComponentDrill
T1C0.500
; #@! TA.AperFunction,Plated,PTH,ComponentDrill
T2C0.800
; #@! TA.AperFunction,Plated,PTH,ComponentDrill
T3C1.000
%
G90
G05
T1
X68.58Y-30.71
X71.12Y-30.71
T2
X63.5Y-16.51
X63.5Y-24.13
X66.04Y-16.51
X66.04Y-24.13
X66.04Y-27.94
X66.04Y-30.48
X66.04Y-33.02
X66.04Y-35.56
X66.04Y-38.1
X66.04Y-40.64
X66.04Y-43.18
X66.04Y-45.72
X66.04Y-48.26
X66.04Y-50.8
X66.04Y-53.34
X66.04Y-55.88
X66.04Y-58.42
X66.04Y-60.96
X68.58Y-16.51
X68.58Y-24.13
X71.12Y-16.51
X71.12Y-24.13
X73.66Y-16.51
X73.66Y-24.13
X76.2Y-16.51
X76.2Y-24.13
X78.74Y-16.51
X78.74Y-24.13
X81.28Y-16.51
X81.28Y-24.13
X81.28Y-27.94
X81.28Y-30.48
X81.28Y-33.02
X81.28Y-35.56
X81.28Y-38.1
X81.28Y-40.64
X81.28Y-43.18
X81.28Y-45.72
X81.28Y-48.26
X81.28Y-50.8
X81.28Y-53.34
X81.28Y-55.88
X81.28Y-58.42
X81.28Y-60.96
T3
X58.42Y-27.94
X58.42Y-30.48
X58.42Y-33.02
X58.42Y-35.56
X58.42Y-38.1
X58.42Y-40.64
X58.42Y-43.18
X58.42Y-45.72
X58.42Y-48.26
X58.42Y-50.8
X58.42Y-53.34
X58.42Y-55.88
X58.42Y-58.42
X58.42Y-60.96
X69.85Y-52.07
X69.85Y-54.61
X73.66Y-27.94
X73.66Y-30.48
X73.66Y-33.02
X73.66Y-35.56
X73.66Y-38.1
X73.66Y-40.64
X73.66Y-43.18
X73.66Y-45.72
X73.66Y-48.26
X73.66Y-50.8
X73.66Y-53.34
X73.66Y-55.88
X73.66Y-58.42
X73.66Y-60.96
M30
