%TF.GenerationSoftware,KiCad,Pcbnew,10.0.0*%
%TF.CreationDate,2026-06-05T13:53:48+02:00*%
%TF.ProjectId,ns-clock-neo,6e732d63-6c6f-4636-9b2d-6e656f2e6b69,rev?*%
%TF.SameCoordinates,Original*%
%TF.FileFunction,Soldermask,Top*%
%TF.FilePolarity,Negative*%
%FSLAX46Y46*%
G04 Gerber Fmt 4.6, Leading zero omitted, Abs format (unit mm)*
G04 Created by KiCad (PCBNEW 10.0.0) date 2026-06-05 13:53:48*
%MOMM*%
%LPD*%
G01*
G04 APERTURE LIST*
G04 Aperture macros list*
%AMRoundRect*
0 Rectangle with rounded corners*
0 $1 Rounding radius*
0 $2 $3 $4 $5 $6 $7 $8 $9 X,Y pos of 4 corners*
0 Add a 4 corners polygon primitive as box body*
4,1,4,$2,$3,$4,$5,$6,$7,$8,$9,$2,$3,0*
0 Add four circle primitives for the rounded corners*
1,1,$1+$1,$2,$3*
1,1,$1+$1,$4,$5*
1,1,$1+$1,$6,$7*
1,1,$1+$1,$8,$9*
0 Add four rect primitives between the rounded corners*
20,1,$1+$1,$2,$3,$4,$5,0*
20,1,$1+$1,$4,$5,$6,$7,0*
20,1,$1+$1,$6,$7,$8,$9,0*
20,1,$1+$1,$8,$9,$2,$3,0*%
G04 Aperture macros list end*
%ADD10R,1.700000X1.700000*%
%ADD11C,1.700000*%
%ADD12RoundRect,0.250000X-0.550000X-0.550000X0.550000X-0.550000X0.550000X0.550000X-0.550000X0.550000X0*%
%ADD13C,1.600000*%
%ADD14RoundRect,0.250000X-0.550000X0.550000X-0.550000X-0.550000X0.550000X-0.550000X0.550000X0.550000X0*%
%ADD15C,1.000000*%
G04 APERTURE END LIST*
D10*
%TO.C,J4*%
X73660000Y-27940000D03*
D11*
X73660000Y-30480000D03*
X73660000Y-33020000D03*
X73660000Y-35560000D03*
X73660000Y-38100000D03*
X73660000Y-40640000D03*
X73660000Y-43180000D03*
X73660000Y-45720000D03*
X73660000Y-48260000D03*
X73660000Y-50800000D03*
X73660000Y-53340000D03*
X73660000Y-55880000D03*
X73660000Y-58420000D03*
X73660000Y-60960000D03*
%TD*%
D10*
%TO.C,J3*%
X58420000Y-27940000D03*
D11*
X58420000Y-30480000D03*
X58420000Y-33020000D03*
X58420000Y-35560000D03*
X58420000Y-38100000D03*
X58420000Y-40640000D03*
X58420000Y-43180000D03*
X58420000Y-45720000D03*
X58420000Y-48260000D03*
X58420000Y-50800000D03*
X58420000Y-53340000D03*
X58420000Y-55880000D03*
X58420000Y-58420000D03*
X58420000Y-60960000D03*
%TD*%
D10*
%TO.C,J2*%
X69850000Y-54610000D03*
D11*
X69850000Y-52070000D03*
%TD*%
D12*
%TO.C,U1*%
X66040000Y-27940000D03*
D13*
X66040000Y-30480000D03*
X66040000Y-33020000D03*
X66040000Y-35560000D03*
X66040000Y-38100000D03*
X66040000Y-40640000D03*
X66040000Y-43180000D03*
X66040000Y-45720000D03*
X66040000Y-48260000D03*
X66040000Y-50800000D03*
X66040000Y-53340000D03*
X66040000Y-55880000D03*
X66040000Y-58420000D03*
X66040000Y-60960000D03*
X81280000Y-60960000D03*
X81280000Y-58420000D03*
X81280000Y-55880000D03*
X81280000Y-53340000D03*
X81280000Y-50800000D03*
X81280000Y-48260000D03*
X81280000Y-45720000D03*
X81280000Y-43180000D03*
X81280000Y-40640000D03*
X81280000Y-38100000D03*
X81280000Y-35560000D03*
X81280000Y-33020000D03*
X81280000Y-30480000D03*
X81280000Y-27940000D03*
%TD*%
D14*
%TO.C,DS1215*%
X81280000Y-16510000D03*
D13*
X78740000Y-16510000D03*
X76200000Y-16510000D03*
X73660000Y-16510000D03*
X71120000Y-16510000D03*
X68580000Y-16510000D03*
X66040000Y-16510000D03*
X63500000Y-16510000D03*
X63500000Y-24130000D03*
X66040000Y-24130000D03*
X68580000Y-24130000D03*
X71120000Y-24130000D03*
X73660000Y-24130000D03*
X76200000Y-24130000D03*
X78740000Y-24130000D03*
X81280000Y-24130000D03*
%TD*%
D15*
%TO.C,Y1*%
X68580000Y-30710000D03*
X71120000Y-30710000D03*
%TD*%
M02*
