%TF.GenerationSoftware,KiCad,Pcbnew,10.0.0*%
%TF.CreationDate,2026-06-05T13:53:48+02:00*%
%TF.ProjectId,ns-clock-neo,6e732d63-6c6f-4636-9b2d-6e656f2e6b69,rev?*%
%TF.SameCoordinates,Original*%
%TF.FileFunction,Copper,L1,Top*%
%TF.FilePolarity,Positive*%
%FSLAX46Y46*%
G04 Gerber Fmt 4.6, Leading zero omitted, Abs format (unit mm)*
G04 Created by KiCad (PCBNEW 10.0.0) date 2026-06-05 13:53:48*
%MOMM*%
%LPD*%
G01*
G04 APERTURE LIST*
G04 Aperture macros list*
%AMRoundRect*
0 Rectangle with rounded corners*
0 $1 Rounding radius*
0 $2 $3 $4 $5 $6 $7 $8 $9 X,Y pos of 4 corners*
0 Add a 4 corners polygon primitive as box body*
4,1,4,$2,$3,$4,$5,$6,$7,$8,$9,$2,$3,0*
0 Add four circle primitives for the rounded corners*
1,1,$1+$1,$2,$3*
1,1,$1+$1,$4,$5*
1,1,$1+$1,$6,$7*
1,1,$1+$1,$8,$9*
0 Add four rect primitives between the rounded corners*
20,1,$1+$1,$2,$3,$4,$5,0*
20,1,$1+$1,$4,$5,$6,$7,0*
20,1,$1+$1,$6,$7,$8,$9,0*
20,1,$1+$1,$8,$9,$2,$3,0*%
G04 Aperture macros list end*
%TA.AperFunction,ComponentPad*%
%ADD10R,1.700000X1.700000*%
%TD*%
%TA.AperFunction,ComponentPad*%
%ADD11C,1.700000*%
%TD*%
%TA.AperFunction,ComponentPad*%
%ADD12RoundRect,0.250000X-0.550000X-0.550000X0.550000X-0.550000X0.550000X0.550000X-0.550000X0.550000X0*%
%TD*%
%TA.AperFunction,ComponentPad*%
%ADD13C,1.600000*%
%TD*%
%TA.AperFunction,ComponentPad*%
%ADD14RoundRect,0.250000X-0.550000X0.550000X-0.550000X-0.550000X0.550000X-0.550000X0.550000X0.550000X0*%
%TD*%
%TA.AperFunction,ComponentPad*%
%ADD15C,1.000000*%
%TD*%
%TA.AperFunction,Conductor*%
%ADD16C,0.200000*%
%TD*%
G04 APERTURE END LIST*
D10*
%TO.P,J4,1,Pin_1_1*%
%TO.N,+5V*%
X73660000Y-27940000D03*
D11*
%TO.P,J4,2,Pin_2_2*%
%TO.N,PGM*%
X73660000Y-30480000D03*
%TO.P,J4,3,Pin_3_3*%
%TO.N,unconnected-(J4-Pin_3-Pad3)*%
X73660000Y-33020000D03*
%TO.P,J4,4,Pin_4_4*%
%TO.N,A8*%
X73660000Y-35560000D03*
%TO.P,J4,5,Pin_5_5*%
%TO.N,A9*%
X73660000Y-38100000D03*
%TO.P,J4,6,Pin_6_6*%
%TO.N,A11*%
X73660000Y-40640000D03*
%TO.P,J4,7,Pin_7_7*%
%TO.N,OE*%
X73660000Y-43180000D03*
%TO.P,J4,8,Pin_8_8*%
%TO.N,A10*%
X73660000Y-45720000D03*
%TO.P,J4,9,Pin_9_9*%
%TO.N,CEI*%
X73660000Y-48260000D03*
%TO.P,J4,10,Pin_10_10*%
%TO.N,D7*%
X73660000Y-50800000D03*
%TO.P,J4,11,Pin_11_11*%
%TO.N,D6*%
X73660000Y-53340000D03*
%TO.P,J4,12,Pin_12_12*%
%TO.N,D5*%
X73660000Y-55880000D03*
%TO.P,J4,13,Pin_13_13*%
%TO.N,D4*%
X73660000Y-58420000D03*
%TO.P,J4,14,Pin_14_14*%
%TO.N,D3*%
X73660000Y-60960000D03*
%TD*%
D10*
%TO.P,J3,1,Pin_1_1*%
%TO.N,VPP*%
X58420000Y-27940000D03*
D11*
%TO.P,J3,2,Pin_2_2*%
%TO.N,A12*%
X58420000Y-30480000D03*
%TO.P,J3,3,Pin_3_3*%
%TO.N,A7*%
X58420000Y-33020000D03*
%TO.P,J3,4,Pin_4_4*%
%TO.N,A6*%
X58420000Y-35560000D03*
%TO.P,J3,5,Pin_5_5*%
%TO.N,A5*%
X58420000Y-38100000D03*
%TO.P,J3,6,Pin_6_6*%
%TO.N,A4*%
X58420000Y-40640000D03*
%TO.P,J3,7,Pin_7_7*%
%TO.N,A3*%
X58420000Y-43180000D03*
%TO.P,J3,8,Pin_8_8*%
%TO.N,A2*%
X58420000Y-45720000D03*
%TO.P,J3,9,Pin_9_9*%
%TO.N,A1*%
X58420000Y-48260000D03*
%TO.P,J3,10,Pin_10_10*%
%TO.N,A0*%
X58420000Y-50800000D03*
%TO.P,J3,11,Pin_11_11*%
%TO.N,D0*%
X58420000Y-53340000D03*
%TO.P,J3,12,Pin_12_12*%
%TO.N,D1*%
X58420000Y-55880000D03*
%TO.P,J3,13,Pin_13_13*%
%TO.N,D2*%
X58420000Y-58420000D03*
%TO.P,J3,14,Pin_14_14*%
%TO.N,GND*%
X58420000Y-60960000D03*
%TD*%
D10*
%TO.P,J2,1,Pin_1_1*%
%TO.N,GND*%
X69850000Y-54610000D03*
D11*
%TO.P,J2,2,Pin_2_2*%
%TO.N,+3V0*%
X69850000Y-52070000D03*
%TD*%
D12*
%TO.P,U1,1,VPP_1*%
%TO.N,VPP*%
X66040000Y-27940000D03*
D13*
%TO.P,U1,2,A12_2*%
%TO.N,A12*%
X66040000Y-30480000D03*
%TO.P,U1,3,A7_3*%
%TO.N,A7*%
X66040000Y-33020000D03*
%TO.P,U1,4,A6_4*%
%TO.N,A6*%
X66040000Y-35560000D03*
%TO.P,U1,5,A5_5*%
%TO.N,A5*%
X66040000Y-38100000D03*
%TO.P,U1,6,A4_6*%
%TO.N,A4*%
X66040000Y-40640000D03*
%TO.P,U1,7,A3_7*%
%TO.N,A3*%
X66040000Y-43180000D03*
%TO.P,U1,8,A2_8*%
%TO.N,A2*%
X66040000Y-45720000D03*
%TO.P,U1,9,A1_9*%
%TO.N,A1*%
X66040000Y-48260000D03*
%TO.P,U1,10,A0_10*%
%TO.N,A0*%
X66040000Y-50800000D03*
%TO.P,U1,11,D0_11*%
%TO.N,D0*%
X66040000Y-53340000D03*
%TO.P,U1,12,D1_12*%
%TO.N,D1*%
X66040000Y-55880000D03*
%TO.P,U1,13,D2_13*%
%TO.N,D2*%
X66040000Y-58420000D03*
%TO.P,U1,14,GND_14*%
%TO.N,GND*%
X66040000Y-60960000D03*
%TO.P,U1,15,D3_15*%
%TO.N,D3*%
X81280000Y-60960000D03*
%TO.P,U1,16,D4_16*%
%TO.N,D4*%
X81280000Y-58420000D03*
%TO.P,U1,17,D5_17*%
%TO.N,D5*%
X81280000Y-55880000D03*
%TO.P,U1,18,D6_18*%
%TO.N,D6*%
X81280000Y-53340000D03*
%TO.P,U1,19,D7_19*%
%TO.N,D7*%
X81280000Y-50800000D03*
%TO.P,U1,20,~{CE}_20*%
%TO.N,CE*%
X81280000Y-48260000D03*
%TO.P,U1,21,A10_21*%
%TO.N,A10*%
X81280000Y-45720000D03*
%TO.P,U1,22,~{OE}_22*%
%TO.N,OE*%
X81280000Y-43180000D03*
%TO.P,U1,23,A11_23*%
%TO.N,A11*%
X81280000Y-40640000D03*
%TO.P,U1,24,A9_24*%
%TO.N,A9*%
X81280000Y-38100000D03*
%TO.P,U1,25,A8_25*%
%TO.N,A8*%
X81280000Y-35560000D03*
%TO.P,U1,26,NC_26*%
%TO.N,unconnected-(U1-NC-Pad26)*%
X81280000Y-33020000D03*
%TO.P,U1,27,~{PGM}_27*%
%TO.N,PGM*%
X81280000Y-30480000D03*
%TO.P,U1,28,VCC_28*%
%TO.N,+5V*%
X81280000Y-27940000D03*
%TD*%
D14*
%TO.P,DS1215,1,X1_1*%
%TO.N,Net-(U2-X1)*%
X81280000Y-16510000D03*
D13*
%TO.P,DS1215,2,X2_2*%
%TO.N,Net-(U2-X2)*%
X78740000Y-16510000D03*
%TO.P,DS1215,3,~{WE}_3*%
%TO.N,A2*%
X76200000Y-16510000D03*
%TO.P,DS1215,4,BAT1_4*%
%TO.N,+3V0*%
X73660000Y-16510000D03*
%TO.P,DS1215,5,GND_5*%
%TO.N,GND*%
X71120000Y-16510000D03*
%TO.P,DS1215,6,D_6*%
%TO.N,A0*%
X68580000Y-16510000D03*
%TO.P,DS1215,7,Q_7*%
%TO.N,D0*%
X66040000Y-16510000D03*
%TO.P,DS1215,8,GND_8*%
%TO.N,GND*%
X63500000Y-16510000D03*
%TO.P,DS1215,9,ROM/~{RAM}_9*%
%TO.N,+5V*%
X63500000Y-24130000D03*
%TO.P,DS1215,10,~{CEO}_10*%
%TO.N,CE*%
X66040000Y-24130000D03*
%TO.P,DS1215,11,~{CEI}_11*%
%TO.N,CEI*%
X68580000Y-24130000D03*
%TO.P,DS1215,12,~{OE}_12*%
%TO.N,OE*%
X71120000Y-24130000D03*
%TO.P,DS1215,13,~{RST}_13*%
%TO.N,+5V*%
X73660000Y-24130000D03*
%TO.P,DS1215,14,BAT2_14*%
%TO.N,GND*%
X76200000Y-24130000D03*
%TO.P,DS1215,15,VCCO_15*%
%TO.N,unconnected-(U2-VCCO-Pad15)*%
X78740000Y-24130000D03*
%TO.P,DS1215,16,VCCI_16*%
%TO.N,+5V*%
X81280000Y-24130000D03*
%TD*%
D15*
%TO.P,Y1,1,1_1*%
%TO.N,Net-(U2-X1)*%
X68580000Y-30710000D03*
%TO.P,Y1,2,2_2*%
%TO.N,Net-(U2-X2)*%
X71120000Y-30710000D03*
%TD*%
%TO.N,Net-(U2-X1)*%
D16*
X68580000Y-33071500D02*
X68580000Y-30710000D01*
X79840000Y-17950000D02*
X79840000Y-27094000D01*
X75438000Y-33020000D02*
X74168000Y-34290000D01*
X79840000Y-27094000D02*
X75438000Y-31496000D01*
X69798500Y-34290000D02*
X68580000Y-33071500D01*
X81280000Y-16510000D02*
X79840000Y-17950000D01*
X75438000Y-31496000D02*
X75438000Y-33020000D01*
X74168000Y-34290000D02*
X69798500Y-34290000D01*
%TO.N,Net-(U2-X2)*%
X77470000Y-25908000D02*
X76200000Y-27178000D01*
X76200000Y-27178000D02*
X76200000Y-28137500D01*
X77470000Y-17780000D02*
X77470000Y-25908000D01*
X72620000Y-29210000D02*
X71120000Y-30710000D01*
X75127500Y-29210000D02*
X72620000Y-29210000D01*
X76200000Y-28137500D02*
X75127500Y-29210000D01*
X78740000Y-16510000D02*
X77470000Y-17780000D01*
%TO.N,GND*%
X60960000Y-26416000D02*
X62408000Y-27864000D01*
X63500000Y-16510000D02*
X60960000Y-19050000D01*
X60960000Y-19050000D02*
X60960000Y-26416000D01*
X62408000Y-56972000D02*
X58420000Y-60960000D01*
X62408000Y-27864000D02*
X62408000Y-56972000D01*
%TO.N,+3V0*%
X72390000Y-15240000D02*
X65414365Y-15240000D01*
X67310000Y-54610000D02*
X69850000Y-52070000D01*
X65094000Y-54610000D02*
X67310000Y-54610000D01*
X62808000Y-52324000D02*
X65094000Y-54610000D01*
X65414365Y-15240000D02*
X64770000Y-15884365D01*
X62808000Y-27432000D02*
X62808000Y-52324000D01*
X61360000Y-20428000D02*
X61360000Y-25984000D01*
X64770000Y-15884365D02*
X64770000Y-17018000D01*
X73660000Y-16510000D02*
X72390000Y-15240000D01*
X61360000Y-25984000D02*
X62808000Y-27432000D01*
X64770000Y-17018000D02*
X61360000Y-20428000D01*
%TO.N,A2*%
X74930000Y-24653818D02*
X73675818Y-25908000D01*
X64008000Y-27178000D02*
X64008000Y-43688000D01*
X76200000Y-16510000D02*
X74930000Y-17780000D01*
X64008000Y-43688000D02*
X66040000Y-45720000D01*
X73675818Y-25908000D02*
X65278000Y-25908000D01*
X65278000Y-25908000D02*
X64008000Y-27178000D01*
X74930000Y-17780000D02*
X74930000Y-24653818D01*
%TO.N,A0*%
X63608000Y-48368000D02*
X66040000Y-50800000D01*
X62160000Y-25272314D02*
X62160000Y-21180843D01*
X63608000Y-27724000D02*
X63608000Y-48368000D01*
X62160000Y-21180843D02*
X65560843Y-17780000D01*
X63608000Y-29210000D02*
X63608000Y-26720314D01*
X67310000Y-17780000D02*
X68580000Y-16510000D01*
X63608000Y-26720314D02*
X62160000Y-25272314D01*
X65560843Y-17780000D02*
X67310000Y-17780000D01*
%TO.N,D0*%
X63208000Y-52158314D02*
X64389686Y-53340000D01*
X64389686Y-53340000D02*
X66040000Y-53340000D01*
X61760000Y-25438000D02*
X63208000Y-26886000D01*
X61760000Y-20790000D02*
X61760000Y-25438000D01*
X66040000Y-16510000D02*
X61760000Y-20790000D01*
X63208000Y-26886000D02*
X63208000Y-52158314D01*
%TD*%
%TA.AperFunction,Conductor*%
%TO.N,GND*%
G36*
X82493039Y-14624685D02*
G01*
X82538794Y-14677489D01*
X82550000Y-14729000D01*
X82550000Y-62741000D01*
X82530315Y-62808039D01*
X82477511Y-62853794D01*
X82426000Y-62865000D01*
X57274000Y-62865000D01*
X57206961Y-62845315D01*
X57161206Y-62792511D01*
X57150000Y-62741000D01*
X57150000Y-61843681D01*
X57169685Y-61776642D01*
X57222489Y-61730887D01*
X57283731Y-61720063D01*
X57304729Y-61721715D01*
X57937037Y-61089408D01*
X57954075Y-61152993D01*
X58019901Y-61267007D01*
X58112993Y-61360099D01*
X58227007Y-61425925D01*
X58290590Y-61442962D01*
X57658282Y-62075269D01*
X57658282Y-62075270D01*
X57712449Y-62114624D01*
X57901782Y-62211095D01*
X58103870Y-62276757D01*
X58313754Y-62310000D01*
X58526246Y-62310000D01*
X58736127Y-62276757D01*
X58736130Y-62276757D01*
X58938217Y-62211095D01*
X59127554Y-62114622D01*
X59181716Y-62075270D01*
X59181717Y-62075270D01*
X58549408Y-61442962D01*
X58612993Y-61425925D01*
X58727007Y-61360099D01*
X58820099Y-61267007D01*
X58885925Y-61152993D01*
X58902962Y-61089408D01*
X59535270Y-61721717D01*
X59535270Y-61721716D01*
X59574622Y-61667554D01*
X59671095Y-61478217D01*
X59736757Y-61276130D01*
X59736757Y-61276127D01*
X59770000Y-61066246D01*
X59770000Y-60857682D01*
X64740000Y-60857682D01*
X64740000Y-61062317D01*
X64772009Y-61264417D01*
X64835244Y-61459031D01*
X64928141Y-61641350D01*
X64928147Y-61641359D01*
X64960523Y-61685921D01*
X64960524Y-61685922D01*
X65640000Y-61006446D01*
X65640000Y-61012661D01*
X65667259Y-61114394D01*
X65719920Y-61205606D01*
X65794394Y-61280080D01*
X65885606Y-61332741D01*
X65987339Y-61360000D01*
X65993553Y-61360000D01*
X65314076Y-62039474D01*
X65358650Y-62071859D01*
X65540968Y-62164755D01*
X65735582Y-62227990D01*
X65937683Y-62260000D01*
X66142317Y-62260000D01*
X66344417Y-62227990D01*
X66539031Y-62164755D01*
X66721349Y-62071859D01*
X66765921Y-62039474D01*
X66086447Y-61360000D01*
X66092661Y-61360000D01*
X66194394Y-61332741D01*
X66285606Y-61280080D01*
X66360080Y-61205606D01*
X66412741Y-61114394D01*
X66440000Y-61012661D01*
X66440000Y-61006448D01*
X67119474Y-61685922D01*
X67119474Y-61685921D01*
X67151859Y-61641349D01*
X67244755Y-61459031D01*
X67307990Y-61264417D01*
X67340000Y-61062317D01*
X67340000Y-60857690D01*
X67339998Y-60857674D01*
X67339817Y-60856530D01*
X72609500Y-60856530D01*
X72609500Y-61063469D01*
X72649868Y-61266412D01*
X72649870Y-61266420D01*
X72715939Y-61425925D01*
X72729059Y-61457598D01*
X72730664Y-61460000D01*
X72844024Y-61629657D01*
X72990342Y-61775975D01*
X72990345Y-61775977D01*
X73162402Y-61890941D01*
X73353580Y-61970130D01*
X73556530Y-62010499D01*
X73556534Y-62010500D01*
X73556535Y-62010500D01*
X73763466Y-62010500D01*
X73763467Y-62010499D01*
X73966420Y-61970130D01*
X74157598Y-61890941D01*
X74329655Y-61775977D01*
X74475977Y-61629655D01*
X74590941Y-61457598D01*
X74670130Y-61266420D01*
X74710500Y-61063465D01*
X74710500Y-61058543D01*
X80279499Y-61058543D01*
X80317947Y-61251829D01*
X80317950Y-61251839D01*
X80393364Y-61433907D01*
X80393371Y-61433920D01*
X80502860Y-61597781D01*
X80502863Y-61597785D01*
X80642214Y-61737136D01*
X80642218Y-61737139D01*
X80806079Y-61846628D01*
X80806092Y-61846635D01*
X80913058Y-61890941D01*
X80988165Y-61922051D01*
X80988169Y-61922051D01*
X80988170Y-61922052D01*
X81181456Y-61960500D01*
X81181459Y-61960500D01*
X81378543Y-61960500D01*
X81508582Y-61934632D01*
X81571835Y-61922051D01*
X81753914Y-61846632D01*
X81917782Y-61737139D01*
X82057139Y-61597782D01*
X82166632Y-61433914D01*
X82242051Y-61251835D01*
X82269390Y-61114394D01*
X82280500Y-61058543D01*
X82280500Y-60861456D01*
X82242052Y-60668170D01*
X82242051Y-60668169D01*
X82242051Y-60668165D01*
X82230352Y-60639920D01*
X82166635Y-60486092D01*
X82166628Y-60486079D01*
X82057139Y-60322218D01*
X82057136Y-60322214D01*
X81917785Y-60182863D01*
X81917781Y-60182860D01*
X81753920Y-60073371D01*
X81753907Y-60073364D01*
X81571839Y-59997950D01*
X81571829Y-59997947D01*
X81378543Y-59959500D01*
X81378541Y-59959500D01*
X81181459Y-59959500D01*
X81181457Y-59959500D01*
X80988170Y-59997947D01*
X80988160Y-59997950D01*
X80806092Y-60073364D01*
X80806079Y-60073371D01*
X80642218Y-60182860D01*
X80642214Y-60182863D01*
X80502863Y-60322214D01*
X80502860Y-60322218D01*
X80393371Y-60486079D01*
X80393364Y-60486092D01*
X80317950Y-60668160D01*
X80317947Y-60668170D01*
X80279500Y-60861456D01*
X80279500Y-60861459D01*
X80279500Y-61058541D01*
X80279500Y-61058543D01*
X80279499Y-61058543D01*
X74710500Y-61058543D01*
X74710500Y-60856535D01*
X74670130Y-60653580D01*
X74590941Y-60462402D01*
X74475977Y-60290345D01*
X74475975Y-60290342D01*
X74329657Y-60144024D01*
X74223916Y-60073371D01*
X74157598Y-60029059D01*
X74082492Y-59997949D01*
X73966420Y-59949870D01*
X73966412Y-59949868D01*
X73763469Y-59909500D01*
X73763465Y-59909500D01*
X73556535Y-59909500D01*
X73556530Y-59909500D01*
X73353587Y-59949868D01*
X73353579Y-59949870D01*
X73162403Y-60029058D01*
X72990342Y-60144024D01*
X72844024Y-60290342D01*
X72729058Y-60462403D01*
X72649870Y-60653579D01*
X72649868Y-60653587D01*
X72609500Y-60856530D01*
X67339817Y-60856530D01*
X67307990Y-60655582D01*
X67244755Y-60460968D01*
X67151859Y-60278650D01*
X67119474Y-60234077D01*
X67119474Y-60234076D01*
X66440000Y-60913551D01*
X66440000Y-60907339D01*
X66412741Y-60805606D01*
X66360080Y-60714394D01*
X66285606Y-60639920D01*
X66194394Y-60587259D01*
X66092661Y-60560000D01*
X66086446Y-60560000D01*
X66765922Y-59880524D01*
X66765921Y-59880523D01*
X66721359Y-59848147D01*
X66721350Y-59848141D01*
X66539031Y-59755244D01*
X66344417Y-59692009D01*
X66155731Y-59662124D01*
X66092596Y-59632194D01*
X66055665Y-59572883D01*
X66056663Y-59503020D01*
X66095273Y-59444788D01*
X66150938Y-59418034D01*
X66331835Y-59382051D01*
X66513914Y-59306632D01*
X66677782Y-59197139D01*
X66817139Y-59057782D01*
X66926632Y-58893914D01*
X66937175Y-58868462D01*
X66943721Y-58852655D01*
X67002051Y-58711835D01*
X67039520Y-58523469D01*
X67040500Y-58518543D01*
X67040500Y-58321456D01*
X67002052Y-58128170D01*
X67002051Y-58128169D01*
X67002051Y-58128165D01*
X66996009Y-58113579D01*
X66926635Y-57946092D01*
X66926628Y-57946079D01*
X66859565Y-57845712D01*
X66817139Y-57782218D01*
X66817136Y-57782214D01*
X66677785Y-57642863D01*
X66677781Y-57642860D01*
X66513920Y-57533371D01*
X66513907Y-57533364D01*
X66331839Y-57457950D01*
X66331829Y-57457947D01*
X66138543Y-57419500D01*
X66138541Y-57419500D01*
X65941459Y-57419500D01*
X65941457Y-57419500D01*
X65748170Y-57457947D01*
X65748160Y-57457950D01*
X65566092Y-57533364D01*
X65566079Y-57533371D01*
X65402218Y-57642860D01*
X65402214Y-57642863D01*
X65262863Y-57782214D01*
X65262860Y-57782218D01*
X65153371Y-57946079D01*
X65153364Y-57946092D01*
X65077950Y-58128160D01*
X65077947Y-58128170D01*
X65039500Y-58321456D01*
X65039500Y-58321459D01*
X65039500Y-58518541D01*
X65039500Y-58518543D01*
X65039499Y-58518543D01*
X65077947Y-58711829D01*
X65077950Y-58711839D01*
X65153364Y-58893907D01*
X65153371Y-58893920D01*
X65262860Y-59057781D01*
X65262863Y-59057785D01*
X65402214Y-59197136D01*
X65402218Y-59197139D01*
X65566079Y-59306628D01*
X65566092Y-59306635D01*
X65748160Y-59382049D01*
X65748165Y-59382051D01*
X65880674Y-59408409D01*
X65929061Y-59418034D01*
X65990972Y-59450419D01*
X66025546Y-59511134D01*
X66021807Y-59580904D01*
X65980940Y-59637576D01*
X65924269Y-59662124D01*
X65735581Y-59692010D01*
X65540968Y-59755244D01*
X65358644Y-59848143D01*
X65314077Y-59880523D01*
X65314077Y-59880524D01*
X65993554Y-60560000D01*
X65987339Y-60560000D01*
X65885606Y-60587259D01*
X65794394Y-60639920D01*
X65719920Y-60714394D01*
X65667259Y-60805606D01*
X65640000Y-60907339D01*
X65640000Y-60913553D01*
X64960524Y-60234077D01*
X64960523Y-60234077D01*
X64928143Y-60278644D01*
X64835244Y-60460968D01*
X64772009Y-60655582D01*
X64740000Y-60857682D01*
X59770000Y-60857682D01*
X59770000Y-60853753D01*
X59736757Y-60643872D01*
X59736757Y-60643869D01*
X59671095Y-60441782D01*
X59574624Y-60252449D01*
X59535270Y-60198282D01*
X59535269Y-60198282D01*
X58902962Y-60830590D01*
X58885925Y-60767007D01*
X58820099Y-60652993D01*
X58727007Y-60559901D01*
X58612993Y-60494075D01*
X58549409Y-60477037D01*
X59181716Y-59844728D01*
X59127550Y-59805375D01*
X58938216Y-59708904D01*
X58762026Y-59651656D01*
X58704350Y-59612218D01*
X58677152Y-59547860D01*
X58689067Y-59479013D01*
X58736311Y-59427538D01*
X58752882Y-59419168D01*
X58917598Y-59350941D01*
X59089655Y-59235977D01*
X59235977Y-59089655D01*
X59350941Y-58917598D01*
X59430130Y-58726420D01*
X59470500Y-58523465D01*
X59470500Y-58316535D01*
X59430130Y-58113580D01*
X59350941Y-57922402D01*
X59235977Y-57750345D01*
X59235975Y-57750342D01*
X59089657Y-57604024D01*
X58983916Y-57533371D01*
X58917598Y-57489059D01*
X58842492Y-57457949D01*
X58726420Y-57409870D01*
X58726412Y-57409868D01*
X58523469Y-57369500D01*
X58523465Y-57369500D01*
X58316535Y-57369500D01*
X58316530Y-57369500D01*
X58113587Y-57409868D01*
X58113579Y-57409870D01*
X57922403Y-57489058D01*
X57750342Y-57604024D01*
X57604024Y-57750342D01*
X57489058Y-57922403D01*
X57409870Y-58113579D01*
X57409868Y-58113587D01*
X57395617Y-58185232D01*
X57363232Y-58247143D01*
X57302517Y-58281717D01*
X57232747Y-58277978D01*
X57176075Y-58237111D01*
X57150494Y-58172093D01*
X57150000Y-58161041D01*
X57150000Y-56138958D01*
X57169685Y-56071919D01*
X57222489Y-56026164D01*
X57291647Y-56016220D01*
X57355203Y-56045245D01*
X57392977Y-56104023D01*
X57395617Y-56114767D01*
X57409868Y-56186412D01*
X57409870Y-56186420D01*
X57489058Y-56377596D01*
X57604024Y-56549657D01*
X57750342Y-56695975D01*
X57750345Y-56695977D01*
X57922402Y-56810941D01*
X58113580Y-56890130D01*
X58316530Y-56930499D01*
X58316534Y-56930500D01*
X58316535Y-56930500D01*
X58523466Y-56930500D01*
X58523467Y-56930499D01*
X58726420Y-56890130D01*
X58917598Y-56810941D01*
X59089655Y-56695977D01*
X59235977Y-56549655D01*
X59350941Y-56377598D01*
X59430130Y-56186420D01*
X59470500Y-55983465D01*
X59470500Y-55776535D01*
X59430130Y-55573580D01*
X59350941Y-55382402D01*
X59235977Y-55210345D01*
X59235975Y-55210342D01*
X59089657Y-55064024D01*
X58983916Y-54993371D01*
X58917598Y-54949059D01*
X58884219Y-54935233D01*
X58726420Y-54869870D01*
X58726412Y-54869868D01*
X58523469Y-54829500D01*
X58523465Y-54829500D01*
X58316535Y-54829500D01*
X58316530Y-54829500D01*
X58113587Y-54869868D01*
X58113579Y-54869870D01*
X57922403Y-54949058D01*
X57750342Y-55064024D01*
X57604024Y-55210342D01*
X57489058Y-55382403D01*
X57409870Y-55573579D01*
X57409868Y-55573587D01*
X57395617Y-55645232D01*
X57363232Y-55707143D01*
X57302517Y-55741717D01*
X57232747Y-55737978D01*
X57176075Y-55697111D01*
X57150494Y-55632093D01*
X57150000Y-55621041D01*
X57150000Y-53598958D01*
X57169685Y-53531919D01*
X57222489Y-53486164D01*
X57291647Y-53476220D01*
X57355203Y-53505245D01*
X57392977Y-53564023D01*
X57395617Y-53574767D01*
X57409868Y-53646412D01*
X57409870Y-53646420D01*
X57489058Y-53837596D01*
X57604024Y-54009657D01*
X57750342Y-54155975D01*
X57750345Y-54155977D01*
X57922402Y-54270941D01*
X58113580Y-54350130D01*
X58316530Y-54390499D01*
X58316534Y-54390500D01*
X58316535Y-54390500D01*
X58523466Y-54390500D01*
X58523467Y-54390499D01*
X58726420Y-54350130D01*
X58917598Y-54270941D01*
X59089655Y-54155977D01*
X59235977Y-54009655D01*
X59350941Y-53837598D01*
X59430130Y-53646420D01*
X59470500Y-53443465D01*
X59470500Y-53236535D01*
X59430130Y-53033580D01*
X59350941Y-52842402D01*
X59235977Y-52670345D01*
X59235975Y-52670342D01*
X59089657Y-52524024D01*
X58983916Y-52453371D01*
X58917598Y-52409059D01*
X58842492Y-52377949D01*
X58726420Y-52329870D01*
X58726412Y-52329868D01*
X58523469Y-52289500D01*
X58523465Y-52289500D01*
X58316535Y-52289500D01*
X58316530Y-52289500D01*
X58113587Y-52329868D01*
X58113579Y-52329870D01*
X57922403Y-52409058D01*
X57750342Y-52524024D01*
X57604024Y-52670342D01*
X57489058Y-52842403D01*
X57409870Y-53033579D01*
X57409868Y-53033587D01*
X57395617Y-53105232D01*
X57363232Y-53167143D01*
X57302517Y-53201717D01*
X57232747Y-53197978D01*
X57176075Y-53157111D01*
X57150494Y-53092093D01*
X57150000Y-53081041D01*
X57150000Y-51058958D01*
X57169685Y-50991919D01*
X57222489Y-50946164D01*
X57291647Y-50936220D01*
X57355203Y-50965245D01*
X57392977Y-51024023D01*
X57395617Y-51034767D01*
X57409868Y-51106412D01*
X57409870Y-51106420D01*
X57489058Y-51297596D01*
X57604024Y-51469657D01*
X57750342Y-51615975D01*
X57750345Y-51615977D01*
X57922402Y-51730941D01*
X58113580Y-51810130D01*
X58316530Y-51850499D01*
X58316534Y-51850500D01*
X58316535Y-51850500D01*
X58523466Y-51850500D01*
X58523467Y-51850499D01*
X58726420Y-51810130D01*
X58917598Y-51730941D01*
X59089655Y-51615977D01*
X59235977Y-51469655D01*
X59350941Y-51297598D01*
X59430130Y-51106420D01*
X59470500Y-50903465D01*
X59470500Y-50696535D01*
X59430130Y-50493580D01*
X59350941Y-50302402D01*
X59235977Y-50130345D01*
X59235975Y-50130342D01*
X59089657Y-49984024D01*
X58983916Y-49913371D01*
X58917598Y-49869059D01*
X58881882Y-49854265D01*
X58726420Y-49789870D01*
X58726412Y-49789868D01*
X58523469Y-49749500D01*
X58523465Y-49749500D01*
X58316535Y-49749500D01*
X58316530Y-49749500D01*
X58113587Y-49789868D01*
X58113579Y-49789870D01*
X57922403Y-49869058D01*
X57750342Y-49984024D01*
X57604024Y-50130342D01*
X57489058Y-50302403D01*
X57409870Y-50493579D01*
X57409868Y-50493587D01*
X57395617Y-50565232D01*
X57363232Y-50627143D01*
X57302517Y-50661717D01*
X57232747Y-50657978D01*
X57176075Y-50617111D01*
X57150494Y-50552093D01*
X57150000Y-50541041D01*
X57150000Y-48518958D01*
X57169685Y-48451919D01*
X57222489Y-48406164D01*
X57291647Y-48396220D01*
X57355203Y-48425245D01*
X57392977Y-48484023D01*
X57395617Y-48494767D01*
X57409868Y-48566412D01*
X57409870Y-48566420D01*
X57489058Y-48757596D01*
X57604024Y-48929657D01*
X57750342Y-49075975D01*
X57750345Y-49075977D01*
X57922402Y-49190941D01*
X58113580Y-49270130D01*
X58316530Y-49310499D01*
X58316534Y-49310500D01*
X58316535Y-49310500D01*
X58523466Y-49310500D01*
X58523467Y-49310499D01*
X58726420Y-49270130D01*
X58917598Y-49190941D01*
X59089655Y-49075977D01*
X59235977Y-48929655D01*
X59350941Y-48757598D01*
X59430130Y-48566420D01*
X59470500Y-48363465D01*
X59470500Y-48156535D01*
X59430130Y-47953580D01*
X59350941Y-47762402D01*
X59235977Y-47590345D01*
X59235975Y-47590342D01*
X59089657Y-47444024D01*
X58983916Y-47373371D01*
X58917598Y-47329059D01*
X58842492Y-47297949D01*
X58726420Y-47249870D01*
X58726412Y-47249868D01*
X58523469Y-47209500D01*
X58523465Y-47209500D01*
X58316535Y-47209500D01*
X58316530Y-47209500D01*
X58113587Y-47249868D01*
X58113579Y-47249870D01*
X57922403Y-47329058D01*
X57750342Y-47444024D01*
X57604024Y-47590342D01*
X57489058Y-47762403D01*
X57409870Y-47953579D01*
X57409868Y-47953587D01*
X57395617Y-48025232D01*
X57363232Y-48087143D01*
X57302517Y-48121717D01*
X57232747Y-48117978D01*
X57176075Y-48077111D01*
X57150494Y-48012093D01*
X57150000Y-48001041D01*
X57150000Y-45978958D01*
X57169685Y-45911919D01*
X57222489Y-45866164D01*
X57291647Y-45856220D01*
X57355203Y-45885245D01*
X57392977Y-45944023D01*
X57395617Y-45954767D01*
X57409868Y-46026412D01*
X57409870Y-46026420D01*
X57489058Y-46217596D01*
X57604024Y-46389657D01*
X57750342Y-46535975D01*
X57750345Y-46535977D01*
X57922402Y-46650941D01*
X58113580Y-46730130D01*
X58301453Y-46767500D01*
X58316530Y-46770499D01*
X58316534Y-46770500D01*
X58316535Y-46770500D01*
X58523466Y-46770500D01*
X58523467Y-46770499D01*
X58726420Y-46730130D01*
X58917598Y-46650941D01*
X59089655Y-46535977D01*
X59235977Y-46389655D01*
X59350941Y-46217598D01*
X59430130Y-46026420D01*
X59470500Y-45823465D01*
X59470500Y-45616535D01*
X59430130Y-45413580D01*
X59350941Y-45222402D01*
X59235977Y-45050345D01*
X59235975Y-45050342D01*
X59089657Y-44904024D01*
X58983916Y-44833371D01*
X58917598Y-44789059D01*
X58881882Y-44774265D01*
X58726420Y-44709870D01*
X58726412Y-44709868D01*
X58523469Y-44669500D01*
X58523465Y-44669500D01*
X58316535Y-44669500D01*
X58316530Y-44669500D01*
X58113587Y-44709868D01*
X58113579Y-44709870D01*
X57922403Y-44789058D01*
X57750342Y-44904024D01*
X57604024Y-45050342D01*
X57489058Y-45222403D01*
X57409870Y-45413579D01*
X57409868Y-45413587D01*
X57395617Y-45485232D01*
X57363232Y-45547143D01*
X57302517Y-45581717D01*
X57232747Y-45577978D01*
X57176075Y-45537111D01*
X57150494Y-45472093D01*
X57150000Y-45461041D01*
X57150000Y-43438958D01*
X57169685Y-43371919D01*
X57222489Y-43326164D01*
X57291647Y-43316220D01*
X57355203Y-43345245D01*
X57392977Y-43404023D01*
X57395617Y-43414767D01*
X57409868Y-43486412D01*
X57409870Y-43486420D01*
X57489058Y-43677596D01*
X57604024Y-43849657D01*
X57750342Y-43995975D01*
X57750345Y-43995977D01*
X57922402Y-44110941D01*
X58113580Y-44190130D01*
X58259324Y-44219120D01*
X58316530Y-44230499D01*
X58316534Y-44230500D01*
X58316535Y-44230500D01*
X58523466Y-44230500D01*
X58523467Y-44230499D01*
X58726420Y-44190130D01*
X58917598Y-44110941D01*
X59089655Y-43995977D01*
X59235977Y-43849655D01*
X59350941Y-43677598D01*
X59430130Y-43486420D01*
X59470500Y-43283465D01*
X59470500Y-43076535D01*
X59430130Y-42873580D01*
X59350941Y-42682402D01*
X59235977Y-42510345D01*
X59235975Y-42510342D01*
X59089657Y-42364024D01*
X58983916Y-42293371D01*
X58917598Y-42249059D01*
X58842492Y-42217949D01*
X58726420Y-42169870D01*
X58726412Y-42169868D01*
X58523469Y-42129500D01*
X58523465Y-42129500D01*
X58316535Y-42129500D01*
X58316530Y-42129500D01*
X58113587Y-42169868D01*
X58113579Y-42169870D01*
X57922403Y-42249058D01*
X57750342Y-42364024D01*
X57604024Y-42510342D01*
X57489058Y-42682403D01*
X57409870Y-42873579D01*
X57409868Y-42873587D01*
X57395617Y-42945232D01*
X57363232Y-43007143D01*
X57302517Y-43041717D01*
X57232747Y-43037978D01*
X57176075Y-42997111D01*
X57150494Y-42932093D01*
X57150000Y-42921041D01*
X57150000Y-40898958D01*
X57169685Y-40831919D01*
X57222489Y-40786164D01*
X57291647Y-40776220D01*
X57355203Y-40805245D01*
X57392977Y-40864023D01*
X57395617Y-40874767D01*
X57409868Y-40946412D01*
X57409870Y-40946420D01*
X57489058Y-41137596D01*
X57604024Y-41309657D01*
X57750342Y-41455975D01*
X57750345Y-41455977D01*
X57922402Y-41570941D01*
X58113580Y-41650130D01*
X58316530Y-41690499D01*
X58316534Y-41690500D01*
X58316535Y-41690500D01*
X58523466Y-41690500D01*
X58523467Y-41690499D01*
X58726420Y-41650130D01*
X58917598Y-41570941D01*
X59089655Y-41455977D01*
X59235977Y-41309655D01*
X59350941Y-41137598D01*
X59430130Y-40946420D01*
X59470500Y-40743465D01*
X59470500Y-40536535D01*
X59430130Y-40333580D01*
X59350941Y-40142402D01*
X59235977Y-39970345D01*
X59235975Y-39970342D01*
X59089657Y-39824024D01*
X58983916Y-39753371D01*
X58917598Y-39709059D01*
X58842492Y-39677949D01*
X58726420Y-39629870D01*
X58726412Y-39629868D01*
X58523469Y-39589500D01*
X58523465Y-39589500D01*
X58316535Y-39589500D01*
X58316530Y-39589500D01*
X58113587Y-39629868D01*
X58113579Y-39629870D01*
X57922403Y-39709058D01*
X57750342Y-39824024D01*
X57604024Y-39970342D01*
X57489058Y-40142403D01*
X57409870Y-40333579D01*
X57409868Y-40333587D01*
X57395617Y-40405232D01*
X57363232Y-40467143D01*
X57302517Y-40501717D01*
X57232747Y-40497978D01*
X57176075Y-40457111D01*
X57150494Y-40392093D01*
X57150000Y-40381041D01*
X57150000Y-38358958D01*
X57169685Y-38291919D01*
X57222489Y-38246164D01*
X57291647Y-38236220D01*
X57355203Y-38265245D01*
X57392977Y-38324023D01*
X57395617Y-38334767D01*
X57409868Y-38406412D01*
X57409870Y-38406420D01*
X57489058Y-38597596D01*
X57604024Y-38769657D01*
X57750342Y-38915975D01*
X57750345Y-38915977D01*
X57922402Y-39030941D01*
X58113580Y-39110130D01*
X58316530Y-39150499D01*
X58316534Y-39150500D01*
X58316535Y-39150500D01*
X58523466Y-39150500D01*
X58523467Y-39150499D01*
X58726420Y-39110130D01*
X58917598Y-39030941D01*
X59089655Y-38915977D01*
X59235977Y-38769655D01*
X59350941Y-38597598D01*
X59430130Y-38406420D01*
X59470500Y-38203465D01*
X59470500Y-37996535D01*
X59430130Y-37793580D01*
X59350941Y-37602402D01*
X59235977Y-37430345D01*
X59235975Y-37430342D01*
X59089657Y-37284024D01*
X58983916Y-37213371D01*
X58917598Y-37169059D01*
X58842492Y-37137949D01*
X58726420Y-37089870D01*
X58726412Y-37089868D01*
X58523469Y-37049500D01*
X58523465Y-37049500D01*
X58316535Y-37049500D01*
X58316530Y-37049500D01*
X58113587Y-37089868D01*
X58113579Y-37089870D01*
X57922403Y-37169058D01*
X57750342Y-37284024D01*
X57604024Y-37430342D01*
X57489058Y-37602403D01*
X57409870Y-37793579D01*
X57409868Y-37793587D01*
X57395617Y-37865232D01*
X57363232Y-37927143D01*
X57302517Y-37961717D01*
X57232747Y-37957978D01*
X57176075Y-37917111D01*
X57150494Y-37852093D01*
X57150000Y-37841041D01*
X57150000Y-35818958D01*
X57169685Y-35751919D01*
X57222489Y-35706164D01*
X57291647Y-35696220D01*
X57355203Y-35725245D01*
X57392977Y-35784023D01*
X57395617Y-35794767D01*
X57409868Y-35866412D01*
X57409870Y-35866420D01*
X57489058Y-36057596D01*
X57604024Y-36229657D01*
X57750342Y-36375975D01*
X57750345Y-36375977D01*
X57922402Y-36490941D01*
X58113580Y-36570130D01*
X58316530Y-36610499D01*
X58316534Y-36610500D01*
X58316535Y-36610500D01*
X58523466Y-36610500D01*
X58523467Y-36610499D01*
X58726420Y-36570130D01*
X58917598Y-36490941D01*
X59089655Y-36375977D01*
X59235977Y-36229655D01*
X59350941Y-36057598D01*
X59430130Y-35866420D01*
X59470500Y-35663465D01*
X59470500Y-35456535D01*
X59430130Y-35253580D01*
X59350941Y-35062402D01*
X59235977Y-34890345D01*
X59235975Y-34890342D01*
X59089657Y-34744024D01*
X58983916Y-34673371D01*
X58917598Y-34629059D01*
X58872032Y-34610185D01*
X58726420Y-34549870D01*
X58726412Y-34549868D01*
X58523469Y-34509500D01*
X58523465Y-34509500D01*
X58316535Y-34509500D01*
X58316530Y-34509500D01*
X58113587Y-34549868D01*
X58113579Y-34549870D01*
X57922403Y-34629058D01*
X57750342Y-34744024D01*
X57604024Y-34890342D01*
X57489058Y-35062403D01*
X57409870Y-35253579D01*
X57409868Y-35253587D01*
X57395617Y-35325232D01*
X57363232Y-35387143D01*
X57302517Y-35421717D01*
X57232747Y-35417978D01*
X57176075Y-35377111D01*
X57150494Y-35312093D01*
X57150000Y-35301041D01*
X57150000Y-33278958D01*
X57169685Y-33211919D01*
X57222489Y-33166164D01*
X57291647Y-33156220D01*
X57355203Y-33185245D01*
X57392977Y-33244023D01*
X57395617Y-33254767D01*
X57409868Y-33326412D01*
X57409870Y-33326420D01*
X57489058Y-33517596D01*
X57604024Y-33689657D01*
X57750342Y-33835975D01*
X57750345Y-33835977D01*
X57922402Y-33950941D01*
X58113580Y-34030130D01*
X58316530Y-34070499D01*
X58316534Y-34070500D01*
X58316535Y-34070500D01*
X58523466Y-34070500D01*
X58523467Y-34070499D01*
X58726420Y-34030130D01*
X58917598Y-33950941D01*
X59089655Y-33835977D01*
X59235977Y-33689655D01*
X59350941Y-33517598D01*
X59430130Y-33326420D01*
X59470500Y-33123465D01*
X59470500Y-32916535D01*
X59430130Y-32713580D01*
X59350941Y-32522402D01*
X59235977Y-32350345D01*
X59235975Y-32350342D01*
X59089657Y-32204024D01*
X58983916Y-32133371D01*
X58917598Y-32089059D01*
X58842492Y-32057949D01*
X58726420Y-32009870D01*
X58726412Y-32009868D01*
X58523469Y-31969500D01*
X58523465Y-31969500D01*
X58316535Y-31969500D01*
X58316530Y-31969500D01*
X58113587Y-32009868D01*
X58113579Y-32009870D01*
X57922403Y-32089058D01*
X57750342Y-32204024D01*
X57604024Y-32350342D01*
X57489058Y-32522403D01*
X57409870Y-32713579D01*
X57409868Y-32713587D01*
X57395617Y-32785232D01*
X57363232Y-32847143D01*
X57302517Y-32881717D01*
X57232747Y-32877978D01*
X57176075Y-32837111D01*
X57150494Y-32772093D01*
X57150000Y-32761041D01*
X57150000Y-30738958D01*
X57169685Y-30671919D01*
X57222489Y-30626164D01*
X57291647Y-30616220D01*
X57355203Y-30645245D01*
X57392977Y-30704023D01*
X57395617Y-30714767D01*
X57409868Y-30786412D01*
X57409870Y-30786420D01*
X57462851Y-30914328D01*
X57489059Y-30977598D01*
X57546541Y-31063626D01*
X57604024Y-31149657D01*
X57750342Y-31295975D01*
X57750345Y-31295977D01*
X57922402Y-31410941D01*
X58113580Y-31490130D01*
X58316530Y-31530499D01*
X58316534Y-31530500D01*
X58316535Y-31530500D01*
X58523466Y-31530500D01*
X58523467Y-31530499D01*
X58726420Y-31490130D01*
X58917598Y-31410941D01*
X59089655Y-31295977D01*
X59235977Y-31149655D01*
X59350941Y-30977598D01*
X59430130Y-30786420D01*
X59470500Y-30583465D01*
X59470500Y-30376535D01*
X59430130Y-30173580D01*
X59350941Y-29982402D01*
X59235977Y-29810345D01*
X59235975Y-29810342D01*
X59089657Y-29664024D01*
X58983916Y-29593371D01*
X58917598Y-29549059D01*
X58912190Y-29546819D01*
X58726420Y-29469870D01*
X58726412Y-29469868D01*
X58523469Y-29429500D01*
X58523465Y-29429500D01*
X58316535Y-29429500D01*
X58316530Y-29429500D01*
X58113587Y-29469868D01*
X58113579Y-29469870D01*
X57922403Y-29549058D01*
X57750342Y-29664024D01*
X57604024Y-29810342D01*
X57489058Y-29982403D01*
X57409870Y-30173579D01*
X57409868Y-30173587D01*
X57395617Y-30245232D01*
X57363232Y-30307143D01*
X57302517Y-30341717D01*
X57232747Y-30337978D01*
X57176075Y-30297111D01*
X57150494Y-30232093D01*
X57150000Y-30221041D01*
X57150000Y-28931089D01*
X57169685Y-28864050D01*
X57222489Y-28818295D01*
X57291647Y-28808351D01*
X57355203Y-28837376D01*
X57377102Y-28862198D01*
X57425447Y-28934552D01*
X57491769Y-28978867D01*
X57491770Y-28978868D01*
X57550247Y-28990499D01*
X57550250Y-28990500D01*
X57550252Y-28990500D01*
X59289750Y-28990500D01*
X59289751Y-28990499D01*
X59304568Y-28987552D01*
X59348229Y-28978868D01*
X59348229Y-28978867D01*
X59348231Y-28978867D01*
X59414552Y-28934552D01*
X59458867Y-28868231D01*
X59458867Y-28868229D01*
X59458868Y-28868229D01*
X59470499Y-28809752D01*
X59470500Y-28809750D01*
X59470500Y-27070249D01*
X59470499Y-27070247D01*
X59458868Y-27011770D01*
X59458867Y-27011769D01*
X59414552Y-26945447D01*
X59348230Y-26901132D01*
X59348229Y-26901131D01*
X59289752Y-26889500D01*
X59289748Y-26889500D01*
X57550252Y-26889500D01*
X57550247Y-26889500D01*
X57491770Y-26901131D01*
X57491769Y-26901132D01*
X57425448Y-26945446D01*
X57377102Y-27017802D01*
X57323489Y-27062606D01*
X57254164Y-27071313D01*
X57191137Y-27041158D01*
X57154418Y-26981715D01*
X57150000Y-26948910D01*
X57150000Y-20388438D01*
X61059500Y-20388438D01*
X61059500Y-26023562D01*
X61069739Y-26061775D01*
X61079979Y-26099991D01*
X61079981Y-26099994D01*
X61107963Y-26148459D01*
X61107964Y-26148460D01*
X61119540Y-26168511D01*
X61119542Y-26168514D01*
X61119543Y-26168515D01*
X62471181Y-27520152D01*
X62504666Y-27581475D01*
X62507500Y-27607833D01*
X62507500Y-52363562D01*
X62527979Y-52439989D01*
X62535705Y-52453371D01*
X62538846Y-52458810D01*
X62538847Y-52458814D01*
X62538848Y-52458814D01*
X62567540Y-52508511D01*
X64853540Y-54794511D01*
X64909489Y-54850460D01*
X64909491Y-54850461D01*
X64909495Y-54850464D01*
X64943108Y-54869870D01*
X64978011Y-54890021D01*
X65054438Y-54910500D01*
X65133562Y-54910500D01*
X65295216Y-54910500D01*
X65362255Y-54930185D01*
X65408010Y-54982989D01*
X65417954Y-55052147D01*
X65388929Y-55115703D01*
X65382897Y-55122181D01*
X65262863Y-55242214D01*
X65262860Y-55242218D01*
X65153371Y-55406079D01*
X65153364Y-55406092D01*
X65077950Y-55588160D01*
X65077947Y-55588170D01*
X65039500Y-55781456D01*
X65039500Y-55781459D01*
X65039500Y-55978541D01*
X65039500Y-55978543D01*
X65039499Y-55978543D01*
X65077947Y-56171829D01*
X65077950Y-56171839D01*
X65153364Y-56353907D01*
X65153371Y-56353920D01*
X65262860Y-56517781D01*
X65262863Y-56517785D01*
X65402214Y-56657136D01*
X65402218Y-56657139D01*
X65566079Y-56766628D01*
X65566092Y-56766635D01*
X65673058Y-56810941D01*
X65748165Y-56842051D01*
X65748169Y-56842051D01*
X65748170Y-56842052D01*
X65941456Y-56880500D01*
X65941459Y-56880500D01*
X66138543Y-56880500D01*
X66268582Y-56854632D01*
X66331835Y-56842051D01*
X66513914Y-56766632D01*
X66677782Y-56657139D01*
X66817139Y-56517782D01*
X66926632Y-56353914D01*
X67002051Y-56171835D01*
X67021926Y-56071919D01*
X67040500Y-55978543D01*
X67040500Y-55781456D01*
X67002052Y-55588170D01*
X67002051Y-55588169D01*
X67002051Y-55588165D01*
X66968774Y-55507827D01*
X66926635Y-55406092D01*
X66926628Y-55406079D01*
X66817139Y-55242218D01*
X66817136Y-55242214D01*
X66697103Y-55122181D01*
X66663618Y-55060858D01*
X66668602Y-54991166D01*
X66710474Y-54935233D01*
X66775938Y-54910816D01*
X66784784Y-54910500D01*
X67349560Y-54910500D01*
X67349562Y-54910500D01*
X67425989Y-54890021D01*
X67494511Y-54850460D01*
X67550460Y-54794511D01*
X68288320Y-54056650D01*
X68349642Y-54023166D01*
X68419333Y-54028150D01*
X68475267Y-54070022D01*
X68499684Y-54135486D01*
X68500000Y-54144332D01*
X68500000Y-54360000D01*
X69416988Y-54360000D01*
X69384075Y-54417007D01*
X69350000Y-54544174D01*
X69350000Y-54675826D01*
X69384075Y-54802993D01*
X69416988Y-54860000D01*
X68500000Y-54860000D01*
X68500000Y-55507844D01*
X68506401Y-55567372D01*
X68506403Y-55567379D01*
X68556645Y-55702086D01*
X68556649Y-55702093D01*
X68642809Y-55817187D01*
X68642812Y-55817190D01*
X68757906Y-55903350D01*
X68757913Y-55903354D01*
X68857708Y-55940575D01*
X68913642Y-55982446D01*
X68938059Y-56047910D01*
X68923208Y-56116183D01*
X68876375Y-56164144D01*
X68736196Y-56245075D01*
X68528148Y-56404718D01*
X68342718Y-56590148D01*
X68183075Y-56798196D01*
X68051958Y-57025299D01*
X68051953Y-57025309D01*
X67951605Y-57267571D01*
X67951602Y-57267581D01*
X67892258Y-57489059D01*
X67883730Y-57520885D01*
X67849500Y-57780872D01*
X67849500Y-58043127D01*
X67860697Y-58128170D01*
X67883730Y-58303116D01*
X67942773Y-58523469D01*
X67951602Y-58556418D01*
X67951605Y-58556428D01*
X68051953Y-58798690D01*
X68051958Y-58798700D01*
X68183075Y-59025803D01*
X68342718Y-59233851D01*
X68342726Y-59233860D01*
X68528140Y-59419274D01*
X68528148Y-59419281D01*
X68528149Y-59419282D01*
X68542288Y-59430131D01*
X68736196Y-59578924D01*
X68963299Y-59710041D01*
X68963309Y-59710046D01*
X69193454Y-59805375D01*
X69205581Y-59810398D01*
X69458884Y-59878270D01*
X69718880Y-59912500D01*
X69718887Y-59912500D01*
X69981113Y-59912500D01*
X69981120Y-59912500D01*
X70241116Y-59878270D01*
X70494419Y-59810398D01*
X70736697Y-59710043D01*
X70963803Y-59578924D01*
X71171851Y-59419282D01*
X71171855Y-59419277D01*
X71171860Y-59419274D01*
X71357274Y-59233860D01*
X71357277Y-59233855D01*
X71357282Y-59233851D01*
X71516924Y-59025803D01*
X71648043Y-58798697D01*
X71748398Y-58556419D01*
X71812676Y-58316530D01*
X72609500Y-58316530D01*
X72609500Y-58523469D01*
X72649868Y-58726412D01*
X72649870Y-58726420D01*
X72729058Y-58917596D01*
X72844024Y-59089657D01*
X72990342Y-59235975D01*
X72990345Y-59235977D01*
X73162402Y-59350941D01*
X73353580Y-59430130D01*
X73518855Y-59463005D01*
X73556530Y-59470499D01*
X73556534Y-59470500D01*
X73556535Y-59470500D01*
X73763466Y-59470500D01*
X73763467Y-59470499D01*
X73966420Y-59430130D01*
X74157598Y-59350941D01*
X74329655Y-59235977D01*
X74475977Y-59089655D01*
X74590941Y-58917598D01*
X74670130Y-58726420D01*
X74710500Y-58523465D01*
X74710500Y-58518543D01*
X80279499Y-58518543D01*
X80317947Y-58711829D01*
X80317950Y-58711839D01*
X80393364Y-58893907D01*
X80393371Y-58893920D01*
X80502860Y-59057781D01*
X80502863Y-59057785D01*
X80642214Y-59197136D01*
X80642218Y-59197139D01*
X80806079Y-59306628D01*
X80806092Y-59306635D01*
X80988160Y-59382049D01*
X80988165Y-59382051D01*
X80988169Y-59382051D01*
X80988170Y-59382052D01*
X81181456Y-59420500D01*
X81181459Y-59420500D01*
X81378543Y-59420500D01*
X81508582Y-59394632D01*
X81571835Y-59382051D01*
X81753914Y-59306632D01*
X81917782Y-59197139D01*
X82057139Y-59057782D01*
X82166632Y-58893914D01*
X82177175Y-58868462D01*
X82183721Y-58852655D01*
X82242051Y-58711835D01*
X82279520Y-58523469D01*
X82280500Y-58518543D01*
X82280500Y-58321456D01*
X82242052Y-58128170D01*
X82242051Y-58128169D01*
X82242051Y-58128165D01*
X82236009Y-58113579D01*
X82166635Y-57946092D01*
X82166628Y-57946079D01*
X82057139Y-57782218D01*
X82057136Y-57782214D01*
X81917785Y-57642863D01*
X81917781Y-57642860D01*
X81753920Y-57533371D01*
X81753907Y-57533364D01*
X81571839Y-57457950D01*
X81571829Y-57457947D01*
X81378543Y-57419500D01*
X81378541Y-57419500D01*
X81181459Y-57419500D01*
X81181457Y-57419500D01*
X80988170Y-57457947D01*
X80988160Y-57457950D01*
X80806092Y-57533364D01*
X80806079Y-57533371D01*
X80642218Y-57642860D01*
X80642214Y-57642863D01*
X80502863Y-57782214D01*
X80502860Y-57782218D01*
X80393371Y-57946079D01*
X80393364Y-57946092D01*
X80317950Y-58128160D01*
X80317947Y-58128170D01*
X80279500Y-58321456D01*
X80279500Y-58321459D01*
X80279500Y-58518541D01*
X80279500Y-58518543D01*
X80279499Y-58518543D01*
X74710500Y-58518543D01*
X74710500Y-58316535D01*
X74670130Y-58113580D01*
X74590941Y-57922402D01*
X74475977Y-57750345D01*
X74475975Y-57750342D01*
X74329657Y-57604024D01*
X74223916Y-57533371D01*
X74157598Y-57489059D01*
X74082492Y-57457949D01*
X73966420Y-57409870D01*
X73966412Y-57409868D01*
X73763469Y-57369500D01*
X73763465Y-57369500D01*
X73556535Y-57369500D01*
X73556530Y-57369500D01*
X73353587Y-57409868D01*
X73353579Y-57409870D01*
X73162403Y-57489058D01*
X72990342Y-57604024D01*
X72844024Y-57750342D01*
X72729058Y-57922403D01*
X72649870Y-58113579D01*
X72649868Y-58113587D01*
X72609500Y-58316530D01*
X71812676Y-58316530D01*
X71816270Y-58303116D01*
X71850500Y-58043120D01*
X71850500Y-57780880D01*
X71816270Y-57520884D01*
X71748398Y-57267581D01*
X71650204Y-57030520D01*
X71648046Y-57025309D01*
X71648041Y-57025299D01*
X71516924Y-56798196D01*
X71357281Y-56590148D01*
X71357274Y-56590140D01*
X71171860Y-56404726D01*
X71171851Y-56404718D01*
X70963803Y-56245075D01*
X70823624Y-56164144D01*
X70775409Y-56113578D01*
X70762185Y-56044971D01*
X70788153Y-55980106D01*
X70842292Y-55940575D01*
X70942084Y-55903355D01*
X70942093Y-55903350D01*
X71057186Y-55817190D01*
X71087624Y-55776530D01*
X72609500Y-55776530D01*
X72609500Y-55983469D01*
X72649868Y-56186412D01*
X72649870Y-56186420D01*
X72729058Y-56377596D01*
X72844024Y-56549657D01*
X72990342Y-56695975D01*
X72990345Y-56695977D01*
X73162402Y-56810941D01*
X73353580Y-56890130D01*
X73556530Y-56930499D01*
X73556534Y-56930500D01*
X73556535Y-56930500D01*
X73763466Y-56930500D01*
X73763467Y-56930499D01*
X73966420Y-56890130D01*
X74157598Y-56810941D01*
X74329655Y-56695977D01*
X74475977Y-56549655D01*
X74590941Y-56377598D01*
X74670130Y-56186420D01*
X74710500Y-55983465D01*
X74710500Y-55978543D01*
X80279499Y-55978543D01*
X80317947Y-56171829D01*
X80317950Y-56171839D01*
X80393364Y-56353907D01*
X80393371Y-56353920D01*
X80502860Y-56517781D01*
X80502863Y-56517785D01*
X80642214Y-56657136D01*
X80642218Y-56657139D01*
X80806079Y-56766628D01*
X80806092Y-56766635D01*
X80913058Y-56810941D01*
X80988165Y-56842051D01*
X80988169Y-56842051D01*
X80988170Y-56842052D01*
X81181456Y-56880500D01*
X81181459Y-56880500D01*
X81378543Y-56880500D01*
X81508582Y-56854632D01*
X81571835Y-56842051D01*
X81753914Y-56766632D01*
X81917782Y-56657139D01*
X82057139Y-56517782D01*
X82166632Y-56353914D01*
X82242051Y-56171835D01*
X82261926Y-56071919D01*
X82280500Y-55978543D01*
X82280500Y-55781456D01*
X82242052Y-55588170D01*
X82242051Y-55588169D01*
X82242051Y-55588165D01*
X82208774Y-55507827D01*
X82166635Y-55406092D01*
X82166628Y-55406079D01*
X82057139Y-55242218D01*
X82057136Y-55242214D01*
X81917785Y-55102863D01*
X81917781Y-55102860D01*
X81753920Y-54993371D01*
X81753907Y-54993364D01*
X81571839Y-54917950D01*
X81571829Y-54917947D01*
X81378543Y-54879500D01*
X81378541Y-54879500D01*
X81181459Y-54879500D01*
X81181457Y-54879500D01*
X80988170Y-54917947D01*
X80988160Y-54917950D01*
X80806092Y-54993364D01*
X80806079Y-54993371D01*
X80642218Y-55102860D01*
X80642214Y-55102863D01*
X80502863Y-55242214D01*
X80502860Y-55242218D01*
X80393371Y-55406079D01*
X80393364Y-55406092D01*
X80317950Y-55588160D01*
X80317947Y-55588170D01*
X80279500Y-55781456D01*
X80279500Y-55781459D01*
X80279500Y-55978541D01*
X80279500Y-55978543D01*
X80279499Y-55978543D01*
X74710500Y-55978543D01*
X74710500Y-55776535D01*
X74670130Y-55573580D01*
X74590941Y-55382402D01*
X74475977Y-55210345D01*
X74475975Y-55210342D01*
X74329657Y-55064024D01*
X74223916Y-54993371D01*
X74157598Y-54949059D01*
X74124219Y-54935233D01*
X73966420Y-54869870D01*
X73966412Y-54869868D01*
X73763469Y-54829500D01*
X73763465Y-54829500D01*
X73556535Y-54829500D01*
X73556530Y-54829500D01*
X73353587Y-54869868D01*
X73353579Y-54869870D01*
X73162403Y-54949058D01*
X72990342Y-55064024D01*
X72844024Y-55210342D01*
X72729058Y-55382403D01*
X72649870Y-55573579D01*
X72649868Y-55573587D01*
X72609500Y-55776530D01*
X71087624Y-55776530D01*
X71143353Y-55702087D01*
X71143354Y-55702086D01*
X71193596Y-55567379D01*
X71193598Y-55567372D01*
X71199999Y-55507844D01*
X71200000Y-55507827D01*
X71200000Y-54860000D01*
X70283012Y-54860000D01*
X70315925Y-54802993D01*
X70350000Y-54675826D01*
X70350000Y-54544174D01*
X70315925Y-54417007D01*
X70283012Y-54360000D01*
X71200000Y-54360000D01*
X71200000Y-53712172D01*
X71199999Y-53712155D01*
X71193598Y-53652627D01*
X71193596Y-53652620D01*
X71143354Y-53517913D01*
X71143350Y-53517906D01*
X71057190Y-53402812D01*
X70959538Y-53329709D01*
X70942089Y-53316647D01*
X70942086Y-53316645D01*
X70807379Y-53266403D01*
X70807372Y-53266401D01*
X70747844Y-53260000D01*
X70345565Y-53260000D01*
X70278526Y-53240315D01*
X70275246Y-53236530D01*
X72609500Y-53236530D01*
X72609500Y-53443469D01*
X72649868Y-53646412D01*
X72649870Y-53646420D01*
X72729058Y-53837596D01*
X72844024Y-54009657D01*
X72990342Y-54155975D01*
X72990345Y-54155977D01*
X73162402Y-54270941D01*
X73353580Y-54350130D01*
X73556530Y-54390499D01*
X73556534Y-54390500D01*
X73556535Y-54390500D01*
X73763466Y-54390500D01*
X73763467Y-54390499D01*
X73966420Y-54350130D01*
X74157598Y-54270941D01*
X74329655Y-54155977D01*
X74475977Y-54009655D01*
X74590941Y-53837598D01*
X74670130Y-53646420D01*
X74710500Y-53443465D01*
X74710500Y-53438543D01*
X80279499Y-53438543D01*
X80317947Y-53631829D01*
X80317950Y-53631839D01*
X80393364Y-53813907D01*
X80393371Y-53813920D01*
X80502860Y-53977781D01*
X80502863Y-53977785D01*
X80642214Y-54117136D01*
X80642218Y-54117139D01*
X80806079Y-54226628D01*
X80806092Y-54226635D01*
X80913058Y-54270941D01*
X80988165Y-54302051D01*
X80988169Y-54302051D01*
X80988170Y-54302052D01*
X81181456Y-54340500D01*
X81181459Y-54340500D01*
X81378543Y-54340500D01*
X81508582Y-54314632D01*
X81571835Y-54302051D01*
X81753914Y-54226632D01*
X81917782Y-54117139D01*
X82057139Y-53977782D01*
X82166632Y-53813914D01*
X82242051Y-53631835D01*
X82279520Y-53443469D01*
X82280500Y-53438543D01*
X82280500Y-53241456D01*
X82242052Y-53048170D01*
X82242051Y-53048169D01*
X82242051Y-53048165D01*
X82223418Y-53003181D01*
X82166635Y-52866092D01*
X82166628Y-52866079D01*
X82057139Y-52702218D01*
X82057136Y-52702214D01*
X81917785Y-52562863D01*
X81917781Y-52562860D01*
X81753920Y-52453371D01*
X81753907Y-52453364D01*
X81571839Y-52377950D01*
X81571829Y-52377947D01*
X81378543Y-52339500D01*
X81378541Y-52339500D01*
X81181459Y-52339500D01*
X81181457Y-52339500D01*
X80988170Y-52377947D01*
X80988160Y-52377950D01*
X80806092Y-52453364D01*
X80806079Y-52453371D01*
X80642218Y-52562860D01*
X80642214Y-52562863D01*
X80502863Y-52702214D01*
X80502860Y-52702218D01*
X80393371Y-52866079D01*
X80393364Y-52866092D01*
X80317950Y-53048160D01*
X80317947Y-53048170D01*
X80279500Y-53241456D01*
X80279500Y-53241459D01*
X80279500Y-53438541D01*
X80279500Y-53438543D01*
X80279499Y-53438543D01*
X74710500Y-53438543D01*
X74710500Y-53236535D01*
X74670130Y-53033580D01*
X74590941Y-52842402D01*
X74475977Y-52670345D01*
X74475975Y-52670342D01*
X74329657Y-52524024D01*
X74223916Y-52453371D01*
X74157598Y-52409059D01*
X74082492Y-52377949D01*
X73966420Y-52329870D01*
X73966412Y-52329868D01*
X73763469Y-52289500D01*
X73763465Y-52289500D01*
X73556535Y-52289500D01*
X73556530Y-52289500D01*
X73353587Y-52329868D01*
X73353579Y-52329870D01*
X73162403Y-52409058D01*
X72990342Y-52524024D01*
X72844024Y-52670342D01*
X72729058Y-52842403D01*
X72649870Y-53033579D01*
X72649868Y-53033587D01*
X72609500Y-53236530D01*
X70275246Y-53236530D01*
X70232771Y-53187511D01*
X70222827Y-53118353D01*
X70251852Y-53054797D01*
X70298112Y-53021439D01*
X70307969Y-53017356D01*
X70347598Y-53000941D01*
X70519655Y-52885977D01*
X70665977Y-52739655D01*
X70780941Y-52567598D01*
X70860130Y-52376420D01*
X70900500Y-52173465D01*
X70900500Y-51966535D01*
X70860130Y-51763580D01*
X70780941Y-51572402D01*
X70665977Y-51400345D01*
X70665975Y-51400342D01*
X70519657Y-51254024D01*
X70433626Y-51196541D01*
X70347598Y-51139059D01*
X70233575Y-51091829D01*
X70156420Y-51059870D01*
X70156412Y-51059868D01*
X69953469Y-51019500D01*
X69953465Y-51019500D01*
X69746535Y-51019500D01*
X69746530Y-51019500D01*
X69543587Y-51059868D01*
X69543579Y-51059870D01*
X69352403Y-51139058D01*
X69180342Y-51254024D01*
X69034024Y-51400342D01*
X68919058Y-51572403D01*
X68839870Y-51763579D01*
X68839868Y-51763587D01*
X68799500Y-51966530D01*
X68799500Y-52173469D01*
X68839868Y-52376412D01*
X68839871Y-52376424D01*
X68889803Y-52496971D01*
X68897272Y-52566440D01*
X68865997Y-52628919D01*
X68862923Y-52632104D01*
X67221848Y-54273181D01*
X67160525Y-54306666D01*
X67134167Y-54309500D01*
X66784784Y-54309500D01*
X66717745Y-54289815D01*
X66671990Y-54237011D01*
X66662046Y-54167853D01*
X66691071Y-54104297D01*
X66697103Y-54097819D01*
X66817136Y-53977785D01*
X66817139Y-53977782D01*
X66926632Y-53813914D01*
X67002051Y-53631835D01*
X67039520Y-53443469D01*
X67040500Y-53438543D01*
X67040500Y-53241456D01*
X67002052Y-53048170D01*
X67002051Y-53048169D01*
X67002051Y-53048165D01*
X66983418Y-53003181D01*
X66926635Y-52866092D01*
X66926628Y-52866079D01*
X66817139Y-52702218D01*
X66817136Y-52702214D01*
X66677785Y-52562863D01*
X66677781Y-52562860D01*
X66513920Y-52453371D01*
X66513907Y-52453364D01*
X66331839Y-52377950D01*
X66331829Y-52377947D01*
X66138543Y-52339500D01*
X66138541Y-52339500D01*
X65941459Y-52339500D01*
X65941457Y-52339500D01*
X65748170Y-52377947D01*
X65748160Y-52377950D01*
X65566092Y-52453364D01*
X65566079Y-52453371D01*
X65402218Y-52562860D01*
X65402214Y-52562863D01*
X65262863Y-52702214D01*
X65262860Y-52702218D01*
X65153371Y-52866079D01*
X65153364Y-52866092D01*
X65113245Y-52962952D01*
X65069405Y-53017356D01*
X65003111Y-53039421D01*
X64998684Y-53039500D01*
X64565519Y-53039500D01*
X64498480Y-53019815D01*
X64477838Y-53003181D01*
X63544819Y-52070162D01*
X63511334Y-52008839D01*
X63508500Y-51982481D01*
X63508500Y-48992833D01*
X63528185Y-48925794D01*
X63580989Y-48880039D01*
X63650147Y-48870095D01*
X63713703Y-48899120D01*
X63720181Y-48905152D01*
X65091192Y-50276163D01*
X65124677Y-50337486D01*
X65119693Y-50407178D01*
X65118073Y-50411295D01*
X65077948Y-50508168D01*
X65077947Y-50508171D01*
X65039500Y-50701456D01*
X65039500Y-50701459D01*
X65039500Y-50898541D01*
X65039500Y-50898543D01*
X65039499Y-50898543D01*
X65077947Y-51091829D01*
X65077950Y-51091839D01*
X65153364Y-51273907D01*
X65153371Y-51273920D01*
X65262860Y-51437781D01*
X65262863Y-51437785D01*
X65402214Y-51577136D01*
X65402218Y-51577139D01*
X65566079Y-51686628D01*
X65566092Y-51686635D01*
X65673058Y-51730941D01*
X65748165Y-51762051D01*
X65748169Y-51762051D01*
X65748170Y-51762052D01*
X65941456Y-51800500D01*
X65941459Y-51800500D01*
X66138543Y-51800500D01*
X66268582Y-51774632D01*
X66331835Y-51762051D01*
X66513914Y-51686632D01*
X66677782Y-51577139D01*
X66817139Y-51437782D01*
X66926632Y-51273914D01*
X67002051Y-51091835D01*
X67015540Y-51024023D01*
X67040500Y-50898543D01*
X67040500Y-50701456D01*
X67002052Y-50508170D01*
X67002051Y-50508169D01*
X67002051Y-50508165D01*
X66971714Y-50434924D01*
X66926635Y-50326092D01*
X66926628Y-50326079D01*
X66817139Y-50162218D01*
X66817136Y-50162214D01*
X66677785Y-50022863D01*
X66677781Y-50022860D01*
X66513920Y-49913371D01*
X66513907Y-49913364D01*
X66331839Y-49837950D01*
X66331829Y-49837947D01*
X66138543Y-49799500D01*
X66138541Y-49799500D01*
X65941459Y-49799500D01*
X65941457Y-49799500D01*
X65748171Y-49837947D01*
X65748168Y-49837948D01*
X65748166Y-49837948D01*
X65748165Y-49837949D01*
X65748163Y-49837950D01*
X65651295Y-49878073D01*
X65581826Y-49885540D01*
X65519347Y-49854265D01*
X65516163Y-49851192D01*
X64023514Y-48358543D01*
X65039499Y-48358543D01*
X65077947Y-48551829D01*
X65077950Y-48551839D01*
X65153364Y-48733907D01*
X65153371Y-48733920D01*
X65262860Y-48897781D01*
X65262863Y-48897785D01*
X65402214Y-49037136D01*
X65402218Y-49037139D01*
X65566079Y-49146628D01*
X65566092Y-49146635D01*
X65673058Y-49190941D01*
X65748165Y-49222051D01*
X65748169Y-49222051D01*
X65748170Y-49222052D01*
X65941456Y-49260500D01*
X65941459Y-49260500D01*
X66138543Y-49260500D01*
X66268582Y-49234632D01*
X66331835Y-49222051D01*
X66513914Y-49146632D01*
X66677782Y-49037139D01*
X66817139Y-48897782D01*
X66926632Y-48733914D01*
X66966822Y-48636886D01*
X66966828Y-48636872D01*
X67825500Y-48636872D01*
X67825500Y-48636880D01*
X67825500Y-48670032D01*
X67825500Y-48899120D01*
X67859730Y-49159116D01*
X67900293Y-49310499D01*
X67927602Y-49412418D01*
X67927605Y-49412428D01*
X68027953Y-49654690D01*
X68027958Y-49654700D01*
X68159075Y-49881803D01*
X68318718Y-50089851D01*
X68318726Y-50089860D01*
X68504140Y-50275274D01*
X68504148Y-50275281D01*
X68712196Y-50434924D01*
X68939299Y-50566041D01*
X68939309Y-50566046D01*
X69086811Y-50627143D01*
X69181581Y-50666398D01*
X69434884Y-50734270D01*
X69694880Y-50768500D01*
X69694887Y-50768500D01*
X69957113Y-50768500D01*
X69957120Y-50768500D01*
X70217116Y-50734270D01*
X70357964Y-50696530D01*
X72609500Y-50696530D01*
X72609500Y-50903469D01*
X72649868Y-51106412D01*
X72649870Y-51106420D01*
X72729058Y-51297596D01*
X72844024Y-51469657D01*
X72990342Y-51615975D01*
X72990345Y-51615977D01*
X73162402Y-51730941D01*
X73353580Y-51810130D01*
X73556530Y-51850499D01*
X73556534Y-51850500D01*
X73556535Y-51850500D01*
X73763466Y-51850500D01*
X73763467Y-51850499D01*
X73966420Y-51810130D01*
X74157598Y-51730941D01*
X74329655Y-51615977D01*
X74475977Y-51469655D01*
X74590941Y-51297598D01*
X74670130Y-51106420D01*
X74710500Y-50903465D01*
X74710500Y-50898543D01*
X80279499Y-50898543D01*
X80317947Y-51091829D01*
X80317950Y-51091839D01*
X80393364Y-51273907D01*
X80393371Y-51273920D01*
X80502860Y-51437781D01*
X80502863Y-51437785D01*
X80642214Y-51577136D01*
X80642218Y-51577139D01*
X80806079Y-51686628D01*
X80806092Y-51686635D01*
X80913058Y-51730941D01*
X80988165Y-51762051D01*
X80988169Y-51762051D01*
X80988170Y-51762052D01*
X81181456Y-51800500D01*
X81181459Y-51800500D01*
X81378543Y-51800500D01*
X81508582Y-51774632D01*
X81571835Y-51762051D01*
X81753914Y-51686632D01*
X81917782Y-51577139D01*
X82057139Y-51437782D01*
X82166632Y-51273914D01*
X82242051Y-51091835D01*
X82255540Y-51024023D01*
X82280500Y-50898543D01*
X82280500Y-50701456D01*
X82242052Y-50508170D01*
X82242051Y-50508169D01*
X82242051Y-50508165D01*
X82211714Y-50434924D01*
X82166635Y-50326092D01*
X82166628Y-50326079D01*
X82057139Y-50162218D01*
X82057136Y-50162214D01*
X81917785Y-50022863D01*
X81917781Y-50022860D01*
X81753920Y-49913371D01*
X81753907Y-49913364D01*
X81571839Y-49837950D01*
X81571829Y-49837947D01*
X81378543Y-49799500D01*
X81378541Y-49799500D01*
X81181459Y-49799500D01*
X81181457Y-49799500D01*
X80988170Y-49837947D01*
X80988160Y-49837950D01*
X80806092Y-49913364D01*
X80806079Y-49913371D01*
X80642218Y-50022860D01*
X80642214Y-50022863D01*
X80502863Y-50162214D01*
X80502860Y-50162218D01*
X80393371Y-50326079D01*
X80393364Y-50326092D01*
X80317950Y-50508160D01*
X80317947Y-50508170D01*
X80279500Y-50701456D01*
X80279500Y-50701459D01*
X80279500Y-50898541D01*
X80279500Y-50898543D01*
X80279499Y-50898543D01*
X74710500Y-50898543D01*
X74710500Y-50696535D01*
X74670130Y-50493580D01*
X74590941Y-50302402D01*
X74475977Y-50130345D01*
X74475975Y-50130342D01*
X74329657Y-49984024D01*
X74223916Y-49913371D01*
X74157598Y-49869059D01*
X74121882Y-49854265D01*
X73966420Y-49789870D01*
X73966412Y-49789868D01*
X73763469Y-49749500D01*
X73763465Y-49749500D01*
X73556535Y-49749500D01*
X73556530Y-49749500D01*
X73353587Y-49789868D01*
X73353579Y-49789870D01*
X73162403Y-49869058D01*
X72990342Y-49984024D01*
X72844024Y-50130342D01*
X72729058Y-50302403D01*
X72649870Y-50493579D01*
X72649868Y-50493587D01*
X72609500Y-50696530D01*
X70357964Y-50696530D01*
X70470419Y-50666398D01*
X70712697Y-50566043D01*
X70939803Y-50434924D01*
X71147851Y-50275282D01*
X71147855Y-50275277D01*
X71147860Y-50275274D01*
X71333274Y-50089860D01*
X71333277Y-50089855D01*
X71333282Y-50089851D01*
X71492924Y-49881803D01*
X71624043Y-49654697D01*
X71724398Y-49412419D01*
X71792270Y-49159116D01*
X71826500Y-48899120D01*
X71826500Y-48636880D01*
X71792270Y-48376884D01*
X71733227Y-48156530D01*
X72609500Y-48156530D01*
X72609500Y-48363469D01*
X72649868Y-48566412D01*
X72649870Y-48566420D01*
X72729058Y-48757596D01*
X72844024Y-48929657D01*
X72990342Y-49075975D01*
X72990345Y-49075977D01*
X73162402Y-49190941D01*
X73353580Y-49270130D01*
X73556530Y-49310499D01*
X73556534Y-49310500D01*
X73556535Y-49310500D01*
X73763466Y-49310500D01*
X73763467Y-49310499D01*
X73966420Y-49270130D01*
X74157598Y-49190941D01*
X74329655Y-49075977D01*
X74475977Y-48929655D01*
X74590941Y-48757598D01*
X74670130Y-48566420D01*
X74710500Y-48363465D01*
X74710500Y-48358543D01*
X80279499Y-48358543D01*
X80317947Y-48551829D01*
X80317950Y-48551839D01*
X80393364Y-48733907D01*
X80393371Y-48733920D01*
X80502860Y-48897781D01*
X80502863Y-48897785D01*
X80642214Y-49037136D01*
X80642218Y-49037139D01*
X80806079Y-49146628D01*
X80806092Y-49146635D01*
X80913058Y-49190941D01*
X80988165Y-49222051D01*
X80988169Y-49222051D01*
X80988170Y-49222052D01*
X81181456Y-49260500D01*
X81181459Y-49260500D01*
X81378543Y-49260500D01*
X81508582Y-49234632D01*
X81571835Y-49222051D01*
X81753914Y-49146632D01*
X81917782Y-49037139D01*
X82057139Y-48897782D01*
X82166632Y-48733914D01*
X82242051Y-48551835D01*
X82276851Y-48376885D01*
X82280500Y-48358543D01*
X82280500Y-48161456D01*
X82242052Y-47968170D01*
X82242051Y-47968169D01*
X82242051Y-47968165D01*
X82208233Y-47886520D01*
X82166635Y-47786092D01*
X82166628Y-47786079D01*
X82057139Y-47622218D01*
X82057136Y-47622214D01*
X81917785Y-47482863D01*
X81917781Y-47482860D01*
X81753920Y-47373371D01*
X81753907Y-47373364D01*
X81571839Y-47297950D01*
X81571829Y-47297947D01*
X81378543Y-47259500D01*
X81378541Y-47259500D01*
X81181459Y-47259500D01*
X81181457Y-47259500D01*
X80988170Y-47297947D01*
X80988160Y-47297950D01*
X80806092Y-47373364D01*
X80806079Y-47373371D01*
X80642218Y-47482860D01*
X80642214Y-47482863D01*
X80502863Y-47622214D01*
X80502860Y-47622218D01*
X80393371Y-47786079D01*
X80393364Y-47786092D01*
X80317950Y-47968160D01*
X80317947Y-47968170D01*
X80279500Y-48161456D01*
X80279500Y-48161459D01*
X80279500Y-48358541D01*
X80279500Y-48358543D01*
X80279499Y-48358543D01*
X74710500Y-48358543D01*
X74710500Y-48156535D01*
X74670130Y-47953580D01*
X74590941Y-47762402D01*
X74475977Y-47590345D01*
X74475975Y-47590342D01*
X74329657Y-47444024D01*
X74223916Y-47373371D01*
X74157598Y-47329059D01*
X74082492Y-47297949D01*
X73966420Y-47249870D01*
X73966412Y-47249868D01*
X73763469Y-47209500D01*
X73763465Y-47209500D01*
X73556535Y-47209500D01*
X73556530Y-47209500D01*
X73353587Y-47249868D01*
X73353579Y-47249870D01*
X73162403Y-47329058D01*
X72990342Y-47444024D01*
X72844024Y-47590342D01*
X72729058Y-47762403D01*
X72649870Y-47953579D01*
X72649868Y-47953587D01*
X72609500Y-48156530D01*
X71733227Y-48156530D01*
X71724398Y-48123581D01*
X71709305Y-48087143D01*
X71624046Y-47881309D01*
X71624041Y-47881299D01*
X71492924Y-47654196D01*
X71361452Y-47482861D01*
X71333282Y-47446149D01*
X71333281Y-47446148D01*
X71333274Y-47446140D01*
X71147860Y-47260726D01*
X71147851Y-47260718D01*
X70939803Y-47101075D01*
X70712700Y-46969958D01*
X70712690Y-46969953D01*
X70470428Y-46869605D01*
X70470421Y-46869603D01*
X70470419Y-46869602D01*
X70217116Y-46801730D01*
X70159339Y-46794123D01*
X69957127Y-46767500D01*
X69957120Y-46767500D01*
X69694880Y-46767500D01*
X69694872Y-46767500D01*
X69463772Y-46797926D01*
X69434884Y-46801730D01*
X69181581Y-46869602D01*
X69181571Y-46869605D01*
X68939309Y-46969953D01*
X68939299Y-46969958D01*
X68712196Y-47101075D01*
X68504148Y-47260718D01*
X68318718Y-47446148D01*
X68159075Y-47654196D01*
X68027958Y-47881299D01*
X68027953Y-47881309D01*
X67927605Y-48123571D01*
X67927602Y-48123581D01*
X67863326Y-48363466D01*
X67859730Y-48376885D01*
X67825500Y-48636872D01*
X66966828Y-48636872D01*
X66988161Y-48585369D01*
X66988161Y-48585368D01*
X67002051Y-48551835D01*
X67036851Y-48376885D01*
X67040500Y-48358543D01*
X67040500Y-48161456D01*
X67002052Y-47968170D01*
X67002051Y-47968169D01*
X67002051Y-47968165D01*
X66968233Y-47886520D01*
X66926635Y-47786092D01*
X66926628Y-47786079D01*
X66817139Y-47622218D01*
X66817136Y-47622214D01*
X66677785Y-47482863D01*
X66677781Y-47482860D01*
X66513920Y-47373371D01*
X66513907Y-47373364D01*
X66331839Y-47297950D01*
X66331829Y-47297947D01*
X66138543Y-47259500D01*
X66138541Y-47259500D01*
X65941459Y-47259500D01*
X65941457Y-47259500D01*
X65748170Y-47297947D01*
X65748160Y-47297950D01*
X65566092Y-47373364D01*
X65566079Y-47373371D01*
X65402218Y-47482860D01*
X65402214Y-47482863D01*
X65262863Y-47622214D01*
X65262860Y-47622218D01*
X65153371Y-47786079D01*
X65153364Y-47786092D01*
X65077950Y-47968160D01*
X65077947Y-47968170D01*
X65039500Y-48161456D01*
X65039500Y-48161459D01*
X65039500Y-48358541D01*
X65039500Y-48358543D01*
X65039499Y-48358543D01*
X64023514Y-48358543D01*
X63944819Y-48279848D01*
X63911334Y-48218525D01*
X63908500Y-48192167D01*
X63908500Y-44312833D01*
X63928185Y-44245794D01*
X63980989Y-44200039D01*
X64050147Y-44190095D01*
X64113703Y-44219120D01*
X64120181Y-44225152D01*
X65091192Y-45196163D01*
X65124677Y-45257486D01*
X65119693Y-45327178D01*
X65118073Y-45331295D01*
X65077948Y-45428168D01*
X65077947Y-45428171D01*
X65039500Y-45621456D01*
X65039500Y-45621459D01*
X65039500Y-45818541D01*
X65039500Y-45818543D01*
X65039499Y-45818543D01*
X65077947Y-46011829D01*
X65077950Y-46011839D01*
X65153364Y-46193907D01*
X65153371Y-46193920D01*
X65262860Y-46357781D01*
X65262863Y-46357785D01*
X65402214Y-46497136D01*
X65402218Y-46497139D01*
X65566079Y-46606628D01*
X65566092Y-46606635D01*
X65673058Y-46650941D01*
X65748165Y-46682051D01*
X65748169Y-46682051D01*
X65748170Y-46682052D01*
X65941456Y-46720500D01*
X65941459Y-46720500D01*
X66138543Y-46720500D01*
X66268582Y-46694632D01*
X66331835Y-46682051D01*
X66513914Y-46606632D01*
X66677782Y-46497139D01*
X66817139Y-46357782D01*
X66926632Y-46193914D01*
X67002051Y-46011835D01*
X67039520Y-45823469D01*
X67040500Y-45818543D01*
X67040500Y-45621456D01*
X67039520Y-45616530D01*
X72609500Y-45616530D01*
X72609500Y-45823469D01*
X72649868Y-46026412D01*
X72649870Y-46026420D01*
X72729058Y-46217596D01*
X72844024Y-46389657D01*
X72990342Y-46535975D01*
X72990345Y-46535977D01*
X73162402Y-46650941D01*
X73353580Y-46730130D01*
X73541453Y-46767500D01*
X73556530Y-46770499D01*
X73556534Y-46770500D01*
X73556535Y-46770500D01*
X73763466Y-46770500D01*
X73763467Y-46770499D01*
X73966420Y-46730130D01*
X74157598Y-46650941D01*
X74329655Y-46535977D01*
X74475977Y-46389655D01*
X74590941Y-46217598D01*
X74670130Y-46026420D01*
X74710500Y-45823465D01*
X74710500Y-45818543D01*
X80279499Y-45818543D01*
X80317947Y-46011829D01*
X80317950Y-46011839D01*
X80393364Y-46193907D01*
X80393371Y-46193920D01*
X80502860Y-46357781D01*
X80502863Y-46357785D01*
X80642214Y-46497136D01*
X80642218Y-46497139D01*
X80806079Y-46606628D01*
X80806092Y-46606635D01*
X80913058Y-46650941D01*
X80988165Y-46682051D01*
X80988169Y-46682051D01*
X80988170Y-46682052D01*
X81181456Y-46720500D01*
X81181459Y-46720500D01*
X81378543Y-46720500D01*
X81508582Y-46694632D01*
X81571835Y-46682051D01*
X81753914Y-46606632D01*
X81917782Y-46497139D01*
X82057139Y-46357782D01*
X82166632Y-46193914D01*
X82242051Y-46011835D01*
X82279520Y-45823469D01*
X82280500Y-45818543D01*
X82280500Y-45621456D01*
X82242052Y-45428170D01*
X82242051Y-45428169D01*
X82242051Y-45428165D01*
X82236009Y-45413579D01*
X82166635Y-45246092D01*
X82166628Y-45246079D01*
X82057139Y-45082218D01*
X82057136Y-45082214D01*
X81917785Y-44942863D01*
X81917781Y-44942860D01*
X81753920Y-44833371D01*
X81753907Y-44833364D01*
X81571839Y-44757950D01*
X81571829Y-44757947D01*
X81378543Y-44719500D01*
X81378541Y-44719500D01*
X81181459Y-44719500D01*
X81181457Y-44719500D01*
X80988170Y-44757947D01*
X80988160Y-44757950D01*
X80806092Y-44833364D01*
X80806079Y-44833371D01*
X80642218Y-44942860D01*
X80642214Y-44942863D01*
X80502863Y-45082214D01*
X80502860Y-45082218D01*
X80393371Y-45246079D01*
X80393364Y-45246092D01*
X80317950Y-45428160D01*
X80317947Y-45428170D01*
X80279500Y-45621456D01*
X80279500Y-45621459D01*
X80279500Y-45818541D01*
X80279500Y-45818543D01*
X80279499Y-45818543D01*
X74710500Y-45818543D01*
X74710500Y-45616535D01*
X74670130Y-45413580D01*
X74590941Y-45222402D01*
X74475977Y-45050345D01*
X74475975Y-45050342D01*
X74329657Y-44904024D01*
X74223916Y-44833371D01*
X74157598Y-44789059D01*
X74121882Y-44774265D01*
X73966420Y-44709870D01*
X73966412Y-44709868D01*
X73763469Y-44669500D01*
X73763465Y-44669500D01*
X73556535Y-44669500D01*
X73556530Y-44669500D01*
X73353587Y-44709868D01*
X73353579Y-44709870D01*
X73162403Y-44789058D01*
X72990342Y-44904024D01*
X72844024Y-45050342D01*
X72729058Y-45222403D01*
X72649870Y-45413579D01*
X72649868Y-45413587D01*
X72609500Y-45616530D01*
X67039520Y-45616530D01*
X67002052Y-45428170D01*
X67002051Y-45428169D01*
X67002051Y-45428165D01*
X66996009Y-45413579D01*
X66926635Y-45246092D01*
X66926628Y-45246079D01*
X66817139Y-45082218D01*
X66817136Y-45082214D01*
X66677785Y-44942863D01*
X66677781Y-44942860D01*
X66513920Y-44833371D01*
X66513907Y-44833364D01*
X66331839Y-44757950D01*
X66331829Y-44757947D01*
X66138543Y-44719500D01*
X66138541Y-44719500D01*
X65941459Y-44719500D01*
X65941457Y-44719500D01*
X65748171Y-44757947D01*
X65748168Y-44757948D01*
X65748166Y-44757948D01*
X65748165Y-44757949D01*
X65748163Y-44757950D01*
X65651295Y-44798073D01*
X65581826Y-44805540D01*
X65519347Y-44774265D01*
X65516163Y-44771192D01*
X64344819Y-43599848D01*
X64311334Y-43538525D01*
X64308500Y-43512167D01*
X64308500Y-43278543D01*
X65039499Y-43278543D01*
X65077947Y-43471829D01*
X65077950Y-43471839D01*
X65153364Y-43653907D01*
X65153371Y-43653920D01*
X65262860Y-43817781D01*
X65262863Y-43817785D01*
X65402214Y-43957136D01*
X65402218Y-43957139D01*
X65566079Y-44066628D01*
X65566092Y-44066635D01*
X65673058Y-44110941D01*
X65748165Y-44142051D01*
X65748169Y-44142051D01*
X65748170Y-44142052D01*
X65941456Y-44180500D01*
X65941459Y-44180500D01*
X66138543Y-44180500D01*
X66268582Y-44154632D01*
X66331835Y-44142051D01*
X66513914Y-44066632D01*
X66677782Y-43957139D01*
X66817139Y-43817782D01*
X66926632Y-43653914D01*
X67002051Y-43471835D01*
X67039520Y-43283469D01*
X67040500Y-43278543D01*
X67040500Y-43081456D01*
X67039520Y-43076530D01*
X72609500Y-43076530D01*
X72609500Y-43283469D01*
X72649868Y-43486412D01*
X72649870Y-43486420D01*
X72729058Y-43677596D01*
X72844024Y-43849657D01*
X72990342Y-43995975D01*
X72990345Y-43995977D01*
X73162402Y-44110941D01*
X73353580Y-44190130D01*
X73499324Y-44219120D01*
X73556530Y-44230499D01*
X73556534Y-44230500D01*
X73556535Y-44230500D01*
X73763466Y-44230500D01*
X73763467Y-44230499D01*
X73966420Y-44190130D01*
X74157598Y-44110941D01*
X74329655Y-43995977D01*
X74475977Y-43849655D01*
X74590941Y-43677598D01*
X74670130Y-43486420D01*
X74710500Y-43283465D01*
X74710500Y-43278543D01*
X80279499Y-43278543D01*
X80317947Y-43471829D01*
X80317950Y-43471839D01*
X80393364Y-43653907D01*
X80393371Y-43653920D01*
X80502860Y-43817781D01*
X80502863Y-43817785D01*
X80642214Y-43957136D01*
X80642218Y-43957139D01*
X80806079Y-44066628D01*
X80806092Y-44066635D01*
X80913058Y-44110941D01*
X80988165Y-44142051D01*
X80988169Y-44142051D01*
X80988170Y-44142052D01*
X81181456Y-44180500D01*
X81181459Y-44180500D01*
X81378543Y-44180500D01*
X81508582Y-44154632D01*
X81571835Y-44142051D01*
X81753914Y-44066632D01*
X81917782Y-43957139D01*
X82057139Y-43817782D01*
X82166632Y-43653914D01*
X82242051Y-43471835D01*
X82279520Y-43283469D01*
X82280500Y-43278543D01*
X82280500Y-43081456D01*
X82242052Y-42888170D01*
X82242051Y-42888169D01*
X82242051Y-42888165D01*
X82236009Y-42873579D01*
X82166635Y-42706092D01*
X82166628Y-42706079D01*
X82057139Y-42542218D01*
X82057136Y-42542214D01*
X81917785Y-42402863D01*
X81917781Y-42402860D01*
X81753920Y-42293371D01*
X81753907Y-42293364D01*
X81571839Y-42217950D01*
X81571829Y-42217947D01*
X81378543Y-42179500D01*
X81378541Y-42179500D01*
X81181459Y-42179500D01*
X81181457Y-42179500D01*
X80988170Y-42217947D01*
X80988160Y-42217950D01*
X80806092Y-42293364D01*
X80806079Y-42293371D01*
X80642218Y-42402860D01*
X80642214Y-42402863D01*
X80502863Y-42542214D01*
X80502860Y-42542218D01*
X80393371Y-42706079D01*
X80393364Y-42706092D01*
X80317950Y-42888160D01*
X80317947Y-42888170D01*
X80279500Y-43081456D01*
X80279500Y-43081459D01*
X80279500Y-43278541D01*
X80279500Y-43278543D01*
X80279499Y-43278543D01*
X74710500Y-43278543D01*
X74710500Y-43076535D01*
X74670130Y-42873580D01*
X74590941Y-42682402D01*
X74475977Y-42510345D01*
X74475975Y-42510342D01*
X74329657Y-42364024D01*
X74223916Y-42293371D01*
X74157598Y-42249059D01*
X74082492Y-42217949D01*
X73966420Y-42169870D01*
X73966412Y-42169868D01*
X73763469Y-42129500D01*
X73763465Y-42129500D01*
X73556535Y-42129500D01*
X73556530Y-42129500D01*
X73353587Y-42169868D01*
X73353579Y-42169870D01*
X73162403Y-42249058D01*
X72990342Y-42364024D01*
X72844024Y-42510342D01*
X72729058Y-42682403D01*
X72649870Y-42873579D01*
X72649868Y-42873587D01*
X72609500Y-43076530D01*
X67039520Y-43076530D01*
X67002052Y-42888170D01*
X67002051Y-42888169D01*
X67002051Y-42888165D01*
X66996009Y-42873579D01*
X66926635Y-42706092D01*
X66926628Y-42706079D01*
X66817139Y-42542218D01*
X66817136Y-42542214D01*
X66677785Y-42402863D01*
X66677781Y-42402860D01*
X66513920Y-42293371D01*
X66513907Y-42293364D01*
X66331839Y-42217950D01*
X66331829Y-42217947D01*
X66138543Y-42179500D01*
X66138541Y-42179500D01*
X65941459Y-42179500D01*
X65941457Y-42179500D01*
X65748170Y-42217947D01*
X65748160Y-42217950D01*
X65566092Y-42293364D01*
X65566079Y-42293371D01*
X65402218Y-42402860D01*
X65402214Y-42402863D01*
X65262863Y-42542214D01*
X65262860Y-42542218D01*
X65153371Y-42706079D01*
X65153364Y-42706092D01*
X65077950Y-42888160D01*
X65077947Y-42888170D01*
X65039500Y-43081456D01*
X65039500Y-43081459D01*
X65039500Y-43278541D01*
X65039500Y-43278543D01*
X65039499Y-43278543D01*
X64308500Y-43278543D01*
X64308500Y-40738543D01*
X65039499Y-40738543D01*
X65077947Y-40931829D01*
X65077950Y-40931839D01*
X65153364Y-41113907D01*
X65153371Y-41113920D01*
X65262860Y-41277781D01*
X65262863Y-41277785D01*
X65402214Y-41417136D01*
X65402218Y-41417139D01*
X65566079Y-41526628D01*
X65566092Y-41526635D01*
X65673058Y-41570941D01*
X65748165Y-41602051D01*
X65748169Y-41602051D01*
X65748170Y-41602052D01*
X65941456Y-41640500D01*
X65941459Y-41640500D01*
X66138543Y-41640500D01*
X66268582Y-41614632D01*
X66331835Y-41602051D01*
X66513914Y-41526632D01*
X66677782Y-41417139D01*
X66817139Y-41277782D01*
X66926632Y-41113914D01*
X67002051Y-40931835D01*
X67039520Y-40743469D01*
X67040500Y-40738543D01*
X67040500Y-40541456D01*
X67039520Y-40536530D01*
X72609500Y-40536530D01*
X72609500Y-40743469D01*
X72649868Y-40946412D01*
X72649870Y-40946420D01*
X72729058Y-41137596D01*
X72844024Y-41309657D01*
X72990342Y-41455975D01*
X72990345Y-41455977D01*
X73162402Y-41570941D01*
X73353580Y-41650130D01*
X73556530Y-41690499D01*
X73556534Y-41690500D01*
X73556535Y-41690500D01*
X73763466Y-41690500D01*
X73763467Y-41690499D01*
X73966420Y-41650130D01*
X74157598Y-41570941D01*
X74329655Y-41455977D01*
X74475977Y-41309655D01*
X74590941Y-41137598D01*
X74670130Y-40946420D01*
X74710500Y-40743465D01*
X74710500Y-40738543D01*
X80279499Y-40738543D01*
X80317947Y-40931829D01*
X80317950Y-40931839D01*
X80393364Y-41113907D01*
X80393371Y-41113920D01*
X80502860Y-41277781D01*
X80502863Y-41277785D01*
X80642214Y-41417136D01*
X80642218Y-41417139D01*
X80806079Y-41526628D01*
X80806092Y-41526635D01*
X80913058Y-41570941D01*
X80988165Y-41602051D01*
X80988169Y-41602051D01*
X80988170Y-41602052D01*
X81181456Y-41640500D01*
X81181459Y-41640500D01*
X81378543Y-41640500D01*
X81508582Y-41614632D01*
X81571835Y-41602051D01*
X81753914Y-41526632D01*
X81917782Y-41417139D01*
X82057139Y-41277782D01*
X82166632Y-41113914D01*
X82242051Y-40931835D01*
X82279520Y-40743469D01*
X82280500Y-40738543D01*
X82280500Y-40541456D01*
X82242052Y-40348170D01*
X82242051Y-40348169D01*
X82242051Y-40348165D01*
X82236009Y-40333579D01*
X82166635Y-40166092D01*
X82166628Y-40166079D01*
X82057139Y-40002218D01*
X82057136Y-40002214D01*
X81917785Y-39862863D01*
X81917781Y-39862860D01*
X81753920Y-39753371D01*
X81753907Y-39753364D01*
X81571839Y-39677950D01*
X81571829Y-39677947D01*
X81378543Y-39639500D01*
X81378541Y-39639500D01*
X81181459Y-39639500D01*
X81181457Y-39639500D01*
X80988170Y-39677947D01*
X80988160Y-39677950D01*
X80806092Y-39753364D01*
X80806079Y-39753371D01*
X80642218Y-39862860D01*
X80642214Y-39862863D01*
X80502863Y-40002214D01*
X80502860Y-40002218D01*
X80393371Y-40166079D01*
X80393364Y-40166092D01*
X80317950Y-40348160D01*
X80317947Y-40348170D01*
X80279500Y-40541456D01*
X80279500Y-40541459D01*
X80279500Y-40738541D01*
X80279500Y-40738543D01*
X80279499Y-40738543D01*
X74710500Y-40738543D01*
X74710500Y-40536535D01*
X74670130Y-40333580D01*
X74590941Y-40142402D01*
X74475977Y-39970345D01*
X74475975Y-39970342D01*
X74329657Y-39824024D01*
X74223916Y-39753371D01*
X74157598Y-39709059D01*
X74082492Y-39677949D01*
X73966420Y-39629870D01*
X73966412Y-39629868D01*
X73763469Y-39589500D01*
X73763465Y-39589500D01*
X73556535Y-39589500D01*
X73556530Y-39589500D01*
X73353587Y-39629868D01*
X73353579Y-39629870D01*
X73162403Y-39709058D01*
X72990342Y-39824024D01*
X72844024Y-39970342D01*
X72729058Y-40142403D01*
X72649870Y-40333579D01*
X72649868Y-40333587D01*
X72609500Y-40536530D01*
X67039520Y-40536530D01*
X67002052Y-40348170D01*
X67002051Y-40348169D01*
X67002051Y-40348165D01*
X66996009Y-40333579D01*
X66926635Y-40166092D01*
X66926628Y-40166079D01*
X66817139Y-40002218D01*
X66817136Y-40002214D01*
X66677785Y-39862863D01*
X66677781Y-39862860D01*
X66513920Y-39753371D01*
X66513907Y-39753364D01*
X66331839Y-39677950D01*
X66331829Y-39677947D01*
X66138543Y-39639500D01*
X66138541Y-39639500D01*
X65941459Y-39639500D01*
X65941457Y-39639500D01*
X65748170Y-39677947D01*
X65748160Y-39677950D01*
X65566092Y-39753364D01*
X65566079Y-39753371D01*
X65402218Y-39862860D01*
X65402214Y-39862863D01*
X65262863Y-40002214D01*
X65262860Y-40002218D01*
X65153371Y-40166079D01*
X65153364Y-40166092D01*
X65077950Y-40348160D01*
X65077947Y-40348170D01*
X65039500Y-40541456D01*
X65039500Y-40541459D01*
X65039500Y-40738541D01*
X65039500Y-40738543D01*
X65039499Y-40738543D01*
X64308500Y-40738543D01*
X64308500Y-38198543D01*
X65039499Y-38198543D01*
X65077947Y-38391829D01*
X65077950Y-38391839D01*
X65153364Y-38573907D01*
X65153371Y-38573920D01*
X65262860Y-38737781D01*
X65262863Y-38737785D01*
X65402214Y-38877136D01*
X65402218Y-38877139D01*
X65566079Y-38986628D01*
X65566092Y-38986635D01*
X65673058Y-39030941D01*
X65748165Y-39062051D01*
X65748169Y-39062051D01*
X65748170Y-39062052D01*
X65941456Y-39100500D01*
X65941459Y-39100500D01*
X66138543Y-39100500D01*
X66268582Y-39074632D01*
X66331835Y-39062051D01*
X66513914Y-38986632D01*
X66677782Y-38877139D01*
X66817139Y-38737782D01*
X66926632Y-38573914D01*
X67002051Y-38391835D01*
X67039520Y-38203469D01*
X67040500Y-38198543D01*
X67040500Y-38001456D01*
X67039520Y-37996530D01*
X72609500Y-37996530D01*
X72609500Y-38203469D01*
X72649868Y-38406412D01*
X72649870Y-38406420D01*
X72729058Y-38597596D01*
X72844024Y-38769657D01*
X72990342Y-38915975D01*
X72990345Y-38915977D01*
X73162402Y-39030941D01*
X73353580Y-39110130D01*
X73556530Y-39150499D01*
X73556534Y-39150500D01*
X73556535Y-39150500D01*
X73763466Y-39150500D01*
X73763467Y-39150499D01*
X73966420Y-39110130D01*
X74157598Y-39030941D01*
X74329655Y-38915977D01*
X74475977Y-38769655D01*
X74590941Y-38597598D01*
X74670130Y-38406420D01*
X74710500Y-38203465D01*
X74710500Y-38198543D01*
X80279499Y-38198543D01*
X80317947Y-38391829D01*
X80317950Y-38391839D01*
X80393364Y-38573907D01*
X80393371Y-38573920D01*
X80502860Y-38737781D01*
X80502863Y-38737785D01*
X80642214Y-38877136D01*
X80642218Y-38877139D01*
X80806079Y-38986628D01*
X80806092Y-38986635D01*
X80913058Y-39030941D01*
X80988165Y-39062051D01*
X80988169Y-39062051D01*
X80988170Y-39062052D01*
X81181456Y-39100500D01*
X81181459Y-39100500D01*
X81378543Y-39100500D01*
X81508582Y-39074632D01*
X81571835Y-39062051D01*
X81753914Y-38986632D01*
X81917782Y-38877139D01*
X82057139Y-38737782D01*
X82166632Y-38573914D01*
X82242051Y-38391835D01*
X82279520Y-38203469D01*
X82280500Y-38198543D01*
X82280500Y-38001456D01*
X82242052Y-37808170D01*
X82242051Y-37808169D01*
X82242051Y-37808165D01*
X82236009Y-37793579D01*
X82166635Y-37626092D01*
X82166628Y-37626079D01*
X82057139Y-37462218D01*
X82057136Y-37462214D01*
X81917785Y-37322863D01*
X81917781Y-37322860D01*
X81753920Y-37213371D01*
X81753907Y-37213364D01*
X81571839Y-37137950D01*
X81571829Y-37137947D01*
X81378543Y-37099500D01*
X81378541Y-37099500D01*
X81181459Y-37099500D01*
X81181457Y-37099500D01*
X80988170Y-37137947D01*
X80988160Y-37137950D01*
X80806092Y-37213364D01*
X80806079Y-37213371D01*
X80642218Y-37322860D01*
X80642214Y-37322863D01*
X80502863Y-37462214D01*
X80502860Y-37462218D01*
X80393371Y-37626079D01*
X80393364Y-37626092D01*
X80317950Y-37808160D01*
X80317947Y-37808170D01*
X80279500Y-38001456D01*
X80279500Y-38001459D01*
X80279500Y-38198541D01*
X80279500Y-38198543D01*
X80279499Y-38198543D01*
X74710500Y-38198543D01*
X74710500Y-37996535D01*
X74670130Y-37793580D01*
X74590941Y-37602402D01*
X74475977Y-37430345D01*
X74475975Y-37430342D01*
X74329657Y-37284024D01*
X74223916Y-37213371D01*
X74157598Y-37169059D01*
X74082492Y-37137949D01*
X73966420Y-37089870D01*
X73966412Y-37089868D01*
X73763469Y-37049500D01*
X73763465Y-37049500D01*
X73556535Y-37049500D01*
X73556530Y-37049500D01*
X73353587Y-37089868D01*
X73353579Y-37089870D01*
X73162403Y-37169058D01*
X72990342Y-37284024D01*
X72844024Y-37430342D01*
X72729058Y-37602403D01*
X72649870Y-37793579D01*
X72649868Y-37793587D01*
X72609500Y-37996530D01*
X67039520Y-37996530D01*
X67002052Y-37808170D01*
X67002051Y-37808169D01*
X67002051Y-37808165D01*
X66996009Y-37793579D01*
X66926635Y-37626092D01*
X66926628Y-37626079D01*
X66817139Y-37462218D01*
X66817136Y-37462214D01*
X66677785Y-37322863D01*
X66677781Y-37322860D01*
X66513920Y-37213371D01*
X66513907Y-37213364D01*
X66331839Y-37137950D01*
X66331829Y-37137947D01*
X66138543Y-37099500D01*
X66138541Y-37099500D01*
X65941459Y-37099500D01*
X65941457Y-37099500D01*
X65748170Y-37137947D01*
X65748160Y-37137950D01*
X65566092Y-37213364D01*
X65566079Y-37213371D01*
X65402218Y-37322860D01*
X65402214Y-37322863D01*
X65262863Y-37462214D01*
X65262860Y-37462218D01*
X65153371Y-37626079D01*
X65153364Y-37626092D01*
X65077950Y-37808160D01*
X65077947Y-37808170D01*
X65039500Y-38001456D01*
X65039500Y-38001459D01*
X65039500Y-38198541D01*
X65039500Y-38198543D01*
X65039499Y-38198543D01*
X64308500Y-38198543D01*
X64308500Y-35658543D01*
X65039499Y-35658543D01*
X65077947Y-35851829D01*
X65077950Y-35851839D01*
X65153364Y-36033907D01*
X65153371Y-36033920D01*
X65262860Y-36197781D01*
X65262863Y-36197785D01*
X65402214Y-36337136D01*
X65402218Y-36337139D01*
X65566079Y-36446628D01*
X65566092Y-36446635D01*
X65673058Y-36490941D01*
X65748165Y-36522051D01*
X65748169Y-36522051D01*
X65748170Y-36522052D01*
X65941456Y-36560500D01*
X65941459Y-36560500D01*
X66138543Y-36560500D01*
X66268582Y-36534632D01*
X66331835Y-36522051D01*
X66513914Y-36446632D01*
X66677782Y-36337139D01*
X66817139Y-36197782D01*
X66926632Y-36033914D01*
X67002051Y-35851835D01*
X67039520Y-35663469D01*
X67040500Y-35658543D01*
X67040500Y-35461456D01*
X67002052Y-35268170D01*
X67002051Y-35268169D01*
X67002051Y-35268165D01*
X66996009Y-35253579D01*
X66926635Y-35086092D01*
X66926628Y-35086079D01*
X66817139Y-34922218D01*
X66817136Y-34922214D01*
X66677785Y-34782863D01*
X66677781Y-34782860D01*
X66513920Y-34673371D01*
X66513907Y-34673364D01*
X66331839Y-34597950D01*
X66331829Y-34597947D01*
X66138543Y-34559500D01*
X66138541Y-34559500D01*
X65941459Y-34559500D01*
X65941457Y-34559500D01*
X65748170Y-34597947D01*
X65748160Y-34597950D01*
X65566092Y-34673364D01*
X65566079Y-34673371D01*
X65402218Y-34782860D01*
X65402214Y-34782863D01*
X65262863Y-34922214D01*
X65262860Y-34922218D01*
X65153371Y-35086079D01*
X65153364Y-35086092D01*
X65077950Y-35268160D01*
X65077947Y-35268170D01*
X65039500Y-35461456D01*
X65039500Y-35461459D01*
X65039500Y-35658541D01*
X65039500Y-35658543D01*
X65039499Y-35658543D01*
X64308500Y-35658543D01*
X64308500Y-33118543D01*
X65039499Y-33118543D01*
X65077947Y-33311829D01*
X65077950Y-33311839D01*
X65153364Y-33493907D01*
X65153371Y-33493920D01*
X65262860Y-33657781D01*
X65262863Y-33657785D01*
X65402214Y-33797136D01*
X65402218Y-33797139D01*
X65566079Y-33906628D01*
X65566092Y-33906635D01*
X65673058Y-33950941D01*
X65748165Y-33982051D01*
X65748169Y-33982051D01*
X65748170Y-33982052D01*
X65941456Y-34020500D01*
X65941459Y-34020500D01*
X66138543Y-34020500D01*
X66268582Y-33994632D01*
X66331835Y-33982051D01*
X66513914Y-33906632D01*
X66677782Y-33797139D01*
X66817139Y-33657782D01*
X66926632Y-33493914D01*
X67002051Y-33311835D01*
X67035370Y-33144332D01*
X67040500Y-33118543D01*
X67040500Y-32921456D01*
X67002052Y-32728170D01*
X67002051Y-32728169D01*
X67002051Y-32728165D01*
X66996009Y-32713579D01*
X66926635Y-32546092D01*
X66926628Y-32546079D01*
X66817139Y-32382218D01*
X66817136Y-32382214D01*
X66677785Y-32242863D01*
X66677781Y-32242860D01*
X66513920Y-32133371D01*
X66513907Y-32133364D01*
X66331839Y-32057950D01*
X66331829Y-32057947D01*
X66138543Y-32019500D01*
X66138541Y-32019500D01*
X65941459Y-32019500D01*
X65941457Y-32019500D01*
X65748170Y-32057947D01*
X65748160Y-32057950D01*
X65566092Y-32133364D01*
X65566079Y-32133371D01*
X65402218Y-32242860D01*
X65402214Y-32242863D01*
X65262863Y-32382214D01*
X65262860Y-32382218D01*
X65153371Y-32546079D01*
X65153364Y-32546092D01*
X65077950Y-32728160D01*
X65077947Y-32728170D01*
X65039500Y-32921456D01*
X65039500Y-32921459D01*
X65039500Y-33118541D01*
X65039500Y-33118543D01*
X65039499Y-33118543D01*
X64308500Y-33118543D01*
X64308500Y-30578543D01*
X65039499Y-30578543D01*
X65077947Y-30771829D01*
X65077950Y-30771839D01*
X65153364Y-30953907D01*
X65153371Y-30953920D01*
X65262860Y-31117781D01*
X65262863Y-31117785D01*
X65402214Y-31257136D01*
X65402218Y-31257139D01*
X65566079Y-31366628D01*
X65566092Y-31366635D01*
X65748160Y-31442049D01*
X65748165Y-31442051D01*
X65748169Y-31442051D01*
X65748170Y-31442052D01*
X65941456Y-31480500D01*
X65941459Y-31480500D01*
X66138543Y-31480500D01*
X66268582Y-31454632D01*
X66331835Y-31442051D01*
X66513914Y-31366632D01*
X66677782Y-31257139D01*
X66817139Y-31117782D01*
X66926632Y-30953914D01*
X67002051Y-30771835D01*
X67039520Y-30583469D01*
X67040500Y-30578543D01*
X67040500Y-30381456D01*
X67002052Y-30188170D01*
X67002051Y-30188169D01*
X67002051Y-30188165D01*
X66992823Y-30165886D01*
X66926635Y-30006092D01*
X66926628Y-30006079D01*
X66817139Y-29842218D01*
X66817136Y-29842214D01*
X66677785Y-29702863D01*
X66677781Y-29702860D01*
X66513920Y-29593371D01*
X66513907Y-29593364D01*
X66331839Y-29517950D01*
X66331829Y-29517947D01*
X66138543Y-29479500D01*
X66138541Y-29479500D01*
X65941459Y-29479500D01*
X65941457Y-29479500D01*
X65748170Y-29517947D01*
X65748160Y-29517950D01*
X65566092Y-29593364D01*
X65566079Y-29593371D01*
X65402218Y-29702860D01*
X65402214Y-29702863D01*
X65262863Y-29842214D01*
X65262860Y-29842218D01*
X65153371Y-30006079D01*
X65153364Y-30006092D01*
X65077950Y-30188160D01*
X65077947Y-30188170D01*
X65039500Y-30381456D01*
X65039500Y-30381459D01*
X65039500Y-30578541D01*
X65039500Y-30578543D01*
X65039499Y-30578543D01*
X64308500Y-30578543D01*
X64308500Y-27353833D01*
X64313816Y-27335730D01*
X65039500Y-27335730D01*
X65039500Y-28544269D01*
X65042353Y-28574699D01*
X65042353Y-28574701D01*
X65087206Y-28702880D01*
X65087207Y-28702882D01*
X65167850Y-28812150D01*
X65277118Y-28892793D01*
X65303576Y-28902051D01*
X65405299Y-28937646D01*
X65435730Y-28940500D01*
X65435734Y-28940500D01*
X66644270Y-28940500D01*
X66674699Y-28937646D01*
X66674701Y-28937646D01*
X66738790Y-28915219D01*
X66802882Y-28892793D01*
X66912150Y-28812150D01*
X66992793Y-28702882D01*
X67015219Y-28638790D01*
X67037646Y-28574701D01*
X67037646Y-28574699D01*
X67040500Y-28544269D01*
X67040500Y-27335730D01*
X67037646Y-27305300D01*
X67037646Y-27305298D01*
X66992793Y-27177119D01*
X66992792Y-27177117D01*
X66982270Y-27162860D01*
X66912150Y-27067850D01*
X66802882Y-26987207D01*
X66802880Y-26987206D01*
X66674700Y-26942353D01*
X66644270Y-26939500D01*
X66644266Y-26939500D01*
X65435734Y-26939500D01*
X65435730Y-26939500D01*
X65405300Y-26942353D01*
X65405298Y-26942353D01*
X65277119Y-26987206D01*
X65277117Y-26987207D01*
X65167850Y-27067850D01*
X65087207Y-27177117D01*
X65087206Y-27177119D01*
X65042353Y-27305298D01*
X65042353Y-27305300D01*
X65039500Y-27335730D01*
X64313816Y-27335730D01*
X64328185Y-27286794D01*
X64344819Y-27266152D01*
X65366152Y-26244819D01*
X65427475Y-26211334D01*
X65453833Y-26208500D01*
X73715378Y-26208500D01*
X73715380Y-26208500D01*
X73791807Y-26188021D01*
X73860329Y-26148460D01*
X73916278Y-26092511D01*
X75170460Y-24838329D01*
X75203847Y-24780500D01*
X75206486Y-24775929D01*
X75226184Y-24750261D01*
X75800000Y-24176445D01*
X75800000Y-24182661D01*
X75827259Y-24284394D01*
X75879920Y-24375606D01*
X75954394Y-24450080D01*
X76045606Y-24502741D01*
X76147339Y-24530000D01*
X76153552Y-24530000D01*
X75474076Y-25209474D01*
X75518650Y-25241859D01*
X75700968Y-25334755D01*
X75895582Y-25397990D01*
X76097683Y-25430000D01*
X76302317Y-25430000D01*
X76504417Y-25397990D01*
X76699031Y-25334755D01*
X76881349Y-25241859D01*
X76972614Y-25175551D01*
X77038420Y-25152071D01*
X77106474Y-25167896D01*
X77155169Y-25218001D01*
X77169500Y-25275869D01*
X77169500Y-25732167D01*
X77149815Y-25799206D01*
X77133181Y-25819848D01*
X75959541Y-26993487D01*
X75959535Y-26993495D01*
X75919982Y-27062004D01*
X75919979Y-27062009D01*
X75899500Y-27138439D01*
X75899500Y-27961667D01*
X75879815Y-28028706D01*
X75863181Y-28049348D01*
X75039348Y-28873181D01*
X74978025Y-28906666D01*
X74951667Y-28909500D01*
X74834500Y-28909500D01*
X74767461Y-28889815D01*
X74721706Y-28837011D01*
X74710500Y-28785500D01*
X74710500Y-27070249D01*
X74710499Y-27070247D01*
X74698868Y-27011770D01*
X74698867Y-27011769D01*
X74654552Y-26945447D01*
X74588230Y-26901132D01*
X74588229Y-26901131D01*
X74529752Y-26889500D01*
X74529748Y-26889500D01*
X72790252Y-26889500D01*
X72790247Y-26889500D01*
X72731770Y-26901131D01*
X72731769Y-26901132D01*
X72665447Y-26945447D01*
X72621132Y-27011769D01*
X72621131Y-27011770D01*
X72609500Y-27070247D01*
X72609500Y-28806564D01*
X72589815Y-28873603D01*
X72537011Y-28919358D01*
X72517599Y-28926337D01*
X72504016Y-28929977D01*
X72504004Y-28929982D01*
X72435495Y-28969535D01*
X72435487Y-28969541D01*
X71408128Y-29996899D01*
X71346805Y-30030384D01*
X71296256Y-30030835D01*
X71188997Y-30009500D01*
X71188993Y-30009500D01*
X71051007Y-30009500D01*
X71051005Y-30009500D01*
X70915677Y-30036418D01*
X70915667Y-30036421D01*
X70788195Y-30089221D01*
X70788182Y-30089228D01*
X70673458Y-30165885D01*
X70673454Y-30165888D01*
X70575888Y-30263454D01*
X70575885Y-30263458D01*
X70499228Y-30378182D01*
X70499221Y-30378195D01*
X70446421Y-30505667D01*
X70446418Y-30505677D01*
X70419500Y-30641004D01*
X70419500Y-30641007D01*
X70419500Y-30778993D01*
X70419500Y-30778995D01*
X70419499Y-30778995D01*
X70446418Y-30914322D01*
X70446421Y-30914332D01*
X70499221Y-31041804D01*
X70499228Y-31041817D01*
X70575885Y-31156541D01*
X70575888Y-31156545D01*
X70673454Y-31254111D01*
X70673458Y-31254114D01*
X70788182Y-31330771D01*
X70788195Y-31330778D01*
X70915667Y-31383578D01*
X70915672Y-31383580D01*
X70915676Y-31383580D01*
X70915677Y-31383581D01*
X71051004Y-31410500D01*
X71051007Y-31410500D01*
X71188995Y-31410500D01*
X71280041Y-31392389D01*
X71324328Y-31383580D01*
X71451811Y-31330775D01*
X71566542Y-31254114D01*
X71664114Y-31156542D01*
X71740775Y-31041811D01*
X71793580Y-30914328D01*
X71819023Y-30786420D01*
X71820500Y-30778995D01*
X71820500Y-30641004D01*
X71820499Y-30641002D01*
X71799164Y-30533741D01*
X71805391Y-30464150D01*
X71833097Y-30421872D01*
X72708152Y-29546819D01*
X72769475Y-29513334D01*
X72795833Y-29510500D01*
X72844505Y-29510500D01*
X72911544Y-29530185D01*
X72957299Y-29582989D01*
X72967243Y-29652147D01*
X72938218Y-29715703D01*
X72932186Y-29722181D01*
X72844025Y-29810341D01*
X72844024Y-29810342D01*
X72729058Y-29982403D01*
X72649870Y-30173579D01*
X72649868Y-30173587D01*
X72609500Y-30376530D01*
X72609500Y-30583469D01*
X72649868Y-30786412D01*
X72649870Y-30786420D01*
X72702851Y-30914328D01*
X72729059Y-30977598D01*
X72786541Y-31063626D01*
X72844024Y-31149657D01*
X72990342Y-31295975D01*
X72990345Y-31295977D01*
X73162402Y-31410941D01*
X73353580Y-31490130D01*
X73556530Y-31530499D01*
X73556534Y-31530500D01*
X73556535Y-31530500D01*
X73763466Y-31530500D01*
X73763467Y-31530499D01*
X73966420Y-31490130D01*
X74157598Y-31410941D01*
X74329655Y-31295977D01*
X74475977Y-31149655D01*
X74590941Y-30977598D01*
X74670130Y-30786420D01*
X74710500Y-30583465D01*
X74710500Y-30376535D01*
X74670130Y-30173580D01*
X74590941Y-29982402D01*
X74475977Y-29810345D01*
X74475975Y-29810342D01*
X74387814Y-29722181D01*
X74354329Y-29660858D01*
X74359313Y-29591166D01*
X74401185Y-29535233D01*
X74466649Y-29510816D01*
X74475495Y-29510500D01*
X75167060Y-29510500D01*
X75167062Y-29510500D01*
X75243489Y-29490021D01*
X75312011Y-29450460D01*
X75367960Y-29394511D01*
X76440460Y-28322011D01*
X76455769Y-28295495D01*
X76480021Y-28253489D01*
X76500500Y-28177062D01*
X76500500Y-27353833D01*
X76520185Y-27286794D01*
X76536819Y-27266152D01*
X77122219Y-26680752D01*
X77710460Y-26092511D01*
X77750021Y-26023989D01*
X77770500Y-25947562D01*
X77770500Y-24874784D01*
X77790185Y-24807745D01*
X77842989Y-24761990D01*
X77912147Y-24752046D01*
X77975703Y-24781071D01*
X77982181Y-24787103D01*
X78102214Y-24907136D01*
X78102218Y-24907139D01*
X78266079Y-25016628D01*
X78266092Y-25016635D01*
X78448160Y-25092049D01*
X78448165Y-25092051D01*
X78448169Y-25092051D01*
X78448170Y-25092052D01*
X78641456Y-25130500D01*
X78641459Y-25130500D01*
X78838543Y-25130500D01*
X79009564Y-25096481D01*
X79031835Y-25092051D01*
X79213914Y-25016632D01*
X79346609Y-24927967D01*
X79413286Y-24907090D01*
X79480666Y-24925574D01*
X79527357Y-24977553D01*
X79539500Y-25031070D01*
X79539500Y-26918167D01*
X79519815Y-26985206D01*
X79503181Y-27005848D01*
X75197541Y-31311487D01*
X75197535Y-31311495D01*
X75157982Y-31380004D01*
X75157979Y-31380009D01*
X75137500Y-31456439D01*
X75137500Y-32844166D01*
X75117815Y-32911205D01*
X75101181Y-32931847D01*
X74922181Y-33110847D01*
X74860858Y-33144332D01*
X74791166Y-33139348D01*
X74735233Y-33097476D01*
X74710816Y-33032012D01*
X74710500Y-33023166D01*
X74710500Y-32916534D01*
X74710499Y-32916530D01*
X74681769Y-32772093D01*
X74670130Y-32713580D01*
X74590941Y-32522402D01*
X74475977Y-32350345D01*
X74475975Y-32350342D01*
X74329657Y-32204024D01*
X74223916Y-32133371D01*
X74157598Y-32089059D01*
X74082492Y-32057949D01*
X73966420Y-32009870D01*
X73966412Y-32009868D01*
X73763469Y-31969500D01*
X73763465Y-31969500D01*
X73556535Y-31969500D01*
X73556530Y-31969500D01*
X73353587Y-32009868D01*
X73353579Y-32009870D01*
X73162403Y-32089058D01*
X72990342Y-32204024D01*
X72844024Y-32350342D01*
X72729058Y-32522403D01*
X72649870Y-32713579D01*
X72649868Y-32713587D01*
X72609500Y-32916530D01*
X72609500Y-33123469D01*
X72649868Y-33326412D01*
X72649870Y-33326420D01*
X72729058Y-33517596D01*
X72844024Y-33689657D01*
X72932186Y-33777819D01*
X72965671Y-33839142D01*
X72960687Y-33908834D01*
X72918815Y-33964767D01*
X72853351Y-33989184D01*
X72844505Y-33989500D01*
X69974333Y-33989500D01*
X69907294Y-33969815D01*
X69886652Y-33953181D01*
X68916819Y-32983348D01*
X68883334Y-32922025D01*
X68880500Y-32895667D01*
X68880500Y-31417975D01*
X68900185Y-31350936D01*
X68935607Y-31314874D01*
X69026542Y-31254114D01*
X69124114Y-31156542D01*
X69200775Y-31041811D01*
X69253580Y-30914328D01*
X69279023Y-30786420D01*
X69280500Y-30778995D01*
X69280500Y-30641004D01*
X69253581Y-30505677D01*
X69253580Y-30505676D01*
X69253580Y-30505672D01*
X69218868Y-30421869D01*
X69200778Y-30378195D01*
X69200771Y-30378182D01*
X69124114Y-30263458D01*
X69124111Y-30263454D01*
X69026545Y-30165888D01*
X69026541Y-30165885D01*
X68911817Y-30089228D01*
X68911804Y-30089221D01*
X68784332Y-30036421D01*
X68784322Y-30036418D01*
X68648995Y-30009500D01*
X68648993Y-30009500D01*
X68511007Y-30009500D01*
X68511005Y-30009500D01*
X68375677Y-30036418D01*
X68375667Y-30036421D01*
X68248195Y-30089221D01*
X68248182Y-30089228D01*
X68133458Y-30165885D01*
X68133454Y-30165888D01*
X68035888Y-30263454D01*
X68035885Y-30263458D01*
X67959228Y-30378182D01*
X67959221Y-30378195D01*
X67906421Y-30505667D01*
X67906418Y-30505677D01*
X67879500Y-30641004D01*
X67879500Y-30641007D01*
X67879500Y-30778993D01*
X67879500Y-30778995D01*
X67879499Y-30778995D01*
X67906418Y-30914322D01*
X67906421Y-30914332D01*
X67959221Y-31041804D01*
X67959228Y-31041817D01*
X68035885Y-31156541D01*
X68035888Y-31156545D01*
X68133455Y-31254112D01*
X68133458Y-31254114D01*
X68224391Y-31314874D01*
X68269196Y-31368484D01*
X68279500Y-31417975D01*
X68279500Y-33111062D01*
X68294265Y-33166164D01*
X68299979Y-33187489D01*
X68309805Y-33204507D01*
X68309806Y-33204511D01*
X68309807Y-33204511D01*
X68339540Y-33256011D01*
X69558040Y-34474511D01*
X69613989Y-34530460D01*
X69613991Y-34530461D01*
X69613995Y-34530464D01*
X69647608Y-34549870D01*
X69682511Y-34570021D01*
X69758938Y-34590500D01*
X72844505Y-34590500D01*
X72911544Y-34610185D01*
X72957299Y-34662989D01*
X72967243Y-34732147D01*
X72938218Y-34795703D01*
X72932186Y-34802181D01*
X72844025Y-34890341D01*
X72844024Y-34890342D01*
X72729058Y-35062403D01*
X72649870Y-35253579D01*
X72649868Y-35253587D01*
X72609500Y-35456530D01*
X72609500Y-35663469D01*
X72649868Y-35866412D01*
X72649870Y-35866420D01*
X72729058Y-36057596D01*
X72844024Y-36229657D01*
X72990342Y-36375975D01*
X72990345Y-36375977D01*
X73162402Y-36490941D01*
X73353580Y-36570130D01*
X73556530Y-36610499D01*
X73556534Y-36610500D01*
X73556535Y-36610500D01*
X73763466Y-36610500D01*
X73763467Y-36610499D01*
X73966420Y-36570130D01*
X74157598Y-36490941D01*
X74329655Y-36375977D01*
X74475977Y-36229655D01*
X74590941Y-36057598D01*
X74670130Y-35866420D01*
X74710500Y-35663465D01*
X74710500Y-35658543D01*
X80279499Y-35658543D01*
X80317947Y-35851829D01*
X80317950Y-35851839D01*
X80393364Y-36033907D01*
X80393371Y-36033920D01*
X80502860Y-36197781D01*
X80502863Y-36197785D01*
X80642214Y-36337136D01*
X80642218Y-36337139D01*
X80806079Y-36446628D01*
X80806092Y-36446635D01*
X80913058Y-36490941D01*
X80988165Y-36522051D01*
X80988169Y-36522051D01*
X80988170Y-36522052D01*
X81181456Y-36560500D01*
X81181459Y-36560500D01*
X81378543Y-36560500D01*
X81508582Y-36534632D01*
X81571835Y-36522051D01*
X81753914Y-36446632D01*
X81917782Y-36337139D01*
X82057139Y-36197782D01*
X82166632Y-36033914D01*
X82242051Y-35851835D01*
X82279520Y-35663469D01*
X82280500Y-35658543D01*
X82280500Y-35461456D01*
X82242052Y-35268170D01*
X82242051Y-35268169D01*
X82242051Y-35268165D01*
X82236009Y-35253579D01*
X82166635Y-35086092D01*
X82166628Y-35086079D01*
X82057139Y-34922218D01*
X82057136Y-34922214D01*
X81917785Y-34782863D01*
X81917781Y-34782860D01*
X81753920Y-34673371D01*
X81753907Y-34673364D01*
X81571839Y-34597950D01*
X81571829Y-34597947D01*
X81378543Y-34559500D01*
X81378541Y-34559500D01*
X81181459Y-34559500D01*
X81181457Y-34559500D01*
X80988170Y-34597947D01*
X80988160Y-34597950D01*
X80806092Y-34673364D01*
X80806079Y-34673371D01*
X80642218Y-34782860D01*
X80642214Y-34782863D01*
X80502863Y-34922214D01*
X80502860Y-34922218D01*
X80393371Y-35086079D01*
X80393364Y-35086092D01*
X80317950Y-35268160D01*
X80317947Y-35268170D01*
X80279500Y-35461456D01*
X80279500Y-35461459D01*
X80279500Y-35658541D01*
X80279500Y-35658543D01*
X80279499Y-35658543D01*
X74710500Y-35658543D01*
X74710500Y-35456535D01*
X74670130Y-35253580D01*
X74590941Y-35062402D01*
X74475977Y-34890345D01*
X74475975Y-34890342D01*
X74329658Y-34744025D01*
X74324947Y-34740159D01*
X74326748Y-34737963D01*
X74289748Y-34693628D01*
X74281088Y-34624297D01*
X74311286Y-34561290D01*
X74341482Y-34536827D01*
X74352511Y-34530460D01*
X74408460Y-34474511D01*
X75678460Y-33204511D01*
X75718021Y-33135989D01*
X75722696Y-33118543D01*
X80279499Y-33118543D01*
X80317947Y-33311829D01*
X80317950Y-33311839D01*
X80393364Y-33493907D01*
X80393371Y-33493920D01*
X80502860Y-33657781D01*
X80502863Y-33657785D01*
X80642214Y-33797136D01*
X80642218Y-33797139D01*
X80806079Y-33906628D01*
X80806092Y-33906635D01*
X80913058Y-33950941D01*
X80988165Y-33982051D01*
X80988169Y-33982051D01*
X80988170Y-33982052D01*
X81181456Y-34020500D01*
X81181459Y-34020500D01*
X81378543Y-34020500D01*
X81508582Y-33994632D01*
X81571835Y-33982051D01*
X81753914Y-33906632D01*
X81917782Y-33797139D01*
X82057139Y-33657782D01*
X82166632Y-33493914D01*
X82242051Y-33311835D01*
X82275370Y-33144332D01*
X82280500Y-33118543D01*
X82280500Y-32921456D01*
X82242052Y-32728170D01*
X82242051Y-32728169D01*
X82242051Y-32728165D01*
X82236009Y-32713579D01*
X82166635Y-32546092D01*
X82166628Y-32546079D01*
X82057139Y-32382218D01*
X82057136Y-32382214D01*
X81917785Y-32242863D01*
X81917781Y-32242860D01*
X81753920Y-32133371D01*
X81753907Y-32133364D01*
X81571839Y-32057950D01*
X81571829Y-32057947D01*
X81378543Y-32019500D01*
X81378541Y-32019500D01*
X81181459Y-32019500D01*
X81181457Y-32019500D01*
X80988170Y-32057947D01*
X80988160Y-32057950D01*
X80806092Y-32133364D01*
X80806079Y-32133371D01*
X80642218Y-32242860D01*
X80642214Y-32242863D01*
X80502863Y-32382214D01*
X80502860Y-32382218D01*
X80393371Y-32546079D01*
X80393364Y-32546092D01*
X80317950Y-32728160D01*
X80317947Y-32728170D01*
X80279500Y-32921456D01*
X80279500Y-32921459D01*
X80279500Y-33118541D01*
X80279500Y-33118543D01*
X80279499Y-33118543D01*
X75722696Y-33118543D01*
X75738500Y-33059562D01*
X75738500Y-31671833D01*
X75758185Y-31604794D01*
X75774819Y-31584152D01*
X76780428Y-30578543D01*
X80279499Y-30578543D01*
X80317947Y-30771829D01*
X80317950Y-30771839D01*
X80393364Y-30953907D01*
X80393371Y-30953920D01*
X80502860Y-31117781D01*
X80502863Y-31117785D01*
X80642214Y-31257136D01*
X80642218Y-31257139D01*
X80806079Y-31366628D01*
X80806092Y-31366635D01*
X80988160Y-31442049D01*
X80988165Y-31442051D01*
X80988169Y-31442051D01*
X80988170Y-31442052D01*
X81181456Y-31480500D01*
X81181459Y-31480500D01*
X81378543Y-31480500D01*
X81508582Y-31454632D01*
X81571835Y-31442051D01*
X81753914Y-31366632D01*
X81917782Y-31257139D01*
X82057139Y-31117782D01*
X82166632Y-30953914D01*
X82242051Y-30771835D01*
X82279520Y-30583469D01*
X82280500Y-30578543D01*
X82280500Y-30381456D01*
X82242052Y-30188170D01*
X82242051Y-30188169D01*
X82242051Y-30188165D01*
X82232823Y-30165886D01*
X82166635Y-30006092D01*
X82166628Y-30006079D01*
X82057139Y-29842218D01*
X82057136Y-29842214D01*
X81917785Y-29702863D01*
X81917781Y-29702860D01*
X81753920Y-29593371D01*
X81753907Y-29593364D01*
X81571839Y-29517950D01*
X81571829Y-29517947D01*
X81378543Y-29479500D01*
X81378541Y-29479500D01*
X81181459Y-29479500D01*
X81181457Y-29479500D01*
X80988170Y-29517947D01*
X80988160Y-29517950D01*
X80806092Y-29593364D01*
X80806079Y-29593371D01*
X80642218Y-29702860D01*
X80642214Y-29702863D01*
X80502863Y-29842214D01*
X80502860Y-29842218D01*
X80393371Y-30006079D01*
X80393364Y-30006092D01*
X80317950Y-30188160D01*
X80317947Y-30188170D01*
X80279500Y-30381456D01*
X80279500Y-30381459D01*
X80279500Y-30578541D01*
X80279500Y-30578543D01*
X80279499Y-30578543D01*
X76780428Y-30578543D01*
X79320428Y-28038543D01*
X80279499Y-28038543D01*
X80317947Y-28231829D01*
X80317950Y-28231839D01*
X80393364Y-28413907D01*
X80393371Y-28413920D01*
X80502860Y-28577781D01*
X80502863Y-28577785D01*
X80642214Y-28717136D01*
X80642218Y-28717139D01*
X80806079Y-28826628D01*
X80806092Y-28826635D01*
X80965814Y-28892793D01*
X80988165Y-28902051D01*
X80988169Y-28902051D01*
X80988170Y-28902052D01*
X81181456Y-28940500D01*
X81181459Y-28940500D01*
X81378543Y-28940500D01*
X81508582Y-28914632D01*
X81571835Y-28902051D01*
X81712655Y-28843721D01*
X81753907Y-28826635D01*
X81753907Y-28826634D01*
X81753914Y-28826632D01*
X81917782Y-28717139D01*
X82057139Y-28577782D01*
X82166632Y-28413914D01*
X82242051Y-28231835D01*
X82254632Y-28168582D01*
X82280500Y-28038543D01*
X82280500Y-27841456D01*
X82242052Y-27648170D01*
X82242051Y-27648169D01*
X82242051Y-27648165D01*
X82225345Y-27607833D01*
X82166635Y-27466092D01*
X82166628Y-27466079D01*
X82057139Y-27302218D01*
X82057136Y-27302214D01*
X81917785Y-27162863D01*
X81917781Y-27162860D01*
X81753920Y-27053371D01*
X81753907Y-27053364D01*
X81571839Y-26977950D01*
X81571829Y-26977947D01*
X81378543Y-26939500D01*
X81378541Y-26939500D01*
X81181459Y-26939500D01*
X81181457Y-26939500D01*
X80988170Y-26977947D01*
X80988160Y-26977950D01*
X80806092Y-27053364D01*
X80806079Y-27053371D01*
X80642218Y-27162860D01*
X80642214Y-27162863D01*
X80502863Y-27302214D01*
X80502860Y-27302218D01*
X80393371Y-27466079D01*
X80393364Y-27466092D01*
X80317950Y-27648160D01*
X80317947Y-27648170D01*
X80279500Y-27841456D01*
X80279500Y-27841459D01*
X80279500Y-28038541D01*
X80279500Y-28038543D01*
X80279499Y-28038543D01*
X79320428Y-28038543D01*
X79611285Y-27747686D01*
X79838819Y-27520152D01*
X80080460Y-27278511D01*
X80115198Y-27218342D01*
X80120021Y-27209989D01*
X80140500Y-27133562D01*
X80140500Y-24616826D01*
X80160185Y-24549787D01*
X80212989Y-24504032D01*
X80282147Y-24494088D01*
X80345703Y-24523113D01*
X80379062Y-24569375D01*
X80393367Y-24603913D01*
X80393371Y-24603920D01*
X80502860Y-24767781D01*
X80502863Y-24767785D01*
X80642214Y-24907136D01*
X80642218Y-24907139D01*
X80806079Y-25016628D01*
X80806092Y-25016635D01*
X80988160Y-25092049D01*
X80988165Y-25092051D01*
X80988169Y-25092051D01*
X80988170Y-25092052D01*
X81181456Y-25130500D01*
X81181459Y-25130500D01*
X81378543Y-25130500D01*
X81549564Y-25096481D01*
X81571835Y-25092051D01*
X81753914Y-25016632D01*
X81917782Y-24907139D01*
X82057139Y-24767782D01*
X82166632Y-24603914D01*
X82242051Y-24421835D01*
X82280500Y-24228541D01*
X82280500Y-24031459D01*
X82280500Y-24031456D01*
X82242052Y-23838170D01*
X82242051Y-23838169D01*
X82242051Y-23838165D01*
X82184274Y-23698678D01*
X82166635Y-23656092D01*
X82166628Y-23656079D01*
X82057139Y-23492218D01*
X82057136Y-23492214D01*
X81917785Y-23352863D01*
X81917781Y-23352860D01*
X81753920Y-23243371D01*
X81753907Y-23243364D01*
X81571839Y-23167950D01*
X81571829Y-23167947D01*
X81378543Y-23129500D01*
X81378541Y-23129500D01*
X81181459Y-23129500D01*
X81181457Y-23129500D01*
X80988170Y-23167947D01*
X80988160Y-23167950D01*
X80806092Y-23243364D01*
X80806079Y-23243371D01*
X80642218Y-23352860D01*
X80642214Y-23352863D01*
X80502863Y-23492214D01*
X80502860Y-23492218D01*
X80393371Y-23656079D01*
X80393364Y-23656092D01*
X80379061Y-23690625D01*
X80335220Y-23745029D01*
X80268926Y-23767094D01*
X80201227Y-23749815D01*
X80153616Y-23698678D01*
X80140500Y-23643173D01*
X80140500Y-18125833D01*
X80160185Y-18058794D01*
X80176819Y-18038152D01*
X80668152Y-17546819D01*
X80729475Y-17513334D01*
X80755833Y-17510500D01*
X81884270Y-17510500D01*
X81914699Y-17507646D01*
X81914701Y-17507646D01*
X81978790Y-17485219D01*
X82042882Y-17462793D01*
X82152150Y-17382150D01*
X82232793Y-17272882D01*
X82261323Y-17191349D01*
X82277646Y-17144701D01*
X82277646Y-17144699D01*
X82280500Y-17114269D01*
X82280500Y-15905730D01*
X82277646Y-15875300D01*
X82277646Y-15875298D01*
X82240229Y-15768369D01*
X82232793Y-15747118D01*
X82152150Y-15637850D01*
X82042882Y-15557207D01*
X82042880Y-15557206D01*
X81914700Y-15512353D01*
X81884270Y-15509500D01*
X81884266Y-15509500D01*
X80675734Y-15509500D01*
X80675730Y-15509500D01*
X80645300Y-15512353D01*
X80645298Y-15512353D01*
X80517119Y-15557206D01*
X80517117Y-15557207D01*
X80407850Y-15637850D01*
X80327207Y-15747117D01*
X80327206Y-15747119D01*
X80282353Y-15875298D01*
X80282353Y-15875300D01*
X80279500Y-15905730D01*
X80279500Y-17034167D01*
X80259815Y-17101206D01*
X80243181Y-17121848D01*
X79599541Y-17765487D01*
X79599535Y-17765495D01*
X79559982Y-17834004D01*
X79559979Y-17834009D01*
X79539500Y-17910439D01*
X79539500Y-23228929D01*
X79519815Y-23295968D01*
X79467011Y-23341723D01*
X79397853Y-23351667D01*
X79346609Y-23332031D01*
X79213920Y-23243371D01*
X79213907Y-23243364D01*
X79031839Y-23167950D01*
X79031829Y-23167947D01*
X78838543Y-23129500D01*
X78838541Y-23129500D01*
X78641459Y-23129500D01*
X78641457Y-23129500D01*
X78448170Y-23167947D01*
X78448160Y-23167950D01*
X78266092Y-23243364D01*
X78266079Y-23243371D01*
X78102218Y-23352860D01*
X78102214Y-23352863D01*
X77982181Y-23472897D01*
X77920858Y-23506382D01*
X77851166Y-23501398D01*
X77795233Y-23459526D01*
X77770816Y-23394062D01*
X77770500Y-23385216D01*
X77770500Y-17955832D01*
X77790185Y-17888793D01*
X77806815Y-17868155D01*
X78216165Y-17458804D01*
X78277486Y-17425321D01*
X78347177Y-17430305D01*
X78351254Y-17431909D01*
X78448165Y-17472051D01*
X78448169Y-17472051D01*
X78448170Y-17472052D01*
X78641456Y-17510500D01*
X78641459Y-17510500D01*
X78838543Y-17510500D01*
X78968582Y-17484632D01*
X79031835Y-17472051D01*
X79213914Y-17396632D01*
X79377782Y-17287139D01*
X79517139Y-17147782D01*
X79626632Y-16983914D01*
X79702051Y-16801835D01*
X79738034Y-16620938D01*
X79740500Y-16608543D01*
X79740500Y-16411456D01*
X79702052Y-16218170D01*
X79702051Y-16218169D01*
X79702051Y-16218165D01*
X79690352Y-16189920D01*
X79626635Y-16036092D01*
X79626628Y-16036079D01*
X79517139Y-15872218D01*
X79517136Y-15872214D01*
X79377785Y-15732863D01*
X79377781Y-15732860D01*
X79213920Y-15623371D01*
X79213907Y-15623364D01*
X79031839Y-15547950D01*
X79031829Y-15547947D01*
X78838543Y-15509500D01*
X78838541Y-15509500D01*
X78641459Y-15509500D01*
X78641457Y-15509500D01*
X78448170Y-15547947D01*
X78448160Y-15547950D01*
X78266092Y-15623364D01*
X78266079Y-15623371D01*
X78102218Y-15732860D01*
X78102214Y-15732863D01*
X77962863Y-15872214D01*
X77962860Y-15872218D01*
X77853371Y-16036079D01*
X77853364Y-16036092D01*
X77777950Y-16218160D01*
X77777947Y-16218170D01*
X77739500Y-16411456D01*
X77739500Y-16411459D01*
X77739500Y-16608541D01*
X77739500Y-16608543D01*
X77739499Y-16608543D01*
X77777947Y-16801829D01*
X77777950Y-16801839D01*
X77818072Y-16898702D01*
X77825541Y-16968171D01*
X77794266Y-17030650D01*
X77791192Y-17033835D01*
X77285489Y-17539540D01*
X77229541Y-17595487D01*
X77229535Y-17595495D01*
X77189982Y-17664004D01*
X77189979Y-17664009D01*
X77169500Y-17740439D01*
X77169500Y-22984130D01*
X77149815Y-23051169D01*
X77097011Y-23096924D01*
X77027853Y-23106868D01*
X76972615Y-23084448D01*
X76881352Y-23018142D01*
X76699031Y-22925244D01*
X76504417Y-22862009D01*
X76302317Y-22830000D01*
X76097683Y-22830000D01*
X75895582Y-22862009D01*
X75700968Y-22925244D01*
X75518647Y-23018142D01*
X75427385Y-23084448D01*
X75361579Y-23107928D01*
X75293525Y-23092103D01*
X75244830Y-23041997D01*
X75230500Y-22984130D01*
X75230500Y-17955832D01*
X75250185Y-17888793D01*
X75266815Y-17868155D01*
X75676165Y-17458804D01*
X75737486Y-17425321D01*
X75807177Y-17430305D01*
X75811254Y-17431909D01*
X75908165Y-17472051D01*
X75908169Y-17472051D01*
X75908170Y-17472052D01*
X76101456Y-17510500D01*
X76101459Y-17510500D01*
X76298543Y-17510500D01*
X76428582Y-17484632D01*
X76491835Y-17472051D01*
X76673914Y-17396632D01*
X76837782Y-17287139D01*
X76977139Y-17147782D01*
X77086632Y-16983914D01*
X77162051Y-16801835D01*
X77198034Y-16620938D01*
X77200500Y-16608543D01*
X77200500Y-16411456D01*
X77162052Y-16218170D01*
X77162051Y-16218169D01*
X77162051Y-16218165D01*
X77150352Y-16189920D01*
X77086635Y-16036092D01*
X77086628Y-16036079D01*
X76977139Y-15872218D01*
X76977136Y-15872214D01*
X76837785Y-15732863D01*
X76837781Y-15732860D01*
X76673920Y-15623371D01*
X76673907Y-15623364D01*
X76491839Y-15547950D01*
X76491829Y-15547947D01*
X76298543Y-15509500D01*
X76298541Y-15509500D01*
X76101459Y-15509500D01*
X76101457Y-15509500D01*
X75908170Y-15547947D01*
X75908160Y-15547950D01*
X75726092Y-15623364D01*
X75726079Y-15623371D01*
X75562218Y-15732860D01*
X75562214Y-15732863D01*
X75422863Y-15872214D01*
X75422860Y-15872218D01*
X75313371Y-16036079D01*
X75313364Y-16036092D01*
X75237950Y-16218160D01*
X75237947Y-16218170D01*
X75199500Y-16411456D01*
X75199500Y-16411459D01*
X75199500Y-16608541D01*
X75199500Y-16608543D01*
X75199499Y-16608543D01*
X75237947Y-16801829D01*
X75237950Y-16801839D01*
X75278072Y-16898702D01*
X75285541Y-16968171D01*
X75254266Y-17030650D01*
X75251192Y-17033835D01*
X74745489Y-17539540D01*
X74689541Y-17595487D01*
X74689535Y-17595495D01*
X74649982Y-17664004D01*
X74649979Y-17664009D01*
X74629500Y-17740439D01*
X74629500Y-23385216D01*
X74609815Y-23452255D01*
X74557011Y-23498010D01*
X74487853Y-23507954D01*
X74424297Y-23478929D01*
X74417819Y-23472897D01*
X74297785Y-23352863D01*
X74297781Y-23352860D01*
X74133920Y-23243371D01*
X74133907Y-23243364D01*
X73951839Y-23167950D01*
X73951829Y-23167947D01*
X73758543Y-23129500D01*
X73758541Y-23129500D01*
X73561459Y-23129500D01*
X73561457Y-23129500D01*
X73368170Y-23167947D01*
X73368160Y-23167950D01*
X73186092Y-23243364D01*
X73186079Y-23243371D01*
X73022218Y-23352860D01*
X73022214Y-23352863D01*
X72882863Y-23492214D01*
X72882860Y-23492218D01*
X72773371Y-23656079D01*
X72773364Y-23656092D01*
X72697950Y-23838160D01*
X72697947Y-23838170D01*
X72659500Y-24031456D01*
X72659500Y-24031459D01*
X72659500Y-24228541D01*
X72659500Y-24228543D01*
X72659499Y-24228543D01*
X72697947Y-24421829D01*
X72697950Y-24421839D01*
X72773364Y-24603907D01*
X72773371Y-24603920D01*
X72882860Y-24767781D01*
X72882863Y-24767785D01*
X73022214Y-24907136D01*
X73022218Y-24907139D01*
X73186079Y-25016628D01*
X73186092Y-25016635D01*
X73368160Y-25092049D01*
X73368165Y-25092051D01*
X73368169Y-25092051D01*
X73368170Y-25092052D01*
X73561456Y-25130500D01*
X73728985Y-25130500D01*
X73796024Y-25150185D01*
X73841779Y-25202989D01*
X73851723Y-25272147D01*
X73822698Y-25335703D01*
X73816666Y-25342181D01*
X73587666Y-25571181D01*
X73526343Y-25604666D01*
X73499985Y-25607500D01*
X65238438Y-25607500D01*
X65200224Y-25617739D01*
X65162009Y-25627979D01*
X65162004Y-25627982D01*
X65093495Y-25667535D01*
X65093487Y-25667541D01*
X64096668Y-26664360D01*
X64035345Y-26697845D01*
X63965653Y-26692861D01*
X63909720Y-26650989D01*
X63889212Y-26608770D01*
X63888021Y-26604325D01*
X63888017Y-26604318D01*
X63848464Y-26535809D01*
X63848458Y-26535801D01*
X62496819Y-25184162D01*
X62463334Y-25122839D01*
X62460500Y-25096481D01*
X62460500Y-24783904D01*
X62480185Y-24716865D01*
X62532989Y-24671110D01*
X62602147Y-24661166D01*
X62665703Y-24690191D01*
X62687601Y-24715012D01*
X62700500Y-24734316D01*
X62722862Y-24767784D01*
X62862214Y-24907136D01*
X62862218Y-24907139D01*
X63026079Y-25016628D01*
X63026092Y-25016635D01*
X63208160Y-25092049D01*
X63208165Y-25092051D01*
X63208169Y-25092051D01*
X63208170Y-25092052D01*
X63401456Y-25130500D01*
X63401459Y-25130500D01*
X63598543Y-25130500D01*
X63769564Y-25096481D01*
X63791835Y-25092051D01*
X63973914Y-25016632D01*
X64137782Y-24907139D01*
X64277139Y-24767782D01*
X64386632Y-24603914D01*
X64462051Y-24421835D01*
X64500500Y-24228543D01*
X65039499Y-24228543D01*
X65077947Y-24421829D01*
X65077950Y-24421839D01*
X65153364Y-24603907D01*
X65153371Y-24603920D01*
X65262860Y-24767781D01*
X65262863Y-24767785D01*
X65402214Y-24907136D01*
X65402218Y-24907139D01*
X65566079Y-25016628D01*
X65566092Y-25016635D01*
X65748160Y-25092049D01*
X65748165Y-25092051D01*
X65748169Y-25092051D01*
X65748170Y-25092052D01*
X65941456Y-25130500D01*
X65941459Y-25130500D01*
X66138543Y-25130500D01*
X66309564Y-25096481D01*
X66331835Y-25092051D01*
X66513914Y-25016632D01*
X66677782Y-24907139D01*
X66817139Y-24767782D01*
X66926632Y-24603914D01*
X67002051Y-24421835D01*
X67040500Y-24228543D01*
X67579499Y-24228543D01*
X67617947Y-24421829D01*
X67617950Y-24421839D01*
X67693364Y-24603907D01*
X67693371Y-24603920D01*
X67802860Y-24767781D01*
X67802863Y-24767785D01*
X67942214Y-24907136D01*
X67942218Y-24907139D01*
X68106079Y-25016628D01*
X68106092Y-25016635D01*
X68288160Y-25092049D01*
X68288165Y-25092051D01*
X68288169Y-25092051D01*
X68288170Y-25092052D01*
X68481456Y-25130500D01*
X68481459Y-25130500D01*
X68678543Y-25130500D01*
X68849564Y-25096481D01*
X68871835Y-25092051D01*
X69053914Y-25016632D01*
X69217782Y-24907139D01*
X69357139Y-24767782D01*
X69466632Y-24603914D01*
X69542051Y-24421835D01*
X69580500Y-24228543D01*
X70119499Y-24228543D01*
X70157947Y-24421829D01*
X70157950Y-24421839D01*
X70233364Y-24603907D01*
X70233371Y-24603920D01*
X70342860Y-24767781D01*
X70342863Y-24767785D01*
X70482214Y-24907136D01*
X70482218Y-24907139D01*
X70646079Y-25016628D01*
X70646092Y-25016635D01*
X70828160Y-25092049D01*
X70828165Y-25092051D01*
X70828169Y-25092051D01*
X70828170Y-25092052D01*
X71021456Y-25130500D01*
X71021459Y-25130500D01*
X71218543Y-25130500D01*
X71389564Y-25096481D01*
X71411835Y-25092051D01*
X71593914Y-25016632D01*
X71757782Y-24907139D01*
X71897139Y-24767782D01*
X72006632Y-24603914D01*
X72082051Y-24421835D01*
X72120500Y-24228541D01*
X72120500Y-24031459D01*
X72120500Y-24031456D01*
X72082052Y-23838170D01*
X72082051Y-23838169D01*
X72082051Y-23838165D01*
X72024274Y-23698678D01*
X72006635Y-23656092D01*
X72006628Y-23656079D01*
X71897139Y-23492218D01*
X71897136Y-23492214D01*
X71757785Y-23352863D01*
X71757781Y-23352860D01*
X71593920Y-23243371D01*
X71593907Y-23243364D01*
X71411839Y-23167950D01*
X71411829Y-23167947D01*
X71218543Y-23129500D01*
X71218541Y-23129500D01*
X71021459Y-23129500D01*
X71021457Y-23129500D01*
X70828170Y-23167947D01*
X70828160Y-23167950D01*
X70646092Y-23243364D01*
X70646079Y-23243371D01*
X70482218Y-23352860D01*
X70482214Y-23352863D01*
X70342863Y-23492214D01*
X70342860Y-23492218D01*
X70233371Y-23656079D01*
X70233364Y-23656092D01*
X70157950Y-23838160D01*
X70157947Y-23838170D01*
X70119500Y-24031456D01*
X70119500Y-24031459D01*
X70119500Y-24228541D01*
X70119500Y-24228543D01*
X70119499Y-24228543D01*
X69580500Y-24228543D01*
X69580500Y-24228541D01*
X69580500Y-24031459D01*
X69580500Y-24031456D01*
X69542052Y-23838170D01*
X69542051Y-23838169D01*
X69542051Y-23838165D01*
X69484274Y-23698678D01*
X69466635Y-23656092D01*
X69466628Y-23656079D01*
X69357139Y-23492218D01*
X69357136Y-23492214D01*
X69217785Y-23352863D01*
X69217781Y-23352860D01*
X69053920Y-23243371D01*
X69053907Y-23243364D01*
X68871839Y-23167950D01*
X68871829Y-23167947D01*
X68678543Y-23129500D01*
X68678541Y-23129500D01*
X68481459Y-23129500D01*
X68481457Y-23129500D01*
X68288170Y-23167947D01*
X68288160Y-23167950D01*
X68106092Y-23243364D01*
X68106079Y-23243371D01*
X67942218Y-23352860D01*
X67942214Y-23352863D01*
X67802863Y-23492214D01*
X67802860Y-23492218D01*
X67693371Y-23656079D01*
X67693364Y-23656092D01*
X67617950Y-23838160D01*
X67617947Y-23838170D01*
X67579500Y-24031456D01*
X67579500Y-24031459D01*
X67579500Y-24228541D01*
X67579500Y-24228543D01*
X67579499Y-24228543D01*
X67040500Y-24228543D01*
X67040500Y-24228541D01*
X67040500Y-24031459D01*
X67040500Y-24031456D01*
X67002052Y-23838170D01*
X67002051Y-23838169D01*
X67002051Y-23838165D01*
X66944274Y-23698678D01*
X66926635Y-23656092D01*
X66926628Y-23656079D01*
X66817139Y-23492218D01*
X66817136Y-23492214D01*
X66677785Y-23352863D01*
X66677781Y-23352860D01*
X66513920Y-23243371D01*
X66513907Y-23243364D01*
X66331839Y-23167950D01*
X66331829Y-23167947D01*
X66138543Y-23129500D01*
X66138541Y-23129500D01*
X65941459Y-23129500D01*
X65941457Y-23129500D01*
X65748170Y-23167947D01*
X65748160Y-23167950D01*
X65566092Y-23243364D01*
X65566079Y-23243371D01*
X65402218Y-23352860D01*
X65402214Y-23352863D01*
X65262863Y-23492214D01*
X65262860Y-23492218D01*
X65153371Y-23656079D01*
X65153364Y-23656092D01*
X65077950Y-23838160D01*
X65077947Y-23838170D01*
X65039500Y-24031456D01*
X65039500Y-24031459D01*
X65039500Y-24228541D01*
X65039500Y-24228543D01*
X65039499Y-24228543D01*
X64500500Y-24228543D01*
X64500500Y-24228541D01*
X64500500Y-24031459D01*
X64500500Y-24031456D01*
X64462052Y-23838170D01*
X64462051Y-23838169D01*
X64462051Y-23838165D01*
X64404274Y-23698678D01*
X64386635Y-23656092D01*
X64386628Y-23656079D01*
X64277139Y-23492218D01*
X64277136Y-23492214D01*
X64137785Y-23352863D01*
X64137781Y-23352860D01*
X63973920Y-23243371D01*
X63973907Y-23243364D01*
X63791839Y-23167950D01*
X63791829Y-23167947D01*
X63598543Y-23129500D01*
X63598541Y-23129500D01*
X63401459Y-23129500D01*
X63401457Y-23129500D01*
X63208170Y-23167947D01*
X63208160Y-23167950D01*
X63026092Y-23243364D01*
X63026079Y-23243371D01*
X62862218Y-23352860D01*
X62862214Y-23352863D01*
X62722863Y-23492214D01*
X62722860Y-23492218D01*
X62687602Y-23544986D01*
X62633990Y-23589791D01*
X62564665Y-23598498D01*
X62501637Y-23568343D01*
X62464918Y-23508900D01*
X62460500Y-23476095D01*
X62460500Y-21356676D01*
X62480185Y-21289637D01*
X62496819Y-21268995D01*
X65648995Y-18116819D01*
X65710318Y-18083334D01*
X65736676Y-18080500D01*
X67349560Y-18080500D01*
X67349562Y-18080500D01*
X67425989Y-18060021D01*
X67494511Y-18020460D01*
X67550460Y-17964511D01*
X68056165Y-17458804D01*
X68117486Y-17425321D01*
X68187177Y-17430305D01*
X68191254Y-17431909D01*
X68288165Y-17472051D01*
X68288169Y-17472051D01*
X68288170Y-17472052D01*
X68481456Y-17510500D01*
X68481459Y-17510500D01*
X68678543Y-17510500D01*
X68808582Y-17484632D01*
X68871835Y-17472051D01*
X68941534Y-17443181D01*
X68979021Y-17427654D01*
X69053907Y-17396635D01*
X69053907Y-17396634D01*
X69053914Y-17396632D01*
X69217782Y-17287139D01*
X69357139Y-17147782D01*
X69466632Y-16983914D01*
X69542051Y-16801835D01*
X69578034Y-16620937D01*
X69610419Y-16559027D01*
X69671134Y-16524453D01*
X69740904Y-16528192D01*
X69797576Y-16569059D01*
X69822124Y-16625731D01*
X69852009Y-16814417D01*
X69915244Y-17009031D01*
X70008141Y-17191350D01*
X70008147Y-17191359D01*
X70040523Y-17235921D01*
X70040524Y-17235922D01*
X70720000Y-16556446D01*
X70720000Y-16562661D01*
X70747259Y-16664394D01*
X70799920Y-16755606D01*
X70874394Y-16830080D01*
X70965606Y-16882741D01*
X71067339Y-16910000D01*
X71073553Y-16910000D01*
X70394076Y-17589474D01*
X70438650Y-17621859D01*
X70620968Y-17714755D01*
X70815582Y-17777990D01*
X71017683Y-17810000D01*
X71222317Y-17810000D01*
X71424417Y-17777990D01*
X71619031Y-17714755D01*
X71801349Y-17621859D01*
X71845921Y-17589474D01*
X71166447Y-16910000D01*
X71172661Y-16910000D01*
X71274394Y-16882741D01*
X71365606Y-16830080D01*
X71440080Y-16755606D01*
X71492741Y-16664394D01*
X71520000Y-16562661D01*
X71520000Y-16556447D01*
X72199474Y-17235921D01*
X72231859Y-17191349D01*
X72324755Y-17009031D01*
X72387990Y-16814417D01*
X72417875Y-16625731D01*
X72447804Y-16562596D01*
X72507116Y-16525665D01*
X72576978Y-16526663D01*
X72635211Y-16565273D01*
X72661965Y-16620937D01*
X72697947Y-16801829D01*
X72697950Y-16801839D01*
X72773364Y-16983907D01*
X72773371Y-16983920D01*
X72882860Y-17147781D01*
X72882863Y-17147785D01*
X73022214Y-17287136D01*
X73022218Y-17287139D01*
X73186079Y-17396628D01*
X73186092Y-17396635D01*
X73345814Y-17462793D01*
X73368165Y-17472051D01*
X73368169Y-17472051D01*
X73368170Y-17472052D01*
X73561456Y-17510500D01*
X73561459Y-17510500D01*
X73758543Y-17510500D01*
X73888582Y-17484632D01*
X73951835Y-17472051D01*
X74133914Y-17396632D01*
X74297782Y-17287139D01*
X74437139Y-17147782D01*
X74546632Y-16983914D01*
X74622051Y-16801835D01*
X74658034Y-16620938D01*
X74660500Y-16608543D01*
X74660500Y-16411456D01*
X74622052Y-16218170D01*
X74622051Y-16218169D01*
X74622051Y-16218165D01*
X74610352Y-16189920D01*
X74546635Y-16036092D01*
X74546628Y-16036079D01*
X74437139Y-15872218D01*
X74437136Y-15872214D01*
X74297785Y-15732863D01*
X74297781Y-15732860D01*
X74133920Y-15623371D01*
X74133907Y-15623364D01*
X73951839Y-15547950D01*
X73951829Y-15547947D01*
X73758543Y-15509500D01*
X73758541Y-15509500D01*
X73561459Y-15509500D01*
X73561457Y-15509500D01*
X73368171Y-15547947D01*
X73368168Y-15547948D01*
X73368166Y-15547948D01*
X73368165Y-15547949D01*
X73345814Y-15557207D01*
X73271295Y-15588073D01*
X73201826Y-15595540D01*
X73139347Y-15564265D01*
X73136163Y-15561192D01*
X72574512Y-14999541D01*
X72574504Y-14999535D01*
X72505995Y-14959982D01*
X72505990Y-14959979D01*
X72480513Y-14953152D01*
X72429562Y-14939500D01*
X65453927Y-14939500D01*
X65374803Y-14939500D01*
X65298375Y-14959978D01*
X65229854Y-14999540D01*
X65229851Y-14999542D01*
X64529541Y-15699852D01*
X64529535Y-15699860D01*
X64489982Y-15768369D01*
X64489979Y-15768374D01*
X64469499Y-15844805D01*
X64468439Y-15852862D01*
X64466585Y-15852617D01*
X64449815Y-15909730D01*
X64433181Y-15930372D01*
X63900000Y-16463553D01*
X63900000Y-16457339D01*
X63872741Y-16355606D01*
X63820080Y-16264394D01*
X63745606Y-16189920D01*
X63654394Y-16137259D01*
X63552661Y-16110000D01*
X63546446Y-16110000D01*
X64225922Y-15430524D01*
X64225921Y-15430523D01*
X64181359Y-15398147D01*
X64181350Y-15398141D01*
X63999031Y-15305244D01*
X63804417Y-15242009D01*
X63602317Y-15210000D01*
X63397683Y-15210000D01*
X63195582Y-15242009D01*
X63000968Y-15305244D01*
X62818644Y-15398143D01*
X62774077Y-15430523D01*
X62774077Y-15430524D01*
X63453554Y-16110000D01*
X63447339Y-16110000D01*
X63345606Y-16137259D01*
X63254394Y-16189920D01*
X63179920Y-16264394D01*
X63127259Y-16355606D01*
X63100000Y-16457339D01*
X63100000Y-16463553D01*
X62420524Y-15784077D01*
X62420523Y-15784077D01*
X62388143Y-15828644D01*
X62295244Y-16010968D01*
X62232009Y-16205582D01*
X62200000Y-16407682D01*
X62200000Y-16612317D01*
X62232009Y-16814417D01*
X62295244Y-17009031D01*
X62388141Y-17191350D01*
X62388147Y-17191359D01*
X62420523Y-17235921D01*
X62420524Y-17235922D01*
X63100000Y-16556446D01*
X63100000Y-16562661D01*
X63127259Y-16664394D01*
X63179920Y-16755606D01*
X63254394Y-16830080D01*
X63345606Y-16882741D01*
X63447339Y-16910000D01*
X63453553Y-16910000D01*
X62774076Y-17589474D01*
X62818650Y-17621859D01*
X63000968Y-17714755D01*
X63195582Y-17777990D01*
X63291421Y-17793169D01*
X63354556Y-17823098D01*
X63391488Y-17882409D01*
X63390490Y-17952272D01*
X63359705Y-18003323D01*
X61175489Y-20187540D01*
X61119541Y-20243487D01*
X61119535Y-20243495D01*
X61079982Y-20312004D01*
X61079979Y-20312009D01*
X61066326Y-20362962D01*
X61059500Y-20388438D01*
X57150000Y-20388438D01*
X57150000Y-14729000D01*
X57169685Y-14661961D01*
X57222489Y-14616206D01*
X57274000Y-14605000D01*
X82426000Y-14605000D01*
X82493039Y-14624685D01*
G37*
%TD.AperFunction*%
%TA.AperFunction,Conductor*%
G36*
X57355203Y-58585245D02*
G01*
X57392977Y-58644023D01*
X57395617Y-58654767D01*
X57409868Y-58726412D01*
X57409870Y-58726420D01*
X57489058Y-58917596D01*
X57604024Y-59089657D01*
X57750342Y-59235975D01*
X57922405Y-59350943D01*
X57997510Y-59382052D01*
X58087108Y-59419164D01*
X58141511Y-59463005D01*
X58163576Y-59529299D01*
X58146297Y-59596998D01*
X58095160Y-59644609D01*
X58077974Y-59651656D01*
X57901781Y-59708905D01*
X57712439Y-59805380D01*
X57658282Y-59844727D01*
X57658282Y-59844728D01*
X58290591Y-60477037D01*
X58227007Y-60494075D01*
X58112993Y-60559901D01*
X58019901Y-60652993D01*
X57954075Y-60767007D01*
X57937037Y-60830591D01*
X57304728Y-60198282D01*
X57283729Y-60199935D01*
X57215352Y-60185571D01*
X57165595Y-60136520D01*
X57150000Y-60076317D01*
X57150000Y-58678958D01*
X57169685Y-58611919D01*
X57222489Y-58566164D01*
X57291647Y-58556220D01*
X57355203Y-58585245D01*
G37*
%TD.AperFunction*%
%TD*%
M02*
